<?xml version="1.0" encoding="utf-8"?>
<!-- Generator: Adobe Illustrator 16.0.0, SVG Export Plug-In . SVG Version: 6.00 Build 0)  -->
<!DOCTYPE svg PUBLIC "-//W3C//DTD SVG 1.1//EN" "http://www.w3.org/Graphics/SVG/1.1/DTD/svg11.dtd">
<svg version="1.1" id="Layer_1" xmlns="http://www.w3.org/2000/svg" xmlns:xlink="http://www.w3.org/1999/xlink" x="0px" y="0px"
	 width="118.75px" height="117.5px" viewBox="4.75 4.75 118.75 117.5" enable-background="new 4.75 4.75 118.75 117.5"
	 xml:space="preserve">
<g transform="translate(0.000000,128.000000) scale(0.100000,-0.100000)">
	<path fill="#CEA141" d="M578.999,1177.998c-23.999-16.997-61.997-46.997-82.998-65.996c-28.999-26.001-41.001-32.002-43.999-21.001
		c-3.003,7.998-14.004,23.999-25,36.997c-20,21.001-26.001,22.002-107.002,16.001c-47.002-2.998-95-12.998-107.998-21.001
		c-23.003-13.999-23.003-18.999-21.001-123.999L193.999,890l-40-28.999c-21.001-15-51.997-42.002-66.997-58.003l-28.003-30.996
		l10-77.002C75,652.998,80,617.002,80,615s17.002-5,37.002-7.002L153.999,605L155,352.998C156.001,185,160,95.996,167.002,89.004
		c5.996-6.006,20.996-9.004,33.999-7.002L225,85v245c0,135-2.002,267.998-5,295c-5,47.998-6.001,50-40,55c-32.998,5-35,7.002-35,45
		c0,36.001,5,42.998,60,87.002l60,48.999L261.001,965l-3.003,105h30c16.001,0,43.003,2.998,60,6.001l31.001,6.001l3.003-70l2.998-70
		l115,90c154.004,120,147.002,117.998,205.996,73.999c27.002-20,63.008-48.999,79.004-65C802.002,1025,845,990,880,963.999
		c35.996-25,92.002-71.997,125-102.998c70.996-67.002,120-103.003,129.004-93.999c7.998,7.998,7.998-25,0-54.004
		c-5-18.999-13.008-22.998-45-22.998c-38.008,0-39.004-1.001-39.004-37.998c0-21.006,5-42.998,12.002-50
		c8.994-9.004,8.994-12.002,0-12.002c-10,0-12.002-57.998-9.004-252.002c5-273.994,2.002-260.996,55-242.998
		c17.002,5.996,15,335-2.002,335c-5.996,0-5,5,2.002,12.002S1120,485.996,1120,537.998v84.004l37.998-4.004L1195,615l5.996,72.002
		c4.004,38.999,9.004,75.996,13.008,80.996c2.998,5-22.002,29.004-57.002,53.003c-34.004,23.999-97.002,76.001-140,116.997
		c-42.998,40-97.002,85-120,99.004c-22.998,13.999-46.006,31.997-50,40c-5,7.998-45,40.996-89.004,73.999
		C665,1220,642.002,1222.998,578.999,1177.998z"/>
	<path fill="#CEA141" d="M398.999,692.998c-3.999-27.998-5-582.002-1.001-595.996c3.003-12.998,12.002-17.002,31.001-15L455,85
		l5,135l5,135l167.998-2.002c92.998-0.996,172.002-3.994,175-7.998c4.004-4.004,6.006-65,5-135.996L812.002,80H840
		c15.996,0,32.002,5,35.996,10.996c4.004,7.002,7.002,145,7.002,308.008V695l-30,2.998c-27.998,3.003-30.996,1.001-35-35
		C815,642.002,814.004,579.004,815,524.004l0.996-102.002L690,420.996c-68.999-0.996-147.998,2.002-177.002,5
		c-50.996,6.006-51.997,7.002-45.996,35C470,477.002,468.999,537.002,465,595l-7.002,105h-28.999
		C412.998,700,400,697.002,398.999,692.998z"/>
</g>
</svg>
