<?xml version="1.0" encoding="utf-8"?>
<!-- Generator: Adobe Illustrator 16.0.0, SVG Export Plug-In . SVG Version: 6.00 Build 0)  -->
<!DOCTYPE svg PUBLIC "-//W3C//DTD SVG 1.1//EN" "http://www.w3.org/Graphics/SVG/1.1/DTD/svg11.dtd">
<svg version="1.1" id="Layer_1" xmlns="http://www.w3.org/2000/svg" xmlns:xlink="http://www.w3.org/1999/xlink" x="0px" y="0px"
	 width="512px" height="512px" viewBox="0 0 512 512" enable-background="new 0 0 512 512" xml:space="preserve">
<g transform="translate(0.000000,512.000000) scale(0.100000,-0.100000)">
	<path fill="#108690" d="M2330,5110c-493.999-47.998-950-230-1350-537.998C785,4422.001,532.002,4140,386.001,3910
		c-63.003-98.999-186.001-351.001-230-471.001C107.002,3305,53.999,3098.999,27.998,2940c-30.996-195-30.996-565,0-760
		c45-275.996,116.001-497.998,237.002-745c132.002-269.004,268.999-460,488.999-680.996C975,534.004,1166.001,397.002,1435,265
		c247.002-120.996,468.999-192.002,745-237.002c195-30.996,565-30.996,760,0c275.996,45,497.998,116.006,745,237.002
		c269.004,132.002,460,269.004,680.996,489.004C4585.996,975,4722.998,1165.996,4855,1435
		c87.998,179.004,132.002,295.996,180,475.996c62.998,240,77.998,371.006,77.998,649.004s-15,408.999-77.998,648.999
		c-47.998,180-92.002,297.002-180,476.001c-132.002,268.999-269.004,460-489.004,681.001C4145,4586,3954.003,4722.998,3685,4855
		c-245.996,121.001-474.004,192.998-740,235C2797.998,5112.998,2470,5123.999,2330,5110z M2797.998,4708.999
		c487.998-52.998,934.004-270,1287.998-622.998C4500.996,3671,4720,3142.998,4720,2560s-219.004-1110.996-634.004-1525.996
		S3142.998,400,2560,400s-1111.001,219.004-1526.001,634.004S400,1977.002,400,2560S618.999,3671,1033.999,4086
		C1382.998,4435,1833.999,4655,2310,4708.999C2420,4721,2685.996,4722.001,2797.998,4708.999z"/>
	<path fill="#108690" d="M2473.999,3911c-47.998-22.002-86.997-70-103.999-126.001c-7.998-28.999-10-215-7.998-665
		c2.998-609.004,3.999-625.996,23.999-665c16.001-32.002,96.001-97.998,419.995-342.998C3025,1945,3225,1797.002,3250,1782.002
		c167.002-100,364.004,78.994,280,252.998c-20,42.002-60.996,75-395.996,327.002l-374.004,280V3200
		c0,390-2.998,567.002-10.996,591.001C2720,3876,2647.002,3930,2560,3930C2535,3930,2496.001,3921,2473.999,3911z"/>
</g>
</svg>
