<?xml version="1.0" encoding="utf-8"?>
<!-- Generator: Adobe Illustrator 16.0.0, SVG Export Plug-In . SVG Version: 6.00 Build 0)  -->
<!DOCTYPE svg PUBLIC "-//W3C//DTD SVG 1.1//EN" "http://www.w3.org/Graphics/SVG/1.1/DTD/svg11.dtd">
<svg version="1.1" id="Layer_1" xmlns="http://www.w3.org/2000/svg" xmlns:xlink="http://www.w3.org/1999/xlink" x="0px" y="0px"
	 width="469px" height="512px" viewBox="21.5 0 469 512" enable-background="new 21.5 0 469 512" xml:space="preserve">
<g transform="translate(0.000000,512.000000) scale(0.100000,-0.100000)">
	<path fill="#108690" d="M2430,5111.962c-317.998-41.001-572.998-161.001-792.998-372.998
		c-487.002-468.999-539.004-1230-121.001-1767.002C1917.002,2455.967,2650.996,2309.97,3215,2634.966
		c497.998,286.997,755,845,649.004,1405.996c-99.004,519.004-517.002,941.001-1037.002,1048.003
		C2727.998,5108.964,2508.999,5121.962,2430,5111.962z"/>
	<path fill="#108690" d="M1490,2347.969c-442.998-77.998-848.999-352.998-1102.002-745.996C335,1518.965,270,1377.969,270,1344.971
		c0-66.006,190-334.004,370-521.006c438.999-456.992,981.001-728.994,1605-806.992c130-17.002,492.002-16.006,620,0
		c505.996,65,955.996,253.994,1345,565c120.996,95.996,357.998,340.996,452.002,465.996c105,140.996,187.998,275,187.998,305.996
		c0,30-55.996,153.008-105,229.004c-170.996,267.002-409.004,485-675.996,617.998c-195,97.002-438.008,164.004-561.006,155
		c-42.002-2.998-70-12.998-110-37.998c-143.994-90.996-190-115.996-270-150.996c-198.994-87.002-402.002-125-617.998-116.006
		c-276.001,11.006-507.998,85-738.999,237.002c-50,32.998-103.003,62.002-118.003,65.996c-15.996,3.008-35,7.002-42.998,9.004
		S1547.998,2357.969,1490,2347.969z"/>
</g>
</svg>
