<?xml version="1.0" encoding="utf-8"?>
<!-- Generator: Adobe Illustrator 16.0.0, SVG Export Plug-In . SVG Version: 6.00 Build 0)  -->
<!DOCTYPE svg PUBLIC "-//W3C//DTD SVG 1.1//EN" "http://www.w3.org/Graphics/SVG/1.1/DTD/svg11.dtd">
<svg version="1.1" id="Capa_1" xmlns="http://www.w3.org/2000/svg" xmlns:xlink="http://www.w3.org/1999/xlink" x="0px" y="0px"
	 width="45px" height="45px" viewBox="0 0 45 45" enable-background="new 0 0 45 45" xml:space="preserve">
<g>
	<g>
		<path fill="#373E43" d="M36.277,31.293l-6.842-2.281c-0.162-0.055-0.334-0.083-0.508-0.083H16.071
			c-0.172,0-0.344,0.028-0.508,0.083l-6.841,2.281C3.51,33.023-0.005,37.9,0,43.393C0,44.28,0.72,45,1.607,45h41.786
			C44.28,45,45,44.28,45,43.393C45.005,37.9,41.49,33.023,36.277,31.293z"/>
	</g>
</g>
<g>
	<g>
		<path fill="#373E43" d="M22.5,0c-5.326,0-9.643,4.317-9.643,9.643v6.428c0.005,5.324,4.32,9.638,9.643,9.644
			c5.323-0.006,9.639-4.32,9.643-9.644V9.643C32.143,4.317,27.826,0,22.5,0z"/>
	</g>
</g>
</svg>
