<?xml version="1.0" encoding="utf-8"?>
<!-- Generator: Adobe Illustrator 16.0.0, SVG Export Plug-In . SVG Version: 6.00 Build 0)  -->
<!DOCTYPE svg PUBLIC "-//W3C//DTD SVG 1.1//EN" "http://www.w3.org/Graphics/SVG/1.1/DTD/svg11.dtd">
<svg version="1.1" id="Layer_1" xmlns="http://www.w3.org/2000/svg" xmlns:xlink="http://www.w3.org/1999/xlink" x="0px" y="0px"
	 width="512px" height="467.078px" viewBox="0 22.347 512 467.078" enable-background="new 0 22.347 512 467.078"
	 xml:space="preserve">
<g transform="translate(0.000000,512.000000) scale(0.100000,-0.100000)">
	<path fill="#4D4D4D" d="M90,4892.998C50,4880,30,4863.999,15,4835C2.002,4806,0,4681,0,3785C0,2902.001,2.002,2763.999,15,2736
		c7.998-17.002,572.002-588.003,1252.002-1266.997c915-914.004,1245-1238.008,1265.996-1241.006c15-2.998,39.004-2.998,55,0
		c20,2.998,350,327.002,1265,1241.006C4532.998,2147.998,5097.001,2718.999,5105,2736c12.998,27.998,15,166.001,15,1053.999
		c0,945-0.996,1023.999-17.002,1051.001c-22.998,37.998-75,61.997-115.996,53.999c-26.006-6.001-271.006-246.001-1229.004-1202.998
		L2560,2495L1362.002,3692.998C703.999,4351,157.002,4890,147.998,4890c-8.999,0-21.997,2.002-30,3.999
		C111.001,4897.001,97.998,4896,90,4892.998z"/>
</g>
</svg>
