<?xml version="1.0" encoding="utf-8"?>
<!-- Generator: Adobe Illustrator 16.0.0, SVG Export Plug-In . SVG Version: 6.00 Build 0)  -->
<!DOCTYPE svg PUBLIC "-//W3C//DTD SVG 1.1//EN" "http://www.w3.org/Graphics/SVG/1.1/DTD/svg11.dtd">
<svg version="1.1" id="Layer_1" xmlns="http://www.w3.org/2000/svg" xmlns:xlink="http://www.w3.org/1999/xlink" x="0px" y="0px"
	 width="36px" height="33px" viewBox="0 0 36 33" enable-background="new 0 0 36 33" xml:space="preserve">
<path fill="none" stroke="#FFFFFF" stroke-width="1.5" stroke-miterlimit="10" d="M7.667,24h26.667 M13,26.666V32 M18.333,26.666V32
	 M23.666,26.666V32 M29,26.666V32 M2.333,9.333V32H5 M14.333,9.333v5.333 M21,9.333v5.333 M34.334,24l-4-6.666H11.667l-4,6.666v8
	h26.667V24z"/>
<path fill="#FFFFFF" d="M17,12h1.333v2.667H17V12z M5,12h1.333v2.667H5V12z M5,17.334h1.333V20H5V17.334z"/>
<path fill="none" stroke="#FFFFFF" stroke-width="1.5" stroke-miterlimit="10" d="M5.677,2.667c1.932,0,4.656,1.672,4.656,4
	S9,9.333,9,9.333H2.333c0,0-1.333-0.339-1.333-2.667S3.74,2.667,5.677,2.667z"/>
<path fill="#FFFFFF" d="M9.766,15.313l0.391-0.646l0.177-0.294V9.333H8.667v4.742v2.742L9.766,15.313z M5.667,0
	C5.297,0,5,0.297,5,0.667c0,0.37,0.297,0.667,0.667,0.667c0.37,0,0.667-0.297,0.667-0.667C6.333,0.297,6.037,0,5.667,0z"/>
<path fill="none" stroke="#FFFFFF" stroke-width="1.5" stroke-miterlimit="10" d="M17.677,2.667c1.932,0,4.657,1.672,4.657,4
	S21,9.333,21,9.333h-6.667c0,0-1.333-0.339-1.333-2.667S15.74,2.667,17.677,2.667z"/>
<path fill="#FFFFFF" d="M17.667,0C17.297,0,17,0.297,17,0.667c0,0.37,0.297,0.667,0.667,0.667c0.37,0,0.667-0.297,0.667-0.667
	C18.333,0.297,18.037,0,17.667,0z"/>
</svg>
