<?xml version="1.0" encoding="utf-8"?>
<!-- Generator: Adobe Illustrator 16.0.0, SVG Export Plug-In . SVG Version: 6.00 Build 0)  -->
<!DOCTYPE svg PUBLIC "-//W3C//DTD SVG 1.1//EN" "http://www.w3.org/Graphics/SVG/1.1/DTD/svg11.dtd">
<svg version="1.1" id="Layer_1" xmlns="http://www.w3.org/2000/svg" xmlns:xlink="http://www.w3.org/1999/xlink" x="0px" y="0px"
	 width="512px" height="512px" viewBox="0 0 512 512" enable-background="new 0 0 512 512" xml:space="preserve">
<g transform="translate(0.000000,512.000000) scale(0.100000,-0.100000)">
	<path fill="#373E43" d="M1057.001,4256c-114.004-47.002-174.004-103.999-225-213.003L805,3985l-2.998-372.002L798.999,3240h-91.997
		c-120,0-200-20-317.002-77.002C311,3123.999,280,3101,208.999,3031c-70-71.001-92.998-102.002-131.997-181.001
		C-1.001,2691.001,0,2706.001,0,2012.998V1400h80h80v-280V840h200h200v280v280h2000h2000v-280V840h200h200v280v280h80h80v612.998
		c0,693.003,0.996,678.003-77.002,837.001c-38.994,78.999-62.002,110-132.002,181.001c-140,138.999-305,208.999-497.998,208.999
		h-92.002l-2.998,372.998L4315,3985l-32.002,67.002c-40,85-105.996,150.996-190.996,190.996L4025,4275l-1455,2.002L1115,4280
		L1057.001,4256z M4010,4093.999c57.002-26.997,97.002-66.997,124.004-123.999c20-42.998,20.996-63.999,23.994-387.002
		l2.998-342.998h-120H3920v192.998c0,215-7.002,243.003-70.996,304.004c-67.002,62.998-65,62.998-531.006,62.998
		c-472.002,0-467.002,0-535-71.001C2725.996,3667.998,2720,3641,2720,3430v-190h-160h-160v190
		c0,211.001-6.001,237.998-62.998,298.999c-68.003,71.001-63.003,71.001-535,71.001c-466.001,0-464.004,0-531.001-62.998
		C1207.001,3676,1200,3647.998,1200,3432.998V3240h-121.001h-120l3.003,342.998C965,3906,966,3927.001,986,3970
		c36.001,77.002,95,122.998,176.997,140c23.003,3.999,663.003,7.002,1422.002,7.002L3965,4115L4010,4093.999z M2183.999,3626
		c48.003-20,56.001-53.999,56.001-232.002V3240h-440h-440v153.999C1360,3570,1367.998,3606,1413.999,3626S2136,3646,2183.999,3626z
		 M3704.003,3626c47.998-20,55.996-53.999,55.996-232.002V3240h-440h-440v153.999C2880,3570,2887.998,3606,2934.003,3626
		C2980,3646,3655.996,3646,3704.003,3626z M4445.996,3071c107.002-13.003,184.004-41.001,268.008-98.003
		c75-50.996,141.992-127.998,181.992-208.999c48.008-98.999,55-143.999,61.006-401l5.996-242.998H2560H157.002l5.996,242.998
		c6.001,257.002,13.003,302.002,61.001,401C306,2930,473.999,3047.998,660,3070C755,3081,4349.003,3082.001,4445.996,3071z
		 M4960,1760v-200H2560H160v200v200h2400h2400V1760z M400,1200v-200h-40h-40v200v200h40h40V1200z M4800,1200v-200h-40h-40v200v200
		h40h40V1200z"/>
</g>
</svg>
