<?xml version="1.0" encoding="utf-8"?>
<!-- Generator: Adobe Illustrator 16.0.0, SVG Export Plug-In . SVG Version: 6.00 Build 0)  -->
<!DOCTYPE svg PUBLIC "-//W3C//DTD SVG 1.1//EN" "http://www.w3.org/Graphics/SVG/1.1/DTD/svg11.dtd">
<svg version="1.1" id="Layer_1" xmlns="http://www.w3.org/2000/svg" xmlns:xlink="http://www.w3.org/1999/xlink" x="0px" y="0px"
	 width="479.238px" height="420px" viewBox="16.163 43.5 479.238 420" enable-background="new 16.163 43.5 479.238 420"
	 xml:space="preserve">
<g transform="translate(0.000000,512.000000) scale(0.100000,-0.100000)">
	<path fill="#FFFFFF" d="M2556.001,4620.581c-3.003-24.004-15-117.002-26.001-207.998
		c-41.001-327.002-87.002-584.004-127.002-692.002c-48.999-139.004-200-373.003-520-811.001L1760,2741.577v-958.989V824.59
		l197.998-66.006c108.003-35.996,226.001-70.996,262.002-77.998c51.001-10,295-12.998,1125-12.998h1060l52.002,27.002
		c67.002,35.996,115.996,85,150,150.996c22.998,45,27.002,64.004,27.002,137.002c0,70-4.004,92.998-23.008,130
		c-31.992,60.996-73.994,112.998-105,130C4490,1250.586,4480,1264.59,4480,1278.584c0,18.008,7.002,23.008,47.002,29.004
		c100,15,190,82.002,240,177.998c22.998,45,27.002,64.004,27.002,137.002s-4.004,92.002-27.002,137.998
		c-26.006,50-99.004,132.002-117.998,132.002c-5,0-9.004,10.996-9.004,24.004c0,20.996,5.996,25,47.002,30.996
		c100,15,190,82.002,240,177.998c22.998,45,27.002,64.004,27.002,137.002s-4.004,92.002-27.002,137.002
		c-15,28.994-42.998,67.998-62.002,87.998c-39.004,39.004-122.998,84.99-155,84.99c-10.996,0-20,5-20,10c0,6.001,9.004,10,20,10
		c32.002,0,115.996,46.001,155,85c19.004,20,47.002,58.999,62.002,87.998c22.998,45,27.002,64.004,27.002,137.002
		s-4.004,92.002-27.002,137.002c-34.004,65.996-82.998,115-150,150.996L4725,3217.578l-844.004,2.998l-842.998,3.003l7.002,56.997
		c10.996,93.003,72.002,393.003,120.996,597.007c25,105,48.008,225.996,51.006,270C3235,4414.584,3055,4590.581,2705,4647.583
		C2565,4670.581,2562.002,4670.581,2556.001,4620.581z M3287.998,2875.576c42.002-30.996,64.004-67.998,69.004-115.996
		c5-44.004,7.998-47.002,62.002-73.003c76.992-37.998,172.998-135.991,210.996-214.985c95.996-203.008,47.002-364.004-110-364.004
		c-94.004,0-145,50-160,155s-65.996,155-160,155c-62.998,0-95-15.996-134.004-69.004c-28.994-38.994-28.994-132.998,0-171.992
		c39.004-52.002,67.002-66.006,157.002-75c139.004-14.004,237.002-60,324.004-151.006c142.002-150.996,172.002-362.998,77.002-550
		c-35-68.994-135-167.998-205-202.002c-54.004-25.996-57.002-28.994-62.002-72.998c-5-48.994-27.002-85-71.006-117.002
		c-38.994-28.994-132.998-28.994-171.992,0c-44.004,32.002-66.006,68.008-71.006,117.002c-5,44.004-7.998,47.002-62.002,72.998
		c-76.992,38.008-172.998,136.006-210.996,215c-95.996,203.008-47.002,364.004,110,364.004c94.004,0,145-50,160-155
		s65.996-155,160-155c62.998,0,95,15.996,134.004,69.004c28.994,38.994,28.994,132.998,0,171.992
		c-39.004,52.002-67.002,66.006-157.002,75c-139.004,14.004-237.002,60-324.004,151.006
		c-142.002,150.996-172.002,362.998-77.002,550c35,70,135,167.988,207.002,201.987c49.004,25,57.002,32.002,57.002,57.002
		c0,60,39.004,118.999,95,145C3175,2907.578,3254.004,2900.576,3287.998,2875.576z"/>
	<path fill="#FFFFFF" d="M255,2888.579c-41.001-18.003-82.998-68.999-90-108.999c-2.998-18.003-3.999-513.994-2.998-1103.994
		C165,611.592,165,603.584,186.001,576.592c11.001-15,32.998-37.002,47.998-48.008c27.002-20.996,38.003-20.996,566.001-20.996
		s538.999,0,566.001,20.996c15,11.006,36.997,33.008,47.998,48.008C1435,603.584,1435,608.584,1435,1702.588
		c0,1093.989,0,1098.989-21.001,1125.991c-11.001,15-32.998,36.997-47.998,47.998c-27.002,21.001-40,21.001-553.999,23.003
		C388.999,2901.577,278.999,2899.58,255,2888.579z"/>
</g>
</svg>
