<?xml version="1.0" encoding="utf-8"?>
<!-- Generator: Adobe Illustrator 16.0.0, SVG Export Plug-In . SVG Version: 6.00 Build 0)  -->
<!DOCTYPE svg PUBLIC "-//W3C//DTD SVG 1.1//EN" "http://www.w3.org/Graphics/SVG/1.1/DTD/svg11.dtd">
<svg version="1.1" id="Layer_1" xmlns="http://www.w3.org/2000/svg" xmlns:xlink="http://www.w3.org/1999/xlink" x="0px" y="0px"
	 width="512px" height="512px" viewBox="0 0 512 512" enable-background="new 0 0 512 512" xml:space="preserve">
<g transform="translate(0.000000,512.000000) scale(0.100000,-0.100000)">
	<path fill="#CEA241" d="M2315,5108.999C1515,5026,813.999,4591,387.998,3912.998c-486.997-773.999-515.996-1777.002-75-2577.998
		c200-364.004,487.002-675.996,841.001-912.998c238.003-159.004,600-311.006,876.001-366.006C2243.999,12.998,2325,5,2560,5
		c235.996,0,332.998,10,532.002,50.996c880,184.004,1615,842.002,1897.998,1702.002c92.002,277.998,125,491.006,125,802.002
		c0,301.001-32.002,512.998-115.996,775c-124.004,390-330,727.998-622.002,1023.999C3977.998,4762.998,3484.004,5012.001,2915,5096
		C2792.002,5113.999,2437.002,5122.001,2315,5108.999z M3627.002,3625c35-35,35-35,30.996-112.998
		c-8.994-168.003-127.002-360-382.002-620l-170-173.003l68.008-501.997c37.998-276.006,70.996-519.004,72.998-539.004
		c5-35.996,2.002-40.996-82.998-127.998c-140-144.004-116.006-170-310,330c-89.004,227.998-165,414.004-170,412.002
		s-105-96.006-221.006-209.004l-212.998-205V1745v-134.004l-85-75c-83.999-73.994-123.999-92.998-141.001-63.994
		c-3.999,5.996-31.001,105-60,220.996c-28.999,115-56.001,212.998-61.001,217.002c-3.999,4.004-101.997,30.996-217.998,59.004
		c-212.998,51.992-241.001,63.994-227.002,100.996c4.004,10.996,50,55,101.001,100l95,80h107.002c98.999,0,110,2.002,136.001,24.004
		c15.996,12.998,112.998,111.992,215.996,218.994l186.001,194.004L1892.002,2846c-224.004,86.997-414.004,166.997-424.004,176.001
		c-8.999,8.999-13.999,25-10.996,35.996c5.996,25,175.996,192.002,193.999,192.002c7.998-1.001,251.001-32.998,540-72.998
		l526.997-73.003L2875.996,3260c176.006,172.998,278.008,253.999,402.002,318.999c116.006,60,177.002,78.999,251.006,80
		C3587.998,3660,3594.004,3657.998,3627.002,3625z"/>
</g>
</svg>
