<?xml version="1.0" encoding="utf-8"?>
<!-- Generator: Adobe Illustrator 16.0.0, SVG Export Plug-In . SVG Version: 6.00 Build 0)  -->
<!DOCTYPE svg PUBLIC "-//W3C//DTD SVG 1.1//EN" "http://www.w3.org/Graphics/SVG/1.1/DTD/svg11.dtd">
<svg version="1.1" id="Layer_1" xmlns="http://www.w3.org/2000/svg" xmlns:xlink="http://www.w3.org/1999/xlink" x="0px" y="0px"
	 width="512px" height="512px" viewBox="0 0 512 512" enable-background="new 0 0 512 512" xml:space="preserve">
<g transform="translate(0.000000,512.000000) scale(0.100000,-0.100000)">
	<path fill="#F25000" d="M2335,5110c-327.998-30-604.004-108.999-900-255C1152.002,4715,940,4561,724.004,4337.001
		C529.004,4136,390,3938.999,265.996,3688.999C75.996,3307.001-12.002,2901,2.998,2475c15-395.996,105-742.002,286.006-1090
		C487.998,1000,790,665,1155,422.002c132.998-89.004,390.996-217.998,540-271.006C2182.998-22.002,2685-45.996,3185,80
		c190.996,47.998,312.002,92.998,500,185c269.004,132.002,460,269.004,680.996,489.004c217.002,217.998,355,407.998,488.008,676.992
		c190,382.002,277.998,788.008,262.998,1214.004c-14.004,370-92.998,693.999-251.006,1020
		C4732.001,3942.998,4590,4141,4365.996,4366c-210.996,210-410,356.001-655,477.998c-307.998,155-590,233.999-960.996,268.999
		C2667.998,5121,2437.002,5118.999,2335,5110z M2764.004,4470c282.998-32.998,592.998-142.002,822.998-292.002L3670,4125
		L2332.998,2787.998L995.996,1450.996l-53.994,82.002c-280,427.998-371.006,994.004-242.002,1500
		c94.004,365,310.996,721.001,587.998,963.003C1565.996,4238.999,1882.998,4390,2255,4455
		C2362.002,4473.999,2652.998,4482.001,2764.004,4470z M1450.996,995.996l1337.002,1337.002L4125,3670l50-77.002
		c117.002-178.999,220.996-432.998,264.004-645c130.996-633.994-66.006-1287.002-523.008-1743.994
		C3332.998,624.004,2464.004,477.002,1725,835c-60.996,29.004-147.002,77.002-192.002,107.002L1450.996,995.996z"/>
</g>
</svg>
