<?xml version="1.0" encoding="utf-8"?>
<!-- Generator: Adobe Illustrator 16.0.0, SVG Export Plug-In . SVG Version: 6.00 Build 0)  -->
<!DOCTYPE svg PUBLIC "-//W3C//DTD SVG 1.1//EN" "http://www.w3.org/Graphics/SVG/1.1/DTD/svg11.dtd">
<svg version="1.1" id="Layer_1" xmlns="http://www.w3.org/2000/svg" xmlns:xlink="http://www.w3.org/1999/xlink" x="0px" y="0px"
	 width="512px" height="512px" viewBox="0 0 512 512" enable-background="new 0 0 512 512" xml:space="preserve">
<g transform="translate(0.000000,512.000000) scale(0.100000,-0.100000)">
	<path fill="#FFFFFF" d="M162.002,4900C105,4887.001,53.999,4845,26.001,4788.999C-17.998,4700-5,4613.999,62.998,4546
		C123.999,4486,153.999,4480,405,4480c237.002,0,267.002-6.001,303.999-58.999c10-13.999,183.003-521.001,385-1126.001
		C1521,2010.996,1490,2149.004,1418.999,1867.998C1355,1614.004,1362.998,1490,1455,1335
		c70-117.998,218.999-227.998,347.002-254.004c36.997-7.998,458.999-10,1403.994-8.994L4557.001,1075l38.994,27.002
		c21.006,15,50,43.994,64.004,65c20.996,30.996,25,47.998,25,112.998c0,67.002-2.998,80.996-27.002,115.996
		c-15,21.006-43.994,50-65,64.004l-37.002,25l-1340,5C1757.998,1495,1851,1490.996,1816,1550.996
		c-22.002,37.002-20,63.008,10,182.002c28.999,115,41.001,140,86.997,167.002c31.001,19.004,60,20,1206.006,20
		c900,0,1182.998,2.998,1215,12.002c22.998,7.002,58.994,30,81.992,53.994c41.006,40,45,53.008,338.008,930.004
		C4917.001,3405,5050,3817.998,5050,3833.999c0,80-54.004,165-124.004,197.002c-38.994,17.998-110,18.999-1785.996,18.999
		c-1152.998,0-1757.002,3.999-1782.002,10c-70.996,20-86.997,51.001-203.999,405C1057.001,4756,1041,4797.001,1007.001,4836
		C945,4907.001,922.998,4910,531,4908.999C346,4907.998,180,4903.999,162.002,4900z"/>
	<path fill="#FFFFFF" d="M1570,830c-165-60.996-272.998-200-287.002-370.996C1262.001,205,1485-17.998,1738.999,2.998
		C1915,17.998,2061,135,2113.999,305c28.003,87.998,18.999,210.996-21.001,297.002c-43.999,92.998-108.999,160-200.996,205
		c-68.003,33.994-83.003,37.998-171.001,40C1643.999,850,1613.999,845.996,1570,830z"/>
	<path fill="#FFFFFF" d="M4130,830c-165-60.996-272.998-200-287.002-370.996C3822.001,205,4045-17.998,4299.003,2.998
		C4475,17.998,4620.996,135,4674.003,305c27.998,87.998,18.994,210.996-21.006,297.002c-43.994,92.998-108.994,160-200.996,205
		c-67.998,33.994-82.998,37.998-171.006,40C4204.003,850,4174.003,845.996,4130,830z"/>
</g>
</svg>
