<?xml version="1.0" encoding="utf-8"?>
<!-- Generator: Adobe Illustrator 16.0.0, SVG Export Plug-In . SVG Version: 6.00 Build 0)  -->
<!DOCTYPE svg PUBLIC "-//W3C//DTD SVG 1.1//EN" "http://www.w3.org/Graphics/SVG/1.1/DTD/svg11.dtd">
<svg version="1.1" id="Layer_1" xmlns="http://www.w3.org/2000/svg" xmlns:xlink="http://www.w3.org/1999/xlink" x="0px" y="0px"
	 width="512px" height="512px" viewBox="0 0 512 512" enable-background="new 0 0 512 512" xml:space="preserve">
<g transform="translate(0.000000,512.000000) scale(0.100000,-0.100000)">
	<path fill="#FFFFFF" d="M4605,4386.001c-105-33.003-109.004-36.001-1445-1372.002L1845,1700l-595,595
		c-552.998,551.001-600,596.001-662.002,625c-158.999,73.999-327.998,51.001-453.999-62.998c-100-90-148.999-234.004-125-364.004
		c25-133.994,8.999-117.002,838.999-943.994C1573.999,825,1618.999,782.002,1680,755c77.998-34.004,185-44.004,257.002-25
		c121.997,32.998,70-15.996,1628.994,1542.998C5180,3888.999,5087.998,3790,5112.998,3932.998
		c34.004,199.004-90.996,392.002-292.002,453.003C4765,4402.998,4659.003,4402.998,4605,4386.001z"/>
</g>
</svg>
