<?xml version="1.0" encoding="utf-8"?>
<!-- Generator: Adobe Illustrator 16.0.0, SVG Export Plug-In . SVG Version: 6.00 Build 0)  -->
<!DOCTYPE svg PUBLIC "-//W3C//DTD SVG 1.1//EN" "http://www.w3.org/Graphics/SVG/1.1/DTD/svg11.dtd">
<svg version="1.1" id="Layer_1" xmlns="http://www.w3.org/2000/svg" xmlns:xlink="http://www.w3.org/1999/xlink" x="0px" y="0px"
	 width="397.806px" height="479.955px" viewBox="57.194 16.125 397.806 479.955"
	 enable-background="new 57.194 16.125 397.806 479.955" xml:space="preserve">
<g transform="translate(0.000000,512.000000) scale(0.100000,-0.100000)">
	<path fill="#6D6D6D" d="M2083.999,4937.001C2020,4906,1972.998,4851,1946.001,4775C1910,4673.999,1837.998,4646,1742.002,4693.999
		c-69.004,35-121.001,41.001-187.002,21.001c-107.002-31.001-175-121.001-175-231.001c1.001-91.997,25-131.997,167.002-276.001
		L1673.999,4080H2180h505.996l136.006,137.998c125,126.001,137.002,142.002,152.998,196.001c40.996,140-40,277.002-182.002,306.001
		c-62.002,12.998-117.002,3.999-180.996-30c-83.003-45-170-5-193.003,86.001C2382.002,4920,2216.001,5000,2083.999,4937.001z"/>
	<path fill="#6D6D6D" d="M1571.001,3906c-52.002-18.999-111.001-75-133.999-125c-52.002-118.999,0-258.003,117.998-312.002
		c37.002-16.997,78.999-18.999,627.998-18.999c641.006,0,620-2.002,689.004,58.999c115,101.001,97.002,293.003-36.006,376.001
		l-48.994,30l-591.001,2.002C1750,3917.998,1597.002,3916,1571.001,3906z"/>
	<path fill="#6D6D6D" d="M1446.001,3190c-237.002-270-401.001-477.002-538.999-682.002
		C672.998,2159.004,586.001,1929.004,572.998,1620C547.998,1012.002,967.002,455.996,1610,245.996
		c418.999-136.992,931.001-110,1322.002,68.008c85.996,38.994,237.002,126.992,272.002,158.994l25,22.002l-175,205
		c-97.002,112.998-193.008,227.998-215,255.996c-69.004,90-70,194.004-1.006,274.004c56.006,65.996,96.006,80,235,80H3190v780.996
		v782.002l-102.002,121.001C3032.002,3061.001,2950,3156.001,2905.996,3205L2825,3295h-642.998h-644.004L1446.001,3190z
		 M2237.998,2663.999c18.003-20,22.002-36.997,22.002-87.998c0-66.001,6.001-76.001,50-76.001c10,0,53.999-17.998,97.998-40
		c92.002-45.996,165-117.998,207.002-204.004c35-70.996,22.998-115.996-34.004-136.992c-39.995-16.006-76.997,5.996-109.995,65.996
		c-38.003,67.002-108.999,130-171.001,150c-107.002,35.996-253.999,12.998-327.998-50.996
		c-81.001-69.004-104.004-163.008-62.002-250c36.001-74.004,103.999-109.004,287.002-148.008
		c280-58.994,402.002-141.992,453.994-310c40-125.996,9.004-255-81.992-343.994c-54.004-52.998-165.005-109.004-247.002-125
		L2260,1095v-57.998c0-61.006-17.998-110-45-121.006c-32.998-11.992-66.001-5-90,19.004c-22.002,20.996-25,32.998-25,92.002v68.994
		l-55,11.006C1907.002,1135.996,1781.001,1230,1721.001,1350c-47.002,95-38.003,169.004,22.998,184.004
		c48.003,11.992,73.999-9.004,110-87.002c38.999-86.006,92.002-136.006,175-167.002c201.001-75.996,461.001,12.002,478.003,162.002
		c16.997,145.996-84.004,233.994-322.002,282.998c-198.999,40.996-301.001,87.998-373.999,170
		c-58.999,67.998-76.001,117.998-76.001,225c0,87.998,2.998,100.996,32.998,162.002c51.001,103.994,142.002,173.994,275,212.998
		l57.002,15.996v68.003c0,38.999,5,73.999,12.998,83.003C2147.998,2706.001,2198.999,2707.002,2237.998,2663.999z"/>
	<path fill="#6D6D6D" d="M3384.004,2956.001L3350,2922.002v-886.006V1150h-182.998c-199.004,0-219.004-5-219.004-52.002
		c0-33.994,754.004-925.996,790-935C3770,155,3764.003,149.004,4189.003,650C4412.001,912.998,4550,1082.998,4550,1095.996
		c0,11.006-7.998,28.008-17.998,37.002c-16.006,15-45,17.002-200,17.002H4150v872.998c0,810-0.996,874.004-17.998,907.002
		c-29.004,58.999-35,60-390,60h-324.004L3384.004,2956.001z"/>
</g>
</svg>
