<?xml version="1.0" encoding="utf-8"?>
<!-- Generator: Adobe Illustrator 16.0.0, SVG Export Plug-In . SVG Version: 6.00 Build 0)  -->
<!DOCTYPE svg PUBLIC "-//W3C//DTD SVG 1.1//EN" "http://www.w3.org/Graphics/SVG/1.1/DTD/svg11.dtd">
<svg version="1.1" id="Layer_1" xmlns="http://www.w3.org/2000/svg" xmlns:xlink="http://www.w3.org/1999/xlink" x="0px" y="0px"
	 width="397.805px" height="479.955px" viewBox="0 0 397.805 479.955" enable-background="new 0 0 397.805 479.955"
	 xml:space="preserve">
<g transform="translate(0.000000,512.000000) scale(0.100000,-0.100000)">
	<path fill="#FFFFFF" d="M1512.056,5098.256c-63.994-31.001-111.001-86.001-137.998-162.002
		c-36.001-101.001-108.003-128.999-203.999-81.001c-69.004,35-121.001,41.001-187.002,21.001
		c-107.002-31.001-175-121.001-175-231.001c1.001-91.997,25-131.997,167.002-276.001l126.997-127.998h506.006h505.996
		l135.996,137.998c125,126.001,137.012,142.002,153.008,196.001c40.996,140-40,277.002-182.012,306.001
		c-61.992,12.998-116.992,3.999-180.996-30c-82.998-45-170-5-192.998,86.001C1810.054,5081.254,1644.057,5161.254,1512.056,5098.256
		z"/>
	<path fill="#FFFFFF" d="M999.057,4067.255c-52.002-18.999-111.001-75-133.999-125c-52.002-118.999,0-258.003,117.998-312.002
		c37.002-16.997,78.999-18.999,627.993-18.999c641.016,0,620-2.002,689.004,58.999c115,101.001,97.012,293.003-35.996,376.001
		l-49.004,30l-590.996,2.002C1178.057,4079.252,1025.058,4077.255,999.057,4067.255z"/>
	<path fill="#FFFFFF" d="M874.057,3351.254c-237.002-270-401.001-477.002-538.999-682.007
		C101.055,2320.254,14.058,2090.254,1.055,1781.25c-25-607.998,394.004-1164.004,1037.002-1374.004
		c418.999-136.992,931.001-110,1321.997,68.008c85.996,38.994,237.012,126.992,272.012,158.994l25,22.002l-175,205
		c-97.012,112.998-193.008,227.998-215,255.996c-69.004,90-70,194.004-1.016,274.004c56.016,65.996,96.016,80,235,80h117.012
		v780.996v782.007l-102.012,121.001c-55.996,67.002-137.988,162.002-181.992,211.001l-80.996,90h-643.008H966.055L874.057,3351.254z
		 M1666.05,2825.249c18.008-20,22.012-36.992,22.012-87.988c0-66.011,5.996-76.011,50-76.011c10,0,53.994-17.998,97.988-40
		c92.012-45.996,165-117.998,207.012-204.004c35-70.996,22.988-115.996-34.004-136.992c-40-16.006-77.002,5.996-110,65.996
		c-38.008,67.002-109.004,130-170.996,150c-107.012,35.996-254.004,12.998-328.003-50.996
		c-81.001-69.004-104.004-163.008-62.002-250c36.001-74.004,103.999-109.004,286.997-148.008
		c280-58.994,402.012-141.992,454.004-310c40-125.996,9.004-255-81.992-343.994c-54.004-52.998-165.01-109.004-247.012-125
		l-61.992-12.002v-57.998c0-61.006-18.008-110-45-121.006c-33.008-11.992-66.006-5-90,19.004c-22.012,20.996-25,32.998-25,92.002
		v68.994l-55,11.006c-138.003,28.994-264.004,122.998-324.004,242.998c-47.002,95-38.003,169.004,22.998,184.004
		c48.003,11.992,73.999-9.004,110-87.002c38.999-86.006,92.002-136.006,175-167.002c201.006-75.996,461.006,12.002,477.998,162.002
		c17.002,145.996-84.004,233.994-321.992,282.998c-199.004,40.996-301.006,87.998-374.004,170
		c-58.999,67.998-76.001,117.998-76.001,225c0,87.998,2.998,100.996,32.998,162.002c51.001,103.994,142.002,173.994,274.995,212.998
		l57.012,15.996v68.003c0,39.004,5,74.004,12.988,83.008C1576.05,2867.26,1627.056,2868.256,1666.05,2825.249z"/>
	<path fill="#FFFFFF" d="M2812.065,3117.255l-34.004-33.999v-886.01V1311.25h-183.007c-199.004,0-219.004-5-219.004-52.002
		c0-33.994,754.003-925.996,790-935c32.012-7.998,26.016-13.994,451.016,487.002c222.988,262.998,360.996,432.998,360.996,445.996
		c0,11.006-8.008,28.008-18.008,37.002c-15.996,15-45,17.002-200,17.002h-181.992v872.998c0,810.005-0.996,874.009-18.008,907.007
		c-29.004,58.999-35,60-390,60h-324.004L2812.065,3117.255z"/>
</g>
</svg>
