<?xml version="1.0" encoding="utf-8"?>
<!-- Generator: Adobe Illustrator 16.0.0, SVG Export Plug-In . SVG Version: 6.00 Build 0)  -->
<!DOCTYPE svg PUBLIC "-//W3C//DTD SVG 1.1//EN" "http://www.w3.org/Graphics/SVG/1.1/DTD/svg11.dtd">
<svg version="1.1" id="bold_v2" xmlns="http://www.w3.org/2000/svg" xmlns:xlink="http://www.w3.org/1999/xlink" x="0px" y="0px"
	 width="512px" height="512px" viewBox="0 0 512 512" enable-background="new 0 0 512 512" xml:space="preserve">
<circle fill="#373E43" cx="170.667" cy="288" r="32"/>
<path fill="#373E43" d="M475.328,233.877C477.76,212.885,480,188.97,480,172.522C480,54.613,342.613,10.667,256,10.667
	c-56.192,0-96.747,30.144-110.379,41.856C102.955,54.976,32,82.133,32,172.522c0,16.683,2.219,40.491,4.629,61.376
	C15.019,242.73,0,263.637,0,288c0,30.806,23.958,55.872,54.166,58.219C83.072,430.123,162.539,490.667,256,490.667
	s172.928-60.523,201.835-144.448C488.064,343.872,512,318.806,512,288C512,263.616,496.98,242.709,475.328,233.877z M430.4,326.976
	c0,0.044-0.043,0.064-0.043,0.107v0.063C408.469,402.986,338.666,458.667,256,458.667c-90.133,0-164.928-66.197-179.008-152.555
	l21.291-74.476c19.008-6.037,61.589-23.125,80.234-59.2c28.693,27.114,92.993,60.395,236.075,62.165l20.438,71.402
	C433.877,313.131,432.362,320.128,430.4,326.976z"/>
<circle fill="#373E43" cx="341.334" cy="288" r="32"/>
<path fill="#373E43" d="M298.219,367.146c-23.275,22.507-61.163,22.507-84.438,0c-6.336-6.08-16.491-5.952-22.635,0.427
	c-6.144,6.355-5.952,16.47,0.405,22.635c17.771,17.152,41.109,25.707,64.448,25.707s46.678-8.555,64.448-25.707
	c6.354-6.144,6.527-16.277,0.404-22.635C314.709,361.194,304.576,361.066,298.219,367.146z"/>
</svg>
