<?xml version="1.0" encoding="utf-8"?>
<!-- Generator: Adobe Illustrator 16.0.0, SVG Export Plug-In . SVG Version: 6.00 Build 0)  -->
<!DOCTYPE svg PUBLIC "-//W3C//DTD SVG 1.1//EN" "http://www.w3.org/Graphics/SVG/1.1/DTD/svg11.dtd">
<svg version="1.1" id="Layer_1" xmlns="http://www.w3.org/2000/svg" xmlns:xlink="http://www.w3.org/1999/xlink" x="0px" y="0px"
	 width="512px" height="512px" viewBox="0 0 512 512" enable-background="new 0 0 512 512" xml:space="preserve">
<g transform="translate(0.000000,512.000000) scale(0.100000,-0.100000)">
	<path fill="#CEA241" d="M926.001,5105C805,5073.999,770,5046,477.998,4752.001c-226.997-231.001-280.996-290-320-357.002
		C-62.998,4015-51.001,3536,193.999,2947.001C631.001,1895,1815,697.998,2882.998,230C3557.002-65,4110.996-75,4525,202.998
		C4557.998,225,4682.998,340,4802.998,459.004c202.002,200,221.006,221.992,259.004,298.994
		c38.994,77.002,42.002,89.004,45.996,186.006c4.004,85.996,1.006,115.996-17.002,173.994c-25,84.004-86.992,179.004-147.998,230
		c-25,20-218.994,185-432.002,365C4299.003,1894.004,4105,2052.002,4080,2065c-145.996,75-312.998,74.004-465-2.002
		C3580,2045,3492.002,1965,3315,1790c-187.002-185-257.998-249.004-280.996-254.004c-38.008-7.998-97.002,15-284.004,110
		c-252.998,128.008-482.002,295-685,498.008C1857.998,2350.996,1717.002,2545,1598.999,2785
		c-76.001,153.999-96.001,216.001-85,261.001c5,20,85,107.998,250,273.999c133.999,135,253.003,261.001,265,281.001
		c82.002,137.998,90,321.001,20,463.999C2022.002,4120,1460,4911,1407.998,4967.001C1296.001,5087.001,1090,5146,926.001,5105z
		 M1133.999,4906c93.003-28.003,112.002-50,418.003-475C1712.998,4207.998,1856.001,4002.998,1870,3975
		c32.998-66.001,33.999-167.002,2.002-238.999c-22.002-48.999-168.003-208.999-185-203.003
		c-5,1.001-204.004,288.003-442.002,637.002l-432.002,635l21.001,22.998C903.999,4907.001,1027.002,4937.998,1133.999,4906z
		 M1111.001,4013.999l431.001-635l-89.004-91.997C1402.998,3236,1352.002,3175,1340,3150c-33.999-67.002-37.998-160-11.001-246.001
		c53.003-165,193.003-414.995,348.003-621.997c105.996-141.006,338.999-379.004,482.998-492.998
		C2361.001,1630,2620,1475,2835,1382.998c95.996-40.996,119.004-47.002,180-47.002c99.004,0,145,24.004,259.004,134.004
		c62.998,60.996,98.994,89.004,107.998,84.004c7.002-4.004,297.998-221.006,645.996-482.002l634.004-474.004l-72.998-75
		C4492.001,425,4417.998,369.004,4317.001,315C3885,85.996,3237.998,209.004,2497.002,660.996
		c-538.003,329.004-1118.003,856.006-1540,1401.006C575,2557.001,325,3047.998,233.999,3485c-22.998,110-26.997,155-26.997,295
		c-1.001,225,30.996,356.001,125,515C375,4367.998,655,4663.999,671.001,4655C675,4652.001,872.998,4363.999,1111.001,4013.999z
		 M3957.002,1902.002c27.002-11.006,187.998-140,435-350c215.996-182.998,410-347.998,430.996-367.998
		c109.004-100,117.998-295,19.004-404.004L4805,740l-634.004,475c-348.994,260.996-638.994,479.004-645,485
		c-11.992,12.002,120,150.996,169.004,177.998C3775.996,1922.998,3880,1932.998,3957.002,1902.002z"/>
	<path fill="#CEA241" d="M1003.999,2591c-31.997-13.999-63.999-60.005-63.999-91.997c0-70,381.001-542.002,678.999-839.004
		c113.999-114.004,352.002-330,401.001-362.998c62.002-42.998,150,7.002,150,85.996c0,36.006-30,72.002-140,167.998
		C1736.001,1807.998,1438.999,2130,1195,2455c-45,60.996-88.999,116.001-97.002,122.998C1077.002,2595,1028.999,2601,1003.999,2591z
		"/>
	<path fill="#CEA241" d="M2360,1239.004c-37.998-15-60-49.004-60-96.006c0-33.994,5-45.996,31.001-67.002
		c56.997-48.994,147.998-21.992,161.001,47.002C2507.002,1200.996,2431.001,1267.998,2360,1239.004z"/>
</g>
</svg>
