<?xml version="1.0" encoding="utf-8"?>
<!-- Generator: Adobe Illustrator 16.0.0, SVG Export Plug-In . SVG Version: 6.00 Build 0)  -->
<!DOCTYPE svg PUBLIC "-//W3C//DTD SVG 1.1//EN" "http://www.w3.org/Graphics/SVG/1.1/DTD/svg11.dtd">
<svg version="1.1" id="Layer_1" xmlns="http://www.w3.org/2000/svg" xmlns:xlink="http://www.w3.org/1999/xlink" x="0px" y="0px"
	 width="512px" height="512px" viewBox="0 0 512 512" enable-background="new 0 0 512 512" xml:space="preserve">
<g transform="translate(0.000000,512.000000) scale(0.100000,-0.100000)">
	<path fill="#CEA241" d="M2348.999,5105C1750,5022.998,1237.998,4608.999,1041.001,4047.001C992.998,3910,970,3782.001,963.999,3615
		c-17.998-462.998,138.003-866.001,565-1455c237.002-325.996,432.002-600.996,677.002-952.998
		c216.997-311.006,253.999-360,290-377.002c51.001-25,76.997-25,128.003,0c35.996,17.002,72.998,65.996,290,377.002
		c241.992,347.002,428.994,612.002,676.992,952.998c329.004,455,473.008,748.999,546.006,1115c27.002,137.002,23.994,445-5,582.002
		C4089.004,4056,4005,4251,3887.998,4422.998c-82.998,121.001-285,324.004-402.998,404.004
		C3137.002,5061,2740.996,5157.998,2348.999,5105z M2747.998,4803.999C3030,4762.001,3289.004,4632.001,3490,4430
		c162.002-162.998,275-357.998,332.002-577.998c28.994-109.004,30.996-129.004,30.996-292.002
		c1.006-143.999-2.998-192.998-20.996-277.002c-67.998-312.998-206.006-570-586.006-1087.998
		c-80.996-110-266.992-372.002-413.994-582.002C2685,1402.002,2562.998,1230,2560,1230s-125,172.002-272.002,382.998
		C2141.001,1822.998,1955,2085,1873.999,2195c-376.001,511.001-528.999,800-590,1110c-25,127.002-25,380,0,495
		c98.003,453.999,435,816.001,891.001,958.999C2362.998,4817.998,2553.999,4832.998,2747.998,4803.999z"/>
	<path fill="#CEA241" d="M2455,4338.999C2357.002,4326,2287.998,4305,2195,4260c-172.998-83.999-300-212.002-385-385
		c-68.999-142.002-83.999-211.001-83.999-375c1.001-117.002,5-147.002,27.998-222.998c43.999-148.003,96.001-236.001,205-351.001
		c168.999-177.002,392.002-265,640.005-253.003c226.992,11.001,407.998,92.002,561.992,253.003
		c109.004,113.999,161.006,202.998,205,351.001c23.008,75.996,27.002,105.996,28.008,222.998c0,158.999-15,228.999-78.008,365
		c-91.992,193.999-255.996,347.002-455,423.999C2737.002,4337.001,2580.996,4356,2455,4338.999z M2720,4020
		c215-62.002,380-287.998,380-520c0-26.001-9.004-82.002-20-123.999C3019.004,3136,2807.002,2970,2562.002,2970
		c-465,0-713.003,552.998-401.001,893.999C2308.999,4026,2507.002,4081,2720,4020z"/>
	<path fill="#CEA241" d="M1592.998,1410c-11.997-5-125.996-75-252.998-155.996c-158.999-101.006-237.998-157.002-251.001-178.008
		c-26.997-43.994-25-113.994,3.999-156.992c17.002-25,178.003-132.002,627.002-417.002C2497.002,10.996,2515,0,2557.002,0
		c18.994,0,55,10.996,80.996,25c26.006,12.998,344.004,212.002,707.002,442.002c492.998,312.002,665,427.002,682.002,452.002
		c15,22.998,22.998,48.994,22.998,77.998c0,87.998-7.998,93.994-347.002,307.002c-195,121.992-222.002,130.996-292.002,93.994
		c-51.992-27.002-80.996-73.994-80.996-133.994c0-63.008,32.002-99.004,157.998-180c62.998-39.004,117.002-75,122.002-80
		c7.002-8.008-132.998-99.004-917.002-593.008L2560,327.998l-528.999,332.998c-293.999,186.006-525,338.008-521.001,343.008
		c5,5,58.999,40.996,122.002,80C1757.998,1165,1790,1200.996,1790,1264.004c0,60-28.999,106.992-80,133.994
		C1663.999,1420.996,1630,1425,1592.998,1410z"/>
</g>
</svg>
