<?xml version="1.0" encoding="utf-8"?>
<!-- Generator: Adobe Illustrator 16.0.0, SVG Export Plug-In . SVG Version: 6.00 Build 0)  -->
<!DOCTYPE svg PUBLIC "-//W3C//DTD SVG 1.1//EN" "http://www.w3.org/Graphics/SVG/1.1/DTD/svg11.dtd">
<svg version="1.1" id="Layer_1" xmlns="http://www.w3.org/2000/svg" xmlns:xlink="http://www.w3.org/1999/xlink" x="0px" y="0px"
	 width="512px" height="512px" viewBox="0 0 512 512" enable-background="new 0 0 512 512" xml:space="preserve">
<g transform="translate(0.000000,512.000000) scale(0.100000,-0.100000)">
	<path fill="#CEA241" d="M2340,5112.998c-7.998-2.998-133.999-123.999-280-268.999L1795,4581l-375-3.003L1045,4575l-67.002-32.002
		c-92.998-43.999-150.996-100-195.996-190.996L745,4276l-2.998-375L738.999,3525l-187.998-190
		c-200-201.001-223.999-232.002-262.002-335L265,2935V1675V415l23.999-65C346.001,195.996,447.002,92.002,605,29.004L665,5
		l730-2.998c542.002-2.002,736.001,0,757.002,8.994C2182.998,24.004,2210,65.996,2210,100c0,29.004-26.001,75.996-47.002,85.996
		c-10,5-343.999,11.006-742.998,14.004c-563.999,4.004-732.002,7.998-753.999,17.998l-30,12.998L1225,820l588.999,590L2035,1190.996
		c177.002-175.996,232.002-225,282.002-250C2475,862.002,2632.998,859.004,2790,932.002c55.996,27.002,95.996,62.002,290,253.994
		L3305,1410l590-590l589.004-589.004l-30-12.998c-22.002-10-190-13.994-754.004-17.998c-399.004-2.998-732.998-9.004-742.998-14.004
		c-21.006-10-47.002-56.992-47.002-85.996c0-34.004,27.002-75.996,57.998-89.004C2989.004,2.002,3182.998,0,3725,2.002L4455,5
		l60,24.004C4672.998,92.002,4774.003,195.996,4830.996,350L4855,415v1260v1260l-24.004,65
		c-37.998,102.998-61.992,133.999-261.992,335l-188.008,190L4377.998,3901L4375,4276l-37.002,76.001
		c-45,90.996-102.998,146.997-195.996,190.996L4075,4575l-375,2.998L3325,4581L3055,4850l-270.996,270L2570,5118.999
		C2452.002,5118.999,2347.998,5116,2340,5112.998z M2875,4750l170-170h-485h-485l170,170l170,170h145h145L2875,4750z
		 M4070.996,4357.001c24.004-13.003,58.008-43.003,74.004-66.001l30-43.003l2.998-840.996L4180,2565l-722.002-720.996
		c-695-694.004-725-723.008-782.998-744.004c-79.004-29.004-177.998-25-250,9.004c-40,18.994-195,168.994-767.998,740L940,2565
		l2.002,842.002L945,4247.998L975,4291c17.002,22.998,50,52.998,73.999,66.001l43.999,22.998H2560h1467.002L4070.996,4357.001z
		 M740,3002.998V2765l-115,115c-62.998,62.998-115,118.999-115,123.999C510,3012.001,728.999,3240,737.002,3240
		C738.999,3240,740,3132.998,740,3002.998z M4610,3003.999c0-5-52.002-61.001-115-123.999l-115-115v240v240l115-116.001
		C4557.998,3065,4610,3008.999,4610,3003.999z M1082.998,967.998C760,645,492.998,382.998,488.999,385
		C462.998,402.002,460,515.996,460,1622.002V2765l605-605l605-605L1082.998,967.998z M4657.998,1330
		c-2.002-707.998-5.996-900.996-15.996-924.004l-12.998-30l-590,590L3450,1555l602.002,602.998L4655,2760l2.998-267.002
		C4659.003,2345,4659.003,1822.002,4657.998,1330z"/>
	<path fill="#CEA241" d="M2386.001,3945c-363.003-75-636.001-327.998-738.003-682.002c-30.996-106.997-32.998-370-3.999-477.998
		C1737.002,2440.996,1990,2185.996,2335,2089.003c75-21.006,102.002-23.008,469.004-27.002c420.996-4.004,435-2.002,460.996,48.994
		c17.998,34.004,19.004,60,2.998,94.004c-23.994,52.998-37.002,55-417.998,55c-280.996,0-366.001,2.998-427.998,15.996
		C2071.001,2347.998,1820,2655,1820,3012.001c0,128.999,21.001,221.997,77.002,335c97.998,201.997,300,356.997,520,398.999
		C2805.996,3820,3184.004,3578.999,3280,3196c15.996-63.999,20-113.003,20-253.999c0-158.003-2.002-178.003-20-207.002
		c-37.998-62.002-125.996-82.998-187.002-45c-62.998,37.998-67.002,55-73.994,265c-5,158.999-10,200-28.008,248.999
		c-85,237.002-328.994,375-572.998,325C2182.998,3480,2000,3257.998,2000,3021c0-223.999,156.001-436.001,367.998-501.001
		c51.001-15.996,93.003-20,209.004-20h145l28.994,29.004c40,39.995,40,88.994,0,132.998l-28.994,31.997L2574.004,2700
		c-127.002,5-155.005,10-192.002,28.999c-65,33.999-118.003,87.002-149.004,148.999C2208.999,2927.001,2205,2947.001,2205,3020
		c1.001,72.002,5,92.998,27.998,137.002c60,115.996,160,177.998,287.002,177.998c125,0,222.002-62.002,274.004-173.999
		C2812.002,3121,2815,3088.999,2820,2920c5-183.999,7.002-197.998,32.002-252.002c32.002-70,95.996-132.998,167.998-167.002
		c45.996-21.992,69.004-25.996,140-25.996c75.996,0,92.998,4.004,152.002,32.998c72.998,36.006,123.994,87.002,160,161.001
		C3494.004,2712.998,3495,2726,3495,2950c0,212.002-2.002,242.002-22.002,310c-97.002,333.999-350,583.999-677.998,671.001
		C2690.996,3957.998,2485,3966,2386.001,3945z"/>
	<path fill="#CEA241" d="M2511.001,185.996C2423.999,137.998,2461.001,0,2560,0c50.996,0,100,49.004,100,99.004
		C2660,174.004,2577.002,222.998,2511.001,185.996z"/>
</g>
</svg>
