<?xml version="1.0" encoding="utf-8"?>
<!-- Generator: Adobe Illustrator 16.0.0, SVG Export Plug-In . SVG Version: 6.00 Build 0)  -->
<!DOCTYPE svg PUBLIC "-//W3C//DTD SVG 1.1//EN" "http://www.w3.org/Graphics/SVG/1.1/DTD/svg11.dtd">
<svg version="1.1" id="Layer_1" xmlns="http://www.w3.org/2000/svg" xmlns:xlink="http://www.w3.org/1999/xlink" x="0px" y="0px"
	 width="512px" height="512px" viewBox="0 0 512 512" enable-background="new 0 0 512 512" xml:space="preserve">
<g transform="translate(0.000000,512.000000) scale(0.100000,-0.100000)">
	<path fill="#FFFFFF" d="M1126.001,4883.999C845,4822.998,597.002,4612.998,487.002,4342.998
		c-49.004-120-61.001-188.999-61.001-337.998c-1.001-150,12.998-227.002,60-332.998l22.998-53.003l-26.997-10
		c-15-6.001-107.002-40-206.001-75C177.998,3498.999,85,3461.001,70,3450c-16.001-11.001-37.998-40-48.999-62.998
		C0,3343.999,0,3342.998,0,1877.002C0,300.996-2.002,372.998,47.998,315.996C72.002,290,138.999,260,177.002,260
		C205,260,407.998,330,1095,577.002c116.001,42.002,217.002,75.996,225,75c7.998,0,285-97.998,616.001-216.006
		C2267.002,317.002,2547.998,220,2561.001,220c43.003,0,523.003,177.998,541.997,200.996c24.004,30,21.006,66.006-7.998,94.004
		c-29.004,30-45,30.996-115.996,5.996c-30-10-118.008-41.992-197.002-70l-142.002-50l2.002,1466.006L2645,3332.998l315,113.003
		c314.004,111.997,315,111.997,317.998,87.998c2.002-13.999-5-41.001-15-61.997c-13.994-29.004-32.002-44.004-82.998-69.004
		c-114.004-55.996-200-171.997-200-266.997c0-43.999,22.998-98.999,55.996-136.001c36.006-40,74.004-56.001,184.004-80
		c70-16.001,109.004-38.999,117.002-67.998c3.994-16.001-11.006-66.001-45-150c-61.006-152.998-87.002-270-79.004-362.002
		c19.004-222.998,185-372.998,442.002-395.996l75-7.002V1365V792.002l-27.002-11.006C3687.002,775,3599.004,742.998,3505,710
		c-177.002-62.998-205-80.996-205-129.004c0-32.998,37.002-70.996,70-70.996c12.002,0,110.996,32.002,219.004,70.996
		C3697.002,620,3792.002,652.002,3800,652.002c7.998,0.996,260.996-87.002,562.998-195C4664.003,349.004,4925,260,4942.998,260
		c37.998,0,105,30,129.004,55.996c50,57.002,47.998-15,47.998,1561.006v1466.997l-20.996,43.999
		c-12.002,25-37.002,53.003-58.008,67.002c-40,26.001-1206.992,445-1238.994,445c-11.006,0-295-98.999-631.006-218.999
		l-609.995-218.999L2345,3538.999c-167.998,58.999-215,78.999-211.001,91.001c3.003,7.998,20,56.001,37.002,106.001
		c28.999,82.998,30,93.999,17.998,120c-31.001,62.998-113.999,56.997-136.997-11.001
		c-43.003-126.001-69.004-183.999-107.002-241.001c-67.002-100-583.999-682.998-612.002-690
		c-13.999-3.999-33.999-1.001-45.996,6.001c-19.004,11.001-431.001,473.999-545,612.998C537.998,3781.001,515,4115,681.001,4397.002
		c46.001,77.998,180,210,258.999,255.996c106.001,61.001,206.001,89.004,342.998,95c132.002,5,207.002-5.996,307.002-45
		c100-40,180-95.996,261.001-180.996c91.001-96.001,135-168.003,176.001-291.001c45-133.003,83.999-161.001,143.999-101.001
		c35,35,33.999,56.001-13.003,186.001c-102.998,286.997-356.997,506.001-660,567.998
		C1402.002,4903.999,1220,4903.999,1126.001,4883.999z M3727.998,2907.998L3725,2095l-67.998,2.002
		c-86.006,2.998-167.998,37.998-225,95.996c-97.002,99.004-95,220,5.996,467.002c40,97.002,47.002,125,47.002,181.001
		c0,55-5,71.997-27.998,106.997c-35,54.004-111.006,97.002-207.002,118.003c-92.998,20-107.998,27.998-115.996,57.998
		c-12.002,50,35.996,106.001,131.992,153.999c110,55,164.004,146.001,164.004,276.001V3615l142.998,52.002
		c77.998,27.998,145,51.997,150,51.997C3727.002,3720,3729.004,3353.999,3727.998,2907.998z M4480,3505
		c255.996-91.001,470-171.001,477.002-177.002c10-7.998,12.998-305,12.998-1460c0-1287.002-2.002-1448.994-15-1453.994
		C4940,407.998,4825,445,4807.001,460c-5,5-2.002,19.004,7.002,32.002c21.992,33.994,51.992,125.996,60.996,185
		c22.998,168.994-90,358.994-289.004,487.998C4485,1230,4455,1264.004,4440,1332.998c-22.002,97.002,29.004,246.006,115,337.998
		c24.004,25,55.996,71.006,70.996,100c23.008,45,28.008,67.002,28.008,134.004c0.996,70-3.008,89.004-30,145.996
		C4525.996,2257.998,4405,2285.996,4075,2180c-49.004-15.996-114.004-35.996-142.002-44.004l-52.998-15V2920v798.999l67.998-22.998
		C3985,3682.998,4224.003,3597.002,4480,3505z M620,3446.001c82.002-107.002,557.998-637.002,586.001-652.002L1240,2775
		l-2.002-994.004L1235,787.002L707.002,597.998c-290-105-534.004-187.002-542.002-183.994c-12.998,5-15,190.996-15,1453.994
		c0,1161.001,2.998,1452.002,12.998,1460c15,13.003,396.001,151.001,417.002,151.001C587.998,3478.999,606.001,3465,620,3446.001z
		 M2270,3406.001l205-73.003l2.998-1465.996L2480,400.996L2412.998,425c-80,27.002-980,350-1005,360
		c-16.997,7.002-17.998,64.004-17.998,995v987.002l38.999,25.996c31.001,21.001,421.001,454.004,576.001,640
		c21.001,26.001,43.999,47.002,50,47.002C2060,3480,2157.002,3447.002,2270,3406.001z M4432.998,2070
		c32.998-25.996,77.002-115,77.002-157.002c0-50-20.996-92.002-79.004-157.998c-98.994-112.998-158.994-284.004-145.996-410.996
		c12.998-121.006,80-217.002,207.998-298.008c32.998-20,81.006-56.992,107.998-81.992c133.008-125,160-260,79.004-400
		l-29.004-51.006L4267.998,650L3885,787.002l-2.998,588.994l-2.002,590l92.002,27.002c50.996,15,145,42.998,207.998,62.002
		C4315.996,2095,4394.003,2100,4432.998,2070z"/>
	<path fill="#FFFFFF" d="M468.999,2680c-8.999-5-31.001-22.998-47.998-38.999c-18.999-17.002-48.003-33.003-68.999-36.001
		c-49.004-7.998-64.004-17.002-81.001-47.002c-20-35-7.002-73.994,30-92.998c38.999-20.996,98.999-12.002,165,24.004L515,2515.996
		L573.999,2485c83.003-42.002,168.003-42.002,246.001,0.996l55,30l57.998-30c76.001-38.994,150-41.992,178.003-6.992
		c41.997,51.992,10,112.998-65,123.994c-23.999,4.004-52.002,18.003-70,35c-68.003,64.004-113.999,69.004-177.002,16.001
		c-23.999-20-55-41.001-68.999-46.001c-36.001-13.999-82.998-1.997-111.001,28.003C573.999,2685,508.999,2703.999,468.999,2680z"/>
	<path fill="#FFFFFF" d="M433.999,2260c-27.998-22.998-62.998-42.002-83.999-45.996c-46.001-7.002-62.002-16.006-78.999-46.006
		c-20-35-7.002-73.994,30-92.998c38.999-20.996,98.999-12.002,165,24.004L515,2125.996L573.999,2095
		c83.003-42.002,168.003-42.002,246.001,0.996l55,30l57.998-30c76.001-38.994,150-41.992,178.003-6.992
		c41.997,51.992,10,112.998-65,123.994c-23.999,4.004-52.002,17.998-70,35c-68.003,64.004-117.002,69.004-173.999,17.002
		c-70-62.998-136.001-69.004-183.003-19.004C557.998,2312.002,502.002,2315.996,433.999,2260z"/>
	<path fill="#FFFFFF" d="M1721.001,2189.004c-13.003-5-41.001-25-63.003-44.004c-20.996-20-48.999-35-62.998-35
		c-62.998,0-106.001-50.996-86.001-102.998c6.001-14.004,18.999-31.006,30-36.006c42.002-22.998,127.002-7.998,183.999,32.002
		l29.004,19.004l55-27.998c93.999-47.002,201.997-44.004,275.996,8.994l29.004,19.004l55-27.998
		c75-37.002,152.998-44.004,181.997-15c31.001,30.996,28.003,83.994-5,110c-15,11.992-37.998,20.996-52.998,20.996
		c-28.003,0-91.001,34.004-91.001,49.004c0,5-16.001,15.996-35,25.996c-47.998,22.002-85,12.998-141.001-35.996
		c-35-30-53.999-39.004-81.997-39.004C1905,2110,1840,2140.996,1840,2159.004c0,10-62.002,40.996-82.002,40
		C1751.001,2199.004,1733.999,2194.004,1721.001,2189.004z"/>
	<path fill="#FFFFFF" d="M1721.001,1799.004c-13.003-5-41.001-25-63.003-44.004c-20.996-20-48.999-35-62.998-35
		c-62.998,0-106.001-50.996-86.001-102.998c6.001-14.004,18.999-31.006,30-36.006c42.002-22.998,127.002-7.998,185,32.002l28.999,20
		l50-27.998c87.002-47.998,205-45,281.001,7.998l28.999,20l49.004-27.002c31.997-17.998,70-30,107.998-32.998
		c48.999-5,60-2.998,78.999,16.006c31.001,30.996,28.003,83.994-5,110c-15,11.992-37.998,20.996-52.998,20.996
		c-28.003,0-91.001,34.004-91.001,49.004c0,5-16.001,15.996-35,25.996c-47.998,22.002-85,12.998-141.001-35.996
		c-35-30-53.999-39.004-81.997-39.004C1905,1720,1840,1750.996,1840,1769.004c0,10-62.002,40.996-82.002,40
		C1751.001,1809.004,1733.999,1804.004,1721.001,1799.004z"/>
	<path fill="#FFFFFF" d="M1237.998,4530c-211.997-37.002-380-188.999-432.998-391.001C786.001,4070,786.001,3940,805,3871.001
		c46.001-173.003,183.999-318.003,353.999-372.002c82.002-26.001,222.002-28.999,298.999-6.001
		c131.001,40,257.002,137.002,320,248.003C1816.001,3807.998,1850,3932.002,1850,4005c0,118.999-56.001,262.002-140,357.002
		C1601.001,4486.001,1397.998,4557.998,1237.998,4530z M1451.001,4360c62.998-23.999,138.999-80,171.997-127.002
		c55-80,71.001-131.997,72.002-227.998c0-80-3.999-97.002-31.001-155c-140-297.002-553.999-297.998-691.997-2.002
		c-24.004,50-27.002,70-27.002,157.002c0,92.998,2.002,105,32.998,167.002C1065,4348.999,1268.999,4430,1451.001,4360z"/>
	<path fill="#FFFFFF" d="M2915,1660c-30.996-27.002-60-42.002-87.002-45.996C2775.996,1605,2750,1580,2750,1537.002
		c0-36.006,19.004-60,55.996-71.006c31.006-10,113.008,11.006,156.006,39.004l35.996,24.004l54.004-28.008
		c92.998-50,190-47.998,270,4.004l35.996,24.004l55-30c105-57.002,200-38.008,200,40c0,41.992-25.996,67.998-78.994,75.996
		c-31.006,4.004-58.008,17.998-90,45.996c-61.006,53.008-107.002,54.004-162.002,4.004c-74.004-65.996-130-67.002-202.998-0.996
		C3022.998,1715,2977.998,1714.004,2915,1660z"/>
	<path fill="#FFFFFF" d="M2915,1270c-30.996-27.002-60-42.002-87.002-45.996C2775.996,1215,2750,1190,2750,1147.002
		c0-36.006,19.004-60,55.996-71.006c31.006-10,113.008,11.006,156.006,39.004l35.996,24.004l54.004-28.008
		c28.994-15.996,70.996-31.992,92.998-35.996c52.002-7.998,130,10,177.002,40l35.996,24.004l57.002-30
		c72.002-40,144.004-45,175.996-12.002c42.002,42.002,17.002,122.998-36.992,122.998c-36.006,0-75,17.998-116.006,55
		c-55,50-100.996,49.004-162.002-4.004c-73.994-63.994-122.998-62.998-197.998,4.004C3022.998,1325,2977.002,1324.004,2915,1270z"/>
</g>
</svg>
