<?xml version="1.0" encoding="utf-8"?>
<!-- Generator: Adobe Illustrator 16.0.0, SVG Export Plug-In . SVG Version: 6.00 Build 0)  -->
<!DOCTYPE svg PUBLIC "-//W3C//DTD SVG 1.1//EN" "http://www.w3.org/Graphics/SVG/1.1/DTD/svg11.dtd">
<svg version="1.1" id="Layer_1" xmlns="http://www.w3.org/2000/svg" xmlns:xlink="http://www.w3.org/1999/xlink" x="0px" y="0px"
	 width="469.477px" height="656.395px" viewBox="0 0 469.477 656.395" enable-background="new 0 0 469.477 656.395"
	 xml:space="preserve">
<path fill="#CEA241" d="M235.211,9.979c-122.545,0-222.244,99.699-222.244,222.244c0,154.025,222.463,417.13,222.463,417.13
	s222.024-270.681,222.024-417.13C457.454,109.678,357.759,9.979,235.211,9.979z M302.266,297.295
	c-18.488,18.486-42.771,27.73-67.055,27.73c-24.281,0-48.57-9.244-67.052-27.73c-36.976-36.972-36.976-97.132,0-134.107
	c17.903-17.912,41.721-27.777,67.052-27.777c25.33,0,49.143,9.869,67.055,27.777C339.241,200.164,339.241,260.324,302.266,297.295z"
	/>
</svg>
