<?xml version="1.0" encoding="utf-8"?>
<!-- Generator: Adobe Illustrator 16.0.0, SVG Export Plug-In . SVG Version: 6.00 Build 0)  -->
<!DOCTYPE svg PUBLIC "-//W3C//DTD SVG 1.1//EN" "http://www.w3.org/Graphics/SVG/1.1/DTD/svg11.dtd">
<svg version="1.1" id="Layer_1" xmlns="http://www.w3.org/2000/svg" xmlns:xlink="http://www.w3.org/1999/xlink" x="0px" y="0px"
	 width="394.15px" height="469.103px" viewBox="58.914 21.2 394.15 469.103" enable-background="new 58.914 21.2 394.15 469.103"
	 xml:space="preserve">
<g transform="translate(0.000000,512.000000) scale(0.100000,-0.100000)">
	<path d="M3970,4898.999c-75-12.998-169.004-58.999-225.996-111.001c-26.006-22.998-301.006-331.997-612.002-685
		c-310-353.999-568.003-642.998-571.001-642.998c-3.999,0-257.002,285-563.003,632.998c-305,347.002-577.998,653.003-605,679.004
		c-115,106.997-287.998,152.998-441.997,116.997c-110-25-223.999-106.001-287.002-205C560,4522.001,565,4302.001,675,4148.999
		C740,4057.998,2231.001,2370,2272.998,2337.998c197.002-145,462.002-122.002,632.998,54.004
		c107.002,110,1516.006,1718.999,1551.006,1770.996C4525.996,4265,4550,4437.001,4514.003,4561
		c-51.006,171.997-207.002,310-384.004,337.998C4055.996,4911,4045.996,4911,3970,4898.999z"/>
	<path d="M1000,2868.999c-108.999-12.998-197.998-58.999-276.001-141.001C620,2617.998,585,2522.002,592.002,2367.002
		c8.999-179.004-23.003-136.006,865.996-1147.002c425-482.998,788.003-889.004,805-902.002
		c96.001-72.002,186.001-102.002,302.002-100.996c100,0.996,190.996,28.994,265,80.996C2895,342.998,4424.003,2075,4470,2155
		c47.002,82.998,62.998,154.004,57.998,264.004c-5.996,116.992-30.996,186.997-95.996,273.994
		c-56.006,73.003-134.004,128.003-222.002,159.004c-90,30.996-230,30.996-312.998-1.001
		C3772.998,2802.998,3749.003,2777.998,3145,2090c-315.996-360-579.004-655-583.999-655c-5,0-263.999,290-575,645
		c-337.002,382.998-590,663.999-625,692.002C1262.002,2848.999,1131.001,2883.999,1000,2868.999z"/>
</g>
</svg>
