<?xml version="1.0" encoding="utf-8"?>
<!-- Generator: Adobe Illustrator 16.0.0, SVG Export Plug-In . SVG Version: 6.00 Build 0)  -->
<!DOCTYPE svg PUBLIC "-//W3C//DTD SVG 1.1//EN" "http://www.w3.org/Graphics/SVG/1.1/DTD/svg11.dtd">
<svg version="1.1" id="Capa_1" xmlns="http://www.w3.org/2000/svg" xmlns:xlink="http://www.w3.org/1999/xlink" x="0px" y="0px"
	 width="84px" height="100px" viewBox="57.5 0 84 100" enable-background="new 57.5 0 84 100" xml:space="preserve">
<g>
	<g>
		<path fill="#9CA0A8" d="M106.666,0H73.333C68.738,0,65,3.738,65,8.333v60c0,4.594,3.738,8.333,8.333,8.333h30v-3.333h-30
			c-2.757,0-5-2.244-5-5v-60c0-2.757,2.243-5,5-5h33.333c2.757,0,5,2.243,5,5v48.333H115V8.333C115,3.738,111.262,0,106.666,0z"/>
	</g>
</g>
<g>
	<g>
		<path fill="#9CA0A8" d="M130.984,44.394l-16.35-20.434l-2.605,2.083l16.351,20.432c2.122,2.65,3.288,5.98,3.286,9.375v40.816
			h-24.383c-8.61,0-15.616-7.004-15.616-15.616V75h-3.333v6.05c0,10.448,8.501,18.95,18.95,18.95h26.051
			c0.921,0,1.666-0.745,1.666-1.666V55.852C135.002,51.705,133.576,47.635,130.984,44.394z"/>
	</g>
</g>
<g>
	<g>
		<path fill="#9CA0A8" d="M93.327,39.305c1.17,0.033,2.258,0.52,3.06,1.37l22.398,23.8l2.428-2.285L98.812,38.388
			c-1.415-1.499-3.33-2.356-5.39-2.415c-2.082-0.07-4.02,0.688-5.5,2.087c-0.019,0.018-0.152,0.145-0.168,0.163
			c-2.848,2.857-3.04,7.34-0.442,10.437l14.355,16.949v5.157c-0.002,9.21,5.79,17.565,14.415,20.795l1.17-3.122
			c-7.33-2.744-12.254-9.846-12.252-17.673V65c0-0.394-0.141-0.777-0.395-1.078L89.86,46.51c-1.475-1.756-1.367-4.308,0.333-6.01
			C91.043,39.697,92.153,39.298,93.327,39.305z"/>
	</g>
</g>
<g>
	<g>
		<rect x="101.666" y="3.333" fill="#9CA0A8" width="3.334" height="41.667"/>
	</g>
</g>
<g>
	<g>
		<rect x="93.333" y="55" fill="#9CA0A8" width="3.333" height="20"/>
	</g>
</g>
<g>
	<g>
		<rect x="93.333" y="1.667" fill="#9CA0A8" width="3.333" height="36.667"/>
	</g>
</g>
<g>
	<g>
		<rect x="73.333" y="8.333" fill="#9CA0A8" width="3.333" height="21.667"/>
	</g>
</g>
<g>
	<g>
		<rect x="81.667" y="8.333" fill="#9CA0A8" width="3.333" height="13.333"/>
	</g>
</g>
<g>
	<g>
		<path fill="#9CA0A8" d="M85,55H75c-0.92,0-1.667,0.745-1.667,1.666v10c0,0.922,0.747,1.667,1.667,1.667h10
			c0.92,0,1.667-0.745,1.667-1.667v-10C86.667,55.745,85.92,55,85,55z M83.333,65h-6.667v-6.666h6.667V65z"/>
	</g>
</g>
</svg>
