<?xml version="1.0" encoding="utf-8"?>
<!-- Generator: Adobe Illustrator 16.0.0, SVG Export Plug-In . SVG Version: 6.00 Build 0)  -->
<!DOCTYPE svg PUBLIC "-//W3C//DTD SVG 1.1//EN" "http://www.w3.org/Graphics/SVG/1.1/DTD/svg11.dtd">
<svg version="1.1" id="Layer_1" xmlns="http://www.w3.org/2000/svg" xmlns:xlink="http://www.w3.org/1999/xlink" x="0px" y="0px"
	 width="452.933px" height="393.917px" viewBox="25.167 73.667 452.933 393.917"
	 enable-background="new 25.167 73.667 452.933 393.917" xml:space="preserve">
<circle fill="#B0EF8F" cx="208" cy="284.75" r="182.834"/>
<g transform="translate(0.000000,512.000000) scale(0.100000,-0.100000)">
	<path fill="#009045" d="M4165,4306.333c-647.002-447.998-1395-1180-2023.999-1981.001c-45-57.988-77.002-89.004-83.999-85
		c-7.002,4.004-223.003,155-481.001,335.005l-468.999,326.997l-26.001-18.999c-13.999-10-83.003-76.001-153.003-147.002
		l-126.997-127.998l156.001-214.995C1337.998,1869.336,1765,1250.332,1956.001,947.344
		c57.998-93.008,108.999-173.008,112.998-177.012s56.001,75,116.001,175c547.002,927.012,1234.004,1917.002,1785.996,2578.003
		c227.002,272.002,323.008,377.002,576.006,627.998l233.994,232.002h-252.998L4275,4382.333L4165,4306.333z"/>
</g>
</svg>
