<?xml version="1.0" encoding="utf-8"?>
<!-- Generator: Adobe Illustrator 16.0.0, SVG Export Plug-In . SVG Version: 6.00 Build 0)  -->
<!DOCTYPE svg PUBLIC "-//W3C//DTD SVG 1.1//EN" "http://www.w3.org/Graphics/SVG/1.1/DTD/svg11.dtd">
<svg version="1.1" id="entrance-alt1" xmlns="http://www.w3.org/2000/svg" xmlns:xlink="http://www.w3.org/1999/xlink" x="0px"
	 y="0px" width="640px" height="693.333px" viewBox="0 0 640 693.333" enable-background="new 0 0 640 693.333"
	 xml:space="preserve">
<path fill="#CEA141" d="M256,373.333h357.334c14.728,0,26.666-11.938,26.666-26.666c0-14.727-11.938-26.666-26.666-26.666H256
	l87.787-88.213c9.98-10.334,9.98-26.718,0-37.051c-10.23-10.594-27.113-10.887-37.707-0.656L163.84,336.8l0,0
	c-0.007,0.008-0.015,0.018-0.022,0.025c-5.201,5.213-5.19,13.654,0.022,18.855l142.24,142.771c10.334,9.98,26.717,9.98,37.051,0
	c10.594-10.23,10.887-27.111,0.656-37.705L256,373.333z M0,53.333v586.665c0,29.455,23.878,53.334,53.334,53.334h360
	c14.728,0,26.666-11.939,26.666-26.666c0-14.729-11.938-26.668-26.666-26.668H80c-14.729,0-26.666-11.938-26.666-26.666V80
	c0-14.728,11.938-26.667,26.666-26.667h320c14.728,0,26.667-11.939,26.667-26.667S414.728,0,400,0H53.334
	C23.878,0,0,23.877,0,53.333z"/>
</svg>
