<?xml version="1.0" encoding="utf-8"?>
<!-- Generator: Adobe Illustrator 16.0.0, SVG Export Plug-In . SVG Version: 6.00 Build 0)  -->
<!DOCTYPE svg PUBLIC "-//W3C//DTD SVG 1.1//EN" "http://www.w3.org/Graphics/SVG/1.1/DTD/svg11.dtd">
<svg version="1.1" id="Layer_1" xmlns="http://www.w3.org/2000/svg" xmlns:xlink="http://www.w3.org/1999/xlink" x="0px" y="0px"
	 width="180px" height="38px" viewBox="0 0 180 38" enable-background="new 0 0 180 38" xml:space="preserve">
<path fill="#38599B" d="M180,33c0,2.762-2.238,5-5,5H5c-2.761,0-5-2.238-5-5V5c0-2.761,2.239-5,5-5h170c2.762,0,5,2.239,5,5V33z"/>
<path fill="#FFFFFF" d="M19.024,11.52h1.674V8.144c0,0-1.471,0-2.994,0c-3.177,0-5.03,1.499-5.03,5.231v3.02h-3.58v3.712h3.58v9.75
	h4.115v-9.75h3.173l0.558-3.712h-3.73v-3.02C16.79,12.641,17.347,11.52,19.024,11.52z"/>
<g>
	<g enable-background="new    ">
		<path fill="#FFFFFF" d="M39.388,21.657c0-0.193-0.018-0.367-0.054-0.521s-0.111-0.297-0.226-0.433
			c-0.115-0.135-0.278-0.267-0.49-0.394c-0.212-0.128-0.494-0.263-0.846-0.406c-0.419-0.158-0.818-0.339-1.198-0.543
			c-0.38-0.204-0.715-0.445-1.003-0.724c-0.289-0.278-0.518-0.6-0.689-0.965s-0.256-0.79-0.256-1.274c0-0.465,0.086-0.89,0.26-1.275
			c0.173-0.385,0.417-0.713,0.731-0.983s0.687-0.48,1.118-0.632c0.431-0.15,0.907-0.226,1.428-0.226c0.536,0,1.02,0.086,1.451,0.257
			c0.432,0.171,0.799,0.408,1.103,0.712s0.537,0.666,0.701,1.087c0.163,0.421,0.245,0.884,0.245,1.39h-2.243
			c0-0.235-0.024-0.45-0.073-0.647c-0.049-0.196-0.125-0.364-0.23-0.505s-0.238-0.25-0.402-0.329
			c-0.163-0.079-0.36-0.119-0.589-0.119c-0.214,0-0.399,0.033-0.555,0.1s-0.285,0.157-0.387,0.272
			c-0.102,0.114-0.179,0.251-0.229,0.409c-0.051,0.158-0.077,0.326-0.077,0.505c0,0.185,0.04,0.35,0.119,0.498
			s0.191,0.286,0.337,0.413c0.146,0.128,0.322,0.248,0.528,0.36s0.435,0.222,0.685,0.329c0.521,0.188,0.975,0.397,1.363,0.628
			c0.388,0.229,0.712,0.489,0.972,0.78s0.454,0.619,0.582,0.984c0.127,0.364,0.191,0.776,0.191,1.236
			c0,0.489-0.081,0.926-0.241,1.309s-0.391,0.706-0.689,0.969c-0.299,0.263-0.66,0.465-1.083,0.604
			c-0.423,0.141-0.901,0.211-1.432,0.211c-0.479,0-0.951-0.073-1.412-0.219c-0.462-0.146-0.874-0.368-1.237-0.67
			c-0.362-0.301-0.654-0.681-0.876-1.141c-0.222-0.459-0.333-1.005-0.333-1.638h2.258c0,0.337,0.033,0.622,0.1,0.857
			c0.066,0.234,0.167,0.425,0.303,0.57c0.135,0.146,0.302,0.25,0.501,0.313c0.199,0.064,0.431,0.096,0.696,0.096
			c0.214,0,0.397-0.031,0.547-0.096c0.151-0.063,0.273-0.15,0.368-0.26c0.094-0.11,0.162-0.241,0.203-0.395
			C39.368,22.002,39.388,21.836,39.388,21.657z"/>
		<path fill="#FFFFFF" d="M43.04,14.155c0-0.169,0.028-0.323,0.084-0.464c0.056-0.14,0.135-0.261,0.237-0.363
			c0.102-0.102,0.226-0.181,0.372-0.237c0.146-0.056,0.307-0.084,0.486-0.084s0.341,0.028,0.486,0.084
			c0.146,0.057,0.269,0.136,0.371,0.237c0.102,0.103,0.181,0.224,0.238,0.363c0.056,0.141,0.084,0.295,0.084,0.464
			c0,0.168-0.028,0.322-0.084,0.463c-0.057,0.141-0.136,0.263-0.238,0.367s-0.226,0.186-0.371,0.241
			c-0.146,0.057-0.308,0.084-0.486,0.084s-0.34-0.027-0.486-0.084c-0.146-0.056-0.27-0.137-0.372-0.241s-0.181-0.227-0.237-0.367
			S43.04,14.323,43.04,14.155z M45.314,24.582H43.14v-8.283h2.174V24.582z"/>
		<path fill="#FFFFFF" d="M46.73,20.188c0-1.357,0.245-2.37,0.735-3.039s1.176-1.003,2.06-1.003c0.403,0,0.745,0.078,1.026,0.233
			c0.28,0.156,0.518,0.374,0.712,0.654l0.084-0.734h1.952v8.283c0,0.566-0.083,1.055-0.249,1.466
			c-0.166,0.411-0.399,0.749-0.701,1.015s-0.662,0.462-1.083,0.59c-0.421,0.127-0.89,0.191-1.405,0.191
			c-0.194,0-0.408-0.021-0.643-0.062c-0.234-0.041-0.469-0.101-0.704-0.18s-0.458-0.179-0.67-0.299s-0.389-0.262-0.532-0.425
			l0.728-1.501c0.097,0.103,0.213,0.198,0.348,0.287c0.135,0.09,0.278,0.166,0.429,0.229c0.15,0.064,0.308,0.115,0.471,0.153
			c0.163,0.038,0.321,0.058,0.475,0.058c0.219,0,0.415-0.024,0.585-0.072c0.171-0.049,0.315-0.132,0.433-0.249
			c0.117-0.118,0.206-0.273,0.264-0.467c0.059-0.194,0.088-0.437,0.088-0.728v-0.666c-0.199,0.26-0.43,0.461-0.693,0.601
			c-0.263,0.141-0.57,0.211-0.922,0.211c-0.439,0-0.831-0.087-1.175-0.261c-0.344-0.173-0.635-0.429-0.873-0.766
			s-0.42-0.754-0.547-1.251c-0.128-0.498-0.191-1.073-0.191-1.727V20.188z M48.896,20.731c0,0.766,0.1,1.323,0.298,1.673
			c0.199,0.35,0.516,0.524,0.95,0.524c0.234,0,0.432-0.042,0.593-0.127c0.161-0.084,0.292-0.202,0.394-0.355v-3.958
			c-0.107-0.169-0.241-0.299-0.402-0.391s-0.351-0.138-0.57-0.138c-0.429,0-0.747,0.176-0.953,0.528
			c-0.207,0.352-0.31,0.919-0.31,1.699V20.731z"/>
		<path fill="#FFFFFF" d="M56.858,16.299l0.061,0.819c0.24-0.316,0.521-0.558,0.842-0.724c0.321-0.166,0.681-0.249,1.08-0.249
			c0.321,0,0.617,0.055,0.888,0.165C60,16.42,60.232,16.6,60.426,16.85s0.345,0.577,0.452,0.98c0.107,0.403,0.161,0.898,0.161,1.484
			v5.268h-2.174v-5.274c0-0.266-0.021-0.485-0.062-0.659c-0.041-0.173-0.101-0.311-0.18-0.413c-0.079-0.102-0.178-0.173-0.295-0.214
			c-0.118-0.041-0.255-0.062-0.414-0.062c-0.204,0-0.383,0.054-0.536,0.161c-0.153,0.106-0.281,0.255-0.383,0.443v6.018h-2.174
			v-8.283H56.858z"/>
		<path fill="#FFFFFF" d="M66.206,14.155c0-0.169,0.028-0.323,0.084-0.464c0.056-0.14,0.135-0.261,0.237-0.363
			c0.102-0.102,0.226-0.181,0.372-0.237c0.146-0.056,0.307-0.084,0.486-0.084s0.341,0.028,0.486,0.084
			c0.146,0.057,0.269,0.136,0.371,0.237c0.102,0.103,0.181,0.224,0.238,0.363c0.056,0.141,0.084,0.295,0.084,0.464
			c0,0.168-0.028,0.322-0.084,0.463c-0.057,0.141-0.136,0.263-0.238,0.367s-0.226,0.186-0.371,0.241
			c-0.146,0.057-0.308,0.084-0.486,0.084s-0.34-0.027-0.486-0.084c-0.146-0.056-0.27-0.137-0.372-0.241s-0.181-0.227-0.237-0.367
			S66.206,14.323,66.206,14.155z M68.48,24.582h-2.174v-8.283h2.174V24.582z"/>
		<path fill="#FFFFFF" d="M72.139,16.299l0.061,0.819c0.24-0.316,0.521-0.558,0.842-0.724c0.321-0.166,0.681-0.249,1.08-0.249
			c0.321,0,0.617,0.055,0.888,0.165c0.271,0.109,0.503,0.289,0.697,0.539s0.345,0.577,0.452,0.98
			c0.107,0.403,0.161,0.898,0.161,1.484v5.268h-2.174v-5.274c0-0.266-0.021-0.485-0.062-0.659c-0.041-0.173-0.101-0.311-0.18-0.413
			c-0.079-0.102-0.178-0.173-0.295-0.214c-0.118-0.041-0.255-0.062-0.414-0.062c-0.204,0-0.383,0.054-0.536,0.161
			c-0.153,0.106-0.281,0.255-0.383,0.443v6.018h-2.174v-8.283H72.139z"/>
		<path fill="#FFFFFF" d="M87.52,20.945l0.743-4.646h2.075l-1.715,8.283h-1.799l-1.171-4.792l-1.171,4.792h-1.807l-1.715-8.283
			h2.083l0.735,4.654l1.103-4.654h1.539L87.52,20.945z"/>
		<path fill="#FFFFFF" d="M91.408,14.155c0-0.169,0.027-0.323,0.084-0.464c0.057-0.14,0.135-0.261,0.237-0.363
			c0.103-0.102,0.226-0.181,0.372-0.237c0.145-0.056,0.307-0.084,0.485-0.084s0.341,0.028,0.486,0.084
			c0.146,0.057,0.269,0.136,0.371,0.237c0.103,0.103,0.181,0.224,0.237,0.363c0.057,0.141,0.084,0.295,0.084,0.464
			c0,0.168-0.027,0.322-0.084,0.463s-0.135,0.263-0.237,0.367s-0.226,0.186-0.371,0.241c-0.146,0.057-0.308,0.084-0.486,0.084
			s-0.341-0.027-0.485-0.084c-0.146-0.056-0.27-0.137-0.372-0.241s-0.181-0.227-0.237-0.367S91.408,14.323,91.408,14.155z
			 M93.682,24.582h-2.174v-8.283h2.174V24.582z"/>
		<path fill="#FFFFFF" d="M97.877,14.262v2.037h1.111v1.631h-1.111v4.11c0,0.174,0.012,0.316,0.035,0.429s0.061,0.2,0.115,0.265
			c0.053,0.063,0.121,0.107,0.202,0.13c0.082,0.023,0.181,0.034,0.299,0.034c0.106,0,0.206-0.005,0.295-0.015
			c0.089-0.011,0.161-0.023,0.218-0.039l-0.016,1.685c-0.163,0.062-0.339,0.111-0.527,0.149c-0.189,0.038-0.411,0.058-0.666,0.058
			c-0.322,0-0.613-0.045-0.873-0.134c-0.26-0.09-0.484-0.232-0.67-0.429c-0.187-0.197-0.329-0.451-0.429-0.762
			c-0.1-0.312-0.149-0.687-0.149-1.126V17.93h-0.957v-1.631h0.957v-2.037H97.877z"/>
		<path fill="#FFFFFF" d="M102.287,17.026c0.225-0.281,0.48-0.498,0.77-0.651c0.288-0.153,0.608-0.229,0.961-0.229
			c0.342,0,0.656,0.059,0.941,0.176c0.285,0.118,0.531,0.304,0.734,0.56c0.205,0.255,0.363,0.587,0.475,0.995
			c0.113,0.408,0.169,0.905,0.169,1.492v5.214h-2.174v-5.229c0-0.266-0.021-0.487-0.062-0.666s-0.102-0.322-0.184-0.429
			c-0.082-0.107-0.182-0.184-0.299-0.23c-0.117-0.046-0.255-0.068-0.413-0.068c-0.214,0-0.396,0.049-0.544,0.146
			s-0.273,0.229-0.375,0.398v6.078h-2.166V12.823h2.166V17.026z"/>
		<path fill="#FFFFFF" d="M117.361,20.034h-3.499v4.548h-2.251V13.436h6.171v1.875h-3.92v2.856h3.499V20.034z"/>
		<path fill="#FFFFFF" d="M122.636,24.582c-0.041-0.087-0.075-0.185-0.104-0.295c-0.028-0.109-0.055-0.226-0.08-0.349
			c-0.163,0.226-0.374,0.414-0.632,0.567c-0.258,0.152-0.572,0.229-0.945,0.229c-0.337,0-0.652-0.059-0.945-0.177
			c-0.294-0.117-0.549-0.283-0.766-0.497c-0.217-0.215-0.389-0.474-0.514-0.777s-0.188-0.645-0.188-1.021
			c0-0.419,0.068-0.798,0.203-1.137c0.135-0.34,0.34-0.628,0.613-0.865c0.272-0.237,0.614-0.42,1.025-0.548
			c0.41-0.127,0.895-0.191,1.451-0.191h0.589v-0.666c0-0.372-0.063-0.636-0.191-0.788c-0.128-0.153-0.313-0.23-0.559-0.23
			c-0.28,0-0.486,0.083-0.616,0.249c-0.131,0.166-0.195,0.399-0.195,0.701h-2.167c0-0.362,0.07-0.703,0.211-1.022
			c0.14-0.319,0.343-0.599,0.608-0.838c0.266-0.24,0.584-0.431,0.957-0.57c0.373-0.141,0.793-0.211,1.264-0.211
			c0.413,0,0.793,0.053,1.141,0.157c0.347,0.104,0.647,0.268,0.902,0.489c0.256,0.223,0.455,0.506,0.598,0.851
			c0.143,0.344,0.215,0.759,0.215,1.243v3.675c0,0.24,0.006,0.453,0.019,0.64s0.032,0.354,0.058,0.505
			c0.025,0.151,0.058,0.286,0.096,0.406s0.083,0.233,0.134,0.341v0.13H122.636z M121.357,23.035c0.24,0,0.443-0.048,0.612-0.146
			c0.169-0.097,0.294-0.211,0.375-0.344v-1.723h-0.513c-0.205,0-0.381,0.033-0.528,0.1c-0.148,0.066-0.272,0.158-0.372,0.275
			s-0.173,0.255-0.221,0.413c-0.049,0.158-0.073,0.327-0.073,0.506c0,0.301,0.063,0.529,0.188,0.685
			C120.95,22.958,121.127,23.035,121.357,23.035z"/>
		<path fill="#FFFFFF" d="M129.074,22.937c0.301,0,0.534-0.094,0.7-0.28c0.166-0.186,0.251-0.501,0.257-0.945h2.036
			c-0.005,0.47-0.084,0.893-0.237,1.268s-0.361,0.692-0.624,0.953c-0.263,0.26-0.573,0.459-0.931,0.597
			c-0.356,0.138-0.742,0.207-1.155,0.207c-0.557,0-1.041-0.09-1.455-0.269c-0.413-0.178-0.757-0.438-1.029-0.776
			c-0.273-0.34-0.478-0.757-0.612-1.252c-0.136-0.495-0.203-1.059-0.203-1.692v-0.597c0-0.633,0.067-1.198,0.203-1.695
			c0.135-0.498,0.338-0.918,0.608-1.26s0.612-0.603,1.025-0.781c0.414-0.179,0.896-0.268,1.447-0.268
			c0.444,0,0.849,0.07,1.214,0.211c0.364,0.14,0.676,0.347,0.934,0.62c0.258,0.272,0.457,0.61,0.597,1.014
			c0.141,0.403,0.214,0.87,0.219,1.401h-2.036c-0.006-0.465-0.082-0.822-0.23-1.072c-0.147-0.25-0.393-0.375-0.734-0.375
			c-0.24,0-0.431,0.049-0.57,0.146c-0.141,0.098-0.248,0.239-0.321,0.425c-0.074,0.187-0.123,0.416-0.146,0.689
			c-0.023,0.272-0.035,0.588-0.035,0.945v0.597c0,0.363,0.011,0.681,0.031,0.953c0.02,0.273,0.067,0.502,0.142,0.686
			c0.073,0.184,0.182,0.321,0.325,0.413C128.635,22.89,128.829,22.937,129.074,22.937z"/>
		<path fill="#FFFFFF" d="M136.638,24.735c-0.566,0-1.069-0.087-1.508-0.261c-0.439-0.173-0.809-0.423-1.11-0.75
			c-0.301-0.326-0.529-0.726-0.685-1.198c-0.156-0.472-0.234-1.009-0.234-1.611v-0.682c0-0.674,0.076-1.265,0.227-1.772
			s0.367-0.934,0.65-1.278s0.63-0.604,1.041-0.776c0.411-0.174,0.877-0.261,1.397-0.261c1.052,0,1.84,0.34,2.365,1.019
			c0.526,0.679,0.789,1.684,0.789,3.016v0.988h-4.311c0.016,0.331,0.061,0.609,0.134,0.834c0.074,0.225,0.175,0.406,0.303,0.544
			s0.282,0.237,0.463,0.298c0.182,0.062,0.387,0.093,0.616,0.093c0.383,0,0.724-0.065,1.022-0.195
			c0.299-0.131,0.563-0.313,0.792-0.548l0.85,1.31c-0.106,0.147-0.247,0.294-0.421,0.439c-0.173,0.146-0.377,0.277-0.612,0.395
			c-0.234,0.117-0.5,0.213-0.796,0.287S136.99,24.735,136.638,24.735z M136.4,17.944c-0.378,0-0.651,0.136-0.822,0.406
			c-0.172,0.271-0.272,0.704-0.303,1.301h2.166v-0.198c-0.01-0.495-0.092-0.87-0.244-1.126
			C137.044,18.072,136.778,17.944,136.4,17.944z"/>
		<path fill="#FFFFFF" d="M147.257,20.708c0,1.343-0.215,2.35-0.644,3.021s-1.102,1.007-2.021,1.007
			c-0.383,0-0.716-0.086-0.999-0.257s-0.527-0.409-0.731-0.716l-0.068,0.819h-1.999V12.823h2.167v4.149
			c0.194-0.261,0.424-0.464,0.689-0.609c0.265-0.146,0.574-0.218,0.926-0.218c0.929,0,1.607,0.341,2.036,1.022
			c0.429,0.681,0.644,1.68,0.644,2.997V20.708z M145.09,20.165c0-0.373-0.014-0.697-0.042-0.973s-0.083-0.505-0.164-0.688
			c-0.082-0.185-0.197-0.32-0.345-0.41c-0.148-0.089-0.342-0.134-0.582-0.134c-0.245,0-0.447,0.055-0.608,0.164
			c-0.161,0.11-0.29,0.262-0.387,0.456v3.774c0.092,0.184,0.22,0.326,0.383,0.429c0.163,0.102,0.372,0.153,0.628,0.153
			c0.234,0,0.426-0.041,0.574-0.123c0.147-0.081,0.262-0.212,0.341-0.391s0.132-0.408,0.16-0.688
			c0.028-0.281,0.042-0.623,0.042-1.026V20.165z"/>
		<path fill="#FFFFFF" d="M148.306,20.173c0-0.648,0.079-1.223,0.237-1.723s0.383-0.922,0.674-1.264s0.642-0.601,1.053-0.777
			c0.41-0.176,0.871-0.264,1.382-0.264c0.515,0,0.979,0.088,1.393,0.264c0.414,0.177,0.766,0.436,1.057,0.777
			s0.516,0.764,0.674,1.264s0.237,1.074,0.237,1.723v0.543c0,0.653-0.078,1.229-0.233,1.727c-0.156,0.497-0.379,0.917-0.67,1.259
			c-0.291,0.343-0.643,0.601-1.057,0.773c-0.413,0.174-0.875,0.261-1.386,0.261c-0.516,0-0.979-0.087-1.394-0.261
			c-0.413-0.173-0.765-0.431-1.056-0.773c-0.291-0.342-0.516-0.762-0.674-1.259c-0.158-0.498-0.237-1.073-0.237-1.727V20.173z
			 M150.479,20.716c0,0.771,0.104,1.334,0.314,1.688c0.209,0.354,0.5,0.532,0.872,0.532c0.394,0,0.689-0.178,0.889-0.532
			c0.198-0.354,0.298-0.918,0.298-1.688v-0.543c0-0.756-0.104-1.316-0.313-1.681c-0.209-0.365-0.505-0.548-0.888-0.548
			c-0.368,0-0.655,0.183-0.861,0.548c-0.207,0.364-0.311,0.925-0.311,1.681V20.716z"/>
		<path fill="#FFFFFF" d="M156.106,20.173c0-0.648,0.079-1.223,0.237-1.723s0.383-0.922,0.674-1.264s0.642-0.601,1.053-0.777
			c0.41-0.176,0.871-0.264,1.382-0.264c0.515,0,0.979,0.088,1.393,0.264c0.414,0.177,0.766,0.436,1.057,0.777
			s0.516,0.764,0.674,1.264s0.237,1.074,0.237,1.723v0.543c0,0.653-0.078,1.229-0.233,1.727c-0.156,0.497-0.379,0.917-0.67,1.259
			c-0.291,0.343-0.643,0.601-1.057,0.773c-0.413,0.174-0.875,0.261-1.386,0.261c-0.516,0-0.979-0.087-1.394-0.261
			c-0.413-0.173-0.765-0.431-1.056-0.773c-0.291-0.342-0.516-0.762-0.674-1.259c-0.158-0.498-0.237-1.073-0.237-1.727V20.173z
			 M158.28,20.716c0,0.771,0.104,1.334,0.314,1.688c0.209,0.354,0.5,0.532,0.872,0.532c0.394,0,0.689-0.178,0.889-0.532
			c0.198-0.354,0.298-0.918,0.298-1.688v-0.543c0-0.756-0.104-1.316-0.313-1.681c-0.209-0.365-0.505-0.548-0.888-0.548
			c-0.368,0-0.655,0.183-0.861,0.548c-0.207,0.364-0.311,0.925-0.311,1.681V20.716z"/>
		<path fill="#FFFFFF" d="M166.908,21.39l-0.582,0.65v2.542h-2.167V12.823h2.167v6.354l0.268-0.397l1.501-2.48h2.58l-2.404,3.414
			l2.634,4.869h-2.48L166.908,21.39z"/>
	</g>
</g>
</svg>
