<?xml version="1.0" encoding="utf-8"?>
<!-- Generator: Adobe Illustrator 16.0.0, SVG Export Plug-In . SVG Version: 6.00 Build 0)  -->
<!DOCTYPE svg PUBLIC "-//W3C//DTD SVG 1.1//EN" "http://www.w3.org/Graphics/SVG/1.1/DTD/svg11.dtd">
<svg version="1.1" id="Layer_1" xmlns="http://www.w3.org/2000/svg" xmlns:xlink="http://www.w3.org/1999/xlink" x="0px" y="0px"
	 width="457.566px" height="309.3px" viewBox="26.934 101.187 457.566 309.3" enable-background="new 26.934 101.187 457.566 309.3"
	 xml:space="preserve">
<g transform="translate(0.000000,512.000000) scale(0.100000,-0.100000)">
	<path fill="#FFFFFF" d="M3162.998,4098.999C2667.998,4051,2213.999,3761,1970,3336C1561.001,2622.998,1768.999,1730.996,2450,1275
		c517.998-347.002,1194.004-345.996,1715,0c229.004,152.002,407.002,357.002,530,610c62.002,127.002,94.004,220.996,127.002,367.002
		c20,88.994,22.998,130,22.998,307.998c0,177.998-2.998,218.999-22.998,307.998c-81.006,360-267.002,668.003-532.998,884.004
		c-112.002,90.996-173.008,130-298.008,191.997C3820.996,4030,3642.001,4080,3435,4100
		C3314.004,4111,3284.004,4111,3162.998,4098.999z M3397.998,3332.998c15-10.996,37.002-35,50-52.998
		C3470,3247.998,3470,3242.001,3470,2936V2625l170.996-170c94.004-94.004,177.002-182.002,185-197.002
		c66.006-125-88.994-280-213.994-213.994c-15,7.998-120,107.998-234.004,222.998C3202.002,2444.003,3170,2480.996,3160,2517.998
		c-7.002,29.004-10,152.002-7.998,385c2.998,324.004,3.994,344.004,23.994,377.002c30,52.002,88.008,82.002,147.002,77.002
		C3350,3355,3382.998,3343.999,3397.998,3332.998z"/>
	<path fill="#FFFFFF" d="M992.002,3552.998c-49.004-23.999-75-67.998-80-131.997c-5-70,21.997-115,87.998-148.999
		c43.999-22.002,48.999-23.003,345-20c295,2.998,301.001,2.998,337.998,26.997c51.001,31.001,81.001,91.001,74.004,148.999
		c-5,50-29.004,87.002-77.002,120C1647.998,3570,1642.002,3570,1336.001,3570C1070,3570,1020,3567.001,992.002,3552.998z"/>
	<path fill="#FFFFFF" d="M370,2708.999c-13.999-6.001-36.001-20-47.998-31.997c-78.003-72.002-68.003-185,20.996-251.006
		c28.003-20.996,39.004-20.996,553.003-23.994c506.001-2.002,525-2.002,562.998,17.002c112.002,57.998,113.003,223.994,0,280.996
		c-36.997,18.999-60,20-551.001,18.999C592.002,2718.999,385,2715,370,2708.999z"/>
	<path fill="#FFFFFF" d="M1000,1847.998c-66.001-33.994-92.998-78.994-87.998-148.994c5-65,31.997-109.004,81.997-133.008
		c28.999-13.994,78.999-15.996,343.999-15.996c304.004,0,310,0,342.002,22.998c47.998,32.002,72.002,69.004,77.002,119.004
		c6.997,57.998-23.003,117.998-74.004,148.994C1646.001,1865,1640,1865,1345,1867.998
		C1048.999,1870.996,1043.999,1870,1000,1847.998z"/>
</g>
</svg>
