<?xml version="1.0" encoding="utf-8"?>
<!-- Generator: Adobe Illustrator 16.0.0, SVG Export Plug-In . SVG Version: 6.00 Build 0)  -->
<!DOCTYPE svg PUBLIC "-//W3C//DTD SVG 1.1//EN" "http://www.w3.org/Graphics/SVG/1.1/DTD/svg11.dtd">
<svg version="1.1" id="Layer_1" xmlns="http://www.w3.org/2000/svg" xmlns:xlink="http://www.w3.org/1999/xlink" x="0px" y="0px"
	 width="457.566px" height="309.3px" viewBox="0 0 457.566 309.3" enable-background="new 0 0 457.566 309.3" xml:space="preserve">
<g transform="translate(0.000000,512.000000) scale(0.100000,-0.100000)">
	<path fill="#6D6D6D" d="M2893.662,5110.869c-495-47.998-948.999-337.998-1192.998-762.998
		c-408.999-713.008-201.001-1604.995,480-2060.991c517.998-347.012,1194.004-345.996,1715,0
		c229.004,151.992,407.002,356.992,530,610c62.002,126.992,94.004,220.996,127.002,366.992c20,89.004,22.998,130,22.998,308.003
		c0,177.988-2.998,218.994-22.998,307.988c-81.006,360-267.002,668.008-532.998,884.009
		c-112.002,90.996-173.008,130-298.008,191.997c-170,86.001-348.994,136.001-555.996,156.001
		C3044.668,5122.871,3014.668,5122.871,2893.662,5110.869z M3128.662,4344.863c15-10.996,37.002-35,50-52.988
		c22.002-32.012,22.002-38.008,22.002-344.004v-310.996l170.996-169.995c94.004-94.004,177.002-182.011,185-197.011
		c66.006-125-88.994-280-213.994-213.984c-15,7.988-120,107.988-234.004,222.988c-175.996,177.011-207.998,214.004-217.998,250.996
		c-7.002,29.004-10,152.007-7.998,384.995c2.998,324.004,3.994,344.004,23.994,377.012c30,51.992,88.008,81.992,147.002,76.992
		C3080.664,4366.875,3113.662,4355.869,3128.662,4344.863z"/>
	<path fill="#6D6D6D" d="M722.666,4564.863c-49.004-23.994-75-67.988-80-131.992c-5-70,21.997-115,87.998-149.004
		c43.999-21.992,48.999-22.998,345-20c295,3.008,301.001,3.008,337.998,27.002c51.001,31.006,81.001,91.006,74.004,148.994
		c-5,50-29.004,87.012-77.002,120c-32.002,22.007-37.998,22.007-343.999,22.007C800.664,4581.87,750.664,4578.867,722.666,4564.863z
		"/>
	<path fill="#6D6D6D" d="M100.664,3720.869c-13.999-6.006-36.001-20-47.998-32.002c-78.003-71.992-68.003-184.995,20.996-250.991
		c28.003-20.996,39.004-20.996,553.003-24.004c506.001-1.992,525-1.992,562.998,17.012c112.002,57.988,113.003,223.979,0,280.991
		c-36.997,18.994-60,20-551.001,18.994C322.666,3730.869,115.664,3726.875,100.664,3720.869z"/>
	<path fill="#6D6D6D" d="M730.664,2859.868c-66.001-33.984-92.998-78.984-87.998-148.984c5-65,31.997-109.004,81.997-133.008
		c28.999-14.004,78.999-15.996,343.999-15.996c304.004,0,310,0,342.002,22.988c47.998,32.012,72.002,69.004,77.002,119.004
		c6.997,58.008-23.003,118.008-74.004,149.004c-36.997,24.004-42.998,24.004-337.998,26.992
		C779.663,2882.876,774.663,2881.88,730.664,2859.868z"/>
</g>
</svg>
