<?xml version="1.0" encoding="utf-8"?>
<!-- Generator: Adobe Illustrator 16.0.0, SVG Export Plug-In . SVG Version: 6.00 Build 0)  -->
<!DOCTYPE svg PUBLIC "-//W3C//DTD SVG 1.1//EN" "http://www.w3.org/Graphics/SVG/1.1/DTD/svg11.dtd">
<svg version="1.1" id="Layer_1" xmlns="http://www.w3.org/2000/svg" xmlns:xlink="http://www.w3.org/1999/xlink" x="0px" y="0px"
	 width="444.487px" height="639.354px" viewBox="0 0 444.487 639.354" enable-background="new 0 0 444.487 639.354"
	 xml:space="preserve">
<path fill="#CEA241" d="M222.244-0.021C99.699-0.021,0,99.679,0,222.223c0,154.025,222.462,417.131,222.462,417.131
	s222.025-270.681,222.025-417.131C444.488,99.679,344.792-0.021,222.244-0.021z M289.299,287.296
	c-18.489,18.486-42.771,27.73-67.055,27.73c-24.281,0-48.57-9.245-67.052-27.73c-36.976-36.972-36.976-97.132,0-134.107
	c17.904-17.912,41.721-27.777,67.052-27.777c25.33,0,49.143,9.869,67.055,27.777C326.275,190.165,326.275,250.325,289.299,287.296z"
	/>
</svg>
