<?xml version="1.0" encoding="utf-8"?>
<!-- Generator: Adobe Illustrator 16.0.0, SVG Export Plug-In . SVG Version: 6.00 Build 0)  -->
<!DOCTYPE svg PUBLIC "-//W3C//DTD SVG 1.1//EN" "http://www.w3.org/Graphics/SVG/1.1/DTD/svg11.dtd">
<svg version="1.1" id="Layer_1" xmlns="http://www.w3.org/2000/svg" xmlns:xlink="http://www.w3.org/1999/xlink" x="0px" y="0px"
	 width="40.268px" height="40.173px" viewBox="0 0 40.268 40.173" enable-background="new 0 0 40.268 40.173" xml:space="preserve">
<g transform="translate(0.000000,512.000000) scale(0.100000,-0.100000)">
	<path fill="#CFA242" d="M348.135,5117.084c-15.313-3.242-28.789-9.6-40.449-18.984c-3.555-2.808-21.885-20.601-40.762-39.58
		l-34.404-34.409l-8.74,2.051c-4.854,1.074-17.573,3.994-28.252,6.255c-10.679,2.373-46.05,10.137-78.73,17.363
		c-65.684,14.561-68.916,14.995-78.516,10.356c-8.091-4.097-33.545-29.878-35.156-35.806c-1.514-5.396-1.514-8.628,0-13.911
		c2.476-8.848,4.741-10.244,73.228-44.443c35.269-17.578,64.385-32.129,64.707-32.461c0.22-0.205-10.674-11.533-24.37-25.229
		l-24.81-24.8l-25.884-2.588c-30.63-3.135-31.167-3.232-36.235-6.582c-9.063-5.82-12.617-19.307-7.656-29.014
		c3.018-5.713,3.34-6.035,32.676-26.641c13.916-9.912,26.318-19.092,27.612-20.488c1.187-1.289,10.464-14.023,20.381-28.252
		c10.034-14.131,19.736-26.865,21.572-28.154c1.831-1.396,5.61-3.242,8.413-3.877c9.707-2.695,20.493,2.48,25.234,12.08
		c1.943,3.877,2.915,9.912,5.181,32.246l2.803,27.5l24.697,24.814c13.589,13.574,24.912,24.473,25.127,24.258
		c0.322-0.322,15.098-29.668,32.9-65.361c34.824-69.668,35.156-70.215,44.648-72.793c5.498-1.406,11.426-0.752,16.504,1.934
		c6.133,3.242,29.434,26.973,32.559,33.115c4.961,9.707,4.746,10.996-16.172,106.123c-10.566,47.559-19.092,87.139-19.092,87.783
		c0,0.752,16.396,17.9,36.553,38.066c20.293,20.391,38.418,39.58,40.781,43.145c8.301,12.402,13.047,24.375,15.527,38.721
		c3.223,19.302-5.273,36.563-22.207,44.971C369.697,5118.486,358.818,5119.453,348.135,5117.084z M368.936,5090.009
		c4.551-3.34,6.484-8.408,5.625-14.99c-0.977-8.091-3.145-14.561-7.773-23.511c-3.555-6.904-8.418-12.295-44.102-48.208
		c-41.855-42.285-42.5-42.93-42.5-51.875c0-1.621,8.73-42.817,19.414-91.553c10.684-48.75,19.414-89.736,19.414-91.035
		c0-1.514-3.242-5.605-9.16-11.426c-4.971-4.961-9.287-8.848-9.609-8.525c-0.215,0.215-6.035,11.865-13.047,25.771
		c-6.904,13.916-21.895,43.467-33.223,65.684c-19.727,38.721-20.703,40.449-25.439,43.359c-3.896,2.471-6.045,3.125-11.113,3.125
		c-3.457,0-8.086-0.742-10.352-1.611c-4.854-2.061-59.429-55.977-63.423-62.773c-2.368-3.984-3.013-7.441-5.171-28.359
		c-1.401-13.047-2.808-24.063-3.022-24.268c-0.322-0.332-7.871,9.697-16.826,22.324c-8.95,12.607-17.793,24.482-19.839,26.318
		c-1.948,1.826-13.379,10.244-25.459,18.76c-12.08,8.418-21.782,15.537-21.567,15.645c0.215,0.205,10.786,1.396,23.511,2.695
		c19.199,1.826,24.155,2.686,28.579,4.844c4.097,1.943,12.295,9.609,33.545,30.957c15.527,15.645,28.901,29.863,29.873,31.592
		c4.531,9.063,2.803,19.844-4.419,26.641c-2.695,2.588-24.272,14.023-67.627,35.811c-34.941,17.686-63.848,32.349-64.062,32.563
		c-0.322,0.327,3.56,4.639,8.521,9.604c5.825,5.928,9.927,9.165,11.431,9.165c1.294,0,42.28-8.735,91.03-19.414
		c48.745-10.679,90.376-19.409,92.319-19.409c7.871,0,10.889,2.48,51.66,43.032c35.488,35.264,40.762,40.01,47.676,43.569
		C348.662,5092.275,362.9,5094.433,368.936,5090.009z"/>
</g>
</svg>
