<?xml version="1.0" encoding="utf-8"?>
<!-- Generator: Adobe Illustrator 16.0.0, SVG Export Plug-In . SVG Version: 6.00 Build 0)  -->
<!DOCTYPE svg PUBLIC "-//W3C//DTD SVG 1.1//EN" "http://www.w3.org/Graphics/SVG/1.1/DTD/svg11.dtd">
<svg version="1.1" id="Layer_1" xmlns="http://www.w3.org/2000/svg" xmlns:xlink="http://www.w3.org/1999/xlink" x="0px" y="0px"
	 width="512px" height="512px" viewBox="0 0 512 512" enable-background="new 0 0 512 512" xml:space="preserve">
<g>
	<path fill="#CEA241" d="M225.998,17.75c-43.223,5.613-80.083,20.77-116.009,47.62c-11.414,8.514-36.019,33.119-44.533,44.533
		c-26.85,35.925-42.38,73.815-47.62,116.009c-1.871,15.25-1.871,44.626,0,59.875c11.882,96.456,83.358,177.943,177.101,202.174
		c20.114,5.146,31.528,6.643,55.479,7.11c32.09,0.655,53.514-2.339,81.112-11.507c81.581-27.038,142.579-96.082,159.699-180.469
		c4.397-21.519,5.521-54.637,2.807-77.184C480.563,117.667,394.117,31.222,285.873,17.75
		C271.84,16.065,239.002,16.065,225.998,17.75z M272.963,40.203c33.118,1.871,72.412,15.343,101.508,34.709
		c50.333,33.68,84.105,84.854,94.865,144.262c2.525,13.847,3.461,45.75,1.777,60.157c-5.613,49.397-27.879,95.146-63.337,130.136
		c-34.989,34.616-78.68,55.666-127.984,61.56c-10.946,1.403-36.954,1.311-48.181,0c-71.944-8.607-134.72-52.11-167.932-116.384
		c-10.291-19.833-17.121-39.854-21.237-62.588c-1.871-10.011-2.152-14.501-2.152-36.207c0-27.879,1.216-37.047,7.578-59.126
		c25.354-88.316,104.034-151.56,195.438-156.986c6.175-0.374,13.378-0.468,15.904-0.374
		C261.829,39.548,268.005,39.922,272.963,40.203z"/>
	<path fill="#CEA241" d="M142.656,291.231h56.655v-28.327h-56.655V291.231z M312.623,291.231h56.655v-28.327h-56.655V291.231z
		 M425.713,330.085l-10.762-72.547c-2.49-19.636-16.833-34.594-35.908-36.697l-17.815-44.567
		c-6.5-16.197-21.993-26.682-39.447-26.682H190.155c-17.471,0-32.948,10.485-39.449,26.709l-17.636,44.125h-4.772
		c-21.329,0.028-30.597,15.61-33.252,36.785l-8.825,72.998c-1.024,7.997,1.479,16.156,6.86,22.215
		c5.367,6.142,13.14,9.627,21.259,9.627h47.748c10.858,0,20.555-6.003,25.382-15.658l6.334-12.67h124.322l6.308,12.67
		c4.841,9.669,14.551,15.658,25.396,15.658h47.748c8.105,0,15.88-3.651,21.274-9.738
		C424.219,346.199,426.737,338.094,425.713,330.085 M177.001,186.828c2.171-5.408,7.316-8.907,13.154-8.907H321.78
		c5.809,0,10.926,3.499,13.153,8.893l13.43,33.598H163.569L177.001,186.828z M349.831,333.723l-14.192-28.328H176.294
		l-14.191,28.328h-47.763l8.839-73.004c0.885-7.047,7.165-11.951,14.261-11.964c53.765-0.138,183.37-0.271,237.092-0.194
		c7.056,0.014,11.398,5.463,12.256,12.489l10.803,72.673H349.831z"/>
</g>
</svg>
