<?xml version="1.0" encoding="utf-8"?>
<!-- Generator: Adobe Illustrator 16.0.0, SVG Export Plug-In . SVG Version: 6.00 Build 0)  -->
<!DOCTYPE svg PUBLIC "-//W3C//DTD SVG 1.1//EN" "http://www.w3.org/Graphics/SVG/1.1/DTD/svg11.dtd">
<svg version="1.1" id="Layer_1" xmlns="http://www.w3.org/2000/svg" xmlns:xlink="http://www.w3.org/1999/xlink" x="0px" y="0px"
	 width="180px" height="38px" viewBox="0 0 180 38" enable-background="new 0 0 180 38" xml:space="preserve">
<path fill="#D34A33" d="M180,33c0,2.762-2.238,5-5,5H5c-2.761,0-5-2.238-5-5V5c0-2.761,2.239-5,5-5h170c2.762,0,5,2.239,5,5V33z"/>
<g>
	<g>
		<g enable-background="new    ">
			<path fill="#FFFFFF" d="M41.172,21.873c0-0.193-0.018-0.367-0.054-0.521s-0.111-0.297-0.226-0.433
				c-0.115-0.135-0.278-0.267-0.49-0.394c-0.212-0.128-0.494-0.263-0.846-0.406c-0.419-0.158-0.818-0.339-1.198-0.543
				c-0.38-0.204-0.715-0.445-1.003-0.724c-0.289-0.278-0.518-0.6-0.689-0.965s-0.256-0.79-0.256-1.274
				c0-0.465,0.086-0.89,0.26-1.275c0.173-0.385,0.417-0.713,0.731-0.983s0.687-0.48,1.118-0.632c0.431-0.15,0.907-0.226,1.428-0.226
				c0.536,0,1.02,0.086,1.451,0.257c0.432,0.171,0.799,0.408,1.103,0.712s0.537,0.666,0.701,1.087
				c0.163,0.421,0.245,0.884,0.245,1.39h-2.243c0-0.235-0.024-0.45-0.073-0.647c-0.049-0.196-0.125-0.364-0.23-0.505
				s-0.238-0.25-0.402-0.329c-0.163-0.079-0.36-0.119-0.589-0.119c-0.214,0-0.399,0.033-0.555,0.1s-0.285,0.157-0.387,0.272
				c-0.102,0.114-0.179,0.251-0.229,0.409c-0.051,0.158-0.077,0.326-0.077,0.505c0,0.185,0.04,0.35,0.119,0.498
				s0.191,0.286,0.337,0.413c0.146,0.128,0.322,0.248,0.528,0.36s0.435,0.222,0.685,0.329c0.521,0.188,0.975,0.397,1.363,0.628
				c0.388,0.229,0.712,0.489,0.972,0.78s0.454,0.619,0.582,0.984c0.127,0.364,0.191,0.776,0.191,1.236
				c0,0.489-0.081,0.926-0.241,1.309s-0.391,0.706-0.689,0.969c-0.299,0.263-0.66,0.465-1.083,0.604
				c-0.423,0.141-0.901,0.211-1.432,0.211c-0.479,0-0.951-0.073-1.412-0.219c-0.462-0.146-0.874-0.368-1.237-0.67
				c-0.362-0.301-0.654-0.681-0.876-1.141c-0.222-0.459-0.333-1.005-0.333-1.638h2.258c0,0.337,0.033,0.622,0.1,0.857
				c0.066,0.234,0.167,0.425,0.303,0.57c0.135,0.146,0.302,0.25,0.501,0.313c0.199,0.064,0.431,0.096,0.696,0.096
				c0.214,0,0.397-0.031,0.547-0.096c0.151-0.063,0.273-0.15,0.368-0.26c0.094-0.11,0.162-0.241,0.203-0.395
				C41.152,22.218,41.172,22.052,41.172,21.873z"/>
			<path fill="#FFFFFF" d="M44.824,14.371c0-0.169,0.028-0.323,0.084-0.464c0.056-0.14,0.135-0.261,0.237-0.363
				c0.102-0.102,0.226-0.181,0.372-0.237c0.146-0.056,0.307-0.084,0.486-0.084s0.341,0.028,0.486,0.084
				c0.146,0.057,0.269,0.136,0.371,0.237c0.102,0.103,0.181,0.224,0.238,0.363c0.056,0.141,0.084,0.295,0.084,0.464
				c0,0.168-0.028,0.322-0.084,0.463c-0.057,0.141-0.136,0.263-0.238,0.367s-0.226,0.186-0.371,0.241
				c-0.146,0.057-0.308,0.084-0.486,0.084s-0.34-0.027-0.486-0.084c-0.146-0.056-0.27-0.137-0.372-0.241s-0.181-0.227-0.237-0.367
				S44.824,14.539,44.824,14.371z M47.098,24.798h-2.174v-8.283h2.174V24.798z"/>
			<path fill="#FFFFFF" d="M48.514,20.403c0-1.357,0.245-2.37,0.735-3.039s1.176-1.003,2.06-1.003c0.403,0,0.745,0.078,1.026,0.233
				c0.28,0.156,0.518,0.374,0.712,0.654l0.084-0.734h1.952v8.283c0,0.566-0.083,1.055-0.249,1.466
				c-0.166,0.411-0.399,0.749-0.701,1.015s-0.662,0.462-1.083,0.59c-0.421,0.127-0.89,0.191-1.405,0.191
				c-0.194,0-0.408-0.021-0.643-0.062c-0.234-0.041-0.469-0.101-0.704-0.18s-0.458-0.179-0.67-0.299s-0.389-0.262-0.532-0.425
				l0.728-1.501c0.097,0.103,0.213,0.198,0.348,0.287c0.135,0.09,0.278,0.166,0.429,0.229c0.15,0.064,0.308,0.115,0.471,0.153
				c0.163,0.038,0.321,0.058,0.475,0.058c0.219,0,0.415-0.024,0.585-0.072c0.171-0.049,0.315-0.132,0.433-0.249
				c0.117-0.118,0.206-0.273,0.264-0.467c0.059-0.194,0.088-0.437,0.088-0.728V24.14c-0.199,0.26-0.43,0.461-0.693,0.601
				c-0.263,0.141-0.57,0.211-0.922,0.211c-0.439,0-0.831-0.087-1.175-0.261c-0.344-0.173-0.635-0.429-0.873-0.766
				s-0.42-0.754-0.547-1.251c-0.128-0.498-0.191-1.073-0.191-1.727V20.403z M50.681,20.947c0,0.766,0.1,1.323,0.298,1.673
				c0.199,0.35,0.516,0.524,0.95,0.524c0.234,0,0.432-0.042,0.593-0.127c0.161-0.084,0.292-0.202,0.394-0.355v-3.958
				c-0.107-0.169-0.241-0.299-0.402-0.391s-0.351-0.138-0.57-0.138c-0.429,0-0.747,0.176-0.953,0.528
				c-0.207,0.352-0.31,0.919-0.31,1.699V20.947z"/>
			<path fill="#FFFFFF" d="M58.643,16.515l0.061,0.819c0.24-0.316,0.521-0.558,0.842-0.724c0.321-0.166,0.681-0.249,1.08-0.249
				c0.321,0,0.617,0.055,0.888,0.165c0.271,0.109,0.503,0.289,0.697,0.539s0.345,0.577,0.452,0.98
				c0.107,0.403,0.161,0.898,0.161,1.484v5.268h-2.174v-5.274c0-0.266-0.021-0.485-0.062-0.659c-0.041-0.173-0.101-0.311-0.18-0.413
				c-0.079-0.102-0.178-0.173-0.295-0.214c-0.118-0.041-0.255-0.062-0.414-0.062c-0.204,0-0.383,0.054-0.536,0.161
				c-0.153,0.106-0.281,0.255-0.383,0.443v6.018h-2.174v-8.283H58.643z"/>
			<path fill="#FFFFFF" d="M67.99,14.371c0-0.169,0.028-0.323,0.084-0.464c0.056-0.14,0.135-0.261,0.237-0.363
				c0.102-0.102,0.226-0.181,0.372-0.237c0.146-0.056,0.307-0.084,0.486-0.084s0.341,0.028,0.486,0.084
				c0.146,0.057,0.269,0.136,0.371,0.237c0.102,0.103,0.181,0.224,0.238,0.363c0.056,0.141,0.084,0.295,0.084,0.464
				c0,0.168-0.028,0.322-0.084,0.463c-0.057,0.141-0.136,0.263-0.238,0.367s-0.226,0.186-0.371,0.241
				c-0.146,0.057-0.308,0.084-0.486,0.084s-0.34-0.027-0.486-0.084c-0.146-0.056-0.27-0.137-0.372-0.241s-0.181-0.227-0.237-0.367
				S67.99,14.539,67.99,14.371z M70.264,24.798H68.09v-8.283h2.174V24.798z"/>
			<path fill="#FFFFFF" d="M73.923,16.515l0.061,0.819c0.24-0.316,0.521-0.558,0.842-0.724c0.321-0.166,0.681-0.249,1.08-0.249
				c0.321,0,0.617,0.055,0.888,0.165c0.271,0.109,0.503,0.289,0.697,0.539s0.345,0.577,0.452,0.98
				c0.107,0.403,0.161,0.898,0.161,1.484v5.268h-2.174v-5.274c0-0.266-0.021-0.485-0.062-0.659c-0.041-0.173-0.101-0.311-0.18-0.413
				c-0.079-0.102-0.178-0.173-0.295-0.214c-0.118-0.041-0.255-0.062-0.414-0.062c-0.204,0-0.383,0.054-0.536,0.161
				c-0.153,0.106-0.281,0.255-0.383,0.443v6.018h-2.174v-8.283H73.923z"/>
			<path fill="#FFFFFF" d="M89.304,21.161l0.743-4.646h2.075l-1.715,8.283h-1.799l-1.171-4.792l-1.171,4.792h-1.807l-1.715-8.283
				h2.083l0.735,4.654l1.103-4.654h1.539L89.304,21.161z"/>
			<path fill="#FFFFFF" d="M93.192,14.371c0-0.169,0.028-0.323,0.084-0.464c0.056-0.14,0.136-0.261,0.237-0.363
				c0.102-0.102,0.227-0.181,0.371-0.237c0.146-0.056,0.308-0.084,0.486-0.084s0.341,0.028,0.486,0.084
				c0.146,0.057,0.27,0.136,0.371,0.237c0.102,0.103,0.182,0.224,0.238,0.363c0.055,0.141,0.084,0.295,0.084,0.464
				c0,0.168-0.029,0.322-0.084,0.463c-0.057,0.141-0.137,0.263-0.238,0.367s-0.226,0.186-0.371,0.241
				c-0.146,0.057-0.308,0.084-0.486,0.084s-0.34-0.027-0.486-0.084c-0.145-0.056-0.27-0.137-0.371-0.241s-0.182-0.227-0.237-0.367
				S93.192,14.539,93.192,14.371z M95.467,24.798h-2.175v-8.283h2.175V24.798z"/>
			<path fill="#FFFFFF" d="M99.662,14.478v2.037h1.109v1.631h-1.109v4.11c0,0.174,0.012,0.316,0.034,0.429s0.062,0.2,0.114,0.265
				c0.055,0.063,0.121,0.107,0.203,0.13c0.082,0.023,0.182,0.034,0.299,0.034c0.107,0,0.205-0.005,0.295-0.015
				c0.089-0.011,0.162-0.023,0.218-0.039l-0.015,1.685c-0.164,0.062-0.34,0.111-0.529,0.149c-0.188,0.038-0.41,0.058-0.666,0.058
				c-0.32,0-0.611-0.045-0.872-0.134c-0.261-0.09-0.483-0.232-0.67-0.429c-0.187-0.197-0.329-0.451-0.429-0.762
				c-0.1-0.312-0.149-0.687-0.149-1.126v-4.355h-0.957v-1.631h0.957v-2.037H99.662z"/>
			<path fill="#FFFFFF" d="M104.071,17.242c0.225-0.281,0.481-0.498,0.77-0.651s0.608-0.229,0.961-0.229
				c0.342,0,0.655,0.059,0.941,0.176c0.286,0.118,0.53,0.304,0.735,0.56c0.203,0.255,0.361,0.587,0.475,0.995
				c0.111,0.408,0.168,0.905,0.168,1.492v5.214h-2.174v-5.229c0-0.266-0.021-0.487-0.062-0.666s-0.103-0.322-0.184-0.429
				c-0.081-0.107-0.181-0.184-0.299-0.23c-0.117-0.046-0.255-0.068-0.413-0.068c-0.215,0-0.396,0.049-0.543,0.146
				c-0.148,0.097-0.273,0.229-0.376,0.398v6.078h-2.167V13.039h2.167V17.242z"/>
			<path fill="#FFFFFF" d="M113.028,20.403c0-1.357,0.245-2.37,0.735-3.039c0.489-0.669,1.176-1.003,2.059-1.003
				c0.403,0,0.746,0.078,1.026,0.233c0.28,0.156,0.518,0.374,0.712,0.654l0.084-0.734h1.952v8.283c0,0.566-0.083,1.055-0.249,1.466
				s-0.398,0.749-0.7,1.015s-0.662,0.462-1.083,0.59c-0.422,0.127-0.89,0.191-1.405,0.191c-0.194,0-0.408-0.021-0.644-0.062
				c-0.234-0.041-0.469-0.101-0.703-0.18c-0.235-0.079-0.459-0.179-0.67-0.299c-0.213-0.12-0.39-0.262-0.533-0.425l0.729-1.501
				c0.096,0.103,0.213,0.198,0.348,0.287c0.135,0.09,0.278,0.166,0.429,0.229c0.15,0.064,0.308,0.115,0.472,0.153
				c0.162,0.038,0.32,0.058,0.475,0.058c0.219,0,0.414-0.024,0.585-0.072c0.171-0.049,0.315-0.132,0.433-0.249
				c0.117-0.118,0.205-0.273,0.264-0.467c0.059-0.194,0.088-0.437,0.088-0.728V24.14c-0.199,0.26-0.43,0.461-0.692,0.601
				c-0.263,0.141-0.57,0.211-0.923,0.211c-0.438,0-0.83-0.087-1.175-0.261c-0.345-0.173-0.636-0.429-0.872-0.766
				c-0.238-0.337-0.42-0.754-0.548-1.251c-0.128-0.498-0.191-1.073-0.191-1.727V20.403z M115.195,20.947
				c0,0.766,0.1,1.323,0.298,1.673c0.199,0.35,0.516,0.524,0.95,0.524c0.234,0,0.432-0.042,0.593-0.127
				c0.161-0.084,0.292-0.202,0.394-0.355v-3.958c-0.106-0.169-0.24-0.299-0.401-0.391s-0.351-0.138-0.57-0.138
				c-0.429,0-0.747,0.176-0.953,0.528c-0.206,0.352-0.31,0.919-0.31,1.699V20.947z"/>
			<path fill="#FFFFFF" d="M120.922,20.389c0-0.648,0.078-1.223,0.236-1.723s0.383-0.922,0.674-1.264s0.643-0.601,1.053-0.777
				c0.41-0.176,0.871-0.264,1.382-0.264c0.516,0,0.979,0.088,1.394,0.264c0.413,0.177,0.766,0.436,1.057,0.777
				s0.516,0.764,0.674,1.264s0.236,1.074,0.236,1.723v0.543c0,0.653-0.078,1.229-0.232,1.727c-0.156,0.497-0.379,0.917-0.67,1.259
				c-0.291,0.343-0.644,0.601-1.057,0.773c-0.414,0.174-0.875,0.261-1.386,0.261c-0.516,0-0.979-0.087-1.394-0.261
				c-0.414-0.173-0.766-0.431-1.057-0.773c-0.291-0.342-0.516-0.762-0.674-1.259c-0.158-0.498-0.236-1.073-0.236-1.727V20.389z
				 M123.096,20.932c0,0.771,0.104,1.334,0.313,1.688s0.5,0.532,0.873,0.532c0.393,0,0.688-0.178,0.888-0.532
				s0.299-0.918,0.299-1.688v-0.543c0-0.756-0.105-1.316-0.314-1.681c-0.209-0.365-0.505-0.548-0.888-0.548
				c-0.367,0-0.654,0.183-0.861,0.548c-0.206,0.364-0.31,0.925-0.31,1.681V20.932z"/>
			<path fill="#FFFFFF" d="M128.723,20.389c0-0.648,0.079-1.223,0.237-1.723s0.383-0.922,0.674-1.264s0.642-0.601,1.053-0.777
				c0.41-0.176,0.871-0.264,1.382-0.264c0.515,0,0.979,0.088,1.393,0.264c0.414,0.177,0.766,0.436,1.057,0.777
				s0.516,0.764,0.674,1.264s0.237,1.074,0.237,1.723v0.543c0,0.653-0.078,1.229-0.233,1.727c-0.156,0.497-0.379,0.917-0.67,1.259
				c-0.291,0.343-0.643,0.601-1.057,0.773c-0.413,0.174-0.875,0.261-1.386,0.261c-0.516,0-0.979-0.087-1.394-0.261
				c-0.413-0.173-0.765-0.431-1.056-0.773c-0.291-0.342-0.516-0.762-0.674-1.259c-0.158-0.498-0.237-1.073-0.237-1.727V20.389z
				 M130.896,20.932c0,0.771,0.104,1.334,0.314,1.688c0.209,0.354,0.5,0.532,0.872,0.532c0.394,0,0.689-0.178,0.889-0.532
				c0.198-0.354,0.298-0.918,0.298-1.688v-0.543c0-0.756-0.104-1.316-0.313-1.681c-0.209-0.365-0.505-0.548-0.888-0.548
				c-0.368,0-0.655,0.183-0.861,0.548c-0.207,0.364-0.311,0.925-0.311,1.681V20.932z"/>
			<path fill="#FFFFFF" d="M136.516,20.403c0-1.357,0.245-2.37,0.735-3.039c0.489-0.669,1.176-1.003,2.059-1.003
				c0.403,0,0.745,0.078,1.026,0.233c0.28,0.156,0.518,0.374,0.712,0.654l0.084-0.734h1.952v8.283c0,0.566-0.083,1.055-0.249,1.466
				s-0.399,0.749-0.7,1.015s-0.662,0.462-1.083,0.59c-0.421,0.127-0.89,0.191-1.405,0.191c-0.193,0-0.408-0.021-0.643-0.062
				c-0.235-0.041-0.47-0.101-0.705-0.18c-0.234-0.079-0.458-0.179-0.669-0.299c-0.212-0.12-0.39-0.262-0.532-0.425l0.727-1.501
				c0.098,0.103,0.214,0.198,0.349,0.287c0.136,0.09,0.278,0.166,0.429,0.229c0.15,0.064,0.308,0.115,0.471,0.153
				s0.322,0.058,0.475,0.058c0.22,0,0.415-0.024,0.586-0.072c0.171-0.049,0.315-0.132,0.433-0.249
				c0.117-0.118,0.205-0.273,0.264-0.467c0.059-0.194,0.089-0.437,0.089-0.728V24.14c-0.199,0.26-0.431,0.461-0.693,0.601
				c-0.263,0.141-0.57,0.211-0.923,0.211c-0.438,0-0.83-0.087-1.175-0.261c-0.345-0.173-0.636-0.429-0.873-0.766
				s-0.42-0.754-0.547-1.251c-0.128-0.498-0.191-1.073-0.191-1.727V20.403z M138.682,20.947c0,0.766,0.1,1.323,0.299,1.673
				s0.516,0.524,0.949,0.524c0.235,0,0.433-0.042,0.594-0.127c0.16-0.084,0.292-0.202,0.395-0.355v-3.958
				c-0.107-0.169-0.241-0.299-0.402-0.391s-0.351-0.138-0.57-0.138c-0.429,0-0.746,0.176-0.953,0.528
				c-0.207,0.352-0.311,0.919-0.311,1.699V20.947z"/>
			<path fill="#FFFFFF" d="M146.936,24.798h-2.175V13.039h2.175V24.798z"/>
			<path fill="#FFFFFF" d="M151.957,24.951c-0.566,0-1.069-0.087-1.508-0.261c-0.439-0.173-0.809-0.423-1.11-0.75
				c-0.301-0.326-0.529-0.726-0.685-1.198c-0.156-0.472-0.234-1.009-0.234-1.611v-0.682c0-0.674,0.076-1.265,0.227-1.772
				s0.367-0.934,0.65-1.278s0.63-0.604,1.041-0.776c0.411-0.174,0.877-0.261,1.397-0.261c1.052,0,1.84,0.34,2.365,1.019
				c0.526,0.679,0.789,1.684,0.789,3.016v0.988h-4.311c0.016,0.331,0.061,0.609,0.134,0.834c0.074,0.225,0.175,0.406,0.303,0.544
				s0.282,0.237,0.463,0.298c0.182,0.062,0.387,0.093,0.616,0.093c0.383,0,0.724-0.065,1.022-0.195
				c0.299-0.131,0.563-0.313,0.792-0.548l0.85,1.31c-0.106,0.147-0.247,0.294-0.421,0.439c-0.173,0.146-0.377,0.277-0.612,0.395
				c-0.234,0.117-0.5,0.213-0.796,0.287S152.31,24.951,151.957,24.951z M151.72,18.16c-0.378,0-0.651,0.136-0.822,0.406
				c-0.172,0.271-0.272,0.704-0.303,1.301h2.166v-0.198c-0.01-0.495-0.092-0.87-0.244-1.126
				C152.363,18.288,152.098,18.16,151.72,18.16z"/>
			<path fill="#FFFFFF" d="M160.072,18.551h2.167v2.014h-2.167v3.115h-2.052v-3.115h-2.204v-2.014h2.204v-2.985h2.052V18.551z"/>
		</g>
	</g>
</g>
<path fill="#FFFFFF" d="M20.099,20.67l-0.962-0.747c-0.293-0.241-0.694-0.563-0.694-1.15c0-0.59,0.401-0.965,0.749-1.312
	c1.121-0.882,2.24-1.821,2.24-3.8c0-2.034-1.28-3.104-1.894-3.612h1.654l1.736-1.091h-5.26c-1.444,0-3.524,0.342-5.047,1.599
	c-1.147,0.99-1.708,2.355-1.708,3.585c0,2.087,1.603,4.202,4.432,4.202c0.267,0,0.559-0.026,0.854-0.054
	c-0.133,0.321-0.266,0.589-0.266,1.043c0,0.829,0.426,1.337,0.801,1.817c-1.202,0.082-3.446,0.217-5.101,1.232
	c-1.575,0.938-2.055,2.301-2.055,3.264c0,1.98,1.867,3.826,5.739,3.826c4.592,0,7.022-2.541,7.022-5.056
	C22.341,22.568,21.273,21.66,20.099,20.67z M16.602,17.594c-2.297,0-3.338-2.97-3.338-4.761c0-0.698,0.133-1.418,0.587-1.98
	c0.428-0.536,1.174-0.884,1.87-0.884c2.215,0,3.363,2.996,3.363,4.923c0,0.482-0.053,1.337-0.667,1.954
	C17.987,17.274,17.269,17.594,16.602,17.594 M16.628,28.354c-2.856,0-4.699-1.367-4.699-3.268c0-1.898,1.708-2.541,2.296-2.754
	c1.121-0.378,2.563-0.43,2.804-0.43c0.267,0,0.4,0,0.613,0.025c2.03,1.445,2.912,2.166,2.912,3.533
	C20.554,27.119,19.191,28.354,16.628,28.354z M26.841,12.553V9.878H25.52v2.675h-2.671v1.336h2.671v2.691h1.321v-2.691h2.684v-1.336
	H26.841z"/>
</svg>
