<?xml version="1.0" encoding="utf-8"?>
<!-- Generator: Adobe Illustrator 16.0.0, SVG Export Plug-In . SVG Version: 6.00 Build 0)  -->
<!DOCTYPE svg PUBLIC "-//W3C//DTD SVG 1.1//EN" "http://www.w3.org/Graphics/SVG/1.1/DTD/svg11.dtd">
<svg version="1.1" id="Layer_1" xmlns="http://www.w3.org/2000/svg" xmlns:xlink="http://www.w3.org/1999/xlink" x="0px" y="0px"
	 width="35.125px" height="35.453px" viewBox="0.5 0 35.125 35.453" enable-background="new 0.5 0 35.125 35.453"
	 xml:space="preserve">
<path fill="none" stroke="#CEA141" stroke-width="1.7" stroke-miterlimit="10" d="M20.422,1c-5.172,0.766-9.333,5.281-9.333,10.667
	c0,5.927,4.74,10.667,10.667,10.667c3.438,0,6.066-1.443,8.031-3.954l-0.031-0.047c-1.271,0.579-2.225,0.782-3.709,0.782
	c-5.531,0-10.016-4.485-10.016-10.016c0-3.333,1.912-6.234,4.416-8.058L20.422,1z"/>
<path fill="none" stroke="#CEA141" stroke-width="1.7" stroke-miterlimit="10" d="M22.969,27.775
	c-5.417,0.021-6.078-0.297-8.787-2.645c-1.239-1.121-2.708-1.396-3.859-1.396c-1.156,0.006-2,0.287-2,0.287L2,26.447l1.755,4.912
	l5.88-2.25l9.49,5.225l15.844-6.559 M28.475,5.167l1.238,2.505l2.762,0.401l-2,1.948l0.473,2.755l-2.473-1.302l-2.469,1.302
	l0.469-2.755l-2-1.948l2.766-0.401L28.475,5.167z"/>
</svg>
