<?xml version="1.0" encoding="utf-8"?>
<!-- Generator: Adobe Illustrator 16.0.0, SVG Export Plug-In . SVG Version: 6.00 Build 0)  -->
<!DOCTYPE svg PUBLIC "-//W3C//DTD SVG 1.1//EN" "http://www.w3.org/Graphics/SVG/1.1/DTD/svg11.dtd">
<svg version="1.1" id="Layer_1" xmlns="http://www.w3.org/2000/svg" xmlns:xlink="http://www.w3.org/1999/xlink" x="0px" y="0px"
	 width="512px" height="459.786px" viewBox="0 26.008 512 459.786" enable-background="new 0 26.008 512 459.786"
	 xml:space="preserve">
<g transform="translate(0.000000,512.000000) scale(0.100000,-0.100000)">
	<path fill="#373E43" d="M1330.805,4846.625c-253.589-52.051-461.782-198.223-596.88-420.806
		c-81.943-133.994-122.92-302.314-122.92-497.212v-125.142l-100.771-5.537c-86.377-5.537-110.737-12.173-180.503-46.504
		c-97.451-47.622-161.679-112.954-209.292-214.834L85,3462.397v-306.748c0-292.349,1.108-307.847,23.257-336.641
		c43.188-58.691,78.623-76.411,148.388-76.411c69.761,0,105.2,17.72,148.389,76.411c22.144,27.681,23.257,49.829,28.794,307.856
		c5.532,274.624,5.532,276.846,32.109,297.881c17.72,14.395,43.188,21.04,85.273,21.04h59.795V2523.34
		c0-595.771,4.429-945.713,12.183-988.887c34.331-197.129,132.886-375.41,279.058-510.518l60.908-55.361l4.434-225.908
		c3.32-207.08,5.537-230.342,28.784-275.742c38.76-78.613,83.057-126.24,159.468-167.207l69.766-37.656h182.715h182.72
		l69.761,37.656c77.52,42.08,111.851,77.52,153.936,160.566c25.464,49.834,29.893,73.086,34.321,192.686l4.434,135.098H2560h706.504
		l4.434-135.098c4.424-110.742,9.961-146.182,28.789-186.045c37.656-78.613,83.057-125.127,159.473-167.207l69.766-37.656h182.715
		h182.715l69.766,37.656c77.52,42.08,110.742,76.406,155.029,160.566c28.799,55.371,29.902,63.115,33.223,282.383l4.434,224.805
		l70.869,67.539c84.17,78.633,178.291,215.947,219.268,321.143c62.012,156.152,62.012,163.887,62.012,1166.074v923.559h59.805
		c42.08,0,67.539-6.646,85.254-21.04c26.582-21.035,26.582-23.257,32.119-297.881c5.537-258.027,6.641-280.176,28.789-307.856
		c43.193-58.691,78.633-76.411,148.398-76.411c69.756,0,105.195,17.72,148.389,76.411c22.148,28.794,23.252,44.292,23.252,337.749
		v306.748l-40.977,84.16c-77.52,155.034-207.08,239.194-385.371,250.264l-97.441,5.537l-5.537,161.68
		c-7.754,218.159-43.193,343.291-139.541,490.576c-126.23,192.681-289.023,310.068-532.646,383.149
		c-55.361,16.611-177.178,18.828-1245.801,21.045C1640.874,4861.02,1388.388,4858.808,1330.805,4846.625z M3944.228,4123.505
		c79.736-38.76,126.24-83.052,167.207-159.468l37.656-69.761v-570.303c0-648.925,2.217-632.314-93.018-734.194
		c-87.48-94.126-135.098-107.417-516.045-150.61c-370.967-42.08-545.938-50.938-985.566-49.834
		c-435.2,0-591.343,7.754-966.743,49.834c-393.12,43.193-437.417,56.484-530.439,156.147
		c-87.485,96.343-86.372,84.16-86.372,728.657v570.303l27.681,55.366c47.617,95.239,138.423,170.537,238.091,194.902
		c18.828,4.429,623.452,6.646,1345.469,6.646l1312.246-2.217L3944.228,4123.505z M1490.268,1837.861
		c95.234-28.779,183.823-150.596,183.823-252.48c0-137.314-128.457-265.771-265.771-265.771s-265.771,128.457-265.771,265.771
		c0,69.766,25.469,126.25,83.057,182.725C1303.12,1846.719,1386.171,1867.764,1490.268,1837.861z M3793.632,1837.861
		c95.225-28.779,183.818-150.596,183.818-252.48c0-137.314-128.457-265.771-265.771-265.771
		c-137.324,0-265.771,128.457-265.771,265.771c0,69.766,25.469,126.25,83.057,182.725
		C3606.474,1846.719,3689.531,1867.764,3793.632,1837.861z"/>
</g>
</svg>
