<?xml version="1.0" encoding="utf-8"?>
<!-- Generator: Adobe Illustrator 16.0.0, SVG Export Plug-In . SVG Version: 6.00 Build 0)  -->
<!DOCTYPE svg PUBLIC "-//W3C//DTD SVG 1.1//EN" "http://www.w3.org/Graphics/SVG/1.1/DTD/svg11.dtd">
<svg version="1.1" id="Layer_1" xmlns="http://www.w3.org/2000/svg" xmlns:xlink="http://www.w3.org/1999/xlink" x="0px" y="0px"
	 width="52.787px" height="25px" viewBox="0 0 52.787 25" enable-background="new 0 0 52.787 25" xml:space="preserve">
<g id="Layer_1_3_">
	<g id="Layer_1_2_">
		<g id="Layer_1_1_">
		</g>
		<g id="Layer_4">
		</g>
	</g>
	<g id="Layer_3">
	</g>
</g>
<g id="Layer_3_1_">
</g>
<g>
	<path fill="#FFFFFF" d="M5,24.5c-2.481,0-4.5-2.02-4.5-4.5V5c0-2.481,2.019-4.5,4.5-4.5h15c2.481,0,4.5,2.019,4.5,4.5v15
		c0,2.48-2.019,4.5-4.5,4.5H5z"/>
	<path fill="#BAB9B9" d="M20,1c2.206,0,4,1.794,4,4v15c0,2.206-1.794,4-4,4H5c-2.206,0-4-1.794-4-4V5c0-2.206,1.794-4,4-4H20 M20,0
		H5C2.239,0,0,2.239,0,5v15c0,2.761,2.239,5,5,5h15c2.761,0,5-2.239,5-5V5C25,2.239,22.761,0,20,0L20,0z"/>
</g>
<g>
	<path fill="#CEA241" d="M32.787,24.5c-2.481,0-4.5-2.02-4.5-4.5V5c0-2.481,2.019-4.5,4.5-4.5h15c2.481,0,4.5,2.019,4.5,4.5v15
		c0,2.48-2.019,4.5-4.5,4.5H32.787z"/>
	<path fill="#CEA241" d="M47.787,1c2.206,0,4,1.794,4,4v15c0,2.206-1.794,4-4,4h-15c-2.206,0-4-1.794-4-4V5c0-2.206,1.794-4,4-4
		H47.787 M47.787,0h-15c-2.761,0-5,2.239-5,5v15c0,2.761,2.239,5,5,5h15c2.761,0,5-2.239,5-5V5C52.787,2.239,50.548,0,47.787,0
		L47.787,0z"/>
</g>
<g>
	<g>
		<path fill="#FFFFFF" d="M47.87,6.991c-0.305-0.305-0.801-0.305-1.105,0l-9.355,9.36l-3.602-3.603
			c-0.306-0.305-0.801-0.305-1.104,0c-0.307,0.31-0.307,0.8,0,1.104l4.148,4.148c0.307,0.307,0.799,0.307,1.104,0l9.912-9.912
			C48.175,7.791,48.175,7.297,47.87,6.991z"/>
	</g>
</g>
</svg>
