<?xml version="1.0" encoding="utf-8"?>
<!-- Generator: Adobe Illustrator 16.0.0, SVG Export Plug-In . SVG Version: 6.00 Build 0)  -->
<!DOCTYPE svg PUBLIC "-//W3C//DTD SVG 1.1//EN" "http://www.w3.org/Graphics/SVG/1.1/DTD/svg11.dtd">
<svg version="1.1" id="Layer_1" xmlns="http://www.w3.org/2000/svg" xmlns:xlink="http://www.w3.org/1999/xlink" x="0px" y="0px"
	 width="177.15px" height="221.414px" viewBox="0 0 177.15 221.414" enable-background="new 0 0 177.15 221.414"
	 xml:space="preserve">
<g>
	<g>
		<path fill="#D56900" d="M33.073,12.837c0.013-0.039,0.035-0.075,0.044-0.114c0.014-0.061,0.012-0.123,0.017-0.185
			c0.007-0.06,0.02-0.12,0.017-0.179c-0.002-0.044-0.018-0.086-0.022-0.129c-0.01-0.073-0.016-0.147-0.037-0.217l-0.003,0.001
			c-0.145-0.47-0.536-0.863-1.101-0.945l-9.805-1.424l0.001-0.001l-0.001,0.001L17.798,0.76c-0.499-1.012-1.938-1.012-2.44,0
			l-4.384,8.884l-9.805,1.423c-0.21,0.031-0.387,0.115-0.546,0.22c-0.054,0.035-0.113,0.064-0.16,0.106
			c-0.032,0.03-0.058,0.069-0.088,0.102c-0.054,0.058-0.108,0.114-0.15,0.18c-0.019,0.026-0.025,0.057-0.04,0.084
			c-0.045,0.081-0.088,0.163-0.116,0.251c0,0.001-0.001,0.001-0.001,0.002v0.001l0,0c0,0,0,0,0,0.001l-0.002-0.001
			c-0.105,0.322-0.078,0.677,0.081,0.996c0.01,0.021,0.014,0.043,0.023,0.063c0.024,0.043,0.064,0.08,0.095,0.121
			c0.047,0.066,0.088,0.135,0.148,0.196l7.095,6.916l-1.674,9.764c-0.188,1.111,0.979,1.959,1.975,1.435l8.77-4.61l8.771,4.61
			c0.05,0.026,0.102,0.035,0.151,0.054c0.071,0.028,0.143,0.061,0.214,0.076c0.081,0.017,0.16,0.014,0.24,0.016
			c0.045,0.001,0.09,0.01,0.135,0.007c0.082-0.007,0.16-0.031,0.238-0.052c0.042-0.011,0.086-0.014,0.127-0.03
			c0.117-0.045,0.229-0.105,0.328-0.179l0.001,0.001v-0.002l0,0c0.389-0.286,0.631-0.774,0.536-1.326l-1.673-9.763h0.001
			l-0.001-0.001l7.094-6.916C32.907,13.225,33.008,13.035,33.073,12.837z"/>
		<path fill="#D56900" d="M68.817,13.388c0.1-0.098,0.18-0.205,0.243-0.317c0.015-0.026,0.019-0.055,0.03-0.082
			c0.042-0.088,0.081-0.177,0.104-0.269c0.006-0.028,0.003-0.056,0.008-0.085c0.015-0.093,0.028-0.187,0.023-0.28
			c-0.001-0.021-0.01-0.041-0.012-0.062c-0.009-0.095-0.02-0.19-0.048-0.281l-0.004,0.001c-0.145-0.47-0.536-0.863-1.101-0.945
			l-9.807-1.424V9.643l0,0l0,0l-4.384-8.884l0.002,0.002c-0.125-0.254-0.309-0.443-0.521-0.57s-0.456-0.19-0.699-0.19v0.001
			c-0.485,0-0.97,0.253-1.22,0.759L47.05,9.645l-0.002-0.002l-9.805,1.423c-0.503,0.071-0.917,0.421-1.082,0.899
			c-0.004,0.011-0.011,0.021-0.015,0.032c-0.002,0.005-0.005,0.009-0.007,0.014l0.001,0.001c-0.102,0.304-0.076,0.637,0.06,0.942
			c0.068,0.155,0.155,0.305,0.289,0.436l7.095,6.916L41.91,30.07c-0.188,1.111,0.979,1.959,1.973,1.435l8.771-4.61l8.77,4.61
			c0.501,0.264,1.044,0.18,1.438-0.109l0,0l0,0c0.389-0.286,0.631-0.773,0.536-1.326l-1.673-9.764l4.722-4.605L68.817,13.388z"/>
		<g>
			<path fill="#D56900" d="M141.075,12.834c0.012-0.038,0.034-0.073,0.042-0.111c0.014-0.061,0.012-0.123,0.017-0.185
				c0.007-0.06,0.02-0.12,0.017-0.179c-0.002-0.044-0.018-0.086-0.022-0.129c-0.01-0.073-0.016-0.147-0.037-0.217l-0.003,0.001
				c-0.145-0.47-0.536-0.863-1.101-0.945l-9.805-1.424V9.644l0,0l0,0l-4.386-8.884c-0.5-1.012-1.938-1.012-2.438,0l-4.384,8.884l0,0
				l-9.807,1.424c-0.133,0.019-0.26,0.058-0.378,0.113c-0.068,0.032-0.128,0.079-0.188,0.121c-0.041,0.028-0.087,0.049-0.125,0.082
				c-0.078,0.068-0.145,0.148-0.203,0.23c-0.016,0.019-0.032,0.032-0.045,0.052c-0.069,0.106-0.122,0.222-0.16,0.343
				c-0.001,0.002-0.002,0.003-0.002,0.005h0.001c0,0,0,0,0,0.001l-0.003-0.001c-0.11,0.336-0.081,0.709,0.098,1.038
				c0.003,0.006,0.004,0.013,0.008,0.02c0.063,0.113,0.146,0.22,0.244,0.318l7.096,6.916h-0.001h0.001l-1.675,9.764
				c-0.066,0.4,0.043,0.762,0.255,1.042c0.01,0.011,0.015,0.025,0.022,0.036c0.042,0.053,0.096,0.094,0.146,0.139
				c0.039,0.036,0.073,0.079,0.116,0.111l0,0c0.395,0.288,0.937,0.37,1.437,0.108l8.77-4.61l8.771,4.61
				c0.046,0.024,0.093,0.031,0.139,0.049c0.076,0.031,0.15,0.065,0.229,0.081c0.066,0.014,0.134,0.01,0.199,0.013
				c0.061,0.003,0.118,0.014,0.178,0.009c0.061-0.005,0.116-0.025,0.176-0.038c0.063-0.014,0.13-0.021,0.19-0.045
				c0.114-0.044,0.224-0.103,0.321-0.175c0.001-0.001,0.003-0.001,0.005-0.003l-0.001-0.001c0.389-0.286,0.631-0.774,0.536-1.326
				l-1.674-9.764l7.095-6.916C140.909,13.224,141.011,13.033,141.075,12.834z"/>
			<polygon fill="#D56900" points="134.785,31.395 134.784,31.395 134.785,31.396 			"/>
		</g>
		<g>
			<path fill="#D56900" d="M104.983,13.071c0.02-0.035,0.024-0.073,0.042-0.109c0.036-0.08,0.074-0.16,0.093-0.243
				c0.006-0.025,0.003-0.05,0.007-0.075c0.018-0.096,0.029-0.193,0.024-0.29c-0.001-0.026-0.011-0.051-0.013-0.078
				c-0.012-0.089-0.021-0.179-0.048-0.265l-0.003,0.001c-0.145-0.47-0.536-0.863-1.101-0.945L94.18,9.643l0.001-0.001L94.18,9.643
				l-4.385-8.885c-0.5-1.012-1.938-1.012-2.438,0l-4.384,8.884l0,0l-9.807,1.424c-0.084,0.013-0.155,0.044-0.231,0.07
				c-0.053,0.017-0.108,0.024-0.155,0.046c-0.045,0.021-0.08,0.054-0.122,0.079c-0.068,0.041-0.138,0.078-0.196,0.13
				c-0.037,0.033-0.063,0.074-0.095,0.11c-0.05,0.056-0.104,0.108-0.145,0.17c-0.023,0.036-0.036,0.077-0.057,0.116
				c-0.037,0.071-0.076,0.141-0.1,0.218c-0.001,0.002-0.002,0.003-0.002,0.005h0.001c0,0,0,0,0,0.001l-0.003-0.001
				c-0.11,0.337-0.081,0.712,0.099,1.042c0.003,0.005,0.003,0.01,0.006,0.015c0.063,0.113,0.146,0.22,0.245,0.318l7.096,6.916
				h-0.001h0.001l-1.675,9.764c-0.034,0.199-0.012,0.385,0.032,0.56c0.017,0.069,0.028,0.141,0.056,0.206
				c0.01,0.018,0.021,0.032,0.03,0.05c0.045,0.094,0.096,0.185,0.16,0.265c0.003,0.003,0.006,0.005,0.009,0.009
				c0.074,0.089,0.157,0.171,0.25,0.239l0.001-0.001c0.395,0.288,0.937,0.371,1.437,0.108l8.77-4.61l8.771,4.61
				c0.25,0.132,0.511,0.176,0.758,0.153c0.045-0.004,0.086-0.022,0.129-0.03c0.077-0.015,0.155-0.026,0.227-0.054
				c0.086-0.033,0.164-0.082,0.241-0.131c0.025-0.016,0.054-0.025,0.077-0.042c0.001-0.001,0.003-0.002,0.005-0.003l-0.001-0.001
				c0.389-0.286,0.631-0.774,0.536-1.326l-1.674-9.764l7.094-6.916C104.84,13.29,104.92,13.183,104.983,13.071z"/>
			<polygon fill="#D56900" points="98.785,31.395 98.784,31.395 98.785,31.396 			"/>
		</g>
		<g>
			<path fill="#D56900" d="M177.075,12.834c0.012-0.038,0.034-0.073,0.042-0.111c0.014-0.061,0.012-0.123,0.017-0.185
				c0.007-0.06,0.02-0.12,0.017-0.179c-0.002-0.044-0.018-0.086-0.022-0.129c-0.01-0.073-0.016-0.147-0.037-0.217l-0.003,0.001
				c-0.145-0.47-0.536-0.863-1.101-0.945l-9.805-1.424V9.644l0,0l0,0l-4.386-8.884c-0.5-1.012-1.938-1.012-2.438,0l-4.384,8.884l0,0
				l-9.807,1.424c-0.133,0.019-0.26,0.058-0.378,0.113c-0.068,0.032-0.128,0.079-0.188,0.121c-0.041,0.028-0.087,0.049-0.125,0.082
				c-0.078,0.068-0.145,0.148-0.203,0.23c-0.016,0.019-0.032,0.032-0.045,0.052c-0.069,0.106-0.122,0.222-0.16,0.343
				c-0.001,0.002-0.002,0.003-0.002,0.005h0.001c0,0,0,0,0,0.001l-0.003-0.001c-0.11,0.336-0.081,0.709,0.098,1.038
				c0.003,0.006,0.004,0.013,0.008,0.02c0.063,0.113,0.146,0.22,0.244,0.318l7.096,6.916h-0.001h0.001l-1.675,9.764
				c-0.066,0.4,0.043,0.762,0.255,1.042c0.01,0.011,0.015,0.025,0.022,0.036c0.042,0.053,0.096,0.094,0.146,0.139
				c0.039,0.036,0.073,0.079,0.116,0.111l0,0c0.395,0.288,0.937,0.37,1.437,0.108l8.77-4.61l8.771,4.61
				c0.046,0.024,0.093,0.031,0.139,0.049c0.076,0.031,0.15,0.065,0.229,0.081c0.066,0.014,0.134,0.01,0.199,0.013
				c0.061,0.003,0.118,0.014,0.178,0.009c0.061-0.005,0.116-0.025,0.176-0.038c0.063-0.014,0.13-0.021,0.19-0.045
				c0.114-0.044,0.224-0.103,0.321-0.175c0.001-0.001,0.003-0.001,0.005-0.003l-0.001-0.001c0.39-0.286,0.631-0.774,0.536-1.326
				l-1.674-9.764l7.095-6.916C176.909,13.224,177.011,13.033,177.075,12.834z"/>
			<polygon fill="#D56900" points="170.785,31.395 170.784,31.395 170.785,31.396 			"/>
		</g>
	</g>
	<path fill="#D56900" d="M33.073,49.337c0.013-0.039,0.035-0.075,0.044-0.114c0.014-0.061,0.012-0.123,0.017-0.185
		c0.007-0.06,0.02-0.12,0.017-0.179c-0.002-0.044-0.018-0.086-0.022-0.129c-0.01-0.073-0.016-0.147-0.037-0.217l-0.003,0.001
		c-0.145-0.47-0.536-0.863-1.101-0.945l-9.805-1.424l0.001-0.001l-0.001,0.001l-4.385-8.885c-0.499-1.012-1.938-1.012-2.44,0
		l-4.384,8.884l-9.805,1.423c-0.21,0.031-0.387,0.115-0.546,0.22c-0.054,0.035-0.113,0.064-0.16,0.106
		c-0.032,0.03-0.058,0.069-0.088,0.102c-0.054,0.058-0.108,0.114-0.15,0.18c-0.019,0.026-0.025,0.057-0.04,0.084
		c-0.045,0.081-0.088,0.163-0.116,0.251c0,0.001-0.001,0.001-0.001,0.002v0.001l0,0c0,0,0,0,0,0.001l-0.002-0.001
		c-0.105,0.322-0.078,0.677,0.081,0.996c0.01,0.021,0.014,0.043,0.023,0.063c0.024,0.043,0.064,0.08,0.095,0.121
		c0.047,0.066,0.088,0.135,0.148,0.196l7.095,6.916l-1.674,9.764c-0.188,1.111,0.979,1.959,1.975,1.435l8.77-4.61l8.771,4.61
		c0.05,0.026,0.102,0.035,0.151,0.054c0.071,0.028,0.143,0.061,0.214,0.076c0.081,0.017,0.16,0.014,0.24,0.016
		c0.045,0.001,0.09,0.01,0.135,0.007c0.082-0.007,0.16-0.031,0.238-0.052c0.042-0.011,0.086-0.014,0.127-0.03
		c0.117-0.045,0.229-0.105,0.328-0.179l0.001,0.001v-0.002l0,0c0.389-0.286,0.631-0.774,0.536-1.326l-1.673-9.763h0.001
		l-0.001-0.001l7.094-6.916C32.907,49.725,33.008,49.535,33.073,49.337z"/>
	<path fill="#D56900" d="M68.817,49.888c0.1-0.098,0.18-0.205,0.243-0.317c0.015-0.026,0.019-0.055,0.03-0.082
		c0.042-0.088,0.081-0.177,0.104-0.269c0.006-0.028,0.003-0.056,0.008-0.085c0.015-0.093,0.028-0.187,0.023-0.28
		c-0.001-0.021-0.01-0.041-0.012-0.062c-0.009-0.095-0.02-0.19-0.048-0.281l-0.004,0.001c-0.145-0.47-0.536-0.863-1.101-0.945
		l-9.807-1.424v-0.001l0,0l0,0l-4.384-8.884l0.002,0.002c-0.125-0.254-0.309-0.443-0.521-0.57s-0.456-0.19-0.699-0.19v0.001
		c-0.485,0-0.97,0.253-1.22,0.759l-4.385,8.884l-0.002-0.002l-9.805,1.423c-0.503,0.071-0.917,0.421-1.082,0.899
		c-0.004,0.011-0.011,0.021-0.015,0.032c-0.002,0.005-0.005,0.009-0.007,0.014l0.001,0.001c-0.102,0.304-0.076,0.637,0.06,0.942
		c0.068,0.155,0.155,0.305,0.289,0.436l7.095,6.916L41.91,66.57c-0.188,1.111,0.979,1.959,1.973,1.435l8.771-4.61l8.77,4.61
		c0.501,0.264,1.044,0.18,1.438-0.109l0,0l0,0c0.389-0.286,0.631-0.773,0.536-1.326l-1.673-9.764l4.722-4.605L68.817,49.888z"/>
	<g>
		<path fill="#D56900" d="M141.075,49.334c0.012-0.038,0.034-0.073,0.042-0.111c0.014-0.061,0.012-0.123,0.017-0.185
			c0.007-0.06,0.02-0.12,0.017-0.179c-0.002-0.044-0.018-0.086-0.022-0.129c-0.01-0.073-0.016-0.147-0.037-0.217l-0.003,0.001
			c-0.145-0.47-0.536-0.863-1.101-0.945l-9.805-1.424v-0.001l0,0l0,0l-4.386-8.884c-0.5-1.012-1.938-1.012-2.438,0l-4.384,8.884l0,0
			l-9.807,1.424c-0.133,0.019-0.26,0.058-0.378,0.113c-0.068,0.032-0.128,0.079-0.188,0.121c-0.041,0.028-0.087,0.049-0.125,0.082
			c-0.078,0.068-0.145,0.148-0.203,0.23c-0.016,0.019-0.032,0.032-0.045,0.052c-0.069,0.106-0.122,0.222-0.16,0.343
			c-0.001,0.002-0.002,0.003-0.002,0.005h0.001c0,0,0,0,0,0.001l-0.003-0.001c-0.11,0.336-0.081,0.709,0.098,1.038
			c0.003,0.006,0.004,0.013,0.008,0.02c0.063,0.113,0.146,0.22,0.244,0.318l7.096,6.916h-0.001h0.001l-1.675,9.764
			c-0.066,0.4,0.043,0.762,0.255,1.042c0.01,0.011,0.015,0.025,0.022,0.036c0.042,0.053,0.096,0.094,0.146,0.139
			c0.039,0.036,0.073,0.079,0.116,0.111l0,0c0.395,0.288,0.937,0.37,1.437,0.108l8.77-4.61l8.771,4.61
			c0.046,0.024,0.093,0.031,0.139,0.049c0.076,0.031,0.15,0.065,0.229,0.081c0.066,0.014,0.134,0.01,0.199,0.013
			c0.061,0.003,0.118,0.014,0.178,0.009c0.061-0.005,0.116-0.025,0.176-0.038c0.063-0.014,0.13-0.021,0.19-0.045
			c0.114-0.044,0.224-0.103,0.321-0.175c0.001-0.001,0.003-0.001,0.005-0.003l-0.001-0.001c0.389-0.286,0.631-0.774,0.536-1.326
			l-1.674-9.764l7.095-6.916C140.909,49.724,141.011,49.533,141.075,49.334z"/>
		<polygon fill="#D56900" points="134.785,67.895 134.784,67.895 134.785,67.896 		"/>
	</g>
	<g>
		<path fill="#D56900" d="M104.983,49.571c0.02-0.035,0.024-0.073,0.042-0.109c0.036-0.08,0.074-0.16,0.093-0.243
			c0.006-0.025,0.003-0.05,0.007-0.075c0.018-0.096,0.029-0.193,0.024-0.29c-0.001-0.026-0.011-0.051-0.013-0.078
			c-0.012-0.089-0.021-0.179-0.048-0.265l-0.003,0.001c-0.145-0.47-0.536-0.863-1.101-0.945l-9.805-1.424l0.001-0.001l-0.001,0.001
			l-4.385-8.885c-0.5-1.012-1.938-1.012-2.438,0l-4.384,8.884l0,0l-9.807,1.424c-0.084,0.013-0.155,0.044-0.231,0.07
			c-0.053,0.017-0.108,0.024-0.155,0.046c-0.045,0.021-0.08,0.054-0.122,0.079c-0.068,0.041-0.138,0.078-0.196,0.13
			c-0.037,0.033-0.063,0.074-0.095,0.11c-0.05,0.056-0.104,0.108-0.145,0.17c-0.023,0.036-0.036,0.077-0.057,0.116
			c-0.037,0.071-0.076,0.141-0.1,0.218c-0.001,0.002-0.002,0.003-0.002,0.005h0.001c0,0,0,0,0,0.001l-0.003-0.001
			c-0.11,0.337-0.081,0.712,0.099,1.042c0.003,0.005,0.003,0.01,0.006,0.015c0.063,0.113,0.146,0.22,0.245,0.318l7.096,6.916h-0.001
			h0.001l-1.675,9.764c-0.034,0.199-0.012,0.385,0.032,0.56c0.017,0.069,0.028,0.141,0.056,0.206c0.01,0.018,0.021,0.032,0.03,0.05
			c0.045,0.094,0.096,0.185,0.16,0.265c0.003,0.003,0.006,0.005,0.009,0.009c0.074,0.089,0.157,0.171,0.25,0.239l0.001-0.001
			c0.395,0.288,0.937,0.371,1.437,0.108l8.77-4.61l8.771,4.61c0.25,0.132,0.511,0.176,0.758,0.153
			c0.045-0.004,0.086-0.022,0.129-0.03c0.077-0.015,0.155-0.026,0.227-0.054c0.086-0.033,0.164-0.082,0.241-0.131
			c0.025-0.016,0.054-0.025,0.077-0.042c0.001-0.001,0.003-0.002,0.005-0.003l-0.001-0.001c0.389-0.286,0.631-0.774,0.536-1.326
			l-1.674-9.764l7.094-6.916C104.84,49.79,104.92,49.683,104.983,49.571z"/>
		<polygon fill="#D56900" points="98.785,67.895 98.784,67.895 98.785,67.896 		"/>
	</g>
	<g>
		<path fill="#C7C7C7" d="M177.075,49.334c0.012-0.038,0.034-0.073,0.042-0.111c0.014-0.061,0.012-0.123,0.017-0.185
			c0.007-0.06,0.02-0.12,0.017-0.179c-0.002-0.044-0.018-0.086-0.022-0.129c-0.01-0.073-0.016-0.147-0.037-0.217l-0.003,0.001
			c-0.145-0.47-0.536-0.863-1.101-0.945l-9.805-1.424v-0.001l0,0l0,0l-4.386-8.884c-0.5-1.012-1.938-1.012-2.438,0l-4.384,8.884l0,0
			l-9.807,1.424c-0.133,0.019-0.26,0.058-0.378,0.113c-0.068,0.032-0.128,0.079-0.188,0.121c-0.041,0.028-0.087,0.049-0.125,0.082
			c-0.078,0.068-0.145,0.148-0.203,0.23c-0.016,0.019-0.032,0.032-0.045,0.052c-0.069,0.106-0.122,0.222-0.16,0.343
			c-0.001,0.002-0.002,0.003-0.002,0.005h0.001c0,0,0,0,0,0.001l-0.003-0.001c-0.11,0.336-0.081,0.709,0.098,1.038
			c0.003,0.006,0.004,0.013,0.008,0.02c0.063,0.113,0.146,0.22,0.244,0.318l7.096,6.916h-0.001h0.001l-1.675,9.764
			c-0.066,0.4,0.043,0.762,0.255,1.042c0.01,0.011,0.015,0.025,0.022,0.036c0.042,0.053,0.096,0.094,0.146,0.139
			c0.039,0.036,0.073,0.079,0.116,0.111l0,0c0.395,0.288,0.937,0.37,1.437,0.108l8.77-4.61l8.771,4.61
			c0.046,0.024,0.093,0.031,0.139,0.049c0.076,0.031,0.15,0.065,0.229,0.081c0.066,0.014,0.134,0.01,0.199,0.013
			c0.061,0.003,0.118,0.014,0.178,0.009c0.061-0.005,0.116-0.025,0.176-0.038c0.063-0.014,0.13-0.021,0.19-0.045
			c0.114-0.044,0.224-0.103,0.321-0.175c0.001-0.001,0.003-0.001,0.005-0.003l-0.001-0.001c0.39-0.286,0.631-0.774,0.536-1.326
			l-1.674-9.764l7.095-6.916C176.909,49.724,177.011,49.533,177.075,49.334z"/>
		<polygon fill="#C7C7C7" points="170.785,67.895 170.784,67.895 170.785,67.896 		"/>
	</g>
	<path fill="#D56900" d="M33.073,87.087c0.013-0.039,0.035-0.075,0.044-0.114c0.014-0.061,0.012-0.123,0.017-0.185
		c0.007-0.06,0.02-0.12,0.017-0.179c-0.002-0.044-0.018-0.086-0.022-0.129c-0.01-0.073-0.016-0.147-0.037-0.217l-0.003,0.001
		c-0.145-0.47-0.536-0.863-1.101-0.945l-9.805-1.424l0.001-0.001l-0.001,0.001l-4.385-8.885c-0.499-1.012-1.938-1.012-2.44,0
		l-4.384,8.884l-9.805,1.423c-0.21,0.031-0.387,0.115-0.546,0.22c-0.054,0.035-0.113,0.064-0.16,0.106
		c-0.032,0.03-0.058,0.069-0.088,0.102c-0.054,0.058-0.108,0.114-0.15,0.18c-0.019,0.026-0.025,0.057-0.04,0.084
		c-0.045,0.081-0.088,0.163-0.116,0.251c0,0.001-0.001,0.001-0.001,0.002v0.001l0,0c0,0,0,0,0,0.001l-0.002-0.001
		c-0.105,0.322-0.078,0.677,0.081,0.996c0.01,0.021,0.014,0.043,0.023,0.063c0.024,0.043,0.064,0.08,0.095,0.121
		c0.047,0.066,0.088,0.135,0.148,0.196l7.095,6.916l-1.674,9.764c-0.188,1.111,0.979,1.959,1.975,1.435l8.77-4.61l8.771,4.61
		c0.05,0.026,0.102,0.035,0.151,0.054c0.071,0.028,0.143,0.061,0.214,0.076c0.081,0.017,0.16,0.014,0.24,0.016
		c0.045,0.001,0.09,0.01,0.135,0.007c0.082-0.007,0.16-0.031,0.238-0.052c0.042-0.011,0.086-0.014,0.127-0.03
		c0.117-0.045,0.229-0.105,0.328-0.179l0.001,0.001v-0.002l0,0c0.389-0.286,0.631-0.774,0.536-1.326l-1.673-9.763h0.001
		l-0.001-0.001l7.094-6.916C32.907,87.475,33.008,87.285,33.073,87.087z"/>
	<path fill="#D56900" d="M68.817,87.638c0.1-0.098,0.18-0.205,0.243-0.317c0.015-0.026,0.019-0.055,0.03-0.082
		c0.042-0.088,0.081-0.177,0.104-0.269c0.006-0.028,0.003-0.056,0.008-0.085c0.015-0.093,0.028-0.187,0.023-0.28
		c-0.001-0.021-0.01-0.041-0.012-0.062c-0.009-0.095-0.02-0.19-0.048-0.281l-0.004,0.001c-0.145-0.47-0.536-0.863-1.101-0.945
		l-9.807-1.424v-0.001l0,0l0,0l-4.384-8.884l0.002,0.002c-0.125-0.254-0.309-0.443-0.521-0.57s-0.456-0.19-0.699-0.19v0.001
		c-0.485,0-0.97,0.253-1.22,0.759l-4.385,8.884l-0.002-0.002l-9.805,1.423c-0.503,0.071-0.917,0.421-1.082,0.899
		c-0.004,0.011-0.011,0.021-0.015,0.032c-0.002,0.005-0.005,0.009-0.007,0.014l0.001,0.001c-0.102,0.304-0.076,0.637,0.06,0.942
		c0.068,0.155,0.155,0.305,0.289,0.436l7.095,6.916l-1.674,9.764c-0.188,1.111,0.979,1.959,1.973,1.435l8.771-4.61l8.77,4.61
		c0.501,0.264,1.044,0.18,1.438-0.109l0,0l0,0c0.389-0.286,0.631-0.773,0.536-1.326l-1.673-9.764l4.722-4.605L68.817,87.638z"/>
	<g>
		<path fill="#C7C7C7" d="M141.075,87.084c0.012-0.038,0.034-0.073,0.042-0.111c0.014-0.061,0.012-0.123,0.017-0.185
			c0.007-0.06,0.02-0.12,0.017-0.179c-0.002-0.044-0.018-0.086-0.022-0.129c-0.01-0.073-0.016-0.147-0.037-0.217l-0.003,0.001
			c-0.145-0.47-0.536-0.863-1.101-0.945l-9.805-1.424v-0.001l0,0l0,0l-4.386-8.884c-0.5-1.012-1.938-1.012-2.438,0l-4.384,8.884l0,0
			l-9.807,1.424c-0.133,0.019-0.26,0.058-0.378,0.113c-0.068,0.032-0.128,0.079-0.188,0.121c-0.041,0.028-0.087,0.049-0.125,0.082
			c-0.078,0.068-0.145,0.148-0.203,0.23c-0.016,0.019-0.032,0.032-0.045,0.052c-0.069,0.106-0.122,0.222-0.16,0.343
			c-0.001,0.002-0.002,0.003-0.002,0.005h0.001c0,0,0,0,0,0.001l-0.003-0.001c-0.11,0.336-0.081,0.709,0.098,1.038
			c0.003,0.006,0.004,0.013,0.008,0.021c0.063,0.113,0.146,0.22,0.244,0.318l7.096,6.916h-0.001h0.001l-1.675,9.764
			c-0.066,0.4,0.043,0.762,0.255,1.042c0.01,0.011,0.015,0.025,0.022,0.036c0.042,0.053,0.096,0.094,0.146,0.139
			c0.039,0.036,0.073,0.079,0.116,0.111l0,0c0.395,0.288,0.937,0.37,1.437,0.108l8.77-4.61l8.771,4.61
			c0.046,0.024,0.093,0.031,0.139,0.049c0.076,0.031,0.15,0.065,0.229,0.081c0.066,0.014,0.134,0.01,0.199,0.013
			c0.061,0.003,0.118,0.014,0.178,0.009c0.061-0.005,0.116-0.025,0.176-0.038c0.063-0.014,0.13-0.021,0.19-0.045
			c0.114-0.044,0.224-0.103,0.321-0.175c0.001-0.001,0.003-0.001,0.005-0.003l-0.001-0.001c0.389-0.286,0.631-0.774,0.536-1.326
			l-1.674-9.764l7.095-6.916C140.909,87.474,141.011,87.283,141.075,87.084z"/>
		<polygon fill="#C7C7C7" points="134.785,105.645 134.784,105.645 134.785,105.646 		"/>
	</g>
	<g>
		<path fill="#D56900" d="M104.983,87.321c0.02-0.035,0.024-0.073,0.042-0.109c0.036-0.08,0.074-0.16,0.093-0.243
			c0.006-0.025,0.003-0.05,0.007-0.075c0.018-0.096,0.029-0.193,0.024-0.29c-0.001-0.026-0.011-0.051-0.013-0.078
			c-0.012-0.089-0.021-0.179-0.048-0.265l-0.003,0.001c-0.145-0.47-0.536-0.863-1.101-0.945l-9.805-1.424l0.001-0.001l-0.001,0.001
			l-4.385-8.885c-0.5-1.012-1.938-1.012-2.438,0l-4.384,8.884l0,0l-9.807,1.424c-0.084,0.013-0.155,0.044-0.231,0.07
			c-0.053,0.017-0.108,0.024-0.155,0.046c-0.045,0.021-0.08,0.054-0.122,0.079c-0.068,0.041-0.138,0.078-0.196,0.13
			c-0.037,0.033-0.063,0.074-0.095,0.11c-0.05,0.056-0.104,0.108-0.145,0.17c-0.023,0.036-0.036,0.077-0.057,0.116
			c-0.037,0.071-0.076,0.141-0.1,0.218c-0.001,0.002-0.002,0.003-0.002,0.005h0.001c0,0,0,0,0,0.001l-0.003-0.001
			c-0.11,0.337-0.081,0.712,0.099,1.042c0.003,0.005,0.003,0.01,0.006,0.015c0.063,0.113,0.146,0.22,0.245,0.318l7.096,6.916h-0.001
			h0.001l-1.675,9.764c-0.034,0.199-0.012,0.385,0.032,0.56c0.017,0.069,0.028,0.141,0.056,0.206c0.01,0.018,0.021,0.032,0.03,0.05
			c0.045,0.094,0.096,0.185,0.16,0.265c0.003,0.003,0.006,0.005,0.009,0.009c0.074,0.089,0.157,0.171,0.25,0.239l0.001-0.001
			c0.395,0.288,0.937,0.371,1.437,0.108l8.77-4.61l8.771,4.61c0.25,0.132,0.511,0.176,0.758,0.153
			c0.045-0.004,0.086-0.022,0.129-0.03c0.077-0.015,0.155-0.026,0.227-0.054c0.086-0.033,0.164-0.082,0.241-0.131
			c0.025-0.016,0.054-0.025,0.077-0.042c0.001-0.001,0.003-0.002,0.005-0.003l-0.001-0.001c0.389-0.286,0.631-0.774,0.536-1.326
			l-1.674-9.764l7.094-6.916C104.84,87.54,104.92,87.433,104.983,87.321z"/>
		<polygon fill="#D56900" points="98.785,105.645 98.784,105.645 98.785,105.646 		"/>
	</g>
	<g>
		<path fill="#C7C7C7" d="M177.075,87.084c0.012-0.038,0.034-0.073,0.042-0.111c0.014-0.061,0.012-0.123,0.017-0.185
			c0.007-0.06,0.02-0.12,0.017-0.179c-0.002-0.044-0.018-0.086-0.022-0.129c-0.01-0.073-0.016-0.147-0.037-0.217l-0.003,0.001
			c-0.145-0.47-0.536-0.863-1.101-0.945l-9.805-1.424v-0.001l0,0l0,0l-4.386-8.884c-0.5-1.012-1.938-1.012-2.438,0l-4.384,8.884l0,0
			l-9.807,1.424c-0.133,0.019-0.26,0.058-0.378,0.113c-0.068,0.032-0.128,0.079-0.188,0.121c-0.041,0.028-0.087,0.049-0.125,0.082
			c-0.078,0.068-0.145,0.148-0.203,0.23c-0.016,0.019-0.032,0.032-0.045,0.052c-0.069,0.106-0.122,0.222-0.16,0.343
			c-0.001,0.002-0.002,0.003-0.002,0.005h0.001c0,0,0,0,0,0.001l-0.003-0.001c-0.11,0.336-0.081,0.709,0.098,1.038
			c0.003,0.006,0.004,0.013,0.008,0.021c0.063,0.113,0.146,0.22,0.244,0.318l7.096,6.916h-0.001h0.001l-1.675,9.764
			c-0.066,0.4,0.043,0.762,0.255,1.042c0.01,0.011,0.015,0.025,0.022,0.036c0.042,0.053,0.096,0.094,0.146,0.139
			c0.039,0.036,0.073,0.079,0.116,0.111l0,0c0.395,0.288,0.937,0.37,1.437,0.108l8.77-4.61l8.771,4.61
			c0.046,0.024,0.093,0.031,0.139,0.049c0.076,0.031,0.15,0.065,0.229,0.081c0.066,0.014,0.134,0.01,0.199,0.013
			c0.061,0.003,0.118,0.014,0.178,0.009c0.061-0.005,0.116-0.025,0.176-0.038c0.063-0.014,0.13-0.021,0.19-0.045
			c0.114-0.044,0.224-0.103,0.321-0.175c0.001-0.001,0.003-0.001,0.005-0.003l-0.001-0.001c0.39-0.286,0.631-0.774,0.536-1.326
			l-1.674-9.764l7.095-6.916C176.909,87.474,177.011,87.283,177.075,87.084z"/>
		<polygon fill="#C7C7C7" points="170.785,105.645 170.784,105.645 170.785,105.646 		"/>
	</g>
	<path fill="#D56900" d="M33.073,125.587c0.013-0.039,0.035-0.075,0.044-0.114c0.014-0.061,0.012-0.123,0.017-0.185
		c0.007-0.06,0.02-0.12,0.017-0.179c-0.002-0.045-0.018-0.086-0.022-0.129c-0.01-0.073-0.016-0.147-0.037-0.217h-0.003
		c-0.145-0.471-0.536-0.863-1.101-0.945l-9.805-1.424h0.001h-0.001l-4.385-8.886c-0.499-1.012-1.938-1.012-2.44,0l-4.384,8.886
		l-9.805,1.422c-0.21,0.031-0.387,0.115-0.546,0.221c-0.054,0.035-0.113,0.064-0.16,0.105c-0.032,0.029-0.058,0.068-0.088,0.103
		c-0.054,0.058-0.108,0.114-0.15,0.18c-0.019,0.026-0.025,0.058-0.04,0.084c-0.045,0.081-0.088,0.163-0.116,0.251
		c0,0.001-0.001,0.001-0.001,0.002v0.002l0,0l0,0H0.064c-0.105,0.321-0.078,0.676,0.081,0.995c0.01,0.021,0.014,0.043,0.023,0.063
		c0.024,0.043,0.064,0.08,0.095,0.121c0.047,0.064,0.088,0.135,0.148,0.195l7.095,6.916l-1.674,9.764
		c-0.188,1.111,0.979,1.959,1.975,1.436l8.77-4.609l8.771,4.609c0.05,0.025,0.102,0.035,0.151,0.055
		c0.071,0.027,0.143,0.062,0.214,0.075c0.081,0.017,0.16,0.015,0.24,0.017c0.045,0,0.09,0.011,0.135,0.008
		c0.082-0.008,0.16-0.031,0.238-0.053c0.042-0.012,0.086-0.015,0.127-0.029c0.117-0.045,0.229-0.104,0.328-0.18h0.001v-0.002l0,0
		c0.389-0.285,0.631-0.772,0.536-1.326l-1.673-9.762h0.001l-0.001-0.002l7.094-6.916C32.907,125.975,33.008,125.785,33.073,125.587z
		"/>
	<path fill="#D56900" d="M68.817,126.139c0.1-0.099,0.18-0.205,0.243-0.318c0.015-0.024,0.019-0.055,0.03-0.08
		c0.042-0.09,0.081-0.178,0.104-0.27c0.006-0.029,0.003-0.057,0.008-0.086c0.015-0.093,0.028-0.187,0.023-0.279
		c-0.001-0.021-0.01-0.041-0.012-0.063c-0.009-0.095-0.02-0.189-0.048-0.281l-0.004,0.002c-0.145-0.471-0.536-0.863-1.101-0.945
		l-9.807-1.424v-0.002l0,0l0,0l-4.384-8.884l0.002,0.002c-0.125-0.254-0.309-0.442-0.521-0.569s-0.456-0.189-0.699-0.189v0.001
		c-0.485,0-0.97,0.253-1.22,0.759l-4.385,8.885l-0.002-0.002l-9.805,1.424c-0.503,0.07-0.917,0.42-1.082,0.897
		c-0.004,0.013-0.011,0.021-0.015,0.032c-0.002,0.005-0.005,0.009-0.007,0.014l0.001,0.002c-0.102,0.305-0.076,0.637,0.06,0.941
		c0.068,0.154,0.155,0.305,0.289,0.438l7.095,6.916l-1.674,9.764c-0.188,1.111,0.979,1.959,1.973,1.435l8.771-4.61l8.77,4.61
		c0.501,0.265,1.044,0.181,1.438-0.108l0,0l0,0c0.389-0.287,0.631-0.772,0.536-1.325l-1.673-9.765l4.722-4.604L68.817,126.139z"/>
	<g>
		<path fill="#C7C7C7" d="M141.075,125.584c0.012-0.038,0.034-0.073,0.042-0.111c0.014-0.061,0.012-0.123,0.017-0.185
			c0.007-0.06,0.02-0.12,0.017-0.179c-0.002-0.045-0.018-0.086-0.022-0.129c-0.01-0.073-0.016-0.147-0.037-0.217h-0.003
			c-0.145-0.471-0.536-0.863-1.101-0.945l-9.805-1.424l0,0l0,0l0,0l-4.386-8.886c-0.5-1.012-1.938-1.012-2.438,0l-4.384,8.886l0,0
			l-9.807,1.424c-0.133,0.019-0.26,0.058-0.378,0.113c-0.068,0.03-0.128,0.077-0.188,0.119c-0.041,0.028-0.087,0.051-0.125,0.082
			c-0.078,0.068-0.145,0.148-0.203,0.23c-0.016,0.019-0.032,0.031-0.045,0.052c-0.069,0.104-0.122,0.224-0.16,0.343
			c-0.001,0.004-0.002,0.004-0.002,0.006h0.001c0,0,0,0,0,0.002l-0.003-0.002c-0.11,0.336-0.081,0.709,0.098,1.037
			c0.003,0.008,0.004,0.014,0.008,0.021c0.063,0.113,0.146,0.22,0.244,0.318l7.096,6.916h-0.001h0.001l-1.675,9.764
			c-0.066,0.4,0.043,0.762,0.255,1.041c0.01,0.012,0.015,0.024,0.022,0.037c0.042,0.053,0.096,0.094,0.146,0.139
			c0.039,0.036,0.073,0.079,0.116,0.111l0,0c0.395,0.287,0.937,0.369,1.437,0.106l8.77-4.608l8.771,4.608
			c0.046,0.024,0.093,0.031,0.139,0.05c0.076,0.03,0.15,0.064,0.229,0.08c0.066,0.016,0.134,0.012,0.199,0.014
			c0.061,0.004,0.118,0.015,0.178,0.01c0.061-0.006,0.116-0.025,0.176-0.038c0.063-0.015,0.13-0.021,0.19-0.045
			c0.114-0.044,0.224-0.103,0.321-0.175c0.001-0.002,0.003-0.002,0.005-0.004h-0.001c0.389-0.287,0.631-0.774,0.536-1.326
			l-1.674-9.764l7.095-6.916C140.909,125.975,141.011,125.783,141.075,125.584z"/>
		<polygon fill="#C7C7C7" points="134.785,144.145 134.784,144.145 134.785,144.146 		"/>
	</g>
	<g>
		<path fill="#C7C7C7" d="M104.983,125.82c0.02-0.034,0.024-0.072,0.042-0.108c0.036-0.08,0.074-0.16,0.093-0.243
			c0.006-0.025,0.003-0.05,0.007-0.074c0.018-0.097,0.029-0.192,0.024-0.291c-0.001-0.024-0.011-0.051-0.013-0.078
			c-0.012-0.088-0.021-0.178-0.048-0.265l-0.003,0.001c-0.145-0.47-0.536-0.863-1.101-0.945l-9.805-1.424h0.001H94.18l-4.385-8.885
			c-0.5-1.012-1.938-1.012-2.438,0l-4.384,8.885l0,0l-9.807,1.424c-0.084,0.014-0.155,0.043-0.231,0.069
			c-0.053,0.017-0.108,0.024-0.155,0.046c-0.045,0.021-0.08,0.055-0.122,0.079c-0.068,0.041-0.138,0.078-0.196,0.13
			c-0.037,0.033-0.063,0.074-0.095,0.11c-0.05,0.056-0.104,0.108-0.145,0.17c-0.023,0.036-0.036,0.077-0.057,0.116
			c-0.037,0.07-0.076,0.141-0.1,0.218c-0.001,0.002-0.002,0.003-0.002,0.005h0.001c0,0,0,0,0,0.001l-0.003-0.001
			c-0.11,0.338-0.081,0.713,0.099,1.042c0.003,0.005,0.003,0.011,0.006,0.015c0.063,0.113,0.146,0.222,0.245,0.318l7.096,6.916
			h-0.001h0.001l-1.675,9.764c-0.034,0.199-0.012,0.387,0.032,0.562c0.017,0.067,0.028,0.142,0.056,0.206
			c0.01,0.02,0.021,0.032,0.03,0.05c0.045,0.095,0.096,0.187,0.16,0.267c0.003,0.002,0.006,0.004,0.009,0.008
			c0.074,0.09,0.157,0.172,0.25,0.24l0.001-0.002c0.395,0.289,0.937,0.371,1.437,0.107l8.77-4.609l8.771,4.609
			c0.25,0.132,0.511,0.176,0.758,0.153c0.045-0.005,0.086-0.022,0.129-0.03c0.077-0.016,0.155-0.025,0.227-0.055
			c0.086-0.032,0.164-0.081,0.241-0.131c0.025-0.017,0.054-0.024,0.077-0.043c0.001,0,0.003-0.002,0.005-0.002l-0.001-0.002
			c0.389-0.285,0.631-0.772,0.536-1.326l-1.674-9.764l7.094-6.916C104.84,126.04,104.92,125.934,104.983,125.82z"/>
		<polygon fill="#C7C7C7" points="98.785,144.145 98.784,144.145 98.785,144.146 		"/>
	</g>
	<g>
		<path fill="#C7C7C7" d="M177.075,125.584c0.012-0.038,0.034-0.073,0.042-0.111c0.014-0.061,0.012-0.123,0.017-0.185
			c0.007-0.06,0.02-0.12,0.017-0.179c-0.002-0.045-0.018-0.086-0.022-0.129c-0.01-0.073-0.016-0.147-0.037-0.217h-0.003
			c-0.145-0.471-0.536-0.863-1.101-0.945l-9.805-1.424l0,0l0,0l0,0l-4.386-8.886c-0.5-1.012-1.938-1.012-2.438,0l-4.384,8.886l0,0
			l-9.807,1.424c-0.133,0.019-0.26,0.058-0.378,0.113c-0.068,0.03-0.128,0.077-0.188,0.119c-0.041,0.028-0.087,0.051-0.125,0.082
			c-0.078,0.068-0.145,0.148-0.203,0.23c-0.016,0.019-0.032,0.031-0.045,0.052c-0.069,0.104-0.122,0.224-0.16,0.343
			c-0.001,0.004-0.002,0.004-0.002,0.006h0.001c0,0,0,0,0,0.002l-0.003-0.002c-0.11,0.336-0.081,0.709,0.098,1.037
			c0.003,0.008,0.004,0.014,0.008,0.021c0.063,0.113,0.146,0.22,0.244,0.318l7.096,6.916h-0.001h0.001l-1.675,9.764
			c-0.066,0.4,0.043,0.762,0.255,1.041c0.01,0.012,0.015,0.024,0.022,0.037c0.042,0.053,0.096,0.094,0.146,0.139
			c0.039,0.036,0.073,0.079,0.116,0.111l0,0c0.395,0.287,0.937,0.369,1.437,0.106l8.77-4.608l8.771,4.608
			c0.046,0.024,0.093,0.031,0.139,0.05c0.076,0.03,0.15,0.064,0.229,0.08c0.066,0.016,0.134,0.012,0.199,0.014
			c0.061,0.004,0.118,0.015,0.178,0.01c0.061-0.006,0.116-0.025,0.176-0.038c0.063-0.015,0.13-0.021,0.19-0.045
			c0.114-0.044,0.224-0.103,0.321-0.175c0.001-0.002,0.003-0.002,0.005-0.004h-0.001c0.39-0.287,0.631-0.774,0.536-1.326
			l-1.674-9.764l7.095-6.916C176.909,125.975,177.011,125.783,177.075,125.584z"/>
		<polygon fill="#C7C7C7" points="170.785,144.145 170.784,144.145 170.785,144.146 		"/>
	</g>
	<path fill="#D56900" d="M33.073,164.087c0.013-0.039,0.035-0.075,0.044-0.114c0.014-0.061,0.012-0.123,0.017-0.185
		c0.007-0.06,0.02-0.12,0.017-0.179c-0.002-0.045-0.018-0.086-0.022-0.129c-0.01-0.073-0.016-0.147-0.037-0.217h-0.003
		c-0.145-0.471-0.536-0.863-1.101-0.945l-9.805-1.424h0.001h-0.001l-4.385-8.886c-0.499-1.012-1.938-1.012-2.44,0l-4.384,8.886
		l-9.805,1.422c-0.21,0.031-0.387,0.115-0.546,0.221c-0.054,0.035-0.113,0.064-0.16,0.105c-0.032,0.029-0.058,0.068-0.088,0.103
		c-0.054,0.058-0.108,0.114-0.15,0.18c-0.019,0.026-0.025,0.058-0.04,0.084c-0.045,0.081-0.088,0.163-0.116,0.251
		c0,0.002-0.001,0.002-0.001,0.002v0.002l0,0l0,0H0.064c-0.105,0.321-0.078,0.676,0.081,0.995c0.01,0.021,0.014,0.044,0.023,0.063
		c0.024,0.043,0.064,0.08,0.095,0.121c0.047,0.064,0.088,0.135,0.148,0.195l7.095,6.916l-1.674,9.764
		c-0.188,1.111,0.979,1.959,1.975,1.436l8.77-4.609l8.771,4.609c0.05,0.025,0.102,0.035,0.151,0.055
		c0.071,0.027,0.143,0.062,0.214,0.076c0.081,0.016,0.16,0.014,0.24,0.016c0.045,0,0.09,0.011,0.135,0.008
		c0.082-0.008,0.16-0.031,0.238-0.053c0.042-0.012,0.086-0.015,0.127-0.029c0.117-0.045,0.229-0.104,0.328-0.18h0.001v-0.002l0,0
		c0.389-0.285,0.631-0.772,0.536-1.324l-1.673-9.764h0.001l-0.001-0.002l7.094-6.916C32.907,164.475,33.008,164.285,33.073,164.087z
		"/>
	<path fill="#C7C7C7" d="M68.817,164.639c0.1-0.099,0.18-0.205,0.243-0.318c0.015-0.024,0.019-0.055,0.03-0.08
		c0.042-0.09,0.081-0.178,0.104-0.27c0.006-0.029,0.003-0.057,0.008-0.086c0.015-0.093,0.028-0.187,0.023-0.279
		c-0.001-0.021-0.01-0.041-0.012-0.063c-0.009-0.095-0.02-0.189-0.048-0.281l-0.004,0.002c-0.145-0.471-0.536-0.863-1.101-0.945
		l-9.807-1.424v-0.002l0,0l0,0l-4.384-8.884l0.002,0.002c-0.125-0.254-0.309-0.442-0.521-0.569s-0.456-0.189-0.699-0.189v0.001
		c-0.485,0-0.97,0.253-1.22,0.759l-4.385,8.885l-0.002-0.002l-9.805,1.424c-0.503,0.07-0.917,0.42-1.082,0.897
		c-0.004,0.013-0.011,0.021-0.015,0.032c-0.002,0.005-0.005,0.009-0.007,0.014l0.001,0.002c-0.102,0.305-0.076,0.637,0.06,0.941
		c0.068,0.154,0.155,0.305,0.289,0.438l7.095,6.916l-1.674,9.764c-0.188,1.111,0.979,1.959,1.973,1.435l8.771-4.61l8.77,4.61
		c0.501,0.265,1.044,0.181,1.438-0.108l0,0l0,0c0.389-0.287,0.631-0.772,0.536-1.325l-1.673-9.765l4.722-4.604L68.817,164.639z"/>
	<g>
		<path fill="#C7C7C7" d="M141.075,164.084c0.012-0.038,0.034-0.073,0.042-0.111c0.014-0.061,0.012-0.123,0.017-0.185
			c0.007-0.06,0.02-0.12,0.017-0.179c-0.002-0.045-0.018-0.086-0.022-0.129c-0.01-0.073-0.016-0.147-0.037-0.217h-0.003
			c-0.145-0.471-0.536-0.863-1.101-0.945l-9.805-1.424l0,0l0,0l0,0l-4.386-8.886c-0.5-1.012-1.938-1.012-2.438,0l-4.384,8.886l0,0
			l-9.807,1.424c-0.133,0.019-0.26,0.058-0.378,0.113c-0.068,0.03-0.128,0.077-0.188,0.119c-0.041,0.028-0.087,0.051-0.125,0.082
			c-0.078,0.068-0.145,0.148-0.203,0.23c-0.016,0.019-0.032,0.031-0.045,0.052c-0.069,0.104-0.122,0.224-0.16,0.343
			c-0.001,0.004-0.002,0.004-0.002,0.006h0.001c0,0,0,0,0,0.002l-0.003-0.002c-0.11,0.336-0.081,0.709,0.098,1.037
			c0.003,0.008,0.004,0.014,0.008,0.021c0.063,0.113,0.146,0.22,0.244,0.318l7.096,6.916h-0.001h0.001l-1.675,9.764
			c-0.066,0.4,0.043,0.762,0.255,1.041c0.01,0.012,0.015,0.024,0.022,0.037c0.042,0.053,0.096,0.094,0.146,0.139
			c0.039,0.036,0.073,0.079,0.116,0.111l0,0c0.395,0.287,0.937,0.369,1.437,0.106l8.77-4.608l8.771,4.608
			c0.046,0.024,0.093,0.031,0.139,0.05c0.076,0.03,0.15,0.064,0.229,0.08c0.066,0.016,0.134,0.012,0.199,0.014
			c0.061,0.004,0.118,0.015,0.178,0.01c0.061-0.006,0.116-0.025,0.176-0.038c0.063-0.015,0.13-0.021,0.19-0.045
			c0.114-0.044,0.224-0.103,0.321-0.175c0.001-0.002,0.003-0.002,0.005-0.004h-0.001c0.389-0.287,0.631-0.774,0.536-1.326
			l-1.674-9.764l7.095-6.916C140.909,164.475,141.011,164.283,141.075,164.084z"/>
		<polygon fill="#C7C7C7" points="134.785,182.645 134.784,182.645 134.785,182.646 		"/>
	</g>
	<g>
		<path fill="#C7C7C7" d="M104.983,164.32c0.02-0.034,0.024-0.072,0.042-0.108c0.036-0.08,0.074-0.16,0.093-0.243
			c0.006-0.025,0.003-0.05,0.007-0.074c0.018-0.097,0.029-0.192,0.024-0.291c-0.001-0.024-0.011-0.051-0.013-0.078
			c-0.012-0.088-0.021-0.178-0.048-0.264h-0.003c-0.145-0.47-0.536-0.863-1.101-0.945l-9.805-1.424h0.001H94.18l-4.385-8.885
			c-0.5-1.012-1.938-1.012-2.438,0l-4.384,8.885l0,0l-9.807,1.424c-0.084,0.014-0.155,0.043-0.231,0.07
			c-0.053,0.016-0.108,0.023-0.155,0.045c-0.045,0.021-0.08,0.055-0.122,0.08c-0.068,0.041-0.138,0.077-0.196,0.129
			c-0.037,0.033-0.063,0.074-0.095,0.11c-0.05,0.056-0.104,0.108-0.145,0.17c-0.023,0.036-0.036,0.077-0.057,0.116
			c-0.037,0.07-0.076,0.141-0.1,0.218c-0.001,0.002-0.002,0.003-0.002,0.005h0.001c0,0,0,0,0,0.002l-0.003-0.002
			c-0.11,0.338-0.081,0.713,0.099,1.043c0.003,0.004,0.003,0.01,0.006,0.014c0.063,0.113,0.146,0.222,0.245,0.318l7.096,6.916
			h-0.001h0.001l-1.675,9.764c-0.034,0.199-0.012,0.387,0.032,0.562c0.017,0.067,0.028,0.142,0.056,0.206
			c0.01,0.02,0.021,0.032,0.03,0.05c0.045,0.095,0.096,0.187,0.16,0.267c0.003,0.002,0.006,0.004,0.009,0.009
			c0.074,0.089,0.157,0.171,0.25,0.239l0.001-0.002c0.395,0.289,0.937,0.371,1.437,0.107l8.77-4.609l8.771,4.609
			c0.25,0.132,0.511,0.176,0.758,0.153c0.045-0.005,0.086-0.022,0.129-0.03c0.077-0.016,0.155-0.025,0.227-0.055
			c0.086-0.032,0.164-0.081,0.241-0.131c0.025-0.017,0.054-0.024,0.077-0.043c0.001,0,0.003-0.002,0.005-0.002l-0.001-0.002
			c0.389-0.285,0.631-0.772,0.536-1.326l-1.674-9.764l7.094-6.916C104.84,164.54,104.92,164.434,104.983,164.32z"/>
		<polygon fill="#C7C7C7" points="98.785,182.645 98.784,182.645 98.785,182.646 		"/>
	</g>
	<g>
		<path fill="#C7C7C7" d="M177.075,164.084c0.012-0.038,0.034-0.073,0.042-0.111c0.014-0.061,0.012-0.123,0.017-0.185
			c0.007-0.06,0.02-0.12,0.017-0.179c-0.002-0.045-0.018-0.086-0.022-0.129c-0.01-0.073-0.016-0.147-0.037-0.217h-0.003
			c-0.145-0.471-0.536-0.863-1.101-0.945l-9.805-1.424l0,0l0,0l0,0l-4.386-8.886c-0.5-1.012-1.938-1.012-2.438,0l-4.384,8.886l0,0
			l-9.807,1.424c-0.133,0.019-0.26,0.058-0.378,0.113c-0.068,0.03-0.128,0.077-0.188,0.119c-0.041,0.028-0.087,0.051-0.125,0.082
			c-0.078,0.068-0.145,0.148-0.203,0.23c-0.016,0.019-0.032,0.031-0.045,0.052c-0.069,0.104-0.122,0.224-0.16,0.343
			c-0.001,0.004-0.002,0.004-0.002,0.006h0.001c0,0,0,0,0,0.002l-0.003-0.002c-0.11,0.336-0.081,0.709,0.098,1.037
			c0.003,0.008,0.004,0.014,0.008,0.021c0.063,0.113,0.146,0.22,0.244,0.318l7.096,6.916h-0.001h0.001l-1.675,9.764
			c-0.066,0.4,0.043,0.762,0.255,1.041c0.01,0.012,0.015,0.024,0.022,0.037c0.042,0.053,0.096,0.094,0.146,0.139
			c0.039,0.036,0.073,0.079,0.116,0.111l0,0c0.395,0.287,0.937,0.369,1.437,0.106l8.77-4.608l8.771,4.608
			c0.046,0.024,0.093,0.031,0.139,0.05c0.076,0.03,0.15,0.064,0.229,0.08c0.066,0.016,0.134,0.012,0.199,0.014
			c0.061,0.004,0.118,0.015,0.178,0.01c0.061-0.006,0.116-0.025,0.176-0.038c0.063-0.015,0.13-0.021,0.19-0.045
			c0.114-0.044,0.224-0.103,0.321-0.175c0.001-0.002,0.003-0.002,0.005-0.004h-0.001c0.39-0.287,0.631-0.774,0.536-1.326
			l-1.674-9.764l7.095-6.916C176.909,164.475,177.011,164.283,177.075,164.084z"/>
		<polygon fill="#C7C7C7" points="170.785,182.645 170.784,182.645 170.785,182.646 		"/>
	</g>
	<g>
		<path fill="#C7C7C7" d="M33.073,202.587c0.013-0.039,0.035-0.075,0.044-0.114c0.014-0.061,0.012-0.123,0.017-0.185
			c0.007-0.06,0.02-0.12,0.017-0.179c-0.002-0.045-0.018-0.086-0.022-0.129c-0.01-0.073-0.016-0.147-0.037-0.217h-0.003
			c-0.145-0.471-0.536-0.863-1.101-0.945l-9.805-1.424h0.001h-0.001l-4.385-8.886c-0.499-1.012-1.938-1.012-2.44,0l-4.384,8.886
			l-9.805,1.422c-0.21,0.031-0.387,0.115-0.546,0.221c-0.054,0.035-0.113,0.064-0.16,0.105c-0.032,0.029-0.058,0.068-0.088,0.103
			c-0.054,0.058-0.108,0.114-0.15,0.18c-0.019,0.026-0.025,0.058-0.04,0.084c-0.045,0.081-0.088,0.163-0.116,0.251
			c0,0.002-0.001,0.002-0.001,0.002v0.002l0,0l0,0H0.064c-0.105,0.321-0.078,0.676,0.081,0.995c0.01,0.021,0.014,0.044,0.023,0.063
			c0.024,0.043,0.064,0.08,0.095,0.121c0.047,0.064,0.088,0.135,0.148,0.195l7.095,6.916l-1.674,9.764
			c-0.188,1.111,0.979,1.959,1.975,1.436l8.77-4.609l8.771,4.609c0.05,0.025,0.102,0.035,0.151,0.055
			c0.071,0.027,0.143,0.062,0.214,0.076c0.081,0.016,0.16,0.014,0.24,0.016c0.045,0,0.09,0.011,0.135,0.008
			c0.082-0.008,0.16-0.031,0.238-0.053c0.042-0.012,0.086-0.015,0.127-0.029c0.117-0.045,0.229-0.104,0.328-0.18h0.001v-0.002l0,0
			c0.389-0.285,0.631-0.772,0.536-1.326l-1.673-9.762h0.001l-0.001-0.002l7.094-6.916C32.907,202.975,33.008,202.785,33.073,202.587
			z"/>
		<path fill="#C7C7C7" d="M68.817,203.139c0.1-0.099,0.18-0.205,0.243-0.318c0.015-0.024,0.019-0.055,0.03-0.08
			c0.042-0.09,0.081-0.178,0.104-0.27c0.006-0.029,0.003-0.057,0.008-0.086c0.015-0.093,0.028-0.187,0.023-0.279
			c-0.001-0.021-0.01-0.041-0.012-0.063c-0.009-0.095-0.02-0.189-0.048-0.281l-0.004,0.002c-0.145-0.471-0.536-0.863-1.101-0.945
			l-9.807-1.424v-0.002l0,0l0,0l-4.384-8.884l0.002,0.002c-0.125-0.254-0.309-0.442-0.521-0.569s-0.456-0.189-0.699-0.189v0.001
			c-0.485,0-0.97,0.253-1.22,0.759l-4.385,8.885l-0.002-0.002l-9.805,1.424c-0.503,0.07-0.917,0.42-1.082,0.897
			c-0.004,0.013-0.011,0.021-0.015,0.032c-0.002,0.005-0.005,0.009-0.007,0.014l0.001,0.002c-0.102,0.305-0.076,0.637,0.06,0.941
			c0.068,0.154,0.155,0.305,0.289,0.438l7.095,6.916l-1.674,9.764c-0.188,1.111,0.979,1.959,1.973,1.435l8.771-4.61l8.77,4.61
			c0.501,0.265,1.044,0.181,1.438-0.108l0,0l0,0c0.389-0.287,0.631-0.772,0.536-1.325l-1.673-9.765l4.722-4.604L68.817,203.139z"/>
		<g>
			<path fill="#C7C7C7" d="M141.075,202.584c0.012-0.038,0.034-0.072,0.042-0.111c0.014-0.061,0.012-0.123,0.017-0.185
				c0.007-0.06,0.02-0.12,0.017-0.179c-0.002-0.045-0.018-0.086-0.022-0.129c-0.01-0.073-0.016-0.147-0.037-0.217h-0.003
				c-0.145-0.471-0.536-0.863-1.101-0.945l-9.805-1.424l0,0l0,0l0,0l-4.386-8.886c-0.5-1.012-1.938-1.012-2.438,0l-4.384,8.886l0,0
				l-9.807,1.424c-0.133,0.019-0.26,0.058-0.378,0.113c-0.068,0.03-0.128,0.077-0.188,0.119c-0.041,0.028-0.087,0.051-0.125,0.082
				c-0.078,0.068-0.145,0.148-0.203,0.23c-0.016,0.019-0.032,0.031-0.045,0.052c-0.069,0.104-0.122,0.224-0.16,0.343
				c-0.001,0.004-0.002,0.004-0.002,0.006h0.001c0,0,0,0,0,0.002l-0.003-0.002c-0.11,0.336-0.081,0.709,0.098,1.037
				c0.003,0.008,0.004,0.014,0.008,0.021c0.063,0.113,0.146,0.22,0.244,0.318l7.096,6.916h-0.001h0.001l-1.675,9.764
				c-0.066,0.4,0.043,0.762,0.255,1.041c0.01,0.012,0.015,0.025,0.022,0.037c0.042,0.053,0.096,0.094,0.146,0.139
				c0.039,0.036,0.073,0.079,0.116,0.111l0,0c0.395,0.287,0.937,0.369,1.437,0.106l8.77-4.608l8.771,4.608
				c0.046,0.022,0.093,0.031,0.139,0.05c0.076,0.03,0.15,0.064,0.229,0.082c0.066,0.014,0.134,0.01,0.199,0.012
				c0.061,0.004,0.118,0.015,0.178,0.01c0.061-0.006,0.116-0.025,0.176-0.038c0.063-0.015,0.13-0.021,0.19-0.045
				c0.114-0.044,0.224-0.103,0.321-0.175c0.001-0.002,0.003-0.002,0.005-0.004h-0.001c0.389-0.287,0.631-0.774,0.536-1.326
				l-1.674-9.764l7.095-6.916C140.909,202.975,141.011,202.783,141.075,202.584z"/>
			<polygon fill="#C7C7C7" points="134.785,221.145 134.784,221.145 134.785,221.146 			"/>
		</g>
		<g>
			<path fill="#C7C7C7" d="M104.983,202.82c0.02-0.034,0.024-0.072,0.042-0.108c0.036-0.08,0.074-0.16,0.093-0.243
				c0.006-0.025,0.003-0.05,0.007-0.074c0.018-0.097,0.029-0.192,0.024-0.291c-0.001-0.024-0.011-0.051-0.013-0.078
				c-0.012-0.088-0.021-0.178-0.048-0.264h-0.003c-0.145-0.47-0.536-0.863-1.101-0.945l-9.805-1.424h0.001H94.18l-4.385-8.885
				c-0.5-1.012-1.938-1.012-2.438,0l-4.384,8.885l0,0l-9.807,1.424c-0.084,0.014-0.155,0.043-0.231,0.07
				c-0.053,0.016-0.108,0.023-0.155,0.045c-0.045,0.021-0.08,0.055-0.122,0.08c-0.068,0.041-0.138,0.077-0.196,0.129
				c-0.037,0.033-0.063,0.074-0.095,0.11c-0.05,0.056-0.104,0.108-0.145,0.17c-0.023,0.036-0.036,0.077-0.057,0.116
				c-0.037,0.07-0.076,0.141-0.1,0.218c-0.001,0.002-0.002,0.003-0.002,0.005h0.001c0,0,0,0,0,0.002l-0.003-0.002
				c-0.11,0.338-0.081,0.713,0.099,1.043c0.003,0.004,0.003,0.01,0.006,0.014c0.063,0.113,0.146,0.222,0.245,0.318l7.096,6.916
				h-0.001h0.001l-1.675,9.764c-0.034,0.199-0.012,0.387,0.032,0.562c0.017,0.067,0.028,0.142,0.056,0.206
				c0.01,0.02,0.021,0.031,0.03,0.05c0.045,0.095,0.096,0.187,0.16,0.267c0.003,0.002,0.006,0.004,0.009,0.009
				c0.074,0.089,0.157,0.171,0.25,0.239l0.001-0.002c0.395,0.289,0.937,0.371,1.437,0.107l8.77-4.609l8.771,4.609
				c0.25,0.132,0.511,0.178,0.758,0.152c0.045-0.004,0.086-0.021,0.129-0.029c0.077-0.016,0.155-0.025,0.227-0.055
				c0.086-0.032,0.164-0.081,0.241-0.131c0.025-0.017,0.054-0.024,0.077-0.043c0.001,0,0.003-0.002,0.005-0.002l-0.001-0.002
				c0.389-0.285,0.631-0.772,0.536-1.326l-1.674-9.764l7.094-6.916C104.84,203.04,104.92,202.934,104.983,202.82z"/>
			<polygon fill="#C7C7C7" points="98.785,221.145 98.784,221.145 98.785,221.146 			"/>
		</g>
		<g>
			<path fill="#C7C7C7" d="M177.075,202.584c0.012-0.038,0.034-0.072,0.042-0.111c0.014-0.061,0.012-0.123,0.017-0.185
				c0.007-0.06,0.02-0.12,0.017-0.179c-0.002-0.045-0.018-0.086-0.022-0.129c-0.01-0.073-0.016-0.147-0.037-0.217h-0.003
				c-0.145-0.471-0.536-0.863-1.101-0.945l-9.805-1.424l0,0l0,0l0,0l-4.386-8.886c-0.5-1.012-1.938-1.012-2.438,0l-4.384,8.886l0,0
				l-9.807,1.424c-0.133,0.019-0.26,0.058-0.378,0.113c-0.068,0.03-0.128,0.077-0.188,0.119c-0.041,0.028-0.087,0.051-0.125,0.082
				c-0.078,0.068-0.145,0.148-0.203,0.23c-0.016,0.019-0.032,0.031-0.045,0.052c-0.069,0.104-0.122,0.224-0.16,0.343
				c-0.001,0.004-0.002,0.004-0.002,0.006h0.001c0,0,0,0,0,0.002l-0.003-0.002c-0.11,0.336-0.081,0.709,0.098,1.037
				c0.003,0.008,0.004,0.014,0.008,0.021c0.063,0.113,0.146,0.22,0.244,0.318l7.096,6.916h-0.001h0.001l-1.675,9.764
				c-0.066,0.4,0.043,0.762,0.255,1.041c0.01,0.012,0.015,0.025,0.022,0.037c0.042,0.053,0.096,0.094,0.146,0.139
				c0.039,0.036,0.073,0.079,0.116,0.111l0,0c0.395,0.287,0.937,0.369,1.437,0.106l8.77-4.608l8.771,4.608
				c0.046,0.022,0.093,0.031,0.139,0.05c0.076,0.03,0.15,0.064,0.229,0.082c0.066,0.014,0.134,0.01,0.199,0.012
				c0.061,0.004,0.118,0.015,0.178,0.01c0.061-0.006,0.116-0.025,0.176-0.038c0.063-0.015,0.13-0.021,0.19-0.045
				c0.114-0.044,0.224-0.103,0.321-0.175c0.001-0.002,0.003-0.002,0.005-0.004h-0.001c0.39-0.287,0.631-0.774,0.536-1.326
				l-1.674-9.764l7.095-6.916C176.909,202.975,177.011,202.783,177.075,202.584z"/>
			<polygon fill="#C7C7C7" points="170.785,221.145 170.784,221.145 170.785,221.146 			"/>
		</g>
	</g>
</g>
</svg>
