<?xml version="1.0" encoding="utf-8"?>
<!-- Generator: Adobe Illustrator 16.0.0, SVG Export Plug-In . SVG Version: 6.00 Build 0)  -->
<!DOCTYPE svg PUBLIC "-//W3C//DTD SVG 1.1//EN" "http://www.w3.org/Graphics/SVG/1.1/DTD/svg11.dtd">
<svg version="1.1" id="Layer_1" xmlns="http://www.w3.org/2000/svg" xmlns:xlink="http://www.w3.org/1999/xlink" x="0px" y="0px"
	 width="315px" height="277.5px" viewBox="0 18 315 277.5" enable-background="new 0 18 315 277.5" xml:space="preserve">
<g transform="translate(0.000000,315.000000) scale(0.100000,-0.100000)">
	<path fill="#CEA141" d="M902.002,2922.998c-18.003-7.998-44.004-28.999-57.002-45c-22.998-26.997-55-112.998-55-145
		c0-10-8.999-7.998-32.002,8.003c-22.998,16.997-50,23.999-92.998,26.997c-55,4.004-63.999,1.001-95-23.999
		c-17.998-16.001-41.001-46.001-50-68.999c-10-22.002-51.001-176.001-91.001-342.002c-40-166.997-75-302.998-77.998-302.998
		c-3.003,1.001-18.999,23.999-36.001,52.998c-32.002,55-83.999,97.002-121.001,97.002c-38.999,0-81.001-45-102.998-112.998
		C45,1926.001,0,1695,0,1595c0-147.998,33.999-245.996,137.998-399.004C180,1135,222.002,1062.998,232.998,1035
		c26.001-67.002,46.001-185,47.002-267.002V700h-56.001c-50,0-60-4.004-87.998-32.998c-35-34.004-38.999-50-52.002-197.998
		c-6.997-90,8.003-132.002,58.999-154.004c21.001-9.004,214.004-30.996,542.002-60.996c472.002-42.002,512.002-45,542.002-30
		c48.999,22.998,60.996,57.998,68.999,193.994l6.997,121.006L1267.002,575c-19.004,19.004-42.002,35-51.001,35
		c-20,0-20,2.002-1.001,47.002c7.998,20,46.001,68.994,83.999,107.998c118.003,124.004,157.002,237.002,148.003,420.996
		c-4.004,90-11.001,127.002-41.001,213.008c-20,57.998-36.001,115.996-36.001,130c0,13.994,38.999,178.994,86.001,365.996
		c61.997,243.999,83.999,351.001,81.001,377.998c-11.001,79.004-108.003,156.001-182.002,144.004l-32.002-5l17.002,78.999
		c20,86.997,15,133.999-17.002,177.998c-33.999,45-70,63.999-127.998,68.999l-55,4.004v36.997
		C1138.999,2891.001,1003.999,2972.998,902.002,2922.998z M1046.001,2807.998c15-27.998,10-50-97.002-495.996
		c-80-334.004-108.999-470-101.997-481.001c13.999-22.002,46.997-25,62.998-6.001c7.998,8.999,55,190,106.001,402.002
		c101.001,420.996,102.998,426.997,170,426.997c41.001,0,83.999-38.999,83.999-75c0-11.001-47.002-216.997-105-457.998
		S1060,1675,1060,1663.999c0-37.998,45-58.999,67.998-31.001c5,6.001,45,156.001,87.002,332.002
		c57.002,238.999,82.002,326.001,97.002,342.998c45,47.002,138.999,12.002,140-52.998c0-16.001-36.001-173.999-81.001-350
		c-52.002-205-81.001-340-81.001-374.004c0-35,12.998-93.994,36.001-165c45-137.998,52.998-233.994,30-325.996
		c-25-99.004-53.003-147.998-127.002-225C1165,747.998,1121.001,675.996,1120,637.998c0-10-7.998-17.998-17.002-17.998
		c-27.998,0-695,60.996-718.999,65c-20,4.004-21.001,12.998-26.997,132.002c-8.003,182.002-40,273.994-154.004,435
		C71.001,1440,57.002,1564.004,130,1885c35,151.001,52.998,205,68.999,205c21.001,0,70-82.002,82.002-136.001
		c10-42.998,10-71.997,1.001-131.997C258.999,1675,268.999,1646.001,385,1520c140-152.002,188.999-252.002,166.001-337.998
		c-12.002-44.004-7.002-67.002,16.001-76.006c76.997-30,97.998,136.006,33.999,266.006c-18.003,35-63.003,100-101.001,142.998
		c-37.998,44.004-86.001,98.999-106.001,122.998L357.002,1680l116.997,477.998c72.002,296.001,123.999,486.001,135,502.002
		C650,2715,750,2672.002,750,2600c0-16.001-38.999-190-86.001-387.002c-48.999-205-82.998-366.997-78.999-380
		c3.999-16.997,12.002-22.998,35-22.998c16.001,0,31.001,3.999,33.999,7.998c2.002,4.004,57.002,226.001,121.001,492.002
		c70,293.999,122.998,495,133.999,510C943.999,2867.998,1017.998,2862.002,1046.001,2807.998z M720,569.004
		c301.001-27.002,480-47.002,487.998-54.004c11.001-10,12.002-32.002,4.004-110c-5-52.998-14.004-100-20-104.004
		C1173.999,290,180,384.004,171.001,397.998c-10,16.006,7.998,194.004,21.001,209.004c5.996,7.002,20,10.996,31.997,7.998
		C235,612.998,458.999,592.002,720,569.004z"/>
	<path fill="#CEA141" d="M2102.002,2918.999c-51.006-25-92.002-88.999-92.002-141.001v-35.996l-55-4.004
		c-57.998-5-94.004-23.999-127.998-68.999C1795,2625,1790,2577.998,1810,2491.001l17.998-80l-28.994,6.001
		C1757.998,2425,1687.002,2395,1650.996,2355c-55-62.998-53.994-73.999,43.008-460c47.998-192.002,86.992-359.004,85.996-370.996
		c0-11.006-15.996-67.002-35.996-125c-32.002-91.006-37.002-119.004-41.006-224.004c-5-110-2.998-125.996,21.006-197.998
		C1755,884.004,1800,812.002,1865,750c65-62.998,104.004-140,70-140c-9.004,0-32.998-15.996-52.002-35l-35.996-35.996l7.002-121.006
		c7.998-135.996,20-170.996,70-193.994c30-15,68.994-13.008,541.992,30c326.006,30,520,51.992,541.006,60.996
		c50.996,22.002,65.996,64.004,58.994,154.004c-12.998,147.998-16.992,163.994-51.992,197.998c-29.004,30-38.008,32.998-90,32.998
		h-57.002l5.996,102.002c10,170,44.004,265.996,144.004,402.998c145.996,202.002,165,357.998,87.002,695
		c-38.008,163.999-62.002,226.001-95,255c-36.006,30-63.008,31.001-106.006,6.001c-30.996-18.999-92.998-98.999-92.998-120
		c0-6.001-4.004-11.001-7.998-11.001c-5,0-41.006,136.001-81.006,302.998c-40.996,166.001-80,319.004-87.998,339.004
		c-7.998,20.996-30.996,50.996-48.994,67.998c-45,38.999-118.008,42.002-181.006,6.001l-40.996-23.999l-7.002,36.997
		C2327.998,2903.999,2214.004,2976.001,2102.002,2918.999z M2237.998,2826.001c14.004-15,52.002-158.999,136.006-510
		c65-270,118.994-493.999,121.992-498.003c3.008-3.999,18.008-7.998,34.004-7.998c22.998,0,30.996,6.001,35,22.998
		c4.004,13.003-30,175-79.004,380C2439.004,2410,2400,2583.999,2400,2601.001c0,43.999,49.004,91.001,90.996,86.997
		c20-1.997,39.004-11.997,50-27.998c11.006-15,65-216.001,135-502.002L2792.998,1680l-23.994-28.999
		c-13.008-16.001-61.006-70-105-121.001c-101.006-114.004-144.004-194.004-151.006-282.998C2505,1145.996,2530.996,1090,2580,1105
		c25.996,7.998,32.002,32.002,19.004,77.002C2575.996,1267.998,2625,1367.998,2765,1520c99.004,107.002,120,152.002,110.996,233.999
		c-3.994,33.999-8.994,86.001-12.998,117.002c-3.994,40-0.996,71.001,11.006,103.999c16.992,50,60,115,76.992,115
		c16.006,0,35-55,68.008-200c40-178.999,50.996-282.002,38.994-377.998c-10.996-96.006-35-147.002-130-287.998
		c-100.996-150-127.998-233.008-135.996-407.002c-5-119.004-6.006-127.998-26.006-132.002c-22.998-4.004-690.996-65-717.998-65
		c-10,0-17.998,7.998-17.998,17.998c-0.996,37.998-44.004,109.004-109.004,177.002C1774.004,970,1745,1134.004,1825,1369.004
		c22.998,70,35,122.998,35,160c0,36.992-27.998,164.995-80,371.997c-44.004,173.999-80,331.997-80,350
		c0,71.001,80,105,134.004,56.997c21.992-20,35-65.996,101.992-342.998c42.002-176.001,81.006-326.001,86.006-332.002
		C2045,1605,2090,1626.001,2090,1663.999c0,11.001-47.002,216.001-105,457.002s-105,446.997-105,457.998
		c0,36.001,42.998,75,84.004,75c65.996,0,67.998-6.001,166.992-420c50-207.998,98.008-388.999,106.006-401.997
		c15.996-26.001,50-27.002,65.996-1.001c7.002,11.001-22.002,146.997-102.002,481.001C2100.996,2728.999,2090,2780,2102.002,2805
		C2125.996,2857.998,2199.004,2868.999,2237.998,2826.001z M2957.998,607.002c12.998-15,31.006-192.998,21.006-209.004
		C2970.996,385,1975.996,290,1957.998,300.996c-15.996,10-32.002,199.004-17.998,213.008c5.996,5.996,212.998,30,502.998,56.992
		c271.006,26.006,495,47.002,497.998,48.008C2945,619.004,2952.002,614.004,2957.998,607.002z"/>
</g>
</svg>
