<?xml version="1.0" encoding="utf-8"?>
<!-- Generator: Adobe Illustrator 16.0.0, SVG Export Plug-In . SVG Version: 6.00 Build 0)  -->
<!DOCTYPE svg PUBLIC "-//W3C//DTD SVG 1.1//EN" "http://www.w3.org/Graphics/SVG/1.1/DTD/svg11.dtd">
<svg version="1.1" id="Layer_1" xmlns="http://www.w3.org/2000/svg" xmlns:xlink="http://www.w3.org/1999/xlink" x="0px" y="0px"
	 width="595.281px" height="446.461px" viewBox="0 0 595.281 446.461" enable-background="new 0 0 595.281 446.461"
	 xml:space="preserve">
<g>
	<g>
		<g>
			<path fill="#373E43" d="M582.877,248.033H99.212V12.402C99.212,5.547,93.667,0,86.812,0h-74.41C5.547,0,0,5.547,0,12.402v421.656
				c0,6.855,5.547,12.402,12.401,12.402h74.41c6.855,0,12.402-5.549,12.402-12.402v-86.813h396.853v86.813
				c0,6.854,5.548,12.402,12.402,12.402h74.409c6.855,0,12.402-5.549,12.402-12.402V260.436
				C595.278,253.58,589.731,248.033,582.877,248.033z"/>
			<circle fill="#373E43" cx="198.427" cy="148.821" r="74.41"/>
			<path fill="#373E43" d="M310.041,223.231h272.837c6.855,0,12.402-5.548,12.402-12.402
				C595.278,135.606,534.082,74.41,458.86,74.41H310.041c-6.854,0-12.401,5.547-12.401,12.402V210.83
				C297.64,217.684,303.186,223.231,310.041,223.231z"/>
		</g>
	</g>
</g>
</svg>
