<?xml version="1.0" encoding="utf-8"?>
<!-- Generator: Adobe Illustrator 16.0.0, SVG Export Plug-In . SVG Version: 6.00 Build 0)  -->
<!DOCTYPE svg PUBLIC "-//W3C//DTD SVG 1.1//EN" "http://www.w3.org/Graphics/SVG/1.1/DTD/svg11.dtd">
<svg version="1.1" id="Layer_1" xmlns="http://www.w3.org/2000/svg" xmlns:xlink="http://www.w3.org/1999/xlink" x="0px" y="0px"
	 width="512px" height="480px" viewBox="0 0 512 480" enable-background="new 0 0 512 480" xml:space="preserve">
<path fill="#21922E" d="M511.5,80.5V210v129.5l-2.3,8.5c-8.5,32-32.5,56.199-64.7,65.199c-7.9,2.201-9.1,2.201-78.1,2.6l-70,0.301
	l-16.5,28.5C263.3,473.5,261.4,476,256,476c-5.4,0-7.3-2.5-23.9-31.4l-16.5-28.5l-70-0.301c-68.4-0.299-70.3-0.396-77.8-2.5
	C35.2,404.1,11.3,380.1,2.8,348l-2.3-8.5V210V80.5L2.8,72c9.1-34.4,35.9-59.5,70.8-66.4C83,3.7,211.5,3.4,215.5,5.2
	c2.9,1.3,5.5,5.5,5.5,8.8s-2.6,7.5-5.5,8.8c-1.9,0.9-19.2,1.2-67,1.2c-73.8,0-74,0-89.5,7.6c-7.9,3.9-11,6.2-18.1,13.3
	S31.5,55.1,27.6,63c-8,16.3-7.6,9.2-7.6,147c0,137.799-0.4,130.7,7.6,147c8.4,17.1,25.1,31,43.9,36.6
	c5.4,1.604,12.9,1.805,80.3,2.305l74.4,0.6l2.1,2.602c1.2,1.398,7.8,12.305,14.7,24.199c6.8,11.9,12.7,21.699,13,21.699
	s6.2-9.799,13-21.699c6.9-11.896,13.5-22.801,14.7-24.199l2.1-2.602l74.4-0.6c67.396-0.5,74.896-0.699,80.3-2.305
	c18.8-5.6,35.5-19.5,43.8-36.6c8.104-16.6,7.7-9.201,7.7-147c0-137.7,0.4-130.5-7.6-146.8c-7.4-15.1-20.5-27.4-36.2-34.1
	C436.6,24.3,432.4,24,363.4,24c-70,0-68.7,0.1-71.2-5.5c-2.4-5.3-0.3-11.4,4.6-13.4C298.9,4.2,316.9,4,368.1,4.2
	c67.306,0.4,68.5,0.4,76.4,2.6c32.2,9,56.2,33.2,64.7,65.2L511.5,80.5z M255.895,24c5.1,0,10-4.9,10-9.9
	c0-7.5-8.299-12.4-14.896-8.7C242.294,10.2,245.995,24,255.895,24z"/>
</svg>
