<?xml version="1.0" encoding="utf-8"?>
<!-- Generator: Adobe Illustrator 16.0.0, SVG Export Plug-In . SVG Version: 6.00 Build 0)  -->
<!DOCTYPE svg PUBLIC "-//W3C//DTD SVG 1.1//EN" "http://www.w3.org/Graphics/SVG/1.1/DTD/svg11.dtd">
<svg version="1.1" id="Layer_1" xmlns="http://www.w3.org/2000/svg" xmlns:xlink="http://www.w3.org/1999/xlink" x="0px" y="0px"
	 width="512px" height="512px" viewBox="0 0 512 512" enable-background="new 0 0 512 512" xml:space="preserve">
<g transform="translate(0.000000,512.000000) scale(0.100000,-0.100000)">
	<path fill="#FFFFFF" d="M2915,5113.999c-157.002-17.998-227.998-31.001-340-58.999c-752.002-191.001-1332.002-800-1490-1562.998
		c-82.002-395-43.999-807.002,111.001-1186.006c201.001-491.992,595-890,1087.998-1100c453.999-193.994,963.003-215.996,1435.005-60
		c501.992,165,918.994,518.008,1165,986.006c300,567.998,313.994,1250,36.992,1822.998c-110.996,230-221.992,387.002-400,566.001
		C4182.001,4858.999,3769.003,5056,3285,5110C3200.996,5118.999,2982.998,5121,2915,5113.999z M3355,4390
		c527.002-117.998,910-497.002,1032.002-1022.998c35.996-154.004,37.998-399.004,5-554.004c-100-463.994-425-835.996-865-992.002
		C3250,1724.004,2937.998,1720,2665,1810.996c-208.999,70-361.001,165-526.001,329.004
		c-203.999,204.004-318.999,421.001-375,706.001c-26.001,131.001-22.998,357.998,5,491.001c76.001,363.999,272.002,655,576.001,860
		C2512.998,4310,2720.996,4385,2950,4413.999C3027.998,4423.999,3267.002,4410,3355,4390z"/>
	<path fill="#FFFFFF" d="M633.999,1357.998C166.001,887.002,80,797.002,57.002,747.998c-102.002-215-66.001-430,96.997-593.994
		c80-80,162.002-125,263.999-145c121.001-23.008,270,5,371.001,70.996c25,15.996,288.999,272.998,586.001,570.996
		c485,486.006,537.998,542.002,521.001,552.002c-10,7.002-72.002,51.006-137.002,100c-201.001,147.998-382.998,337.002-510,527.002
		c-28.999,44.004-56.001,80-58.999,80S937.002,1660.996,633.999,1357.998z"/>
</g>
</svg>
