<?xml version="1.0" encoding="utf-8"?>
<!-- Generator: Adobe Illustrator 16.0.0, SVG Export Plug-In . SVG Version: 6.00 Build 0)  -->
<!DOCTYPE svg PUBLIC "-//W3C//DTD SVG 1.1//EN" "http://www.w3.org/Graphics/SVG/1.1/DTD/svg11.dtd">
<svg version="1.1" id="Layer_1" xmlns="http://www.w3.org/2000/svg" xmlns:xlink="http://www.w3.org/1999/xlink" x="0px" y="0px"
	 width="512px" height="379px" viewBox="0 0 512 379" enable-background="new 0 0 512 379" xml:space="preserve">
<g transform="translate(0.000000,512.000000) scale(0.100000,-0.100000)">
	<path fill="#108690" d="M4604.228,5051.386c-105-32.998-109.004-35.996-1445-1372.002l-1315-1313.994l-595,595
		c-552.998,550.996-600,595.996-662.002,625c-158.999,73.994-327.998,50.996-453.999-63.008c-100-90-148.999-234.004-125-363.994
		c25-133.994,8.999-117.002,838.999-943.994c726.001-724.004,771.001-767.002,832.002-794.004c77.998-34.004,185-44.004,257.002-25
		c121.997,32.998,70-15.996,1628.994,1542.998c1614.004,1615.996,1522.002,1517.002,1547.002,1660
		c34.004,199.004-90.996,392.002-292.002,452.998C4764.228,5068.388,4658.232,5068.388,4604.228,5051.386z"/>
</g>
</svg>
