<?xml version="1.0" encoding="utf-8"?>
<!-- Generator: Adobe Illustrator 16.0.0, SVG Export Plug-In . SVG Version: 6.00 Build 0)  -->
<!DOCTYPE svg PUBLIC "-//W3C//DTD SVG 1.1//EN" "http://www.w3.org/Graphics/SVG/1.1/DTD/svg11.dtd">
<svg version="1.1" id="Layer_1" xmlns="http://www.w3.org/2000/svg" xmlns:xlink="http://www.w3.org/1999/xlink" x="0px" y="0px"
	 width="21px" height="21px" viewBox="0 0 21 21" enable-background="new 0 0 21 21" xml:space="preserve">
<g>
	<path fill="#cea241" d="M2.529,14.927H0.79v3.513c0,1.074,0.943,1.953,2.101,1.953h15.214c1.158,0,2.104-0.879,2.104-1.953v-3.513
		h-1.74v3.142c0,0.393-0.343,0.714-0.77,0.714H3.296c-0.426,0-0.769-0.321-0.769-0.714L2.529,14.927L2.529,14.927z M10.498,0.607
		L0.79,3.746v1.732l9.708-3.137l9.712,3.138V3.746L10.498,0.607z M6.898,5.479C6.89,5.491,6.562,5.97,6.226,6.615
		C6.057,6.938,5.888,7.302,5.754,7.679C5.625,8.055,5.526,8.442,5.526,8.836c0,0.125,0.01,0.25,0.036,0.375
		c0.073,0.356,0.226,0.67,0.397,0.985c0.259,0.467,0.57,0.933,0.807,1.408c0.239,0.478,0.396,0.94,0.396,1.406
		c0,0.124-0.011,0.251-0.036,0.383c-0.134,0.729-0.575,1.414-0.996,1.903c-0.209,0.246-0.412,0.442-0.558,0.575
		c-0.074,0.066-0.134,0.118-0.174,0.15l-0.046,0.037l-0.01,0.008l0.614,0.85c0.018-0.016,0.457-0.348,0.948-0.921
		c0.488-0.575,1.04-1.392,1.233-2.401c0.037-0.197,0.054-0.393,0.054-0.584c-0.004-0.951-0.412-1.749-0.799-2.418
		c-0.195-0.337-0.388-0.644-0.539-0.918C6.703,9.403,6.6,9.167,6.567,8.997l-0.01-0.16c-0.002-0.2,0.06-0.493,0.168-0.8
		c0.162-0.463,0.419-0.96,0.632-1.332c0.109-0.187,0.206-0.344,0.276-0.451l0.081-0.125l0.029-0.04L6.898,5.479 M10.629,5.479
		c-0.007,0.013-0.336,0.49-0.672,1.136c-0.168,0.321-0.339,0.688-0.47,1.063C9.358,8.053,9.259,8.44,9.256,8.835
		c0.001,0.126,0.011,0.251,0.036,0.377c0.074,0.354,0.226,0.669,0.397,0.983c0.257,0.468,0.571,0.934,0.807,1.407
		c0.239,0.479,0.397,0.944,0.396,1.408c0,0.126-0.011,0.251-0.034,0.383c-0.136,0.729-0.574,1.412-0.998,1.903
		c-0.208,0.245-0.411,0.442-0.558,0.574c-0.071,0.067-0.132,0.12-0.172,0.153l-0.044,0.033l-0.011,0.01l0.614,0.851
		c0.019-0.017,0.459-0.351,0.948-0.921c0.488-0.576,1.041-1.391,1.237-2.4c0.036-0.197,0.053-0.394,0.053-0.584
		c-0.006-0.949-0.413-1.748-0.799-2.42c-0.195-0.336-0.389-0.645-0.539-0.916c-0.151-0.272-0.253-0.509-0.287-0.68l-0.014-0.162
		c-0.001-0.2,0.061-0.493,0.168-0.799c0.162-0.463,0.419-0.958,0.632-1.332c0.107-0.185,0.204-0.343,0.273-0.45l0.082-0.125
		l0.027-0.039L10.629,5.479 M14.363,5.479c-0.01,0.013-0.34,0.49-0.674,1.136c-0.168,0.321-0.338,0.688-0.469,1.063
		c-0.134,0.376-0.229,0.764-0.229,1.158c0,0.126,0.008,0.251,0.032,0.377c0.076,0.354,0.227,0.669,0.397,0.983
		c0.261,0.468,0.565,0.932,0.806,1.406c0.238,0.477,0.397,0.943,0.397,1.408c0,0.124-0.015,0.252-0.036,0.383
		c-0.137,0.729-0.574,1.414-1,1.902c-0.209,0.247-0.408,0.444-0.556,0.576c-0.072,0.064-0.136,0.119-0.177,0.152l-0.047,0.033
		l-0.008,0.01l0.612,0.851c0.019-0.017,0.459-0.351,0.946-0.921c0.49-0.576,1.043-1.391,1.238-2.4
		c0.033-0.197,0.053-0.394,0.053-0.586c-0.006-0.951-0.412-1.748-0.799-2.419c-0.195-0.337-0.392-0.644-0.537-0.916
		c-0.151-0.271-0.256-0.508-0.287-0.679l-0.014-0.162c-0.002-0.2,0.06-0.493,0.17-0.799c0.159-0.463,0.418-0.958,0.631-1.332
		c0.104-0.185,0.205-0.343,0.271-0.45l0.081-0.125l0.029-0.039L14.363,5.479"/>
</g>
</svg>
