<?xml version="1.0" encoding="utf-8"?>
<!-- Generator: Adobe Illustrator 16.0.0, SVG Export Plug-In . SVG Version: 6.00 Build 0)  -->
<!DOCTYPE svg PUBLIC "-//W3C//DTD SVG 1.1//EN" "http://www.w3.org/Graphics/SVG/1.1/DTD/svg11.dtd">
<svg version="1.1" id="Layer_1" xmlns="http://www.w3.org/2000/svg" xmlns:xlink="http://www.w3.org/1999/xlink" x="0px" y="0px"
	 width="21px" height="21px" viewBox="0 0 21 21" enable-background="new 0 0 21 21" xml:space="preserve">
<g>
	<path fill="#cea241" d="M17.992,11.078h-1.399l0.075-1.551c0.008-0.175-0.059-0.347-0.177-0.473c-0.122-0.128-0.29-0.2-0.468-0.2
		H1.873c-0.176,0-0.345,0.072-0.466,0.2C1.286,9.18,1.222,9.352,1.23,9.527l0.285,5.993c0.071,1.479,0.978,2.728,2.252,3.293H1.025
		c-0.355,0-0.644,0.287-0.644,0.644s0.288,0.646,0.644,0.646h15.938c0.355,0,0.645-0.289,0.645-0.646
		c0-0.354-0.289-0.644-0.645-0.644H14.13c1.033-0.461,1.824-1.363,2.125-2.479h1.737c1.447,0,2.626-1.182,2.626-2.628
		C20.618,12.257,19.439,11.078,17.992,11.078z M12.585,17.852H5.313c-1.345,0-2.447-1.052-2.512-2.394L2.547,10.14h12.805
		l-0.254,5.318C15.033,16.8,13.932,17.852,12.585,17.852z M17.992,15.046h-1.588l0.128-2.683c0.01,0,0.02,0.002,0.028,0.002h1.432
		c0.738,0,1.341,0.6,1.341,1.339C19.333,14.441,18.73,15.046,17.992,15.046z"/>
	<path fill="#cea241" d="M7.059,7.799c0.103,0.061,0.216,0.09,0.327,0.09c0.22,0,0.434-0.113,0.554-0.316
		c0.18-0.306,0.08-0.701-0.227-0.881C7.355,6.48,7.108,6.09,7.034,5.621C6.959,5.134,7.086,4.649,7.376,4.322
		c0.002-0.003,0.005-0.005,0.007-0.009c0.07-0.082,0.141-0.162,0.21-0.241c0.595-0.683,1.21-1.391,1.387-2.419
		C9.04,1.303,8.806,0.97,8.455,0.91S7.771,1.085,7.712,1.436c-0.116,0.672-0.566,1.19-1.089,1.791
		C6.552,3.308,6.481,3.389,6.409,3.471C5.87,4.082,5.63,4.958,5.764,5.82C5.896,6.67,6.369,7.392,7.059,7.799z"/>
	<path fill="#cea241" d="M9.055,6.347c0.212,0.547,0.592,1.047,1.067,1.411c0.116,0.089,0.253,0.132,0.39,0.132
		c0.194,0,0.386-0.087,0.511-0.253c0.217-0.283,0.162-0.686-0.123-0.902c-0.285-0.217-0.521-0.528-0.647-0.853
		c-0.251-0.646-0.015-1.291,0.794-2.153c0.573-0.611,0.938-1.331,1.062-2.083c0.057-0.351-0.186-0.68-0.535-0.737
		c-0.35-0.055-0.679,0.183-0.736,0.534c-0.079,0.503-0.324,0.977-0.726,1.407C9.688,3.3,8.404,4.67,9.055,6.347z"/>
</g>
</svg>
