<?xml version="1.0" encoding="utf-8"?>
<!-- Generator: Adobe Illustrator 16.0.0, SVG Export Plug-In . SVG Version: 6.00 Build 0)  -->
<!DOCTYPE svg PUBLIC "-//W3C//DTD SVG 1.1//EN" "http://www.w3.org/Graphics/SVG/1.1/DTD/svg11.dtd">
<svg version="1.1" id="Layer_1" xmlns="http://www.w3.org/2000/svg" xmlns:xlink="http://www.w3.org/1999/xlink" x="0px" y="0px"
	 width="21px" height="21px" viewBox="0 0 21 21" enable-background="new 0 0 21 21" xml:space="preserve">
<path fill="#cea241" d="M16.404,7.126c-1.863,0-3.375,1.513-3.375,3.374c0,0.51,0.119,0.984,0.322,1.419l-1.558,1.063
	c-0.237,0.166-0.478,0.134-0.593,0.103c-0.117-0.03-0.32-0.118-0.444-0.351L10.002,10.5C9.676,9.536,8.84,8.881,7.823,8.792
	c-1.016-0.086-1.95,0.414-2.438,1.309l-2.188,4.01c-0.363,0.664-0.349,1.449,0.036,2.099c0.388,0.649,1.069,1.04,1.825,1.04h5.712
	l1.298,3.374l1.563-0.626l-1.722-4.436H5.06c-0.223,0-0.336-0.15-0.374-0.213c-0.036-0.063-0.115-0.233-0.008-0.433l2.187-4.009
	c0.246-0.452,0.686-0.45,0.814-0.437c0.127,0.011,0.562,0.085,0.726,0.57L9.18,13.33l0.036,0.091
	c0.302,0.638,0.866,1.106,1.545,1.292c0.68,0.184,1.406,0.063,1.988-0.335l1.681-1.149c0.557,0.4,1.236,0.647,1.975,0.647
	c1.863,0,3.375-1.515,3.375-3.375C19.779,8.639,18.268,7.126,16.404,7.126 M16.404,12.188c-0.93,0-1.688-0.758-1.688-1.688
	c0-0.931,0.761-1.688,1.688-1.688c0.927,0,1.687,0.757,1.687,1.688C18.091,11.43,17.332,12.188,16.404,12.188 M8.811,7.126
	c1.862,0,3.376-1.515,3.376-3.375S10.67,0.376,8.811,0.376S5.437,1.891,5.437,3.751C5.437,5.612,6.95,7.126,8.811,7.126
	 M8.811,2.064c0.932,0,1.688,0.756,1.688,1.687S9.743,5.439,8.811,5.439c-0.928,0-1.687-0.757-1.687-1.688
	C7.124,2.822,7.883,2.064,8.811,2.064 M1.221,19.779h8.423v-1.688H1.221V19.779z"/>
</svg>
