<?xml version="1.0" encoding="utf-8"?>
<!-- Generator: Adobe Illustrator 16.0.0, SVG Export Plug-In . SVG Version: 6.00 Build 0)  -->
<!DOCTYPE svg PUBLIC "-//W3C//DTD SVG 1.1//EN" "http://www.w3.org/Graphics/SVG/1.1/DTD/svg11.dtd">
<svg version="1.1" id="Layer_1" xmlns="http://www.w3.org/2000/svg" xmlns:xlink="http://www.w3.org/1999/xlink" x="0px" y="0px"
	 width="512px" height="512px" viewBox="0 0 512 512" enable-background="new 0 0 512 512" xml:space="preserve">
<g transform="translate(0.000000,512.000000) scale(0.100000,-0.100000)">
	<path fill="#CEA241" d="M2330,5110c-493.999-47.998-950-230-1350-537.998C785,4422.001,532.001,4140,386,3910
		c-63.003-98.999-186-351.001-230-471.001C107.002,3305,53.999,3098.999,27.998,2940c-30.996-195-30.996-565,0-760
		c45-275.996,116.001-497.998,237.001-745c132.002-269.004,268.999-460,488.999-680.996C975,534.004,1166,397.002,1435,265
		c247.002-120.996,468.999-192.002,745-237.002c195-30.996,565-30.996,760,0c275.996,45,497.998,116.006,745,237.002
		c269.004,132.002,460,269.004,680.996,489.004C4585.996,975,4722.998,1165.996,4855,1435
		c87.998,179.004,132.002,295.996,180,475.996c62.998,240,77.998,371.006,77.998,649.004c0,277.998-15,408.999-77.998,648.999
		c-47.998,180-92.002,297.002-180,476.001c-132.002,268.999-269.004,460-489.004,681.001C4145,4586,3954.003,4722.998,3685,4855
		c-245.996,121.001-474.004,192.998-740,235C2797.998,5112.998,2470,5123.999,2330,5110z M3899.003,3657.998
		c50-15.996,126.992-90.996,147.998-145.996c23.994-64.004,22.002-147.002-6.006-205c-31.992-65-1677.998-1699.003-1751.997-1740
		c-71.997-37.998-156.001-37.998-227.998,0.996C2018.999,1590,1261,2269.004,1132.001,2400c-51.001,50.996-76.001,112.998-75,185
		c1.997,151,112.998,252.998,262.998,242.998C1356,2825,1400,2816,1417.001,2806c26.997-13.003,531.997-468.002,695.996-625.004
		L2160,2135l747.998,747.001c411.006,410,761.006,752.998,779.004,761.997C3755.996,3678.999,3817.998,3682.998,3899.003,3657.998z"
		/>
</g>
</svg>
