<?xml version="1.0" encoding="utf-8"?>
<!-- Generator: Adobe Illustrator 16.0.0, SVG Export Plug-In . SVG Version: 6.00 Build 0)  -->
<!DOCTYPE svg PUBLIC "-//W3C//DTD SVG 1.1//EN" "http://www.w3.org/Graphics/SVG/1.1/DTD/svg11.dtd">
<svg version="1.1" id="Layer_1" xmlns="http://www.w3.org/2000/svg" xmlns:xlink="http://www.w3.org/1999/xlink" x="0px" y="0px"
	 width="21px" height="21px" viewBox="0 0 21 21" enable-background="new 0 0 21 21" xml:space="preserve">
<g>
	<g>
		<path fill="#cea241" d="M16.896,10.603L16.17,9.879c2.365-2.366,2.363-6.213-0.002-8.579l0.729-0.724
			C19.66,3.34,19.66,7.839,16.896,10.603z M14.919,8.626l0.724,0.726c2.074-2.075,2.074-5.45,0-7.524l-0.724,0.724
			C16.594,4.226,16.594,6.953,14.919,8.626z M14.352,8.059c1.362-1.362,1.362-3.579-0.002-4.939l-0.723,0.723
			c0.964,0.964,0.964,2.53,0,3.492L14.352,8.059z M4.829,1.3L4.104,0.576c-2.765,2.764-2.765,7.263,0,10.027l0.724-0.724
			C2.462,7.514,2.463,3.666,4.829,1.3z M5.355,9.352L6.08,8.626c-1.675-1.674-1.675-4.399,0-6.074L5.355,1.828
			C3.281,3.901,3.281,7.277,5.355,9.352z M6.647,8.059l0.724-0.724c-0.963-0.963-0.963-2.53,0-3.492L6.648,3.12
			C5.286,4.482,5.286,6.698,6.647,8.059z M14.662,18.295h-2.488L10.681,7.504c0.694-0.09,1.234-0.677,1.234-1.397
			c0-0.781-0.636-1.415-1.415-1.415c-0.782,0-1.416,0.634-1.416,1.415c0,0.72,0.539,1.308,1.234,1.397L8.827,18.295h-2.49
			c-0.588,0-1.065,0.479-1.065,1.064c0,0.588,0.477,1.063,1.065,1.063h8.327c0.588,0,1.064-0.479,1.064-1.063
			C15.729,18.771,15.251,18.295,14.662,18.295z"/>
	</g>
</g>
</svg>
