<?xml version="1.0" encoding="utf-8"?>
<!-- Generator: Adobe Illustrator 16.0.0, SVG Export Plug-In . SVG Version: 6.00 Build 0)  -->
<!DOCTYPE svg PUBLIC "-//W3C//DTD SVG 1.1//EN" "http://www.w3.org/Graphics/SVG/1.1/DTD/svg11.dtd">
<svg version="1.1" id="Layer_1" xmlns="http://www.w3.org/2000/svg" xmlns:xlink="http://www.w3.org/1999/xlink" x="0px" y="0px"
	 width="98px" height="113.1px" viewBox="12.833 5 98 113.1" enable-background="new 12.833 5 98 113.1" xml:space="preserve">
<g transform="translate(0.000000,124.000000) scale(0.100000,-0.100000)">
	<path fill="#CEA141" d="M372.998,1052.002L140,916.001l-2.002-230c-3.999-318.003-2.998-323.999,18.003-348.003
		c11.001-10.996,41.997-32.002,68.999-45.996c27.998-12.998,97.002-52.998,155-87.002s137.998-80.996,177.998-104.004l72.998-41.992
		l212.002,121.992C960,247.998,1065,309.004,1077.998,317.002C1100,330,1100,330.996,1100,607.998
		c0,152.002-4.004,282.002-7.998,289.004C1085.996,906.001,712.998,1130,620,1180C610,1185,533.999,1147.002,372.998,1052.002z
		 M835,1017.998c107.002-61.997,194.004-115.996,195-118.999c0-6.997-382.002-232.998-412.998-245c-10-2.998-95,40-217.002,111.001
		L197.998,882.002l104.004,60c56.997,33.999,150,88.999,207.998,123.999c57.998,33.999,111.001,62.998,117.998,62.998
		C635,1130,727.998,1078.999,835,1017.998z M410,722.002l185-109.004l2.998-50.996C600,532.998,597.998,510,595,510
		c-3.999,0-101.001,55-216.001,122.002L170,753.999v53.003v53.999l27.998-15C212.998,837.002,307.998,782.002,410,722.002z
		 M1070,797.002V755L859.004,632.002C742.998,564.004,647.002,510,645,512.002s-5,20.996-5.996,42.998L635,594.004l210,122.998
		C960.996,783.999,1057.998,840,1062.998,840C1067.002,840,1070,821.001,1070,797.002z M391.001,527.998L600,405.996V262.998
		C600,184.004,597.998,120,596.001,120c-2.002,0-43.003,22.998-90,50.996l-86.001,50v100c0,55-3.999,108.008-10,118.008
		C401.001,457.998,270,540,251.001,540C243.999,540,240,502.998,240,434.004c0-58.008-2.998-104.004-7.002-102.002
		c-5,2.002-20,10-35,17.002L170,362.998v144.004C170,585,172.998,650,176.001,650C178.999,650,276.001,595,391.001,527.998z
		 M1070,515.996V382.002l-77.002-45c-42.998-25-140-81.006-215-125L640,130.996v137.002V405l212.998,122.002
		C969.004,595,1065.996,650,1067.998,650C1069.004,650,1070,590,1070,515.996z M372.998,435.996
		C387.002,427.002,390,410,390,332.002v-94.004l-52.002,31.006l-52.998,30l-2.998,96.992l-3.003,96.006l38.003-22.998
		C337.998,455.996,362.998,440.996,372.998,435.996z"/>
</g>
</svg>
