<?xml version="1.0" encoding="utf-8"?>
<!-- Generator: Adobe Illustrator 16.0.0, SVG Export Plug-In . SVG Version: 6.00 Build 0)  -->
<!DOCTYPE svg PUBLIC "-//W3C//DTD SVG 1.1//EN" "http://www.w3.org/Graphics/SVG/1.1/DTD/svg11.dtd">
<svg version="1.1" id="Capa_1" xmlns="http://www.w3.org/2000/svg" xmlns:xlink="http://www.w3.org/1999/xlink" x="0px" y="0px"
	 width="14.271px" height="14.271px" viewBox="0 0 14.271 14.271" enable-background="new 0 0 14.271 14.271" xml:space="preserve">
<g>
	<path d="M7.135,0C3.195,0,0,3.195,0,7.135c0,3.94,3.194,7.138,7.135,7.138c3.941,0,7.138-3.195,7.138-7.138
		C14.272,3.195,11.076,0,7.135,0z M8.621,11.059c-0.367,0.146-0.659,0.255-0.878,0.33c-0.221,0.076-0.475,0.114-0.764,0.114
		c-0.443,0-0.791-0.108-1.037-0.326c-0.246-0.217-0.368-0.491-0.368-0.824c0-0.13,0.009-0.264,0.026-0.397
		c0.02-0.137,0.049-0.289,0.09-0.459l0.459-1.624c0.04-0.156,0.076-0.305,0.104-0.442c0.026-0.14,0.041-0.267,0.041-0.383
		c0-0.206-0.043-0.353-0.128-0.433c-0.087-0.081-0.25-0.121-0.492-0.121c-0.118,0-0.24,0.018-0.364,0.054
		c-0.124,0.038-0.23,0.072-0.32,0.105l0.121-0.5C5.412,6.032,5.7,5.927,5.974,5.84C6.25,5.751,6.509,5.708,6.753,5.708
		c0.441,0,0.782,0.106,1.021,0.319c0.238,0.214,0.358,0.49,0.358,0.832c0,0.069-0.01,0.193-0.024,0.373
		C8.092,7.411,8.062,7.573,8.017,7.72l-0.458,1.62C7.523,9.47,7.491,9.62,7.459,9.786c-0.028,0.166-0.044,0.293-0.044,0.378
		c0,0.216,0.048,0.361,0.146,0.439c0.095,0.077,0.264,0.116,0.499,0.116c0.111,0,0.236-0.021,0.379-0.059
		c0.141-0.039,0.242-0.073,0.307-0.104L8.621,11.059z M8.54,4.488C8.327,4.686,8.071,4.785,7.77,4.785s-0.56-0.101-0.772-0.298
		s-0.323-0.438-0.323-0.72s0.108-0.522,0.322-0.724c0.215-0.201,0.475-0.3,0.772-0.3c0.301,0,0.558,0.099,0.771,0.3
		c0.213,0.2,0.319,0.441,0.319,0.724C8.86,4.049,8.752,4.29,8.54,4.488z"/>
</g>
</svg>
