<?xml version="1.0" encoding="utf-8"?>
<!-- Generator: Adobe Illustrator 16.0.0, SVG Export Plug-In . SVG Version: 6.00 Build 0)  -->
<!DOCTYPE svg PUBLIC "-//W3C//DTD SVG 1.1//EN" "http://www.w3.org/Graphics/SVG/1.1/DTD/svg11.dtd">
<svg version="1.1" id="Layer_1" xmlns="http://www.w3.org/2000/svg" xmlns:xlink="http://www.w3.org/1999/xlink" x="0px" y="0px"
	 width="512px" height="512px" viewBox="0 0 512 512" enable-background="new 0 0 512 512" xml:space="preserve">
<g transform="translate(0.000000,512.000000) scale(0.100000,-0.100000)">
	<path fill="#373E43" d="M125,4392.998c-163.999-85.996-166.001-300-2.998-383.999c35.996-18.999,95-18.999,2435-18.999
		c2312.998,0,2398.994,1.001,2437.998,18.999c164.004,76.001,165.996,298.003,2.998,382.002c-35.996,18.999-95,18.999-2440,18.999
		C388.999,4408.999,152.002,4407.998,125,4392.998z"/>
	<path fill="#373E43" d="M148.999,2766.001c-60-21.001-100-56.001-125-110c-51.997-111.997-10-231.001,100-281.997L175,2350h2385
		h2385l50.996,24.004c113.008,51.992,154.004,173.994,96.006,286.997c-29.004,56.997-70,91.997-131.006,108.999
		c-23.994,6.001-847.998,10-2405.996,10C643.999,2778.999,177.998,2777.002,148.999,2766.001z"/>
	<path fill="#373E43" d="M125,1120.996C21.001,1074.004-27.998,947.002,18.999,845c18.999-42.998,78.003-100,118.003-115.996
		c32.998-12.002,4812.998-12.002,4845.996,0c40,15.996,99.004,72.998,117.998,115.996c47.002,102.002-1.992,229.004-105.996,275.996
		c-37.998,18.008-140,19.004-2435,19.004S162.998,1139.004,125,1120.996z"/>
</g>
</svg>
