<?xml version="1.0" encoding="utf-8"?>
<!-- Generator: Adobe Illustrator 16.0.0, SVG Export Plug-In . SVG Version: 6.00 Build 0)  -->
<!DOCTYPE svg PUBLIC "-//W3C//DTD SVG 1.1//EN" "http://www.w3.org/Graphics/SVG/1.1/DTD/svg11.dtd">
<svg version="1.1" id="Layer_1" xmlns="http://www.w3.org/2000/svg" xmlns:xlink="http://www.w3.org/1999/xlink" x="0px" y="0px"
	 width="512px" height="512px" viewBox="0 0 512 512" enable-background="new 0 0 512 512" xml:space="preserve">
<g transform="translate(0.000000,512.000000) scale(0.100000,-0.100000)">
	<path fill="#108690" d="M552.001,3492.001L555,2025l27.002-97.998c48.999-179.004,125.996-317.998,270.996-494.004
		c340-410,725-740,1187.002-1015.996c137.998-82.002,477.002-251.006,500-250C2570,170,2852.001,300,2995,377.998
		c349.004,189.004,614.004,382.998,884.004,647.002c308.994,302.002,518.994,589.004,590,805
		c56.992,175,53.994,90.996,57.998,1658.999c2.002,793.999,2.002,1450-1.006,1457.002c-2.998,8.999-47.998-6.001-157.998-52.002
		c-525-221.001-818.994-272.998-1155-205C3025,4727.998,2784.003,4820,2617.001,4917.001l-77.002,45L2472.001,4921
		C2296,4815,2045,4715,1850,4673.999c-127.998-26.997-360-25-510,5c-142.002,28.003-358.999,98.999-550,180
		C710,4892.998,623.999,4930,597.001,4940L550,4960L552.001,3492.001z M2602.001,4503.999
		c158.994-81.001,447.002-171.001,632.002-198.999c255.996-37.998,603.994-2.998,860.996,85l55,18.999v-1150
		c0-1253.002,0.996-1224.995-57.002-1363.999C4035,1755,3840,1510,3614.003,1290c-278.008-269.004-563.008-470-918.008-645
		l-148.994-74.004L2456,617.002c-193.003,97.002-427.002,242.002-610,380C1502.001,1255.996,1105,1670,1003.999,1875
		c-85,172.998-77.998,65-81.997,1368.999C920,4350,920,4402.001,937.001,4397.001C1231,4311,1348.999,4288.999,1565,4282.998
		c132.002-3.999,195-1.997,278.999,12.002C2046,4326,2296,4406,2467.998,4495c37.002,18.999,71.001,33.999,75,35
		C2547.001,4530,2574.003,4517.998,2602.001,4503.999z"/>
	<path fill="#108690" d="M2885,2950l-550-550l-305,305l-305,305l-132.998-132.998L1460,2745l437.998-437.998L2335,1870
		l682.998,682.998L3700,3235l-132.998,132.998L3435,3500L2885,2950z"/>
</g>
</svg>
