<?xml version="1.0" encoding="utf-8"?>
<!-- Generator: Adobe Illustrator 16.0.0, SVG Export Plug-In . SVG Version: 6.00 Build 0)  -->
<!DOCTYPE svg PUBLIC "-//W3C//DTD SVG 1.1//EN" "http://www.w3.org/Graphics/SVG/1.1/DTD/svg11.dtd">
<svg version="1.1" id="Capa_1" xmlns="http://www.w3.org/2000/svg" xmlns:xlink="http://www.w3.org/1999/xlink" x="0px" y="0px"
	 width="473px" height="622px" viewBox="61.14 110.445 473 622" enable-background="new 61.14 110.445 473 622"
	 xml:space="preserve">
<g>
	<g>
		<path fill="#FFFFFF" d="M508.468,346.535h-37.205v-49.607c0-95.736-77.886-173.623-173.623-173.623
			s-173.623,77.887-173.623,173.623v49.607H86.812c-6.854,0-12.401,5.547-12.401,12.402v310.042
			c0,27.358,22.247,49.605,49.606,49.605h347.247c27.358,0,49.606-22.247,49.606-49.606V358.937
			C520.87,352.082,515.323,346.535,508.468,346.535z M334.773,605.602c0.388,3.5-0.738,7.012-3.088,9.641
			c-2.35,2.628-5.717,4.13-9.241,4.13h-49.606c-3.524,0-6.891-1.502-9.241-4.13c-2.35-2.627-3.476-6.14-3.088-9.641l7.824-70.353
			c-12.705-9.24-20.298-23.858-20.298-39.894c0-27.358,22.247-49.607,49.606-49.607s49.607,22.247,49.607,49.607
			c0,16.035-7.594,30.653-20.298,39.894L334.773,605.602z M396.853,346.535H198.427v-49.607c0-54.705,44.508-99.213,99.213-99.213
			s99.213,44.508,99.213,99.213V346.535z"/>
	</g>
</g>
</svg>
