<?xml version="1.0" encoding="utf-8"?>
<!-- Generator: Adobe Illustrator 16.0.0, SVG Export Plug-In . SVG Version: 6.00 Build 0)  -->
<!DOCTYPE svg PUBLIC "-//W3C//DTD SVG 1.1//EN" "http://www.w3.org/Graphics/SVG/1.1/DTD/svg11.dtd">
<svg version="1.1" id="Layer_1" xmlns="http://www.w3.org/2000/svg" xmlns:xlink="http://www.w3.org/1999/xlink" x="0px" y="0px"
	 width="401px" height="476px" viewBox="0 0 401 476" enable-background="new 0 0 401 476" xml:space="preserve">
<g transform="translate(0.000000,512.000000) scale(0.100000,-0.100000)">
	<path d="M1842.002,5036c-420-80-743.003-360-877.002-761.001c-108.999-322.002-48.999-707.002,153.999-992.002l52.002-72.998
		h122.998h123.999L1515,3436c52.998,123.999,95,226.997,92.998,228.999c-2.002,1.001-115,82.002-252.998,180
		c-137.002,97.998-257.998,186.001-267.998,197.002C1062.002,4071,1065,4116,1095,4145l23.999,25h308.003H1735L1850,4476
		C1967.002,4791,1977.998,4810,2030,4810S2092.998,4791,2210,4476L2325,4170h307.998h307.998l24.004-25
		c30-28.999,32.998-73.999,7.998-102.998c-10-11.001-130-99.004-267.998-197.002c-137.002-97.998-250.996-178.999-252.998-180
		c-2.002-2.002,40-105,92.998-228.999L2642.002,3210h123.994h123.008l51.992,72.998c202.002,284.004,262.002,663.003,155,989.004
		c-121.992,370.996-415,645.996-793.994,745C2180.996,5047.998,1957.002,5057.001,1842.002,5036z"/>
	<path d="M1940.996,4265c-46.992-123.999-90.996-231.001-98.994-237.998c-10-8.003-80-14.004-226.006-17.002L1405,4005
		l187.002-132.998c102.002-73.003,188.994-139.004,192.002-148.003c11.992-30,5-51.001-58.008-198.999
		c-35.996-82.002-62.998-151.001-60.996-152.998c0.996-2.002,79.004,50.996,170.996,116.997C1945,3567.998,2014.004,3610,2030,3610
		s85-42.002,194.004-121.001c91.992-66.001,170-118.999,170.996-116.997c2.002,1.997-25,70.996-60.996,152.998
		c-63.008,147.998-70,168.999-58.008,198.999c3.008,8.999,90,75,192.002,148.003L2655,4005l-210.996,5
		c-146.006,2.998-216.006,8.999-226.006,17.002C2210,4033.999,2165.996,4141,2119.004,4265c-46.006,123.999-86.006,225-89.004,225
		S1987.002,4388.999,1940.996,4265z"/>
	<path d="M355,3841c-97.998-23.999-178.999-96.001-220-193.003L120,3610h336.001h336.001l-6.001,22.998
		C782.998,3645,775,3688.999,768.999,3730c-20,136.001,7.002,120-201.997,118.999C467.002,3847.998,372.002,3845,355,3841z"/>
	<path d="M3305.996,3827.998c-1.992-12.998-8.994-56.997-15-97.998c-5.996-41.001-13.994-85-16.992-97.002l-6.006-22.998h261.006
		H3790v95c0,87.998-2.002,97.998-25,120c-24.004,25-24.004,25-239.004,25H3310L3305.996,3827.998z"/>
	<path d="M135,3412.998C161.001,3351,200,3302.001,247.998,3270c84.004-55,117.002-60,434.004-60h288.999L945,3252.998
		C930,3276,902.002,3330,882.002,3372.001L845,3450H482.002H120L135,3412.998z"/>
	<path d="M3177.998,3372.001C3157.998,3330,3130,3276,3115,3252.998L3089.004,3210h350H3790v120v120h-287.002H3215
		L3177.998,3372.001z"/>
	<path d="M1875,3322.001L1725,3215l152.998-2.998c82.998-1.001,221.006-1.001,304.004,0L2335,3215l-150.996,107.998
		C2100,3382.001,2030.996,3430,2029.004,3430C2027.002,3428.999,1957.998,3381,1875,3322.001z"/>
	<path d="M110,2948.999V2730h1840h1840v160v160l-1732.002,2.002L325,3055l-57.998,22.998C236.001,3091,187.002,3117.001,160,3135
		l-50,33.999V2948.999z"/>
	<path d="M110,1730V890h1840h1840v159.004v160l-327.002,2.998L3135,1215l-65,30.996c-95,46.006-152.998,101.006-197.002,192.002
		L2835,1514.004v255V2025l32.002,67.002c43.994,92.998,100,150.996,190.996,195.996l76.006,37.002l327.998,2.998l327.998,2.998v120
		V2570H1950H110V1730z"/>
	<path d="M3150,2157.002c-49.004-16.006-132.998-102.002-147.998-152.998C2994.004,1977.998,2990,1892.002,2990,1770
		s4.004-207.998,12.002-234.004c15.996-55,98.994-137.998,153.994-153.994C3185,1374.004,3302.002,1370,3549.004,1370h351.992
		l24.004,25l25,24.004V1770v350.996L3925,2145l-24.004,25l-357.998-0.996C3312.998,2167.998,3172.998,2164.004,3150,2157.002z
		 M3372.998,1915.996c102.998-42.998,127.998-176.992,47.998-256.992c-65-65-156.992-65-221.992,0
		C3075,1782.002,3212.002,1984.004,3372.998,1915.996z"/>
	<path d="M115,682.998C130,580,187.002,500,282.002,449.004L345,415l1697.998-2.998L3740.996,410L3765,434.004
		c24.004,23.994,25,30,25,160.996v135H1949.004H107.998L115,682.998z"/>
</g>
</svg>
