<?xml version="1.0" encoding="utf-8"?>
<!-- Generator: Adobe Illustrator 16.0.0, SVG Export Plug-In . SVG Version: 6.00 Build 0)  -->
<!DOCTYPE svg PUBLIC "-//W3C//DTD SVG 1.1//EN" "http://www.w3.org/Graphics/SVG/1.1/DTD/svg11.dtd">
<svg version="1.1" id="Layer_1" xmlns="http://www.w3.org/2000/svg" xmlns:xlink="http://www.w3.org/1999/xlink" x="0px" y="0px"
	 width="475px" height="287px" viewBox="0 0 475 287" enable-background="new 0 0 475 287" xml:space="preserve">
<g transform="translate(0.000000,512.000000) scale(0.100000,-0.100000)">
	<path d="M1086.376,4846.523c-64.741-21.284-99.326-43.457-149.883-95.791c-81.597-85.137-105.542-155.205-105.542-306.865
		c0-131.26,19.512-165.854,92.236-165.854c22.173,0,39.912,7.983,60.313,25.723l28.379,24.834l4.434,113.521l5.322,113.525
		l507.314-433.696c278.491-238.579,507.31-435.473,507.31-438.134s-228.818-199.546-507.31-438.13l-507.314-433.701l-5.322,113.525
		l-4.434,113.516l-28.379,24.844c-20.4,17.734-38.14,25.723-60.313,25.723c-72.725,0-92.236-34.6-92.236-165.869
		c0-108.193,15.078-179.141,49.668-237.676c33.701-57.646,118.843-133.037,178.267-156.992l51.44-20.391h1494.438h1494.443
		l57.656,27.49c84.248,40.791,135.693,89.58,174.717,170.283l33.701,67.412V3682.9v909.965l-28.379,59.424
		c-39.023,82.48-88.691,133.921-169.395,173.833l-67.412,32.817l-1481.143,1.772
		C1207.885,4862.485,1134.277,4861.596,1086.376,4846.523z M4035.351,4679.78c7.1-11.528-1381.797-1194.663-1411.963-1203.53
		c-21.279-6.201-35.469-4.434-56.758,6.201c-15.957,7.1-188.022,150.771-383.145,318.408
		c-196.006,167.617-503.76,431.035-685.576,587.133c-181.816,155.21-329.932,285.576-329.932,290.015
		C1167.978,4687.768,4030.039,4688.652,4035.351,4679.78z M4192.343,3683.784c0-465.62-3.555-851.431-7.1-857.651
		c-7.09-10.635-1008.418,839.922-1008.418,857.651c0,16.855,1001.328,868.286,1008.418,857.641
		C4188.789,4535.214,4192.343,4149.409,4192.343,3683.784z M2316.523,3446.973c164.082-143.672,189.805-157.861,283.809-157.861
		c97.559,0,125.059,15.068,279.375,149.893c70.957,62.08,133.926,115.303,139.248,117.949
		c12.412,5.322,1023.496-858.516,1016.396-868.291c-5.313-9.746-2867.373-8.867-2867.373,0.908
		c0,8.867,1001.318,870.049,1011.958,870.049C2184.37,3559.619,2245.571,3509.053,2316.523,3446.973z"/>
	<path d="M603.901,3986.215c-62.085-38.135-55.874-129.487,10.645-156.977c26.606-11.533,78.936-13.301,324.609-10.645
		l292.681,2.661l25.718,29.268c34.59,39.028,34.59,79.819,0,118.847l-25.718,29.268l-300.664,2.656
		C647.358,4003.071,629.619,4002.187,603.901,3986.215z"/>
	<path d="M352.021,3544.531c-7.095-2.646-23.95-15.068-37.256-27.49c-47.002-43.457-23.94-133.037,39.028-148.105
		c10.64-2.666,212.861-3.555,448.774-2.666l429.268,2.666l25.718,29.258c34.59,39.023,34.59,79.824,0,118.848l-25.718,29.277
		l-433.701,1.768C560.444,3548.965,359.111,3547.197,352.021,3544.531z"/>
</g>
</svg>
