<?xml version="1.0" encoding="utf-8"?>
<!-- Generator: Adobe Illustrator 16.0.0, SVG Export Plug-In . SVG Version: 6.00 Build 0)  -->
<!DOCTYPE svg PUBLIC "-//W3C//DTD SVG 1.1//EN" "http://www.w3.org/Graphics/SVG/1.1/DTD/svg11.dtd">
<svg version="1.1" id="Layer_1" xmlns="http://www.w3.org/2000/svg" xmlns:xlink="http://www.w3.org/1999/xlink" x="0px" y="0px"
	 width="512px" height="512px" viewBox="0 0 512 512" enable-background="new 0 0 512 512" xml:space="preserve">
<path fill="#FFFFFF" d="M442.5,320.5c0,6.627-5.373,12-12,12h-352c-6.627,0-12-5.373-12-12v-133c0-6.627,5.373-12,12-12h352
	c6.627,0,12,5.373,12,12V320.5z"/>
<g transform="translate(0.000000,512.000000) scale(0.100000,-0.100000)">
	<path fill="#CEA241" d="M771.132,5063.466C391.933,4986.958,110.63,4693.271,52.124,4315.2
		c-10.127-63.013-12.378-532.222-10.127-1805.971C45.371,631.24,40.869,776.396,107.256,599.736
		c74.268-199.17,293.681-418.584,492.841-492.842C775.634,40.498,638.359,45.01,2560.229,45.01
		c1921.86,0,1784.585-4.512,1960.122,61.885c200.293,74.258,418.584,292.559,492.852,492.842
		c66.387,175.537,61.885,38.262,61.885,1960.127c0,1609.057-1.123,1766.591-19.131,1828.476
		c-32.627,119.272-65.264,193.54-120.4,277.93c-128.271,195.786-293.682,315.059-541.23,389.321
		c-56.26,16.88-212.666,19.131-1805.967,21.382C1180.712,5078.095,829.648,5075.849,771.132,5063.466z M4097.265,2710.645
		c59.648-43.887,77.646-79.893,77.646-150.781s-17.998-106.895-77.646-150.781c-30.371-23.623-35.996-23.623-1512.285-27.002
		c-1018.315-2.246-1494.287,0-1523.54,9.004c-113.643,32.637-157.534,189.033-79.888,282.427
		c58.506,69.76-37.134,66.386,1592.178,63.012C4062.392,2734.272,4066.894,2734.272,4097.265,2710.645z"/>
</g>
</svg>
