<?xml version="1.0" encoding="utf-8"?>
<!-- Generator: Adobe Illustrator 16.0.0, SVG Export Plug-In . SVG Version: 6.00 Build 0)  -->
<!DOCTYPE svg PUBLIC "-//W3C//DTD SVG 1.1//EN" "http://www.w3.org/Graphics/SVG/1.1/DTD/svg11.dtd">
<svg version="1.1" id="Layer_1" xmlns="http://www.w3.org/2000/svg" xmlns:xlink="http://www.w3.org/1999/xlink" x="0px" y="0px"
	 width="35px" height="35px" viewBox="0 0 35 35" enable-background="new 0 0 35 35" xml:space="preserve">
<path fill="none" stroke="#CEA141" stroke-width="1.7" stroke-linecap="round" stroke-linejoin="round" stroke-miterlimit="10" d="
	M2.041,12.688C3.616,7.619,7.619,3.616,12.688,2.041"/>
<path fill="none" stroke="#CEA141" stroke-width="1.7" stroke-linecap="round" stroke-linejoin="round" stroke-miterlimit="10" d="
	M12.688,32.959c-5.069-1.575-9.071-5.578-10.647-10.646"/>
<path fill="none" stroke="#CEA141" stroke-width="1.7" stroke-linecap="round" stroke-linejoin="round" stroke-miterlimit="10" d="
	M32.959,22.313c-1.575,5.068-5.578,9.071-10.646,10.646"/>
<path fill="none" stroke="#CEA141" stroke-width="1.7" stroke-linecap="round" stroke-linejoin="round" stroke-miterlimit="10" d="
	M22.313,2.041c5.068,1.576,9.071,5.578,10.646,10.647"/>
<path fill="none" stroke="#CEA141" stroke-width="1.7" stroke-linecap="round" stroke-linejoin="round" stroke-miterlimit="10" d="
	M19.688,19.688c-1.969,1.969-9.625,5.25-9.625,5.25s3.063-7.438,5.25-9.625s9.625-5.25,9.625-5.25S21.656,17.719,19.688,19.688z"/>
<path fill="#CEA141" d="M2.625,17.5c0,0.725-0.588,1.313-1.313,1.313S0,18.225,0,17.5s0.588-1.313,1.313-1.313
	S2.625,16.775,2.625,17.5z"/>
<path fill="#CEA141" d="M35,17.5c0,0.725-0.588,1.313-1.313,1.313s-1.313-0.588-1.313-1.313s0.588-1.313,1.313-1.313
	S35,16.775,35,17.5z"/>
<path fill="#CEA141" d="M18.813,17.5c0,0.725-0.588,1.313-1.313,1.313s-1.313-0.588-1.313-1.313s0.588-1.313,1.313-1.313
	S18.813,16.775,18.813,17.5z"/>
<path fill="#CEA141" d="M18.813,33.688c0,0.725-0.588,1.313-1.313,1.313s-1.313-0.588-1.313-1.313s0.588-1.313,1.313-1.313
	S18.813,32.963,18.813,33.688z"/>
<path fill="#CEA141" d="M18.813,1.313c0,0.725-0.588,1.313-1.313,1.313s-1.313-0.588-1.313-1.313S16.775,0,17.5,0
	S18.813,0.588,18.813,1.313z"/>
</svg>
