<?xml version="1.0" encoding="utf-8"?>
<!-- Generator: Adobe Illustrator 16.0.0, SVG Export Plug-In . SVG Version: 6.00 Build 0)  -->
<!DOCTYPE svg PUBLIC "-//W3C//DTD SVG 1.1//EN" "http://www.w3.org/Graphics/SVG/1.1/DTD/svg11.dtd">
<svg version="1.1" id="Layer_1" xmlns="http://www.w3.org/2000/svg" xmlns:xlink="http://www.w3.org/1999/xlink" x="0px" y="0px"
	 width="391.554px" height="396.62px" viewBox="60.146 55.5 391.554 396.62" enable-background="new 60.146 55.5 391.554 396.62"
	 xml:space="preserve">
<g transform="translate(0.000000,512.000000) scale(0.100000,-0.100000)">
	<path d="M2720.869,4509.79c-75.156-37.583-82.061-144.185-11.504-190.2c10.742-6.899,62.891-22.236,117.344-34.512
		c164.121-36.04,245.41-62.881,392.666-129.609c210.898-95.864,398.027-228.54,572.109-407.231
		c251.563-258.452,416.445-568.291,493.145-927.974c20.693-97.397,26.064-109.667,55.977-131.909
		c48.32-35.278,107.373-32.212,146.484,8.433c35.273,36.816,37.578,60.59,16.104,164.887
		C4349.814,3616.328,3778.457,4240.6,3039.14,4461.469c-84.355,25.313-246.943,62.124-273.789,62.124
		C2755.38,4523.593,2735.449,4517.46,2720.869,4509.79z"/>
	<path d="M1239.951,4278.945c-98.164-31.445-180.229-99.697-410.303-343.584c-164.888-174.087-209.37-262.28-224.707-437.905
		c-22.241-250.015,62.119-566.758,248.481-933.344c78.228-154.922,113.501-215.498,213.203-364.287
		c375.791-562.92,868.921-1011.563,1451.011-1321.396c329.775-175.635,608.936-265.361,862.783-278.389
		c179.463-9.98,338.984,40.645,458.623,144.18c14.57,12.266,102.764,100.459,196.328,197.1
		c154.912,158.74,172.559,180.225,202.461,239.268c57.52,115.039,58.301,218.574,0.781,336.68
		c-31.455,63.652-39.121,72.1-316.748,349.717c-269.189,269.951-287.598,286.826-342.803,312.91
		c-117.344,55.205-237.754,49.844-352.021-16.113c-19.17-11.504-105.83-90.498-193.271-177.158l-158.75-156.455l-75.918,40.645
		c-337.446,177.93-780.728,624.277-944.849,950.986l-29.907,58.291l147.246,148.779c157.217,158.75,195.562,206.299,220.874,278.389
		c33.745,98.169,26.841,191.733-21.475,290.664c-25.308,50.615-51.382,78.994-312.134,339.746
		c-296.802,296.797-320.576,316.738-411.074,343.579C1392.568,4297.353,1294.404,4296.582,1239.951,4278.945z M1411.738,4055.771
		c47.549-22.241,543.75-520.737,564.453-567.52c39.883-88.198,23.008-117.339-187.129-325.942
		c-94.326-92.798-176.387-180.225-184.058-194.795c-21.475-42.949-12.271-120.41,23.008-195.566
		c98.931-210.131,258.452-421.811,501.563-664.155c200.166-200.156,405.698-354.316,613.54-460.908
		c86.66-45.254,98.164-49.092,141.885-48.33c29.902,0,56.738,5.371,73.613,13.818c14.58,7.666,104.297,91.26,199.404,184.824
		c95.098,93.564,184.063,176.387,198.633,184.053c38.35,19.18,105.83,13.047,144.18-13.799
		c54.443-37.578,520.732-513.076,539.141-549.121c22.246-44.482,22.246-95.088,0-139.57
		c-16.865-32.217-263.818-291.426-348.945-365.059c-122.705-107.373-295.264-120.41-579.023-43.721
		c-207.07,55.996-526.875,210.908-789.927,382.695c-559.854,366.592-1072.153,959.414-1331.372,1541.513
		c-166.421,374.253-207.07,661.084-119.644,839.775c15.337,32.212,62.124,84.36,197.1,220.874
		c111.206,113.506,189.434,186.362,210.903,197.1C1322.011,4074.946,1368.793,4075.712,1411.738,4055.771z"/>
	<path d="M2684.062,3795.019c-52.148-32.212-70.557-101.235-39.883-151.084c21.475-35.278,39.883-44.482,132.676-67.49
		c212.441-52.148,383.457-149.546,528.408-302.163c137.275-143.418,230.078-316.743,270.723-503.101
		c16.104-72.089,26.846-96.63,54.453-118.105c62.119-49.082,161.826-13.037,175.625,63.652
		c11.504,58.286-46.016,258.452-112.744,391.127c-171.016,345.117-480.859,593.599-853.574,684.097
		C2746.953,3814.189,2717.041,3814.96,2684.062,3795.019z"/>
</g>
</svg>
