<?xml version="1.0" encoding="utf-8"?>
<!-- Generator: Adobe Illustrator 16.0.0, SVG Export Plug-In . SVG Version: 6.00 Build 0)  -->
<!DOCTYPE svg PUBLIC "-//W3C//DTD SVG 1.1//EN" "http://www.w3.org/Graphics/SVG/1.1/DTD/svg11.dtd">
<svg version="1.1" id="Layer_1" xmlns="http://www.w3.org/2000/svg" xmlns:xlink="http://www.w3.org/1999/xlink" x="0px" y="0px"
	 width="512px" height="512px" viewBox="0 0 512 512" enable-background="new 0 0 512 512" xml:space="preserve">
<g transform="translate(0.000000,512.000000) scale(0.100000,-0.100000)">
	<path fill="#CEA241" d="M3615.996,4872.998c-368.994-78.999-621.992-428.999-575.996-798.999
		c47.002-375,352.998-646.997,730-646.997c285-1.001,525,147.998,655,405c60,120,79.004,210,72.998,355.996
		c-7.998,199.004-75.996,352.002-218.994,494.004C4107.998,4850,3852.998,4923.999,3615.996,4872.998z"/>
	<path fill="#CEA241" d="M1592.001,4618.999C1286,4572.001,1016,4372.998,878.999,4095c-76.001-156.001-91.997-228.999-91.997-420
		c0-183.999,13.999-256.001,81.997-401.001c125-265,348.003-447.998,641.001-525c120-31.997,317.002-31.997,445-1.001
		C2127.998,2791,2327.001,2908.999,2438.999,3036C2602.001,3220,2682.998,3432.001,2682.998,3675
		c0,247.002-85,463.999-251.997,647.002C2315,4448.999,2128.999,4557.998,1960,4600
		C1861,4623.999,1683.999,4632.998,1592.001,4618.999z"/>
	<path fill="#CEA241" d="M3135,3362.001C3017.998,3301,2924.003,3233.999,2827.001,3141C2750.996,3067.998,2645,2937.998,2615,2880
		l-14.004-27.998l87.002-48.003c265-148.999,516.006-396,677.998-669.995c26.006-43.008,49.004-81.006,50-83.008
		c2.002-1.992,40,13.008,86.006,32.002c245,106.006,520,112.998,775.996,22.002c216.006-77.998,426.006-250,534.004-437.002
		C4830,1635.996,4849.003,1610,4855,1610c5,0,40,30.996,77.998,70c104.004,107.002,146.006,212.002,167.998,419.004
		c43.008,425-151.992,871.997-495,1134.995C4527.001,3295,4397.998,3371,4332.998,3396l-42.002,16.001l-112.998-55
		c-125.996-61.001-192.002-81.001-320-97.002c-177.002-21.001-397.998,27.002-548.994,120c-27.002,16.001-57.002,30-67.002,30
		C3232.998,3410,3184.003,3387.998,3135,3362.001z"/>
	<path fill="#CEA241" d="M1000,2727.002C811,2643.999,643.999,2527.002,490,2370c-247.998-250.996-397.998-547.002-462.001-910
		c-16.997-95.996-16.997-400.996,0-500C67.002,737.998,116.001,634.004,240,510c67.998-69.004,102.001-94.004,170-127.998
		C565,305.996,495,310,1731,310c1061.001,0,1108.999,0.996,1181.001,19.004c68.994,17.998,163.994,57.998,195,82.998
		c8.994,7.002-1.006,28.994-41.006,85.996C2930.996,692.002,2870,885.996,2870,1122.002c0,295,112.998,553.994,332.002,758.994
		c80.996,77.002,80.996,68.008,7.002,190c-170,279.004-418.008,500.005-723.003,645.005L2390,2761l-57.998-35
		c-374.004-226.997-813.003-231.001-1174.004-13.003c-41.997,26-77.998,47.001-80,47.001C1076,2760,1041,2745,1000,2727.002z"/>
	<path fill="#CEA241" d="M3785,1985.996c-114.004-20-177.998-40.996-277.998-93.994
		c-514.004-269.004-631.006-961.006-234.004-1379.004c87.998-92.998,169.004-150.996,279.004-202.002
		c110.996-51.992,190.996-70.996,320-77.998C4282.998,210.996,4639.003,460.996,4765,860c35,110.996,45,295,22.002,415
		c-64.004,337.998-315,605.996-650,694.004C4034.003,1995.996,3885.996,2002.998,3785,1985.996z M3995.996,1625.996l34.004-33.994
		v-186.006V1220h185.996h186.006l33.994-34.004c46.006-45.996,48.008-100.996,5-147.998L4412.001,1005l-191.006-2.998l-190-2.998
		L4027.998,810L4025,620l-25.996-25.996c-18.008-18.008-41.006-28.008-73.008-31.006c-41.992-5-47.998-2.998-80.996,30l-35,35v185
		v186.006l-190.996,2.998L3427.998,1005l-28.994,32.998c-42.002,46.006-41.006,107.998,1.992,151.006l30,30.996l187.002,2.002
		L3805,1225l5.996,190c3.008,105,6.006,190.996,7.002,192.998c1.006,2.002,14.004,14.004,27.998,27.002
		c20,19.004,38.008,25,71.006,25C3955,1660,3967.998,1654.004,3995.996,1625.996z"/>
</g>
</svg>
