<?xml version="1.0" encoding="utf-8"?>
<!-- Generator: Adobe Illustrator 16.0.0, SVG Export Plug-In . SVG Version: 6.00 Build 0)  -->
<!DOCTYPE svg PUBLIC "-//W3C//DTD SVG 1.1//EN" "http://www.w3.org/Graphics/SVG/1.1/DTD/svg11.dtd">
<svg version="1.1" id="Layer_1" xmlns="http://www.w3.org/2000/svg" xmlns:xlink="http://www.w3.org/1999/xlink" x="0px" y="0px"
	 width="401px" height="476px" viewBox="54.5 17.5 401 476" enable-background="new 54.5 17.5 401 476" xml:space="preserve">
<g transform="translate(0.000000,512.000000) scale(0.100000,-0.100000)">
	<path fill="#CEA241" d="M2372.001,4866c-420-80-743.003-360-877.002-761.001C1386,3782.998,1446,3397.998,1648.999,3112.998
		L1701,3040h122.998h123.999L2045,3266c52.998,123.999,95,226.997,92.998,228.999c-1.997,1.001-115,82.002-252.998,180
		c-137.002,97.998-257.998,186.001-267.998,197.002C1592.001,3901,1595,3946,1625,3975l23.999,25h308.003H2265L2380,4306
		C2497.001,4621,2507.998,4640,2560,4640S2622.998,4621,2740,4306L2855,4000h307.998h307.998l24.004-25
		c30-28.999,32.998-73.999,7.998-102.998c-10-11.001-130-99.004-267.998-197.002c-137.002-97.998-250.996-178.999-252.998-180
		c-2.002-2.002,40-105,92.998-228.999L3172.001,3040h123.994h123.008l51.992,72.998c202.002,284.004,262.002,663.003,155,989.004
		c-121.992,370.996-415,645.996-793.994,745C2710.996,4877.998,2487.001,4887.001,2372.001,4866z"/>
	<path fill="#CEA241" d="M2471,4095c-47.002-123.999-91.001-231.001-98.999-237.998c-10-8.003-80-14.004-226.001-17.002L1935,3835
		l187.002-132.998c101.997-73.003,188.999-139.004,191.997-148.003c12.002-30,5-51.001-57.998-198.999
		c-36.001-82.002-63.003-151.001-61.001-152.998c1.001-2.002,78.999,50.996,171.001,116.997C2475,3397.998,2543.999,3440,2560,3440
		c15.996,0,85-42.002,194.004-121.001c91.992-66.001,170-118.999,170.996-116.997c2.002,1.997-25,70.996-60.996,152.998
		c-63.008,147.998-70,168.999-58.008,198.999c3.008,8.999,90,75,192.002,148.003L3185,3835l-210.996,5
		c-146.006,2.998-216.006,8.999-226.006,17.002C2740,3863.999,2695.996,3971,2649.003,4095c-46.006,123.999-86.006,225-89.004,225
		S2517.001,4218.999,2471,4095z"/>
	<path fill="#CEA241" d="M885,3671C787.001,3647.001,706,3575,665,3477.998L650,3440H986h336.001l-6.001,22.998
		c-3.003,12.002-11.001,56.001-17.002,97.002c-20,136.001,7.002,120-201.997,118.999C997.001,3677.998,902.001,3675,885,3671z"/>
	<path fill="#CEA241" d="M3835.996,3657.998c-1.992-12.998-8.994-56.997-15-97.998c-5.996-41.001-13.994-85-16.992-97.002
		l-6.006-22.998h261.006H4320v95c0,87.998-2.002,97.998-25,120c-24.004,25-24.004,25-239.004,25H3840L3835.996,3657.998z"/>
	<path fill="#CEA241" d="M665,3242.998C691,3181,730,3132.001,777.998,3100c84.004-55,117.002-60,434.004-60H1501L1475,3082.998
		c-15,23.003-42.998,77.002-62.998,119.004L1375,3280h-362.998H650L665,3242.998z"/>
	<path fill="#CEA241" d="M3707.998,3202.001C3687.998,3160,3660,3106,3645,3082.998L3619.003,3040h350H4320v120v120h-287.002H3745
		L3707.998,3202.001z"/>
	<path fill="#CEA241" d="M2405,3152.001L2255,3045l152.998-2.998c83.003-1.001,221.006-1.001,304.004,0L2865,3045l-150.996,107.998
		C2630,3212.001,2561,3260,2558.999,3260C2557.001,3258.999,2487.998,3211,2405,3152.001z"/>
	<path fill="#CEA241" d="M640,2778.999V2560h1840h1840v160v160l-1732.002,2.002L855,2885l-57.998,22.998
		C766,2921,717.001,2947.001,690,2965l-50,33.999V2778.999z"/>
	<path fill="#CEA241" d="M640,1560V720h1840h1840v159.004v160l-327.002,2.998L3665,1045l-65,30.996
		c-95,46.006-152.998,101.006-197.002,192.002L3365,1344.004v255V1855l32.002,67.002c43.994,92.998,100,150.996,190.996,195.996
		l76.006,37.002l327.998,2.998l327.998,2.998v120V2400H2480H640V1560z"/>
	<path fill="#CEA241" d="M3680,1987.002c-49.004-16.006-132.998-102.002-147.998-152.998C3524.003,1807.998,3520,1722.002,3520,1600
		s4.004-207.998,12.002-234.004c15.996-55,98.994-137.998,153.994-153.994C3715,1204.004,3832.001,1200,4079.003,1200h351.992
		l24.004,25l25,24.004V1600v350.996L4455,1975l-24.004,25l-357.998-0.996C3842.998,1997.998,3702.998,1994.004,3680,1987.002z
		 M3902.998,1745.996c102.998-42.998,127.998-176.992,47.998-256.992c-65-65-156.992-65-221.992,0
		C3605,1612.002,3742.001,1814.004,3902.998,1745.996z"/>
	<path fill="#CEA241" d="M645,512.998C660,410,717.001,330,812.001,279.004L875,245l1697.998-2.998L4270.996,240L4295,264.004
		c24.004,23.994,25,30,25,160.996v135H2478.999H637.998L645,512.998z"/>
</g>
</svg>
