<?xml version="1.0" encoding="utf-8"?>
<!-- Generator: Adobe Illustrator 16.0.0, SVG Export Plug-In . SVG Version: 6.00 Build 0)  -->
<!DOCTYPE svg PUBLIC "-//W3C//DTD SVG 1.1//EN" "http://www.w3.org/Graphics/SVG/1.1/DTD/svg11.dtd">
<svg version="1.1" id="Layer_1" xmlns="http://www.w3.org/2000/svg" xmlns:xlink="http://www.w3.org/1999/xlink" x="0px" y="0px"
	 width="512px" height="512px" viewBox="0 0 512 512" enable-background="new 0 0 512 512" xml:space="preserve">
<g transform="translate(0.000000,512.000000) scale(0.100000,-0.100000)">
	<path fill="#CEA241" d="M1210,5103.999c-45-20-67.998-41.001-91.001-86.001C1102.001,4985,1100,4957.001,1100,4775v-205H792.998
		C553.999,4570,471,4566,421,4555c-202.001-47.998-373.002-227.002-410-428.999c-15-83.003-15-3598.002,0-3681.997
		C47.998,237.998,237.998,47.998,443.999,10.996c83.999-15,4148.003-15,4231.997,0c206.006,37.002,396.006,227.002,433.008,433.008
		c15,83.994,15,3598.994,0,3681.997c-37.002,201.997-208.008,381.001-410,428.999c-50,11.001-133.008,15-371.006,15H4020v207.998
		c0,196.001-2.002,209.004-22.998,247.002c-12.002,22.002-37.002,50-56.006,62.002c-88.994,60-205,31.997-257.998-62.002
		c-20.996-37.998-22.998-51.001-22.998-247.002V4570H2560H1460v205c0,182.002-2.002,210-18.999,242.998
		C1417.998,5063.999,1395,5085,1347.001,5105C1302.001,5123.999,1255,5123.999,1210,5103.999z M1460,4185
		c0-418.999-1.001-425-56.001-477.002C1367.998,3675,1330,3660,1280,3660s-87.998,15-123.999,47.998C1101,3760,1100,3766,1100,4185
		v385h180h180V4185z M4020,4185c0-418.999-0.996-425-55.996-477.002C3927.998,3675,3890,3660,3840,3660s-87.998,15-124.004,47.998
		C3660.996,3760,3660,3766,3660,4185v385h180h180V4185z M4750,1712.998V497.002l-24.004-41.006
		c-12.998-22.998-41.992-50.996-63.994-63.994l-40-22.002H2560H497.998l-40,22.002C436,405,407.001,432.998,393.999,455.996
		L370,497.002v1215.996V2930h2190h2190V1712.998z"/>
	<path fill="#CEA241" d="M3585,2540.996c-27.002-12.998-255-233.994-710-690C2507.001,1482.002,2201,1180,2195,1180
		s-150,140-320,310c-336.001,335.996-352.998,349.004-437.002,335.996C1326,1807.998,1260,1702.998,1290,1590
		c11.001-40,52.002-85,392.998-427.998C2077.001,767.002,2121,730,2193.999,730c17.002,0,48.999,9.004,71.001,19.004
		c27.002,12.998,278.999,257.998,795.996,776.992c613.008,615,759.004,766.006,769.004,798.008
		c25.996,82.998-14.004,176.992-92.002,215C3684.003,2565,3637.001,2565,3585,2540.996z"/>
</g>
</svg>
