<?xml version="1.0" encoding="utf-8"?>
<!-- Generator: Adobe Illustrator 16.0.0, SVG Export Plug-In . SVG Version: 6.00 Build 0)  -->
<!DOCTYPE svg PUBLIC "-//W3C//DTD SVG 1.1//EN" "http://www.w3.org/Graphics/SVG/1.1/DTD/svg11.dtd">
<svg version="1.1" id="Layer_1" xmlns="http://www.w3.org/2000/svg" xmlns:xlink="http://www.w3.org/1999/xlink" x="0px" y="0px"
	 width="512px" height="512px" viewBox="0 0 512 512" enable-background="new 0 0 512 512" xml:space="preserve">
<g transform="translate(0.000000,512.000000) scale(0.100000,-0.100000)">
	<path d="M2430,5113.999c-317.998-41.001-572.998-161.001-792.998-372.998C1150,4272.001,1097.998,3511,1516,2973.999
		c401.001-516,1134.995-661.997,1698.999-336.997c497.998,286.997,755,845,649.004,1405.996
		C3765,4562.001,3347.001,4983.999,2827.001,5091C2727.998,5111,2508.999,5123.999,2430,5113.999z"/>
	<path d="M1490,2350C1047.001,2272.002,641,1997.002,387.998,1604.004C335,1520.996,270,1380,270,1347.002
		c0-66.006,190-334.004,370-521.006C1078.999,369.004,1621,97.002,2245,19.004c130-17.002,492.002-16.006,620,0
		c505.996,65,955.996,253.994,1345,565C4330.996,680,4567.998,925,4662.001,1050c105,140.996,187.998,275,187.998,305.996
		c0,30-55.996,153.008-105,229.004c-170.996,267.002-409.004,485-675.996,617.998c-195,97.002-438.008,164.004-561.006,155
		c-42.002-2.998-70-12.998-110-37.998c-143.994-90.996-190-115.996-270-150.996c-198.994-87.002-402.002-125-617.998-116.006
		c-276.001,11.006-507.998,85-738.999,237.002c-50,32.998-103.003,62.002-118.003,65.996c-15.996,3.008-35,7.002-42.998,9.004
		S1547.998,2360,1490,2350z"/>
</g>
</svg>
