<?xml version="1.0" encoding="utf-8"?>
<!-- Generator: Adobe Illustrator 16.0.0, SVG Export Plug-In . SVG Version: 6.00 Build 0)  -->
<!DOCTYPE svg PUBLIC "-//W3C//DTD SVG 1.1//EN" "http://www.w3.org/Graphics/SVG/1.1/DTD/svg11.dtd">
<svg version="1.1" id="Layer_1" xmlns="http://www.w3.org/2000/svg" xmlns:xlink="http://www.w3.org/1999/xlink" x="0px" y="0px"
	 width="512px" height="512px" viewBox="0 0 512 512" enable-background="new 0 0 512 512" xml:space="preserve">
<g transform="translate(0.000000,512.000000) scale(0.100000,-0.100000)">
	<path fill="#CEA241" d="M681,4783.999c-168.999-45-301.001-180-346.001-351.001c-22.002-85-22.002-1260.996,0-1345.996
		C380,2913.999,512.998,2780,685,2735c87.998-22.998,1262.002-22.998,1350,0c172.002,45,305,178.999,350,352.002
		c22.002,85,22.002,1260.996,0,1345.996C2340,4606,2207.001,4740,2035,4785C1950,4807.001,763.999,4806,681,4783.999z
		 M2013.999,4446c68.999-52.002,67.002-28.999,63.999-700c-2.998-593.003-2.998-605-23.999-632.002
		c-11.001-15-32.998-36.997-47.998-47.998c-27.002-21.001-38.999-21.001-632.002-23.999c-671.001-3.003-647.998-5-700,63.999
		L645,3142.998l-2.998,591.001c-2.002,325,0,605,2.998,623.003c7.002,40,48.999,90.996,90,108.999
		c23.999,11.001,147.002,12.998,636.001,11.001l606.001-2.002L2013.999,4446z"/>
	<path fill="#CEA241" d="M3080.996,4783.999c-168.994-45-300.996-180-345.996-351.001c-22.002-85-22.002-1260.996,0-1345.996
		C2780,2913.999,2912.998,2780,3085,2735c87.998-22.998,1262.002-22.998,1350,0c172.002,45,305,178.999,350,352.002
		c22.002,85,22.002,1260.996,0,1345.996C4740,4606,4607.001,4740,4435,4785C4350,4807.001,3164.003,4806,3080.996,4783.999z
		 M4414.003,4446c68.994-52.002,66.992-28.999,63.994-700c-2.998-593.003-2.998-605-23.994-632.002
		c-11.006-15-33.008-36.997-48.008-47.998c-26.992-21.001-38.994-21.001-631.992-23.999c-671.006-3.003-648.008-5-700,63.999
		L3045,3142.998l-2.998,591.001c-2.002,325,0,605,2.998,623.003c7.002,40,49.004,90.996,90,108.999
		c24.004,11.001,147.002,12.998,635.996,11.001l606.006-2.002L4414.003,4446z"/>
	<path fill="#CEA241" d="M681,2384.004c-168.999-45-301.001-180-346.001-351.006c-22.002-85-22.002-1260.996,0-1345.996
		C380,514.004,512.998,380,685,335c87.998-22.998,1262.002-22.998,1350,0c172.002,45,305,179.004,350,352.002
		c22.002,85,22.002,1260.996,0,1345.996C2340,2205.996,2207.001,2340,2035,2385C1950,2407.002,763.999,2405.996,681,2384.004z
		 M2013.999,2045.996c68.999-51.992,67.002-28.994,63.999-700c-2.998-592.998-2.998-605-23.999-631.992
		c-11.001-15-32.998-37.002-47.998-48.008C1978.999,645,1967.001,645,1373.999,642.002c-671.001-2.998-647.998-5-700,63.994
		L645,742.998l-2.998,591.006c-2.002,325,0,605,2.998,622.998c7.002,40,48.999,90.996,90,108.994
		c23.999,11.006,147.002,13.008,636.001,11.006l606.001-2.002L2013.999,2045.996z"/>
	<path fill="#CEA241" d="M3080.996,2384.004c-168.994-45-300.996-180-345.996-351.006c-22.002-85-22.002-1260.996,0-1345.996
		C2780,514.004,2912.998,380,3085,335c87.998-22.998,1262.002-22.998,1350,0c172.002,45,305,179.004,350,352.002
		c22.002,85,22.002,1260.996,0,1345.996C4740,2205.996,4607.001,2340,4435,2385C4350,2407.002,3164.003,2405.996,3080.996,2384.004z
		 M4414.003,2045.996c68.994-51.992,66.992-28.994,63.994-700c-2.998-592.998-2.998-605-23.994-631.992
		c-11.006-15-33.008-37.002-48.008-48.008C4379.003,645,4367.001,645,3774.003,642.002c-671.006-2.998-648.008-5-700,63.994
		L3045,742.998l-2.998,591.006c-2.002,325,0,605,2.998,622.998c7.002,40,49.004,90.996,90,108.994
		c24.004,11.006,147.002,13.008,635.996,11.006l606.006-2.002L4414.003,2045.996z"/>
</g>
</svg>
