<?xml version="1.0" encoding="utf-8"?>
<!-- Generator: Adobe Illustrator 16.0.0, SVG Export Plug-In . SVG Version: 6.00 Build 0)  -->
<!DOCTYPE svg PUBLIC "-//W3C//DTD SVG 1.1//EN" "http://www.w3.org/Graphics/SVG/1.1/DTD/svg11.dtd">
<svg version="1.1" id="Layer_1" xmlns="http://www.w3.org/2000/svg" xmlns:xlink="http://www.w3.org/1999/xlink" x="0px" y="0px"
	 width="256px" height="256px" viewBox="0 0 256 256" enable-background="new 0 0 256 256" xml:space="preserve">
<path fill="#CEA141" d="M109.293,2.113c1.197-0.018,1.197-0.018,2.417-0.035c4.907,0.023,8.618,0.806,13.13,2.7
	c2.401,0.875,4.345,0.792,6.857,0.448c0.79-0.095,1.581-0.189,2.396-0.287c2.243-0.403,2.243-0.403,4.08-1.489
	c5.82-2.733,14.403-1.929,20.628-0.972c3.924,1.697,6.72,3.873,9.768,6.837c6.163,5.16,10.384,6.882,18.375,7.142
	c6.725,0.344,11.695,2.04,16.787,6.532c1.236,2.148,1.236,2.148,1.953,3.907c0.645,0,1.289,0,1.953,0
	c2.48,3.338,3.285,5.624,2.932,9.767c0.645,0,1.289,0,1.953,0c1.403,1.461,1.403,1.461,2.93,3.357
	c2.095,2.651,2.095,2.651,4.884,4.457c0,0.645,0,1.289,0,1.954c0.705-0.061,1.409-0.121,2.137-0.184
	c3.297,0.22,4.999,1.159,7.63,3.113c0,0.645,0,1.289,0,1.954c0.581,0.236,1.161,0.474,1.76,0.718
	c4.212,2.424,6.217,6.608,8.009,11.003c0.435,3.464,0.549,6.864,0.663,10.351c0.692,7.346,4.679,13.061,9.661,18.299
	c4.396,5.13,4.784,9.065,4.692,15.608c0.012,0.798,0.022,1.596,0.034,2.417c-0.022,4.907-0.807,8.618-2.699,13.13
	c-0.876,2.401-0.793,4.345-0.448,6.857c0.095,0.79,0.188,1.581,0.285,2.396c0.404,2.243,0.404,2.243,1.489,4.08
	c2.733,5.82,1.931,14.403,0.972,20.628c-1.696,3.924-3.872,6.72-6.836,9.768c-5.16,6.163-6.884,10.384-7.143,18.375
	c-0.344,6.725-2.039,11.695-6.531,16.787c-2.148,1.236-2.148,1.236-3.908,1.953c0,0.645,0,1.289,0,1.953
	c-3.338,2.48-5.623,3.285-9.767,2.932c0,0.645,0,1.289,0,1.953c-1.461,1.403-1.461,1.403-3.358,2.93
	c-2.65,2.095-2.65,2.095-4.455,4.884c-0.645,0-1.289,0-1.953,0c0.061,0.705,0.119,1.409,0.182,2.137
	c-0.219,3.297-1.157,4.999-3.113,7.63c-0.645,0-1.289,0-1.953,0c-0.236,0.581-0.473,1.161-0.717,1.76
	c-2.425,4.212-6.608,6.217-11.004,8.009c-3.464,0.435-6.863,0.549-10.351,0.663c-7.347,0.692-13.061,4.679-18.298,9.661
	c-5.13,4.396-9.065,4.784-15.609,4.692c-0.797,0.012-1.596,0.022-2.416,0.034c-4.909-0.022-8.618-0.807-13.13-2.7
	c-2.401-0.875-4.346-0.792-6.858-0.447c-0.791,0.095-1.582,0.188-2.396,0.285c-2.244,0.404-2.244,0.404-4.081,1.489
	c-5.819,2.733-14.402,1.931-20.627,0.972c-3.923-1.696-6.72-3.872-9.767-6.836c-6.164-5.16-10.385-6.884-18.375-7.143
	c-6.725-0.344-11.696-2.039-16.788-6.531c-1.235-2.148-1.235-2.148-1.953-3.908c-0.645,0-1.289,0-1.954,0
	c-2.48-3.338-3.285-5.623-2.93-9.767c-0.645,0-1.289,0-1.954,0c-1.404-1.461-1.404-1.461-2.931-3.358
	c-2.095-2.65-2.095-2.65-4.883-4.455c0-0.645,0-1.289,0-1.953c-0.705,0.061-1.41,0.119-2.137,0.182c-3.296-0.219-5-1.157-7.63-3.113
	c0-0.645,0-1.289,0-1.953c-0.871-0.354-0.871-0.354-1.759-0.717c-4.213-2.425-6.217-6.608-8.009-11.004
	c-0.435-3.464-0.55-6.863-0.664-10.351c-0.691-7.347-4.678-13.061-9.66-18.298c-4.397-5.13-4.784-9.065-4.692-15.609
	c-0.012-0.797-0.023-1.596-0.035-2.417c0.023-4.908,0.806-8.617,2.7-13.129c0.875-2.401,0.792-4.346,0.448-6.858
	c-0.142-1.186-0.142-1.186-0.287-2.396c-0.403-2.244-0.403-2.244-1.489-4.081c-2.733-5.819-1.929-14.402-0.972-20.627
	c1.697-3.923,3.873-6.72,6.837-9.767c5.16-6.164,6.882-10.385,7.143-18.375c0.344-6.725,2.04-11.696,6.532-16.788
	c2.148-1.236,2.148-1.236,3.907-1.954c0-0.645,0-1.289,0-1.954c3.338-2.48,5.624-3.285,9.767-2.93c0-0.645,0-1.289,0-1.954
	c1.461-1.404,1.461-1.404,3.357-2.931c2.651-2.095,2.651-2.095,4.457-4.883c0.645,0,1.289,0,1.954,0
	c-0.061-0.705-0.121-1.41-0.184-2.137c0.22-3.296,1.159-5,3.113-7.63c0.645,0,1.289,0,1.954,0c0.236-0.581,0.474-1.161,0.718-1.759
	c2.424-4.213,6.608-6.217,11.003-8.009c3.464-0.435,6.864-0.55,10.351-0.664c7.346-0.691,13.061-4.678,18.299-9.66
	C98.815,2.408,102.751,2.021,109.293,2.113z M98.794,19.999c-7.765,6.877-15.735,8.98-25.979,9.397
	c-3.541,0.527-5.754,1.391-8.756,3.361c-1.561,2.259-2.806,4.292-4.029,6.715c-3.118,5.948-6.017,11.077-11.782,14.773
	c-0.762,0.494-1.523,0.987-2.308,1.495c-2.34,1.403-4.723,2.639-7.153,3.876c-3.971,2.207-5.648,3.792-6.96,8.302
	c-0.17,1.85-0.31,3.702-0.427,5.555c-0.692,10.553-4.523,17.767-11.294,25.701c-2.659,3.335-3.739,5.406-3.907,9.767
	c0.711,1.81,1.426,3.618,2.171,5.414c2.856,9.03,2.719,20.531-1.328,29.195c-1.092,3.247-0.811,5.088,0.133,8.367
	c1.632,2.526,1.632,2.526,3.724,4.823c7.209,8.614,10.036,16.155,10.496,27.443c0.527,3.541,1.391,5.755,3.361,8.757
	c2.259,1.56,4.292,2.805,6.715,4.028c5.948,3.118,11.077,6.018,14.773,11.781c0.74,1.143,0.74,1.143,1.495,2.309
	c1.403,2.34,2.639,4.725,3.876,7.154c2.207,3.972,3.792,5.646,8.302,6.959c1.85,0.171,3.702,0.31,5.555,0.428
	c10.553,0.691,17.767,4.522,25.701,11.293c3.335,2.66,5.406,3.739,9.767,3.907c1.81-0.712,3.618-1.426,5.414-2.171
	c9.03-2.856,20.531-2.72,29.195,1.327c3.247,1.092,5.088,0.811,8.367-0.133c2.526-1.633,2.526-1.633,4.823-3.724
	c8.614-7.209,16.155-10.036,27.443-10.496c3.541-0.526,5.755-1.392,8.757-3.362c1.56-2.259,2.805-4.292,4.028-6.715
	c3.118-5.948,6.018-11.075,11.781-14.772c1.143-0.74,1.143-0.74,2.309-1.496c2.34-1.402,4.725-2.64,7.154-3.876
	c3.972-2.208,5.646-3.792,6.959-8.302c0.171-1.85,0.31-3.702,0.428-5.557c0.691-10.552,4.522-17.766,11.293-25.699
	c2.66-3.336,3.739-5.406,3.907-9.768c-0.712-1.81-1.426-3.617-2.171-5.413c-2.856-9.029-2.72-20.531,1.327-29.196
	c1.092-3.247,0.811-5.087-0.133-8.367c-1.633-2.526-1.633-2.526-3.724-4.823c-7.209-8.616-10.036-16.157-10.496-27.444
	c-0.526-3.541-1.392-5.754-3.362-8.756c-2.259-1.561-4.292-2.806-6.715-4.029c-5.948-3.118-11.075-6.017-14.772-11.782
	c-0.494-0.762-0.987-1.523-1.496-2.308c-1.402-2.34-2.64-4.723-3.876-7.153c-2.208-3.971-3.792-5.648-8.302-6.96
	c-1.85-0.17-3.702-0.31-5.557-0.427c-10.552-0.692-17.766-4.523-25.699-11.294c-3.336-2.659-5.406-3.739-9.768-3.907
	c-1.81,0.711-3.617,1.426-5.413,2.171c-9.303,2.943-20.361,2.429-29.379-1.267C107.428,12.832,103.089,16.187,98.794,19.999z"/>
<path fill="#CEA141" d="M181.324,64.869c3.448,0.295,4.891,0.965,7.613,3.193c2.289,2.797,2.659,4.153,3.193,7.614
	c-0.511,0.439-1.021,0.879-1.547,1.332c-3.882,3.366-7.639,6.774-11.225,10.458c-93.333,93.333-93.333,93.333-95.973,95.912
	c-2.383,2.304-2.383,2.304-4.237,5.28c-3.448-0.296-4.891-0.965-7.614-3.193c-2.288-2.796-2.659-4.153-3.193-7.613
	c0.51-0.439,1.021-0.879,1.546-1.332c3.882-3.365,7.639-6.773,11.226-10.458c93.333-93.332,93.333-93.332,95.972-95.911
	C179.471,67.845,179.471,67.845,181.324,64.869z"/>
<path fill="#CEA141" d="M179.543,141.684c0.912,0.912,1.824,1.824,2.764,2.764c0.468,0.462,0.938,0.925,1.42,1.4
	c4.598,5.293,4.613,11.488,4.475,18.248c-0.664,7.842-3.619,11.479-9.088,16.947c-6.475,4.12-13.731,4.158-21.211,3.424
	c-6.438-1.497-10.339-5.628-14.402-10.607c-3.337-6.536-3.066-14.086-1.842-21.185c2.61-6.406,7.096-10.778,13.14-14.122
	C162.803,135.956,172.634,136.942,179.543,141.684z M157.745,153.289c-0.567,0.405-1.134,0.811-1.719,1.229
	c-1.988,2.782-2.095,5.229-2.211,8.596c1.768,4.47,4.605,6.682,8.842,8.843c4.79,0,7.417-1.616,10.808-4.913
	c1.813-2.473,1.971-3.663,1.903-6.754c-1.203-4.011-2.776-6.107-5.834-8.965C164.521,149.803,161.875,150.078,157.745,153.289z"/>
<path fill="#CEA141" d="M110.649,72.913c5.847,5.256,8.453,9.774,8.899,17.63c0.22,7.638-1.105,13.263-6.363,18.955
	c-5.891,5.639-11.129,6.735-18.97,6.604c-6.812-0.433-11.111-2.085-16.049-7.023c-0.469-0.462-0.938-0.924-1.42-1.401
	c-4.597-5.293-4.614-11.487-4.475-18.248c0.664-7.841,3.619-11.479,9.088-16.947C89.826,67.096,102.549,66.881,110.649,72.913z
	 M87.992,85.5c-2.284,2.8-2.947,4.176-2.947,7.798c1.284,3.933,2.872,6.078,5.895,8.903c3.893,1.182,5.858,1.445,9.579-0.246
	c0.729-0.567,1.458-1.135,2.21-1.719c0.567-0.405,1.134-0.811,1.719-1.228c1.987-2.783,2.094-5.229,2.21-8.597
	c-1.774-4.488-4.676-6.546-8.842-8.842C93.089,81.571,91.653,82.618,87.992,85.5z"/>
</svg>
