<?xml version="1.0" encoding="utf-8"?>
<!-- Generator: Adobe Illustrator 16.0.0, SVG Export Plug-In . SVG Version: 6.00 Build 0)  -->
<!DOCTYPE svg PUBLIC "-//W3C//DTD SVG 1.1//EN" "http://www.w3.org/Graphics/SVG/1.1/DTD/svg11.dtd">
<svg version="1.1" id="Layer_1" xmlns="http://www.w3.org/2000/svg" xmlns:xlink="http://www.w3.org/1999/xlink" x="0px" y="0px"
	 width="512px" height="512px" viewBox="0 0 512 512" enable-background="new 0 0 512 512" xml:space="preserve">
<g transform="translate(0.000000,512.000000) scale(0.100000,-0.100000)">
	<path fill="#cea241" d="M1410,4778.999c-187.998-40-348.999-126.001-486.001-262.998C785,4376.001,700,4217.002,661.001,4022.998
		C643.999,3941.001,640,3883.999,640,3721.001V3520l-317.998-2.002L2.998,3515l281.001-371.001
		c155-203.999,372.002-491.001,482.002-638.003L967.998,2240l476.001,635C1706.001,3223.999,1920,3512.002,1920,3515
		s-143.999,5-321.001,5h-321.001l4.004,197.998c2.998,188.003,3.999,199.004,28.999,253.003
		c32.998,71.001,86.997,125,157.998,157.998L1525,4155h1035h1035l55.996-26.001c71.006-32.998,125-86.997,158.008-157.998
		c25-53.999,25.996-65,28.994-253.003l4.004-197.998h318.994H4480v201.001c0,162.998-4.004,220-20.996,301.997
		C4420,4217.002,4335,4376.001,4195.996,4516.001c-140,138.999-298.994,223.999-492.998,262.998c-97.998,20-128.994,21.001-1150,20
		C1547.998,4798.999,1501.001,4797.998,1410,4778.999z"/>
	<path fill="#cea241" d="M3675.996,2245C3414.004,1895.996,3200,1607.998,3200,1605s144.004-5,320.996-5h321.006l-4.004-197.002
		c-2.998-188.994-3.994-200-28.994-253.994c-33.008-71.006-87.002-125-158.008-158.008L3595,965H2560H1525l-56.001,25.996
		c-71.001,33.008-125,87.002-157.998,158.008c-25,53.994-26.001,65-28.999,253.994L1277.998,1600H958.999H640v-200.996
		c0-163.008,3.999-220,21.001-302.002C700,902.998,785,744.004,923.999,604.004C1063.999,465,1222.998,380,1417.002,340.996
		C1515,320.996,1547.998,320,2560,320s1045,0.996,1142.998,20.996C3897.002,380,4055.996,465,4195.996,604.004
		c139.004,140,224.004,298.994,263.008,492.998c16.992,82.002,20.996,138.994,20.996,302.002V1600l317.998,2.002l319.004,2.998
		l-281.006,370.996c-155,204.004-371.992,491.006-481.992,638.003L4152.001,2880L3675.996,2245z"/>
</g>
</svg>
