<?xml version="1.0" encoding="utf-8"?>
<!-- Generator: Adobe Illustrator 16.0.0, SVG Export Plug-In . SVG Version: 6.00 Build 0)  -->
<!DOCTYPE svg PUBLIC "-//W3C//DTD SVG 1.1//EN" "http://www.w3.org/Graphics/SVG/1.1/DTD/svg11.dtd">
<svg version="1.1" id="Capa_1" xmlns="http://www.w3.org/2000/svg" xmlns:xlink="http://www.w3.org/1999/xlink" x="0px" y="0px"
	 width="4000px" height="4000px" viewBox="0 0 4000 4000" enable-background="new 0 0 4000 4000" xml:space="preserve">
<g>
	<g>
		<path fill="#CEA241" d="M3041.068,2646.08c-130.681-129.017-293.823-129.017-423.672,0
			c-99.051,98.219-198.102,196.438-295.488,296.32c-26.636,27.468-49.109,33.295-81.572,14.982
			c-64.092-34.959-132.345-63.26-193.939-101.548c-287.166-180.623-527.719-412.853-740.803-674.214
			c-105.71-129.849-199.768-268.853-265.523-425.337c-13.318-31.63-10.82-52.438,14.982-78.242
			c99.051-95.722,195.605-193.94,292.991-292.159c135.675-136.507,135.675-296.321-0.832-433.66
			c-77.409-78.242-154.819-154.82-232.229-233.062c-79.906-79.907-158.98-160.646-239.72-239.721
			c-130.681-127.352-293.824-127.352-423.673,0.832c-99.883,98.219-195.605,198.935-297.153,295.489
			C60.38,864.824,12.935,973.863,2.947,1101.215c-15.815,207.258,34.959,402.863,106.542,593.475
			c146.496,394.539,369.568,744.964,640.087,1066.256c365.406,434.493,801.564,778.259,1311.803,1026.303
			c229.731,111.536,467.787,197.27,726.652,211.42c178.125,9.988,332.945-34.959,456.967-173.964
			c84.9-94.89,180.623-181.455,270.518-272.183c133.178-134.843,134.011-297.985,1.665-431.164
			C3359.031,2962.377,3200.05,2804.229,3041.068,2646.08z"/>
		<path fill="#CEA241" d="M2882.088,1982.687l307.142-52.438c-48.277-282.171-181.455-537.706-383.72-740.803
			c-213.917-213.917-484.435-348.76-782.42-390.378l-43.283,308.807c230.564,32.462,440.32,136.508,605.96,302.147
			C2742.251,1566.506,2844.631,1764.608,2882.088,1982.687z"/>
		<path fill="#CEA241" d="M3362.361,647.578C3007.774,292.991,2559.131,69.086,2063.876,0l-43.283,308.807
			c427.834,59.93,815.715,253.87,1122.024,559.348c290.494,290.494,481.105,657.565,550.191,1061.262l307.142-52.439
			C3919.211,1409.189,3698.635,984.685,3362.361,647.578z"/>
	</g>
</g>
</svg>
