<?xml version="1.0" encoding="utf-8"?>
<!-- Generator: Adobe Illustrator 16.0.0, SVG Export Plug-In . SVG Version: 6.00 Build 0)  -->
<!DOCTYPE svg PUBLIC "-//W3C//DTD SVG 1.1//EN" "http://www.w3.org/Graphics/SVG/1.1/DTD/svg11.dtd">
<svg version="1.1" id="Layer_1" xmlns="http://www.w3.org/2000/svg" xmlns:xlink="http://www.w3.org/1999/xlink" x="0px" y="0px"
	 width="841.889px" height="595.281px" viewBox="0 0 841.889 595.281" enable-background="new 0 0 841.889 595.281"
	 xml:space="preserve">
<g>
	<g>
		<g>
			<path fill="#cea241" d="M706.183,322.443H222.518V86.812c0-6.855-5.546-12.402-12.401-12.402h-74.41
				c-6.854,0-12.401,5.547-12.401,12.402v421.657c0,6.854,5.547,12.401,12.401,12.401h74.41c6.855,0,12.402-5.548,12.402-12.402
				v-86.813h396.853v86.813c0,6.854,5.548,12.402,12.402,12.402h74.41c6.855,0,12.402-5.548,12.402-12.402V334.845
				C718.584,327.99,713.037,322.443,706.183,322.443z"/>
			<circle fill="#cea241" cx="321.732" cy="223.23" r="74.41"/>
			<path fill="#cea241" d="M433.347,297.64h272.837c6.855,0,12.402-5.547,12.402-12.402
				c-0.002-75.222-61.198-136.418-136.42-136.418H433.347c-6.855,0-12.402,5.547-12.402,12.402v124.017
				C420.945,292.094,426.491,297.64,433.347,297.64z"/>
		</g>
	</g>
</g>
</svg>
