<?xml version="1.0" encoding="utf-8"?>
<!-- Generator: Adobe Illustrator 16.0.0, SVG Export Plug-In . SVG Version: 6.00 Build 0)  -->
<!DOCTYPE svg PUBLIC "-//W3C//DTD SVG 1.1//EN" "http://www.w3.org/Graphics/SVG/1.1/DTD/svg11.dtd">
<svg version="1.1" id="Layer_1" xmlns="http://www.w3.org/2000/svg" xmlns:xlink="http://www.w3.org/1999/xlink" x="0px" y="0px"
	 width="512px" height="512px" viewBox="0 0 512 512" enable-background="new 0 0 512 512" xml:space="preserve">
<g transform="translate(0.000000,512.000000) scale(0.100000,-0.100000)">
	<path fill="#cea241" d="M980,5108.999C820,5077.998,681.001,4936,650,4770c-13.999-72.998-13.999-4347.002,0-4420
		C682.002,180,820,42.002,988.999,10c73.999-14.004,3068.999-14.004,3141,0c170,32.002,307.998,170,340,339.004
		c14.004,73.994,14.004,4347.998,0,4421.997C4437.998,4940,4300,5077.998,4130,5110C4064.003,5122.998,1045,5122.001,980,5108.999z
		 M2805,4455c250-51.001,459.004-162.002,640.996-337.002C3639.004,3932.002,3760,3711.001,3817.002,3440
		c12.002-61.001,17.002-128.999,17.002-240c0-171.001-14.004-260-65-415c-121.006-362.002-433.008-672.998-797.002-795
		C2820,1940,2730,1925.996,2560,1925.996S2300,1940,2147.998,1990c-363.999,122.002-675.996,432.998-796.997,795
		c-51.001,155-65,243.999-65,415c0,170,13.999,260,63.999,412.002c151.001,452.998,562.998,790,1046.001,856.997
		C2491.001,4482.998,2709.004,4475,2805,4455z M3799.004,1464.004c37.998-32.002,48.994-80,26.992-123.008
		c-33.994-65,46.006-60.996-1265.996-60.996s-1232.002-4.004-1266.001,60.996c-21.997,43.008-11.001,91.006,27.002,123.008
		l31.001,25.996H2560h1207.998L3799.004,1464.004z M3379.004,819.004c41.992-42.002,42.998-95,1.992-141.006L3352.002,645H2560
		h-792.002l-28.999,32.998c-41.001,46.006-40,99.004,2.002,141.006L1772.002,850H2560h787.998L3379.004,819.004z"/>
	<path fill="#cea241" d="M2535,4260c-36.001-13.999-92.002-85-127.998-161.001c-84.004-178.999-135-405-155-686.001L2243.999,3310
		H2560h315.996l-7.998,102.998c-3.994,56.001-12.002,140-18.994,187.002C2797.002,3990,2647.002,4305,2535,4260z"/>
	<path fill="#cea241" d="M2082.002,4145C1875,4040,1717.998,3882.002,1615,3675c-53.999-107.002-105-272.002-105-336.001V3310
		h258.999h258.003l6.997,107.998c17.002,247.002,68.999,503.003,137.002,676.001c21.001,53.999,38.999,100,38.999,102.002
		C2210,4207.002,2182.002,4195,2082.002,4145z"/>
	<path fill="#cea241" d="M2910,4197.002c0-3.003,17.998-49.004,39.004-103.003c67.998-172.998,120-428.999,136.992-676.001
		l7.002-107.998h257.998H3610v28.999c0,63.999-50.996,228.999-105,336.001c-100.996,201.001-257.002,361.001-452.998,462.998
		C2957.998,4186.001,2910,4206.001,2910,4197.002z"/>
	<path fill="#cea241" d="M1510,3061.001c0-63.999,51.001-228.999,105-336.001c103.999-209.004,261.001-365.996,472.002-472.002
		c61.997-30.996,115-53.994,117.998-50.996s-12.002,50-33.999,103.994c-68.003,173.008-120,429.004-137.002,677.002L2027.002,3090
		h-258.003H1510V3061.001z"/>
	<path fill="#cea241" d="M2252.002,2987.998C2277.998,2618.999,2375,2287.002,2490,2175c52.998-52.002,87.002-52.002,140,0
		c115,112.002,212.002,443.999,237.998,812.998l7.998,102.002H2560h-316.001L2252.002,2987.998z"/>
	<path fill="#cea241" d="M3085.996,2982.998c-16.992-247.998-68.994-503.994-136.992-677.002
		c-22.002-53.994-37.002-100.996-34.004-103.994s55.996,20,117.998,50.996C3244.004,2359.004,3400.996,2515.996,3505,2725
		c54.004,107.002,105,272.002,105,336.001V3090h-259.004h-257.998L3085.996,2982.998z"/>
</g>
</svg>
