<?xml version="1.0" encoding="utf-8"?>
<!-- Generator: Adobe Illustrator 16.0.0, SVG Export Plug-In . SVG Version: 6.00 Build 0)  -->
<!DOCTYPE svg PUBLIC "-//W3C//DTD SVG 1.1//EN" "http://www.w3.org/Graphics/SVG/1.1/DTD/svg11.dtd">
<svg version="1.1" id="Layer_1" xmlns="http://www.w3.org/2000/svg" xmlns:xlink="http://www.w3.org/1999/xlink" x="0px" y="0px"
	 width="512px" height="512px" viewBox="0 0 512 512" enable-background="new 0 0 512 512" xml:space="preserve">
<g transform="translate(0.000000,512.000000) scale(0.100000,-0.100000)">
	<path d="M2392.998,4785c-128.999-22.998-267.998-80-380-156.001c-80.996-53.999-223.999-207.998-273.999-295
		C1637.001,4160,1610,4055,1602.998,3812.998l-5-181.997L1541,3625c-335-37.998-583.003-251.001-667.002-570
		C858.999,2996,856,2943.999,855,2720v-265h1705h1705v265c-0.996,223.999-4.004,276-19.004,335
		c-83.994,318.999-331.992,532.002-666.992,570l-57.002,6.001l-5,181.997C3510,4055,3482.998,4158.999,3380.996,4335
		c-62.998,108.999-216.992,262.998-328.994,327.998C2850.996,4781,2612.001,4825,2392.998,4785z M2737.001,4565
		c215-50,408.994-211.001,502.998-418.999c47.002-103.003,60.996-176.001,67.002-353.003l5.996-162.998H2560h-752.998l5.996,162.998
		C1816,3885,1825,3982.001,1833.999,4017.001c56.001,226.997,225,422.998,438.999,511.997c63.003,25,96.001,33.999,217.002,55
		C2531,4591,2670,4580,2737.001,4565z"/>
	<path d="M726,2224.004c-185-45-347.002-208.008-391.001-396.006C312.998,1735,312.998,824.004,335,730.996
		c35-147.998,147.998-288.994,285-352.998c41.001-20,98.999-40.996,127.998-47.002c37.002-7.998,575-10.996,1815-10.996
		c1517.998,0,1771.006,2.002,1825,15c190,45,352.002,205.996,397.002,395.996c22.002,94.004,22.002,1004.004,0,1098.008
		c-45,190-207.002,350.996-397.002,395.996C4295.996,2247.002,816,2245.996,726,2224.004z M1331,1824.004
		c47.998-24.004,58.999-65,58.999-218.008v-135L1513.999,1545c123.999,75,157.002,85.996,198.999,64.004
		c54.004-28.008,76.001-108.008,42.002-155c-7.998-12.002-71.001-55-138.999-95C1547.001,1317.998,1490,1282.998,1490,1280
		s53.999-37.998,120-77.998c130-80,160-109.004,160-154.004C1770,1012.002,1746,964.004,1721,950c-47.002-25-90-12.002-205,60
		c-62.002,37.998-116.001,70-118.999,70c-4.004,0-7.002-59.004-7.002-130c0-149.004-11.001-190-58.999-214.004
		c-38.003-20-63.999-20-102.002,0C1181,760,1170,800.996,1170,955v135l-122.998-75c-124.004-75.996-157.002-85.996-200-64.004
		c-54.004,28.008-76.001,108.008-42.002,155c7.998,12.002,71.001,55,138.999,95C1012.998,1242.002,1070,1277.002,1070,1280
		s-53.999,37.998-120,79.004c-145,88.994-155,100-155,157.998c0,37.998,5,48.994,32.998,73.994
		c52.002,47.002,85,41.006,217.002-40.996c62.002-37.998,116.001-70,118.999-70c3.003,0,6.001,57.998,6.001,129.004
		c0,145.996,10,185,53.999,211.992C1262.001,1844.004,1291,1845,1331,1824.004z M2610.996,1824.004
		c48.008-24.004,59.004-65,59.004-218.008v-135L2794.003,1545c123.994,75,156.992,85.996,198.994,64.004
		c54.004-28.008,76.006-108.008,42.002-155c-7.998-12.002-70.996-55-139.004-95C2827.001,1317.998,2770,1282.998,2770,1280
		s54.004-37.998,120-77.998c130-80,160-109.004,160-154.004c0-35.996-24.004-83.994-49.004-97.998c-46.992-25-90-12.002-205,60
		c-61.992,37.998-115.996,70-118.994,70c-4.004,0-7.002-59.004-7.002-130c0-149.004-10.996-190-59.004-214.004
		c-37.998-20-63.994-20-101.997,0C2461,760,2450,800.996,2450,955v135l-122.998-75c-124.004-75.996-157.002-85.996-200-64.004
		c-54.004,28.008-76.001,108.008-42.002,155c7.998,12.002,71.001,55,138.999,95C2292.998,1242.002,2350,1277.002,2350,1280
		s-53.999,37.998-120,79.004c-145,88.994-155,100-155,157.998c0,37.998,5,48.994,32.998,73.994
		c52.002,47.002,85,41.006,217.002-40.996c62.002-37.998,116.001-70,118.999-70c3.003,0,6.001,57.998,6.001,129.004
		c0,145.996,10,185,53.999,211.992C2542.001,1844.004,2570.996,1845,2610.996,1824.004z M3890.996,1824.004
		c48.008-24.004,59.004-65,59.004-218.008v-135L4074.003,1545c123.994,75,156.992,85.996,198.994,64.004
		c54.004-28.008,76.006-108.008,42.002-155c-7.998-12.002-70.996-55-139.004-95C4107.001,1317.998,4050,1282.998,4050,1280
		s54.004-37.998,120-77.998c130-80,160-109.004,160-154.004c0-35.996-24.004-83.994-49.004-97.998c-46.992-25-90-12.002-205,60
		c-61.992,37.998-115.996,70-118.994,70c-4.004,0-7.002-59.004-7.002-130c0-149.004-10.996-190-59.004-214.004
		c-37.998-20-63.994-20-101.992,0C3740.996,760,3730,800.996,3730,955v135l-122.998-75c-124.004-75.996-157.002-85.996-200-64.004
		c-54.004,28.008-76.006,108.008-42.002,155c7.998,12.002,70.996,55,139.004,95C3572.998,1242.002,3630,1277.002,3630,1280
		s-54.004,37.998-120,79.004c-145,88.994-155,100-155,157.998c0,37.998,5,48.994,32.998,73.994
		c52.002,47.002,85,41.006,217.002-40.996c62.002-37.998,115.996-70,119.004-70c2.998,0,5.996,57.998,5.996,129.004
		c0,145.996,10,185,54.004,211.992C3822.001,1844.004,3850.996,1845,3890.996,1824.004z"/>
</g>
</svg>
