<?xml version="1.0" encoding="utf-8"?>
<!-- Generator: Adobe Illustrator 16.0.0, SVG Export Plug-In . SVG Version: 6.00 Build 0)  -->
<!DOCTYPE svg PUBLIC "-//W3C//DTD SVG 1.1//EN" "http://www.w3.org/Graphics/SVG/1.1/DTD/svg11.dtd">
<svg version="1.1" id="Layer_1" xmlns="http://www.w3.org/2000/svg" xmlns:xlink="http://www.w3.org/1999/xlink" x="0px" y="0px"
	 width="365.442px" height="454px" viewBox="0 0 365.442 454" enable-background="new 0 0 365.442 454" xml:space="preserve">
<path fill="#9CA0A8" d="M186.243,0.815c-2.219-1.088-4.817-1.088-7.036,0L4.649,86.22C1.869,87.542,0.07,90.315,0,93.393v163.398
	c0,19.997,6.549,43.079,18.125,64.991c11.588,21.938,27.185,40.247,43.753,51.542l116.299,79.285c2.727,1.853,6.307,1.853,9.033,0
	l116.435-79.285c34.549-23.558,61.797-74.745,61.797-116.533V93.634c-0.074-3.073-1.869-5.847-4.642-7.168L186.243,0.815z
	 M349.466,256.791c0,36.438-24.688,82.792-54.818,103.335l-111.84,76.216L71.009,360.126c-14.458-9.856-28.343-26.124-38.737-45.806
	c-10.383-19.653-16.296-40.083-16.296-57.529V98.377L182.721,16.88l166.745,81.731V256.791z"/>
<path fill="#9CA0A8" d="M58.438,226.997c0,68.642,55.642,124.283,124.283,124.283c68.637,0,124.283-55.642,124.283-124.283
	c0-68.637-55.646-124.279-124.283-124.279C114.115,102.796,58.516,158.391,58.438,226.997z M182.721,118.694
	c59.815,0,108.307,48.488,108.307,108.303c0,59.819-48.492,108.308-108.307,108.308c-59.819,0-108.307-48.488-108.307-108.308
	C74.48,167.209,122.934,118.76,182.721,118.694z"/>
<path fill="#9CA0A8" d="M130.399,269.432c2.605,2.703,6.74,3.227,9.934,1.264l110.254-67.798c2.449-1.486,3.915-4.169,3.842-7.036
	c-0.074-2.863-1.678-5.468-4.197-6.825c-2.523-1.357-5.582-1.26-8.012,0.253l-34.888,21.452l-38.141-14.509
	c-4.123-1.568-8.736,0.503-10.305,4.626c-1.568,4.123,0.503,8.736,4.626,10.308l26.647,10.141l-52.72,32.423l-12.649-13.12
	c-1.974-2.095-4.918-2.969-7.711-2.286c-2.796,0.683-5.008,2.816-5.792,5.581c-0.784,2.77-0.02,5.746,2.005,7.793L130.399,269.432z"
	/>
</svg>
