<?xml version="1.0" encoding="utf-8"?>
<!-- Generator: Adobe Illustrator 16.0.0, SVG Export Plug-In . SVG Version: 6.00 Build 0)  -->
<!DOCTYPE svg PUBLIC "-//W3C//DTD SVG 1.1//EN" "http://www.w3.org/Graphics/SVG/1.1/DTD/svg11.dtd">
<svg version="1.1" id="Layer_1" xmlns="http://www.w3.org/2000/svg" xmlns:xlink="http://www.w3.org/1999/xlink" x="0px" y="0px"
	 width="512px" height="426.668px" viewBox="0 0 512 426.668" enable-background="new 0 0 512 426.668" xml:space="preserve">
<path fill="#CEA141" d="M504.492,268.031L421.953,48.535c-0.023-0.043-0.023-0.086-0.043-0.129l-0.023-0.023
	C411.008,19.434,382.91,0,352,0s-59.008,19.434-69.91,48.406c-3.156,8.406-4.758,17.258-4.758,26.262v96h-42.664v-96
	C234.668,33.492,201.172,0,160,0c-30.91,0-59.008,19.434-69.91,48.406c-0.02,0.043-0.02,0.086-0.043,0.129L7.508,267.969
	c0,0.02-0.02,0.02-0.02,0.02C2.516,281.238,0,295.125,0,309.332c0,64.707,52.652,117.336,117.332,117.336
	c64.684,0,117.336-52.629,117.336-117.336v-10.664h42.664v10.664c0,64.707,52.652,117.336,117.336,117.336
	c64.68,0,117.332-52.629,117.332-117.336C512,295.125,509.484,281.238,504.492,268.031z M117.332,384
	c-41.172,0-74.664-33.492-74.664-74.668c0-9.043,1.598-17.898,4.758-26.281c10.879-28.93,38.973-48.383,69.906-48.383
	c41.176,0,74.668,33.492,74.668,74.664C192,350.508,158.508,384,117.332,384z M394.668,384C353.492,384,320,350.508,320,309.332
	c0-41.172,33.492-74.664,74.668-74.664c30.934,0,59.027,19.453,69.906,48.383c3.16,8.383,4.758,17.238,4.758,26.281
	C469.332,350.508,435.84,384,394.668,384z"/>
</svg>
