<?xml version="1.0" encoding="utf-8"?>
<!-- Generator: Adobe Illustrator 16.0.0, SVG Export Plug-In . SVG Version: 6.00 Build 0)  -->
<!DOCTYPE svg PUBLIC "-//W3C//DTD SVG 1.1//EN" "http://www.w3.org/Graphics/SVG/1.1/DTD/svg11.dtd">
<svg version="1.1" id="Layer_1" xmlns="http://www.w3.org/2000/svg" xmlns:xlink="http://www.w3.org/1999/xlink" x="0px" y="0px"
	 width="512px" height="512px" viewBox="0 0 512 512" enable-background="new 0 0 512 512" xml:space="preserve">
<g transform="translate(0.000000,512.000000) scale(0.100000,-0.100000)">
	<path fill="#cea241" d="M2330,5110c-890-86.001-1671.001-622.001-2060-1415C108.999,3367.998,33.999,3088.999,7.998,2722.002
		c-23.999-335,30-719.004,147.002-1037.998c51.001-141.006,182.998-402.002,262.998-522.002
		c253.003-380,599.004-690,991.001-886.006C1965-4.004,2597.998-70.996,3200.996,84.004c429.004,110,815,327.998,1138.008,640.996
		c461.992,447.998,726.992,1022.002,772.998,1672.002c18.994,266.997-6.006,527.998-77.002,808.999
		c-45,176.997-90.996,297.998-185,488.999c-132.998,267.998-290,483.999-509.004,697.998C3954.003,4770,3470,5010,2935,5091
		C2784.004,5113.999,2472.998,5122.998,2330,5110z M2283.999,3870c157.002-201.001,285.005-367.002,285.005-370
		c0-7.998-288.003-230-298.003-230c-8.999,0-568.003,711.001-573.003,728.999c-2.998,10,282.002,241.001,294.004,238.003
		C1996.001,4236.001,2127.002,4071.001,2283.999,3870z M1828.999,3506.001c276.001-353.999,280-360,286.001-415
		c21.001-186.001,60-323.999,135-476.001c141.001-285,395-505.996,710-617.998l65-22.998l287.998-368.008
		c207.998-265,285-370.996,276.006-376.992c-35-21.006-202.002-43.008-334.004-42.002c-222.998,0-422.998,47.998-637.998,152.002
		c-334.004,160.996-659.004,465-920,860.996c-87.002,132.998-205,372.998-251.001,511.001C1385,2897.002,1365,3020,1366.001,3225
		c0,148.999,3.999,197.998,22.998,283.999c33.999,160,128.999,388.003,151.001,363.999
		C1545,3868.999,1673.999,3702.998,1828.999,3506.001z M3767.002,1972.998c153.994-197.002,282.002-362.998,285.996-370
		c5-7.002-47.002-53.994-140-127.002c-82.002-63.994-150.996-115-153.994-113.994c-6.006,2.998-219.004,272.998-512.002,650
		l-67.998,87.002l147.998,115c80.996,63.994,150.996,115.996,153.994,115.996C3485,2330,3614.004,2169.004,3767.002,1972.998z"/>
</g>
</svg>
