<?xml version="1.0" encoding="utf-8"?>
<!-- Generator: Adobe Illustrator 16.0.0, SVG Export Plug-In . SVG Version: 6.00 Build 0)  -->
<!DOCTYPE svg PUBLIC "-//W3C//DTD SVG 1.1//EN" "http://www.w3.org/Graphics/SVG/1.1/DTD/svg11.dtd">
<svg version="1.1" id="Layer_1" xmlns="http://www.w3.org/2000/svg" xmlns:xlink="http://www.w3.org/1999/xlink" x="0px" y="0px"
	 width="512px" height="512px" viewBox="0 0 512 512" enable-background="new 0 0 512 512" xml:space="preserve">
<path fill="#FFFFFF" d="M428.5,396.5c0,6.627-5.373,12-12,12h-300c-6.627,0-12-5.373-12-12v-293c0-6.627,5.373-12,12-12h300
	c6.627,0,12,5.373,12,12V396.5z"/>
<g transform="translate(0.000000,512.000000) scale(0.100000,-0.100000)">
	<path fill="#CEA241" d="M795,5112.998C467.998,5067.001,171.001,4831,61.001,4530C1.001,4363.999,5,4521,5,2560
		C5,599.004,1.001,755.996,61.001,590c85-230.996,297.998-444.004,528.999-529.004C756,0.996,598.999,5,2560,5
		c1960.996,0,1804.004-4.004,1970,55.996c230.996,85,444.004,298.008,529.004,529.004c60,165.996,55.996,9.004,55.996,1970
		c0,1961,4.004,1803.999-55.996,1970C4990,4718.999,4832.001,4901,4647.001,5003.999c-67.998,38.003-112.998,56.001-222.002,88.999
		l-70,21.001L2590,5116C1618.999,5117.001,812.001,5115,795,5112.998z M2647.998,3632.998c19.004-8.999,46.006-33.999,60-55.996
		L2735,3536l2.998-397.002l2.998-397.998l398.008-3.003l396.992-2.998l41.006-27.001c102.002-67.998,102.002-227.998,0-295.996
		L3535.996,2385l-396.992-2.998l-398.008-2.998l-2.998-398.008L2735,1584.004l-27.002-41.006
		c-67.998-102.002-227.998-102.002-295.996,0L2385,1584.004l-2.998,396.992l-3.003,398.008L1981,2382.002L1583.999,2385
		l-41.001,27.002C1441,2480,1441,2640,1542.998,2707.998l41.001,27.001l398.003,2.998L2380,2741v386.001
		c0,371.997,1.001,387.998,21.001,430C2445,3648.999,2547.998,3680,2647.998,3632.998z"/>
</g>
</svg>
