<?xml version="1.0" encoding="utf-8"?>
<!-- Generator: Adobe Illustrator 16.0.0, SVG Export Plug-In . SVG Version: 6.00 Build 0)  -->
<!DOCTYPE svg PUBLIC "-//W3C//DTD SVG 1.1//EN" "http://www.w3.org/Graphics/SVG/1.1/DTD/svg11.dtd">
<svg version="1.1" id="Layer_1" xmlns="http://www.w3.org/2000/svg" xmlns:xlink="http://www.w3.org/1999/xlink" x="0px" y="0px"
	 width="109.5px" height="107.25px" viewBox="9.25 8.75 109.5 107.25" enable-background="new 9.25 8.75 109.5 107.25"
	 xml:space="preserve">
<g transform="translate(0.000000,128.000000) scale(0.100000,-0.100000)">
	<path fill="#CEA141" d="M557.002,1165c-79.004-16.001-213.003-77.998-274.004-127.002C217.002,986.001,142.002,857.002,126.001,765
		c-3.999-22.002-12.002-60-16.001-85c-31.001-165,97.998-410.996,262.998-502.998C438.999,140,500,122.002,500,137.998
		c0,5,12.002,12.998,26.001,16.006c26.001,6.992,26.001,6.992,20,88.994c-7.002,110-7.002,174.004,0,285
		c5,74.004,8.999,92.002,21.997,92.002c9.004,0,29.004,12.002,44.004,27.002C640,672.998,640,675,640,797.002V920h-25
		c-33.999,0-42.002-23.999-43.999-130c0-46.001-5-87.998-10-92.998c-16.001-16.001-86.001-20-98.003-5
		c-6.997,7.998-15,61.997-18.999,121.997l-6.997,107.002l-31.001-3.003L375,915l2.998-120c3.003-112.998,5-122.002,30-147.002
		C422.002,632.002,443.999,620,456.001,620c21.997,0,22.998-4.004,26.001-92.002c1.997-50.996,1.997-145.996,0-210L478.999,200
		l-35,15C318.999,267.002,200,425.996,180,567.002c-7.002,53.994,5,168.999,25,227.998c17.998,52.002,62.998,132.002,95,165
		c65,67.998,182.002,122.002,305,140c100,15,270-35,339.004-97.998c38.994-38.003,101.992-133.003,133.994-206.001
		c22.998-53.999,26.006-73.003,25-163.003c-0.996-95-2.998-105.996-37.002-175c-55.996-115-163.994-225-240.996-243.994
		l-27.998-7.002l5.996,103.994C807.002,367.998,810,422.998,810,432.998c0,12.998,9.004,17.002,37.998,17.002
		c30,0,45,7.002,72.002,35l32.998,34.004l-7.002,105C937.998,750,920,815,882.002,856.001C822.998,920,765.996,932.002,745,882.998
		c-9.004-20.996-15-603.994-7.998-675c3.994-35.996,10.996-50.996,30-62.998c22.002-15,27.998-15,70.996-0.996
		c57.998,20,125,62.998,117.002,76.992c-4.004,5-2.002,8.008,4.004,7.002c25-7.002,123.994,110,170,200
		C1162.998,494.004,1182.002,660,1165,733.999c-15.996,66.001-74.004,195-102.002,223.003c-10,10-23.994,30-32.002,45
		c-31.992,60.996-196.992,145.996-318.994,162.998c-15,2.002-40,6.001-57.002,8.999C638.999,1177.002,593.999,1172.998,557.002,1165
		z M855,763.999c15.996-35,30-193.999,20-223.999c-4.004-14.004-15-20-34.004-20c-23.994,0-30,5-35,30.996
		c-7.998,41.006-7.998,173.003,1.006,234.004c5.996,43.999,7.002,47.002,20.996,28.999C835.996,803.999,847.998,781.001,855,763.999
		z"/>
</g>
</svg>
