<?xml version="1.0" encoding="utf-8"?>
<!-- Generator: Adobe Illustrator 16.0.0, SVG Export Plug-In . SVG Version: 6.00 Build 0)  -->
<!DOCTYPE svg PUBLIC "-//W3C//DTD SVG 1.1//EN" "http://www.w3.org/Graphics/SVG/1.1/DTD/svg11.dtd">
<svg version="1.1" id="Capa_1" xmlns="http://www.w3.org/2000/svg" xmlns:xlink="http://www.w3.org/1999/xlink" x="0px" y="0px"
	 width="4000px" height="3437.529px" viewBox="0 277.676 4000 3437.529" enable-background="new 0 277.676 4000 3437.529"
	 xml:space="preserve">
<g>
	<g>
		<path fill="#3D454E" d="M240.416,1719.235c16.367-2.656,32.932-3.882,49.504-3.667h2821.92l-61.533-28.619
			c-60.146-28.469-114.863-67.212-161.701-114.479l-791.337-791.337c-104.222-99.49-121.732-259.537-41.499-379.213
			c93.381-127.528,272.461-155.218,399.997-61.836c10.304,7.548,20.097,15.776,29.3,24.631l1430.989,1430.989
			c111.832,111.706,111.931,292.914,0.224,404.746c-0.071,0.071-0.152,0.152-0.224,0.224L2485.066,3631.663
			c-111.922,111.608-293.129,111.357-404.746-0.563c-8.783-8.81-16.984-18.182-24.551-28.057
			c-80.233-119.675-62.723-279.723,41.499-379.212l789.905-792.768c41.991-42.035,90.27-77.282,143.1-104.462l85.859-38.637H305.67
			c-146.203,5.429-274.473-96.699-301.939-240.406C-21.57,1891.535,84.394,1744.546,240.416,1719.235z"/>
	</g>
</g>
</svg>
