<?xml version="1.0" encoding="utf-8"?>
<!-- Generator: Adobe Illustrator 16.0.0, SVG Export Plug-In . SVG Version: 6.00 Build 0)  -->
<!DOCTYPE svg PUBLIC "-//W3C//DTD SVG 1.1//EN" "http://www.w3.org/Graphics/SVG/1.1/DTD/svg11.dtd">
<svg version="1.1" id="Layer_1" xmlns="http://www.w3.org/2000/svg" xmlns:xlink="http://www.w3.org/1999/xlink" x="0px" y="0px"
	 width="96px" height="112.5px" viewBox="13.375 4.5 96 112.5" enable-background="new 13.375 4.5 96 112.5" xml:space="preserve">
<g transform="translate(0.000000,124.000000) scale(0.100000,-0.100000)">
	<path fill="#CEA141" d="M291.001,1177.998c-90-20-162.002-127.998-147.002-220.996C180,733.999,462.002,673.999,545,872.002
		C592.002,985,516.001,1140,396.001,1175c-27.002,7.998-52.002,15-55,13.999C337.998,1187.998,315,1182.998,291.001,1177.998z
		 M446.001,1113.999c120-56.997,101.997-235-31.001-295C363.999,795,316.001,796.001,262.998,820
		c-73.999,32.998-103.999,121.001-68.999,202.998C232.002,1112.998,355,1157.002,446.001,1113.999z"/>
	<path fill="#CEA141" d="M270,1050c0-7.998,12.002-27.002,27.002-42.002L323.999,980l-31.001-32.998
		c-25.996-27.002-28.999-35-20-54.004C286.001,862.998,290,863.999,330,905l33.999,35l38.003-37.002
		c45-43.999,51.997-23.999,7.998,22.002l-30,31.001L410,985c33.999,32.002,37.002,47.002,15,65c-12.998,11.001-21.001,7.998-50-20
		l-35-33.999L305,1030C285,1050,270,1057.998,270,1050z"/>
	<path fill="#CEA141" d="M820.996,1177.998c-61.992-13.999-123.994-77.998-140-145.996C649.004,900,762.998,750,895,750
		c144.004,0,235.996,152.998,174.004,290C1019.004,1150,927.002,1202.002,820.996,1177.998z M975.996,1113.999
		c98.008-46.997,109.004-177.998,21.006-261.001c-57.998-55-131.006-66.997-204.004-32.998c-60.996,27.002-85,70-80,142.002
		c4.004,65.996,37.002,116.997,97.002,148.999C852.998,1135,930,1136.001,975.996,1113.999z"/>
	<path fill="#CEA141" d="M910,995l-64.004-65l-37.998,37.002C784.004,990,770,997.998,770,988.999c0-7.998,22.998-36.997,50-63.999
		l50-50l70.996,71.001c70,70,70,71.001,52.002,92.998L975,1061.001L910,995z"/>
	<path fill="#CEA141" d="M595,660c-55-55-102.998-100-107.002-100c-5,0-7.998,5.996-7.998,14.004
		C480,597.002,421.001,640,388.999,640H360V530V420l-45-40.996c-25-23.008-45-49.004-45-58.008C270,299.004,501.001,70,523.999,70
		c22.002,0,235.005,215.996,241.997,247.002c4.004,15.996-7.998,45.996-40,100.996c-25,42.998-45.996,84.004-45.996,90
		c0,6.006,15,22.998,34.004,37.002C732.002,559.004,760,587.998,775,610c32.002,46.001,29.004,87.998-7.002,127.002
		C727.998,780,702.998,768.999,595,660z M770,697.002C770,690,740.996,655,705,620c-35.996-35-65-70.996-65-77.998
		c0-7.998,22.998-52.002,50.996-97.998c59.004-96.006,62.002-83.008-41.992-181.006l-65.005-62.002l-96.997,97.002L390,395v100.996
		v101.006l27.998-5C450,585.996,460,574.004,460,539.004c0-14.004,7.002-34.004,15-45c12.998-18.008,20-13.008,132.002,98.994
		c80.996,80,125,117.002,140,117.002C760,710,770,703.999,770,697.002z M480,269.004l95-91.006l-32.998-28.994
		c-18.003-16.006-38.003-29.004-45-29.004c-7.002,0-52.002,40-100,87.998l-89.004,89.004L340,327.998
		C357.002,345.996,375,360,377.998,360C382.002,360,427.998,319.004,480,269.004z"/>
</g>
</svg>
