<?xml version="1.0" encoding="utf-8"?>
<!-- Generator: Adobe Illustrator 16.0.0, SVG Export Plug-In . SVG Version: 6.00 Build 0)  -->
<!DOCTYPE svg PUBLIC "-//W3C//DTD SVG 1.1//EN" "http://www.w3.org/Graphics/SVG/1.1/DTD/svg11.dtd">
<svg version="1.1" id="Layer_1" xmlns="http://www.w3.org/2000/svg" xmlns:xlink="http://www.w3.org/1999/xlink" x="0px" y="0px"
	 width="30px" height="30px" viewBox="0 0 30 30" enable-background="new 0 0 30 30" xml:space="preserve">
<path fill="none" stroke="#CEA141" stroke-width="1.75" stroke-miterlimit="10" d="M2,3.333V30 M28.666,3.333V30 M19.334,2
	c4.041,0,5.441,4,9.332,4v20l-9.332-2.666V2z M11.333,2C7.292,2,5.891,6,2,6v20l9.333-2.666V2z"/>
<path fill="#CEA141" d="M22.666,12.667C22.297,12.667,22,13.266,22,14s0.297,1.333,0.666,1.333c0.371,0,0.668-0.599,0.668-1.333
	S23.037,12.667,22.666,12.667z M8,12.667c-0.37,0-0.667,0.599-0.667,1.333S7.63,15.333,8,15.333S8.667,14.734,8.667,14
	S8.37,12.667,8,12.667z M28.666,0.667c-0.734,0-1.332,0.599-1.332,1.333s0.598,1.333,1.332,1.333S30,2.734,30,2
	S29.4,0.667,28.666,0.667z M2,0.667C1.266,0.667,0.667,1.266,0.667,2S1.266,3.333,2,3.333S3.333,2.734,3.333,2S2.734,0.667,2,0.667z
	"/>
</svg>
