<?xml version="1.0" encoding="utf-8"?>
<!-- Generator: Adobe Illustrator 16.0.0, SVG Export Plug-In . SVG Version: 6.00 Build 0)  -->
<!DOCTYPE svg PUBLIC "-//W3C//DTD SVG 1.1//EN" "http://www.w3.org/Graphics/SVG/1.1/DTD/svg11.dtd">
<svg version="1.1" id="Isolation_Mode" xmlns="http://www.w3.org/2000/svg" xmlns:xlink="http://www.w3.org/1999/xlink" x="0px"
	 y="0px" width="658px" height="654px" viewBox="0 0 658 654" enable-background="new 0 0 658 654" xml:space="preserve">
<g id="Layer_1">
	<path fill="#FCCF14" d="M524.334,654H137.667c-40.293,0-62.488,0-82.525-10.211c-17.734-9.031-31.89-23.186-40.932-40.93
		C4.001,582.822,4.001,560.627,4.001,520.334v-320c0-40.292,0-62.487,10.208-82.523c9.04-17.742,23.195-31.897,40.936-40.935
		c19.979-10.181,42.106-10.209,82.189-10.209V27c0-14.912,12.088-27,27-27s27,12.088,27,27v39.667h279.333V27
		c0-14.912,12.088-27,27-27s27,12.088,27,27v39.667c40.083,0,62.212,0.028,82.192,10.21c17.743,9.04,31.897,23.196,40.934,40.937
		C658,137.844,658,160.04,658,200.334v320c0,40.295,0,62.49-10.212,82.527c-9.034,17.736-23.19,31.893-40.935,40.93
		C586.823,654,564.628,654,524.334,654z M58.001,254v266.333c0,30.883,0,49.523,4.323,58.008
		c3.829,7.514,9.822,13.508,17.331,17.332C88.145,600,106.785,600,137.667,600h386.667c30.882,0,49.522,0,58.006-4.322
		c7.517-3.83,13.508-9.82,17.334-17.332C604,569.857,604,551.217,604,520.334V254H58.001z M58.001,200h546
		c0-30.683-0.016-49.22-4.324-57.673c-3.827-7.516-9.82-13.508-17.333-17.336c-8.485-4.324-27.126-4.324-58.009-4.324H137.667
		c-30.882,0-49.522,0-58.007,4.324c-7.514,3.828-13.508,9.822-17.336,17.334C58.016,150.779,58.001,169.316,58.001,200z
		 M276.444,520.683c-0.002,0-0.002,0-0.004,0l-111.11-0.018c-14.912-0.002-26.998-12.092-26.996-27.004
		c0.002-14.91,12.091-26.996,27-26.996c0.002,0,0.002,0,0.004,0l111.109,0.018c14.912,0.002,26.998,12.094,26.996,27.004
		S291.353,520.683,276.444,520.683z M497.666,387.381c-0.002,0-0.002,0-0.004,0l-333.333-0.047
		c-14.912-0.002-26.998-12.092-26.996-27.004c0.002-14.91,12.091-26.996,27-26.996c0.002,0,0.002,0,0.004,0l333.333,0.047
		c14.911,0.002,26.998,12.092,26.996,27.004C524.664,375.295,512.575,387.381,497.666,387.381z"/>
</g>
</svg>
