<?xml version="1.0" encoding="utf-8"?>
<!-- Generator: Adobe Illustrator 16.0.0, SVG Export Plug-In . SVG Version: 6.00 Build 0)  -->
<!DOCTYPE svg PUBLIC "-//W3C//DTD SVG 1.1//EN" "http://www.w3.org/Graphics/SVG/1.1/DTD/svg11.dtd">
<svg version="1.1" id="Layer_1" xmlns="http://www.w3.org/2000/svg" xmlns:xlink="http://www.w3.org/1999/xlink" x="0px" y="0px"
	 width="660.667px" height="558.076px" viewBox="69.834 120.5 660.667 558.076"
	 enable-background="new 69.834 120.5 660.667 558.076" xml:space="preserve">
<path fill="none" stroke="#FCCF14" stroke-width="54" stroke-linecap="round" stroke-linejoin="round" d="M100,266.667
	l90.729,75.606c5.99,4.994,13.542,7.727,21.34,7.727H587.93c7.8,0,15.35-2.732,21.34-7.727L700,266.667 M216.666,466.667H217
	 M583.333,466.667h0.333 M272.022,150H527.98c23.923,0,46.014,12.819,57.88,33.591l96.573,169
	C693.943,372.737,700,395.537,700,418.744v197.923c0,18.41-14.924,33.333-33.334,33.333h-33.333
	C614.923,650,600,635.077,600,616.667v-33.333H200v33.333c0,18.41-14.924,33.333-33.334,33.333h-33.333
	C114.924,650,100,635.077,100,616.667V418.744c0-23.207,6.055-46.007,17.567-66.153l96.571-169
	C226.008,162.819,248.098,150,272.022,150z M233.333,466.667c0,9.203-7.462,16.667-16.667,16.667
	c-9.204,0-16.666-7.464-16.666-16.667S207.462,450,216.666,450C225.871,450,233.333,457.464,233.333,466.667z M600,466.667
	c0,9.203-7.464,16.667-16.667,16.667s-16.667-7.464-16.667-16.667S574.13,450,583.333,450S600,457.464,600,466.667z"/>
</svg>
