<?xml version="1.0" encoding="utf-8"?>
<!-- Generator: Adobe Illustrator 16.0.0, SVG Export Plug-In . SVG Version: 6.00 Build 0)  -->
<!DOCTYPE svg PUBLIC "-//W3C//DTD SVG 1.1//EN" "http://www.w3.org/Graphics/SVG/1.1/DTD/svg11.dtd">
<svg version="1.1" id="_x32_" xmlns="http://www.w3.org/2000/svg" xmlns:xlink="http://www.w3.org/1999/xlink" x="0px" y="0px"
	 width="661.097px" height="802px" viewBox="69.451 -2 661.097 802" enable-background="new 69.451 -2 661.097 802"
	 xml:space="preserve">
<g>
	<path fill="#FCCF14" d="M447.039,138.903C290.45,138.916,163.555,265.812,163.542,422.4
		c0.013,156.602,126.909,283.497,283.497,283.51C603.641,705.897,730.537,579,730.548,422.4
		C730.537,265.811,603.641,138.916,447.039,138.903z M280.36,255.72c15.922-15.908,34.112-29.547,54.003-40.391
		c-10.525,16.118-19.706,34.269-27.372,54.134h-39.125C271.891,264.757,275.98,260.098,280.36,255.72z M240.22,309.288h54.241
		c-7.492,28.875-11.911,60.295-13.283,93.193h-68.844C215.156,368.911,224.839,337.345,240.22,309.288z M240.245,535.525
		c-15.406-28.072-25.089-59.638-27.912-93.221H280.9c1.371,32.979,6.015,64.319,13.533,93.221H240.245z M280.36,589.078
		c-4.378-4.378-8.468-9.021-12.479-13.73h39.125c5.554,14.404,11.846,27.949,18.89,40.43c2.73,4.8,5.646,9.298,8.587,13.771
		C314.524,618.692,296.321,605.039,280.36,589.078z M427.134,657.117c-1.978-0.157-3.972-0.25-5.95-0.475
		c-6.489-2.666-12.94-6.188-19.364-10.975c-19.27-14.313-37.566-38.676-51.732-70.32h77.047V657.117L427.134,657.117z
		 M427.134,535.525h-91.32c-8.219-28.125-13.309-59.662-14.813-93.221h106.134V535.525z M427.134,402.481H320.709
		c1.505-33.543,6.781-65.068,14.972-93.193h91.453V402.481z M427.134,269.466h-76.941c3.271-7.308,6.688-14.338,10.381-20.842
		c12.189-21.621,26.475-38.465,41.247-49.491c6.425-4.776,12.875-8.284,19.352-10.95c1.978-0.223,3.984-0.315,5.962-0.487V269.466
		L427.134,269.466z M653.871,309.288c15.382,28.058,25.063,59.623,27.885,93.193h-68.578c-1.372-32.964-6.016-64.29-13.534-93.193
		H653.871L653.871,309.288z M613.731,255.72c4.38,4.378,8.469,9.036,12.492,13.745h-39.149
		c-5.541-14.404-11.847-27.951-18.903-40.443c-2.717-4.788-5.646-9.286-8.561-13.772C579.54,226.119,597.758,239.772,613.731,255.72
		z M466.944,187.695c1.978,0.172,3.982,0.265,5.963,0.487c6.462,2.666,12.928,6.174,19.35,10.95
		c19.286,14.312,37.568,38.702,51.748,70.333h-77.061V187.695z M466.944,309.288h91.333c8.206,28.123,13.297,59.662,14.8,93.193
		H466.944V309.288z M533.517,596.176c-12.201,21.62-26.487,38.478-41.261,49.492c-6.422,4.787-12.888,8.309-19.364,10.975
		c-1.979,0.225-3.971,0.315-5.948,0.475v-81.77H543.9C540.614,582.64,537.212,589.686,533.517,596.176z M466.944,535.525v-93.221
		h106.424c-1.504,33.559-6.78,65.098-14.973,93.221H466.944z M613.731,589.078c-15.922,15.935-34.11,29.562-54.003,40.391
		c10.513-16.104,19.694-34.256,27.358-54.121h39.121C622.199,580.056,618.111,584.7,613.731,589.078z M653.844,535.525h-54.227
		c7.504-28.862,11.91-60.283,13.282-93.221h68.856C678.934,475.887,669.253,507.453,653.844,535.525z"/>
	<path fill="#FCCF14" d="M627.581,717.189c-56.391,34.533-118.638,50.943-180.2,50.943
		c-116.37-0.012-229.915-58.698-295.131-165.188c-34.534-56.391-50.944-118.639-50.944-180.202
		c0.015-116.383,58.7-229.889,165.203-295.131l-16.634-27.161C133.599,171.669,69.425,295.741,69.451,422.742
		c-0.014,67.223,17.979,135.354,55.638,196.835C196.294,735.828,320.38,800.014,447.381,800c67.221,0,135.352-17.978,196.847-55.637
		l-16.646-27.16V717.189z"/>
	<path fill="#FCCF14" d="M382.167,109.091h149.042c15.341,0,27.792-5.183,27.792-20.55c0-15.343-29.375-30.208-44.716-30.208
		h-30.787L420.842,1.928c-3.14-3.469-15.578-1.2-19.351-1.187c-4.656,0.026-3.641,7.466-1.847,11.792l18.31,45.799h-43.847
		l-24.047-38.2c-4.222-4.603-10.831-6.159-16.646-3.904c-5.832,2.256-9.669,7.862-9.669,14.102l-0.396,28.003v8.271
		C323.349,90.069,351.552,109.091,382.167,109.091z"/>
</g>
</svg>
