<?xml version="1.0" encoding="utf-8"?>
<!-- Generator: Adobe Illustrator 16.0.0, SVG Export Plug-In . SVG Version: 6.00 Build 0)  -->
<!DOCTYPE svg PUBLIC "-//W3C//DTD SVG 1.1//EN" "http://www.w3.org/Graphics/SVG/1.1/DTD/svg11.dtd">
<svg version="1.1" id="Layer_1" xmlns="http://www.w3.org/2000/svg" xmlns:xlink="http://www.w3.org/1999/xlink" x="0px" y="0px"
	 width="119.167px" height="93.334px" viewBox="3.833 13.5 119.167 93.334" enable-background="new 3.833 13.5 119.167 93.334"
	 xml:space="preserve">
<g transform="translate(0.000000,128.000000) scale(0.100000,-0.100000)">
	<path fill="#FFFFFF" d="M390,1102.002c-37.002-23.003-46.001-36.001-65-92.002l-22.002-65h-91.997
		c-66.001,0-93.999-3.999-100-12.998c-5-8.003-8.999-55-10-105C100,776.001,97.002,726.001,93.999,715
		c-1.997-11.001-8.999-94.004-15-185S66.001,334.004,62.998,297.002l-5-67.998L235,232.002c172.998,2.998,176.001,2.998,182.002,25
		C430,310,422.002,312.998,268.999,305c-96.997-5-140-4.004-135,2.998C140,317.002,150,457.002,167.998,765L175,875l28.999,2.998
		c17.002,2.002,48.999,1.001,73.003-2.998L320,868.999v-45c0-45,0-45,32.998-41.997c30,2.998,32.002,5.996,35,43.999l3.003,41.001
		L455,873.999c82.002,8.003,115,1.001,116.001-27.998c1.997-60,8.999-71.001,43.999-62.002c22.002,6.001,25,12.002,25,50v45
		l57.998-6.001c80-6.997,82.002-7.998,82.002-48.999c0-36.001,0.996-36.001,32.002-30c17.002,3.003,32.002,7.002,32.998,8.999
		c0.996,1.001,0,32.002-2.998,70L837.998,940l-52.002-1.001c-113.994-2.998-135.996,0-135.996,18.999
		C650,995,612.002,1072.002,578.999,1100C531.001,1141.001,452.998,1142.002,390,1102.002z M537.998,1042.998
		c21.001-18.999,45-80,37.002-92.998c-7.002-11.001-195-12.002-195-1.001c0,23.999,25,78.003,43.999,93.003
		C451.001,1065,512.002,1065,537.998,1042.998z"/>
	<path fill="#FFFFFF" d="M582.002,680c-6.001-25-14.004-62.998-18.003-85C561.001,572.998,545,500.996,530,435
		c-16.001-65.996-31.001-137.998-35-160l-6.001-40h348.003H1185l-2.002,22.998C1180.996,274.004,1185,280,1200.996,280
		c18.008,0,21.006,4.004,16.006,27.998c-4.004,15-20,90-37.998,167.002c-17.002,77.002-33.008,155.996-36.006,175
		c-10,87.002,21.006,78.999-282.002,77.002L592.998,725L582.002,680z M1085.996,569.004c20-79.004,41.006-177.002,52.002-243.008
		l5-27.998l-283.994,4.004l-284.004,5l2.998,28.994C580,352.002,592.002,405.996,605,455c12.998,50,27.002,112.998,31.001,142.002
		l6.001,51.997l107.002,3.999C807.002,655,902.002,656.001,960,655l105-2.998L1085.996,569.004z"/>
	<path fill="#FFFFFF" d="M720,537.998c0-23.994,7.998-65,17.002-92.002c15-40,25-50.996,57.998-65.996
		c52.998-25,62.998-25.996,110-12.002c55,16.006,59.004,20,85,76.006c17.002,37.998,20,58.994,15,92.998
		c-5.996,42.002-7.998,43.994-37.998,40.996s-32.002-5-29.004-37.002c4.004-50-22.002-97.998-57.998-105.996
		c-55.996-12.002-90,27.002-90,105.996c0,38.008-0.996,39.004-35,39.004C720,580,720,579.004,720,537.998z"/>
</g>
</svg>
