<?xml version="1.0" encoding="utf-8"?>
<!-- Generator: Adobe Illustrator 16.0.0, SVG Export Plug-In . SVG Version: 6.00 Build 0)  -->
<!DOCTYPE svg PUBLIC "-//W3C//DTD SVG 1.1//EN" "http://www.w3.org/Graphics/SVG/1.1/DTD/svg11.dtd">
<svg version="1.1" id="Layer_1" xmlns="http://www.w3.org/2000/svg" xmlns:xlink="http://www.w3.org/1999/xlink" x="0px" y="0px"
	 width="90.71px" height="84px" viewBox="0 3.355 90.71 84" enable-background="new 0 3.355 90.71 84" xml:space="preserve">
<g>
	<g>
		<g>
			<path fill="#373E43" d="M5.039,27.577h50.773V17.5H5.039C2.256,17.5,0,19.756,0,22.538C0,25.321,2.256,27.577,5.039,27.577z"/>
			<path fill="#373E43" d="M5.039,47.796h50.773V37.72H5.039C2.256,37.72,0,39.976,0,42.758C0,45.54,2.256,47.796,5.039,47.796z"/>
			<path fill="#373E43" d="M5.039,57.939L5.039,57.939C2.256,57.94,0,60.195,0,62.978s2.256,5.039,5.039,5.039h35.273
				c-0.398-1.229-0.609-2.521-0.609-3.85c0-2.225,0.583-4.355,1.672-6.229L5.039,57.939L5.039,57.939z"/>
			<path fill="#373E43" d="M88.843,59.662c-2.487-2.488-6.521-2.488-9.01,0l-5.232,5.232V10.435c0-3.519-2.854-6.372-6.371-6.372
				c-3.52,0-6.372,2.853-6.372,6.372v54.459l-5.231-5.232c-2.487-2.488-6.522-2.488-9.012,0c-2.488,2.488-2.488,6.523,0,9.012
				l16.108,16.107c2.483,2.484,6.522,2.492,9.013,0l16.107-16.107C91.332,66.185,91.332,62.15,88.843,59.662z"/>
		</g>
	</g>
</g>
</svg>
