<?xml version="1.0" encoding="utf-8"?>
<!-- Generator: Adobe Illustrator 16.0.0, SVG Export Plug-In . SVG Version: 6.00 Build 0)  -->
<!DOCTYPE svg PUBLIC "-//W3C//DTD SVG 1.1//EN" "http://www.w3.org/Graphics/SVG/1.1/DTD/svg11.dtd">
<svg version="1.1" id="Layer_1" xmlns="http://www.w3.org/2000/svg" xmlns:xlink="http://www.w3.org/1999/xlink" x="0px" y="0px"
	 width="512px" height="512px" viewBox="0 0 512 512" enable-background="new 0 0 512 512" xml:space="preserve">
<g>
	<path fill="#373E43" d="M71,45.7c-2.6,1.3-3.9,2.9-4.9,5.9l-1.4,4.1l-10.3,0.7c-5.6,0.4-12.6,1.4-15.6,2.2
		C22.2,63.5,8.7,76.4,2.8,93l-2.3,6.5V262v162.5l2.3,6.5c6,16.8,19.2,29.3,36.7,34.7c5.7,1.7,15,1.8,216.5,1.8s210.8-0.1,216.5-1.8
		c17.6-5.4,30.7-17.8,36.7-34.7l2.3-6.5l0.3-159.8C512.1,91,512.3,98.8,506.6,87c-3.5-7.3-9.3-14.5-15.1-19
		c-10.1-7.6-18.8-10.6-33.9-11.6l-10.3-0.7l-1.399-4.1c-1.601-4.7-6.601-7.8-11.101-6.9c-3.899,0.8-7.8,5-7.8,8.4V56h-35.5H356v-2.5
		c0-1.4-1.2-3.9-2.8-5.6c-5.2-5.8-14-3.6-16.3,4.1l-1.2,4h-34.9H266v-2.3c0-3.2-2.7-6.7-6.6-8.3c-2.9-1.2-3.9-1.2-6.8,0
		c-3.9,1.6-6.6,5.1-6.6,8.3V56h-34.8h-34.9l-1.2-4c-1.3-4.5-4.8-7.3-9.2-7.3c-5.6,0-9.9,4-9.9,9.3c0,1.9-1,2-35.5,2H85v-2.9
		c0-2.9-4.2-8.1-6.6-8.1c-0.7,0-1.8-0.2-2.6-0.5C75.1,44.2,72.9,44.8,71,45.7z M65,79.4C65,87.5,68.9,92,75.8,92
		c5.4,0,8.5-3.5,9.2-10.3l0.5-5.2h35h35l0.5,5.4c0.5,4.2,1.2,5.8,3.3,7.7c3,2.6,8.4,3.2,11.9,1.3c2.5-1.3,4.8-6.8,4.8-11.4V76h34.9
		h34.9l0.4,5.7c0.6,7,3.7,10.3,9.8,10.3c6.1,0,9.2-3.3,9.8-10.3l0.4-5.7H301.1H336v3.5c0,4.6,2.3,10.1,4.8,11.4
		c3.5,1.9,8.9,1.3,11.9-1.3c2.1-1.9,2.8-3.5,3.3-7.7l0.5-5.4h35h35l0.5,5.2c0.7,6.8,3.8,10.3,9.2,10.3c7,0,10.8-4.5,10.8-12.8v-3.5
		l9.6,0.6c12.101,0.8,19.4,3.9,26,10.9c5.801,6.2,8.601,12.5,9.2,21l0.5,6.8H256H19.7l0.5-6.8c0.6-8.3,3.3-14.6,8.9-20.7
		c7.3-7.9,15.7-11.1,29.7-11.4L65,76V79.4z M491.8,278.7l-0.3,143.8l-2.2,4.7c-3.2,7.1-10.3,14.1-17.6,17.399l-6.2,2.9H256H46.5
		l-6.2-2.9c-7.3-3.3-14.4-10.3-17.6-17.399l-2.2-4.7l-0.3-143.8L20,135h236h236L491.8,278.7z"/>
	<path fill="#cea241" d="M342.5,169.9c-4.9,2.1-6,4.7-6.3,15.8c-0.3,8.9-0.601,10.4-1.9,9.9c-18-6.9-38.2,1-46.3,18.2
		c-1.4,2.8-2.5,7.5-2.8,11.4c-0.601,8,0.899,11,6.2,12.8c7,2.3,13.6-3.4,13.6-11.6c0-6.5,8-13.4,15.6-13.4
		c4.301,0,10.101,3.1,12.9,6.8c1.7,2.3,2,4.6,2.3,16.9l0.3,14.3l-3.5-1.5c-12.8-5.4-30.899-0.5-39.699,10.7
		c-7.5,9.399-10.301,23.899-5.601,29.3c3.101,3.7,9.3,4.4,12.9,1.5c2.5-1.9,3.7-4.8,5.3-12.2c0.3-1.5,1.9-4.3,3.6-6.3
		c5.5-6.3,14.7-7.1,20.9-1.8c5.6,4.6,6,6.5,6,25.8V314h-15.2c-21.3,0-39.399,2.8-57,8.6L256,325.2l-7.7-2.601
		c-19.8-6.6-38.9-9.1-64.1-8.3c-32.8,1-56.9,8.4-80.2,24.8c-14.5,10.2-31.3,29-42.9,48.101c-6,9.899-5.5,16.5,1.4,19.399
		c5.1,2.101,381.9,2.101,387,0c6.9-2.899,7.4-9.5,1.4-19.399C439.4,368.3,422.3,349.1,408,339.1c-13.3-9.3-33.8-18.399-48.8-21.6
		l-3.4-0.7l0.4-19.1c0.3-18,0.399-19.4,2.6-22.9c3.101-5,9.9-8.3,15.5-7.399c7.5,1.199,13.7,8,13.7,15c0,5.699,4.6,10.6,10,10.6
		c6.6,0,10.7-5.8,9.7-14.1c-2.5-21.101-23.9-35.8-44.3-30.5c-3.4,0.9-6.5,1.6-6.801,1.6c-0.3,0-0.6-5.3-0.6-11.8
		c0-10.2,0.3-12.3,2.3-16.2c3-5.9,6.5-8.2,12.9-8.8c4.399-0.3,5.899,0,8.7,2c5,3.4,7,6.7,8,12.7c1.1,7,4.5,10.6,10.199,10.6
		c3.4,0,4.601-0.6,7.101-3.4c2.899-3.3,3-3.7,2.5-9.7c-2.101-22-24-37.1-44.9-31c-3.1,0.9-5.899,1.6-6.2,1.6
		c-0.3,0-0.6-4.5-0.6-10.1c0-11.1-0.7-13.2-5-15.4C347.8,168.9,345.5,168.7,342.5,169.9z M224.5,337c5.5,1.2,14.8,3.7,20.7,5.6
		l10.8,3.5l10.8-3.5c21.2-6.8,29.101-8,54.2-8.1c18.2,0,24.1,0.3,30.8,1.8c23.7,5.2,42.101,14.9,57.9,30.5
		c7.1,6.9,17.3,19.101,17.3,20.601c0,0.3-76.9,0.6-171,0.6c-94,0-171-0.3-171-0.6c0-1.4,10.1-13.5,16.5-19.9
		c18.5-18.4,39.8-28.5,69-32.9c1.7-0.199,12.2-0.3,23.5-0.1C210.4,334.8,216.5,335.3,224.5,337z"/>
	<path fill="#cea241" d="M159,175.2c-14,1.6-28.7,12.5-35,26c-16.4,35.4,15.7,74.1,53.5,64.3c8.6-2.3,14.9-6.1,21.5-13.1
		c11.3-12.2,15.5-27.6,11.5-42.9c-3-11.3-9.6-20.7-19-26.9C181.9,176.2,171.4,173.8,159,175.2z M177.8,197.4
		c4.2,2.1,8.9,7.1,11.5,12c2.9,5.4,3.1,17.4,0.3,22.6c-4.5,8.6-12.3,13.9-21.6,14.7c-11.2,1.1-20.7-4.3-25.7-14.5
		c-9.5-19.3,6.3-40.3,27.9-37.1C172.7,195.5,176.2,196.5,177.8,197.4z"/>
</g>
</svg>
