<?xml version="1.0" encoding="utf-8"?>
<!-- Generator: Adobe Illustrator 16.0.0, SVG Export Plug-In . SVG Version: 6.00 Build 0)  -->
<!DOCTYPE svg PUBLIC "-//W3C//DTD SVG 1.1//EN" "http://www.w3.org/Graphics/SVG/1.1/DTD/svg11.dtd">
<svg version="1.1" id="Layer_1" xmlns="http://www.w3.org/2000/svg" xmlns:xlink="http://www.w3.org/1999/xlink" x="0px" y="0px"
	 width="512px" height="512px" viewBox="0 0 512 512" enable-background="new 0 0 512 512" xml:space="preserve">
<g>
	<path d="M238,20.25c-24.1,2.7-38.2,5.6-55.5,11.1c-50.7,16.3-94.8,49.1-124.4,92.7c-20.7,30.5-33.7,63.8-39.8,101.8
		c-2.4,15.7-2.4,51.701,0.1,67.6c7.4,47.2,25.9,87.9,56.1,123c38.2,44.5,91.6,73.101,151.5,81.4c12.3,1.7,47.8,1.6,60-0.101
		c60.5-8.3,113.4-36.8,151.7-81.5c30.1-35.1,48.5-75.699,55.899-122.8c2.5-15.7,2.5-51.8,0.101-67.5
		c-8.2-52.1-31.3-98.5-67.101-134.7c-36.899-37.4-83-60.7-136.3-69.1C281,20.65,245.5,19.35,238,20.25z"/>
	<g transform="translate(0.000000,512.000000) scale(0.100000,-0.100000)">
		<path fill="#FFFFFF" d="M2463.462,4169.326c-504.839-50.869-904.067-446.88-958.804-949.785
			c-4.507-39.922-7.085-319.385-7.085-777.851c0-704.453,0-715.4,12.881-740.508c23.179-45.078,45.073-51.514,180.298-51.514
			s157.119,6.436,180.298,51.514c12.881,24.453,12.881,36.689,12.881,627.822c0,591.113,0,603.35-12.881,627.817
			c-19.961,38.633-50.225,51.513-122.988,51.513h-59.238l3.857,104.956c1.934,57.314,8.374,128.145,13.525,157.124
			c49.585,248.55,206.699,468.774,425.635,594.336c310.371,179.014,690.933,147.461,973.608-79.844
			c124.922-101.099,219.58-236.968,274.961-395.371c32.197-92.725,43.135-157.119,47.002-276.245l3.867-104.956h-59.248
			c-72.764,0-103.027-12.881-122.988-51.513c-12.871-24.468-12.871-36.704-12.871-627.817c0-591.133,0-603.369,12.871-627.822
			c19.961-38.643,50.225-51.514,122.354-51.514h57.949v-61.182c0-74.043-8.369-117.197-33.486-166.777
			c-26.396-52.148-68.252-94.648-119.766-121.699c-55.381-28.975-94.658-36.699-180.947-36.699h-69.541l-15.449,33.477
			c-30.918,66.973-109.473,129.424-189.316,150.684c-40.566,10.938-271.094,12.236-320.034,1.934
			c-83.066-18.037-166.128-81.787-200.259-155.195c-80.488-170.635,17.388-370.898,200.259-410.176
			c48.94-10.303,279.468-9.014,320.034,1.943c79.844,21.24,158.398,83.701,189.316,150.664l15.449,33.496h79.844
			c124.277,0,200.908,19.951,288.477,74.043c77.92,48.301,148.75,129.434,187.383,215.078
			c39.922,88.848,37.354,26.396,39.922,943.984c1.934,886.679,1.289,926.601-27.686,1045.083
			c-48.291,198.33-135.225,356.094-276.24,502.261c-202.188,209.272-482.949,327.115-768.848,321.963
			C2514.331,4172.549,2475.693,4170.615,2463.462,4169.326z"/>
		<path fill="#FFFFFF" d="M1201.372,2840.273c-123.638-19.966-224.731-129.429-263.364-285.898
			c-29.624-117.842-33.486-282.041-10.308-401.807c21.895-112.686,74.053-216.357,133.935-267.871
			c55.381-47.656,162.915-81.787,220.869-70.83l21.895,3.857v510.635v511.265l-14.17,3.867
			C1271.557,2847.993,1245.801,2847.354,1201.372,2840.273z"/>
		<path fill="#FFFFFF" d="M3827.285,2842.847c-10.947-2.573-11.582-32.842-11.582-513.843v-511.279l21.895-3.857
			c12.227-2.578,43.135-1.299,69.541,2.578c179.648,27.676,285.254,192.52,298.779,467.48
			c12.871,260.146-65.039,459.111-206.055,528.013C3943.847,2839.624,3866.572,2853.149,3827.285,2842.847z"/>
	</g>
</g>
</svg>
