<?xml version="1.0" encoding="utf-8"?>
<!-- Generator: Adobe Illustrator 16.0.0, SVG Export Plug-In . SVG Version: 6.00 Build 0)  -->
<!DOCTYPE svg PUBLIC "-//W3C//DTD SVG 1.1//EN" "http://www.w3.org/Graphics/SVG/1.1/DTD/svg11.dtd">
<svg version="1.1" id="Layer_1" xmlns="http://www.w3.org/2000/svg" xmlns:xlink="http://www.w3.org/1999/xlink" x="0px" y="0px"
	 width="315px" height="315px" viewBox="0 0 315 315" enable-background="new 0 0 315 315" xml:space="preserve">
<g transform="translate(0.000000,315.000000) scale(0.100000,-0.100000)">
	<path fill="#FFFFFF" d="M373.999,3125c-11.997-7.998-32.998-37.998-46.001-67.002C270,2935,171.001,2578.999,147.002,2407.002
		c-10-79.004-15-90-37.002-102.002c-33.999-17.998-77.002-63.999-88.999-97.998c-28.999-77.002,2.998-180,70-224.004L130,1957.002
		v-944.004c0-950,1.001-972.998,33.999-995c13.999-10,1118.003-10,1132.002,0C1322.998,35.996,1330,74.004,1330,212.002
		c0,157.002,7.998,187.002,67.002,260c33.999,42.002,120.996,117.998,156.997,137.002c22.002,11.992,28.999,10,68.999-17.002
		c67.002-46.006,144.004-130,172.002-186.006c22.998-45.996,25-60.996,25-193.994c0-137.998,7.002-176.006,34.004-194.004
		C1860,14.004,2115,10,2420,10s560,4.004,565.996,7.998c33.008,22.002,34.004,45,34.004,995v944.004l39.004,25.996
		c66.992,44.004,98.994,147.002,70,224.004c-12.002,33.999-55,80-89.004,97.998c-22.002,12.002-27.002,22.998-37.002,102.002
		c-25,180.996-125.996,538.999-183.994,655c-55,108.999-120,105.996-177.002-7.002c-51.006-102.002-139.004-416.001-172.002-612.002
		c-17.002-98.999-24.004-120-42.998-132.998c-135-87.998-135-270,0.996-338.999l22.002-12.002V1645v-315h-29.004
		c-27.998,0-30,2.002-36.992,57.998c-3.008,31.006-17.002,95-31.006,142.002c-67.002,235-207.998,387.998-515.996,562.002
		c-72.002,40-152.998,93.999-181.006,118.999C1580,2280,1572.002,2280,1502.002,2217.998c-32.002-28.999-99.004-75-148.003-101.997
		c-210-116.001-321.997-200-410-305c-92.998-113.003-160-271.001-177.998-423.003c-7.002-55.996-8.999-57.998-37.002-57.998H700v315
		v313.999l27.998,15c61.001,32.002,95,88.999,95,160c1.001,66.001-30.996,128.003-82.998,162.002
		c-27.998,18.999-41.001,35-45,57.998c-41.001,258.999-127.002,580-187.002,701.001C467.002,3136.001,422.002,3160,373.999,3125z
		 M448.999,2837.998c43.003-132.998,88.003-317.998,115-475L570,2330H420c-172.998,0-158.999-12.998-135,121.001
		C308.999,2578.999,405,2930,416.001,2930C417.002,2930,432.002,2887.998,448.999,2837.998z M2795.996,2735
		c35-120,84.004-343.999,84.004-383.999c0-20-4.004-21.001-150-21.001h-149.004l5,32.998c26.006,153.003,70,333.003,116.006,476.001
		l30.996,96.001l14.004-40C2755,2872.998,2777.002,2801.001,2795.996,2735z M240,2180c55-55-23.999-135-82.002-82.998
		c-25,22.998-22.998,67.998,4.004,86.997C192.002,2205,216.001,2203.999,240,2180z M450,2142.998
		c0-70.996,28.999-126.997,82.998-161.997L570,1957.002v-909.004V140H415H260v910v908.999l28.999,15
		c65,33.999,108.999,123.003,96.001,193.003c-6.001,31.997-5,32.998,30,32.998h35V2142.998z M666.001,2192.002
		c22.998-15,33.999-50,25-75c-23.003-60-111.001-44.004-111.001,20C580,2183.999,630,2216.001,666.001,2192.002z M2547.998,2183.999
		c42.998-30,20-103.999-32.002-103.999c-51.992,0-77.998,52.002-45,92.998C2494.004,2203.999,2515.996,2207.002,2547.998,2183.999z
		 M2765,2142.002c0-70,24.004-114.004,82.002-157.002l42.002-30v-907.002L2890,140h-155h-155v907.998v909.004l37.002,23.999
		c53.994,35,82.998,91.001,82.998,161.997V2200h32.998H2765V2142.002z M2987.998,2183.999
		C3032.002,2152.998,3005,2080,2949.004,2080c-30,0-59.004,31.001-59.004,62.002c0,22.998,35,57.998,57.998,57.998
		C2957.998,2200,2975.996,2192.998,2987.998,2183.999z M1612.998,2076.001c17.998-13.003,86.006-53.999,152.002-91.001
		c217.002-122.002,325-212.998,397.998-337.002c41.006-70,81.006-183.994,91.006-265l6.992-52.998h-686.997H887.998l7.002,52.998
		c11.001,81.006,51.001,196.001,92.002,266.001c71.997,123.003,193.999,223.003,428.999,353.999
		c56.001,31.001,111.997,66.001,125,76.001C1572.002,2105,1575,2105,1612.998,2076.001z M2450,670V140h-249.004h-248.994
		l-4.004,127.998c-2.998,121.006-5,131.006-35.996,195C1855,577.998,1649.004,760,1575,760
		c-73.999,0-278.999-180.996-337.002-297.002c-30.996-63.994-32.998-73.994-36.997-195L1197.998,140H948.999H700v530v530h875h875
		V670z"/>
</g>
</svg>
