<?xml version="1.0" encoding="utf-8"?>
<!-- Generator: Adobe Illustrator 16.0.0, SVG Export Plug-In . SVG Version: 6.00 Build 0)  -->
<!DOCTYPE svg PUBLIC "-//W3C//DTD SVG 1.1//EN" "http://www.w3.org/Graphics/SVG/1.1/DTD/svg11.dtd">
<svg version="1.1" id="Layer_1" xmlns="http://www.w3.org/2000/svg" xmlns:xlink="http://www.w3.org/1999/xlink" x="0px" y="0px"
	 width="512px" height="447.926px" viewBox="0 0 512 447.926" enable-background="new 0 0 512 447.926" xml:space="preserve">
<g transform="translate(0.000000,512.000000) scale(0.100000,-0.100000)">
	<path fill="#373E43" d="M1410,5099.741c-187.998-40-348.999-126.001-486.001-262.998C785,4696.743,700,4537.744,661.001,4343.74
		C643.999,4261.743,640,4204.741,640,4041.743v-201.001l-317.998-2.002l-319.004-2.998l281.001-371.001
		c155-203.999,372.002-491.001,482.002-638.003l201.997-265.996l476.001,635c262.002,348.999,476.001,637.002,476.001,640
		s-143.999,5-321.001,5h-321.001l4.004,197.998c2.998,188.003,3.999,199.004,28.999,253.003
		c32.998,71.001,86.997,125,157.998,157.998l56.001,26.001h1035h1035l55.996-26.001c71.006-32.998,125-86.997,158.008-157.998
		c25-53.999,25.996-65,28.994-253.003l4.004-197.998h318.994H4480v201.001c0,162.998-4.004,220-20.996,301.997
		C4420,4537.744,4335,4696.743,4195.996,4836.743c-140,138.999-298.994,223.999-492.998,262.998c-97.998,20-128.994,21.001-1150,20
		C1547.998,5119.741,1501.001,5118.74,1410,5099.741z"/>
	<path fill="#373E43" d="M3675.996,2565.742c-261.992-349.004-475.996-637.002-475.996-640s144.004-5,320.996-5h321.006
		l-4.004-197.002c-2.998-188.994-3.994-200-28.994-253.994c-33.008-71.006-87.002-125-158.008-158.008L3595,1285.742H2560H1525
		l-56.001,25.996c-71.001,33.008-125,87.002-157.998,158.008c-25,53.994-26.001,65-28.999,253.994l-4.004,197.002H958.999H640
		v-200.996c0-163.008,3.999-220,21.001-302.002C700,1223.74,785,1064.746,923.999,924.746
		c140-139.004,298.999-224.004,493.003-263.008c97.998-20,130.996-20.996,1142.998-20.996s1045,0.996,1142.998,20.996
		c194.004,39.004,352.998,124.004,492.998,263.008c139.004,140,224.004,298.994,263.008,492.998
		c16.992,82.002,20.996,138.994,20.996,302.002v200.996l317.998,2.002l319.004,2.998l-281.006,370.996
		c-155,204.004-371.992,491.006-481.992,638.008l-202.002,265.996L3675.996,2565.742z"/>
</g>
</svg>
