<?xml version="1.0" encoding="utf-8"?>
<!-- Generator: Adobe Illustrator 16.0.0, SVG Export Plug-In . SVG Version: 6.00 Build 0)  -->
<!DOCTYPE svg PUBLIC "-//W3C//DTD SVG 1.1//EN" "http://www.w3.org/Graphics/SVG/1.1/DTD/svg11.dtd">
<svg version="1.1" id="Layer_1" xmlns="http://www.w3.org/2000/svg" xmlns:xlink="http://www.w3.org/1999/xlink" x="0px" y="0px"
	 width="108.25px" height="105.25px" viewBox="11 10.625 108.25 105.25" enable-background="new 11 10.625 108.25 105.25"
	 xml:space="preserve">
<g transform="translate(0.000000,128.000000) scale(0.100000,-0.100000)">
	<path fill="#CEA141" d="M935,1161.001c-65-16.001-134.004-68.999-120-92.002c2.998-3.999-0.996-8.999-9.004-11.997
		c-35-14.004-37.998-164.004-3.994-205c7.002-9.004,20.996-34.004,30-54.004c8.994-20,33.994-57.998,53.994-85
		c20-25.996,48.008-73.999,62.002-105C960.996,575.996,975,550,979.004,550c2.998,0.996,50.996,77.998,105.996,172.998
		c99.004,170,100,173.003,100,237.002c-0.996,80-29.004,138.999-82.998,173.999C1062.002,1160,982.998,1172.998,935,1161.001z
		 M1060,1080c15-11.001,35-35,44.004-53.999c30-63.003,21.992-97.002-50-216.001c-36.006-61.001-67.002-110-69.004-110
		c-5.996,0-72.998,97.002-90,128.999c-12.998,26.001-20,31.001-37.998,25c-19.004-6.001-20-5-9.004,8.999
		c7.998,9.004,10,22.002,6.006,29.004C842.998,910,832.002,990,840.996,990c4.004,0,9.004,11.001,13.008,22.998
		c6.992,31.001,50.996,75,78.994,80C987.998,1103.999,1032.998,1098.999,1060,1080z"/>
	<path fill="#CEA141" d="M960,1010c-20-5-25.996-12.998-27.998-42.002c-5-56.997,37.998-85,88.994-57.998
		c19.004,11.001,27.002,62.998,11.006,86.001C1022.002,1011.001,990,1017.002,960,1010z"/>
	<path fill="#CEA141" d="M422.002,1027.002c-8.003-31.001-7.002-32.002,40-50c47.998-18.003,50-18.003,62.998,0
		c7.998,10,15,22.998,15,28.999c0,11.001-36.001,31.001-82.002,43.999C432.998,1057.998,428.999,1056.001,422.002,1027.002z"/>
	<path fill="#CEA141" d="M250,1012.998C225,995,191.001,958.999,191.001,950c0-2.998,10-12.002,21.997-21.001
		c21.001-16.001,24.004-15,60,16.001c33.003,28.999,36.001,35,27.002,58.999C288.999,1035,282.998,1036.001,250,1012.998z"/>
	<path fill="#CEA141" d="M583.999,877.002c-16.997-10-18.999-15-8.999-34.004c7.002-12.998,15-20,20-15c5,4.004,5,2.002,1.001-5
		C587.998,808.999,610,770,625,770c6.001,0,20,6.001,30,13.999c17.998,13.003,17.998,15-2.998,60
		C628.999,892.002,618.999,897.002,583.999,877.002z"/>
	<path fill="#CEA141" d="M130,806.001c0-7.002-2.998-26.001-6.001-42.002c-6.997-40,13.999-66.997,47.002-58.999
		c22.998,6.001,26.001,12.002,26.997,52.998c0,26.001-5,50-10.996,54.004C167.002,825,130,821.001,130,806.001z"/>
	<path fill="#CEA141" d="M740,700c-7.002-17.002-10-33.999-5.996-37.002C737.002,660,765,655,795,652.002l55-4.004v30
		c0,26.001-4.004,31.001-35.996,36.001c-19.004,3.999-41.006,8.999-48.008,12.002C757.998,728.999,747.998,717.998,740,700z"/>
	<path fill="#CEA141" d="M237.002,602.002c-10-10-17.002-21.006-17.002-25c0-10,55-45,81.001-52.002
		c21.001-5,26.997-0.996,36.997,20.996c7.002,14.004,11.001,27.002,10,28.008C325,590,267.002,620,261.001,620
		C257.002,620,246.001,612.002,237.002,602.002z"/>
	<path fill="#CEA141" d="M461.001,530.996c-18.999-35-13.003-47.998,26.997-55c75-11.992,82.002-10,82.002,29.004
		c0,32.998-2.002,35-33.999,35c-18.999,0-41.001,2.998-48.999,5.996C477.998,549.004,467.002,542.998,461.001,530.996z"/>
	<path fill="#CEA141" d="M694.004,497.002c-3.008-16.006-4.004-30-2.002-32.002c2.002-2.998,30-7.002,60.996-10.996L810,447.002
		v35.996v35l-55,4.004C702.002,525,700,524.004,694.004,497.002z"/>
	<path fill="#CEA141" d="M934.004,475c-5-22.002-1.006-30.996,26.992-55c34.004-27.998,38.008-27.998,78.008-0.996
		c10.996,6.992,10.996,11.992,1.992,21.992c-5.996,8.008-16.992,22.002-23.994,31.006c-7.002,10-26.006,20.996-44.004,23.994
		C944.004,502.002,940,499.004,934.004,475z"/>
	<path fill="#CEA141" d="M292.002,320c-18.003-15.996-37.002-30-41.001-30S232.998,300.996,220,315c-27.998,30-41.001,30.996-65,5
		c-17.998-20-17.998-20.996,12.998-52.998L200,234.004l-32.002-31.006C137.002,170.996,137.002,170,155,150
		c25-27.002,38.999-25,70,10.996l26.001,32.002l37.998-37.002c36.001-35,38.003-35.996,53.999-17.998
		c23.003,25,22.002,32.998-12.998,69.004l-30,30.996L336.001,270l36.997,32.002l-23.999,23.994L325,350L292.002,320z"/>
	<path fill="#CEA141" d="M960,305c-5.996-7.002-22.002-15.996-37.002-19.004c-22.002-5.996-25-10.996-18.994-37.998
		c2.998-17.002,7.998-32.998,8.994-33.994c7.002-8.008,77.998,20.996,92.998,36.992c12.002,13.008,13.008,22.002,5,37.002
		C997.002,314.004,974.004,322.002,960,305z"/>
	<path fill="#CEA141" d="M430,245v-35h55h55v35v35h-55h-55V245z"/>
	<path fill="#CEA141" d="M670,245v-35h55h55v35v35h-55h-55V245z"/>
</g>
</svg>
