<?xml version="1.0" encoding="utf-8"?>
<!-- Generator: Adobe Illustrator 16.0.0, SVG Export Plug-In . SVG Version: 6.00 Build 0)  -->
<!DOCTYPE svg PUBLIC "-//W3C//DTD SVG 1.1//EN" "http://www.w3.org/Graphics/SVG/1.1/DTD/svg11.dtd">
<svg version="1.1" id="Layer_1" xmlns="http://www.w3.org/2000/svg" xmlns:xlink="http://www.w3.org/1999/xlink" x="0px" y="0px"
	 width="108.25px" height="105.25px" viewBox="0 0 108.25 105.25" enable-background="new 0 0 108.25 105.25" xml:space="preserve">
<g transform="translate(0.000000,128.000000) scale(0.100000,-0.100000)">
	<path fill="#FFFFFF" d="M822.422,1268.765c-65-16.001-134.004-68.999-120-92.002c2.998-3.999-0.996-8.999-9.004-11.997
		c-35-14.004-37.998-164.004-3.994-205c7.002-9.004,20.996-34.004,30-54.004c8.994-20,33.994-57.998,53.994-85
		c20-25.996,48.008-73.994,62.002-105c12.998-32.002,27.002-57.998,31.006-57.998c2.998,0.996,50.996,77.998,105.996,172.998
		c99.004,170,100,173.003,100,237.002c-0.996,80-29.004,138.999-82.998,173.999C949.424,1267.764,870.42,1280.762,822.422,1268.765z
		 M947.422,1187.764c15-11.001,35-35,44.004-53.999c30-63.003,21.992-97.002-50-216.001c-36.006-61.001-67.002-110-69.004-110
		c-5.996,0-72.998,97.002-90,128.999c-12.998,26.001-20,31.001-37.998,25c-19.004-6.001-20-5-9.004,8.999
		c7.998,9.004,10,22.002,6.006,29.004c-11.006,17.998-22.002,97.998-13.008,97.998c4.004,0,9.004,11.001,13.008,22.998
		c6.992,31.001,50.996,75,78.994,80C875.42,1211.763,920.42,1206.763,947.422,1187.764z"/>
	<path fill="#FFFFFF" d="M847.422,1117.764c-20-5-25.996-12.998-27.998-42.002c-5-56.997,37.998-85,88.994-57.998
		c19.004,11.001,27.002,62.998,11.006,86.001C909.424,1118.765,877.422,1124.766,847.422,1117.764z"/>
	<path fill="#FFFFFF" d="M309.424,1134.766c-8.003-31.001-7.002-32.002,40-50c47.998-18.003,50-18.003,62.998,0
		c7.998,10,15,22.998,15,28.999c0,11.001-36.001,31.001-82.002,43.999C320.42,1165.762,316.421,1163.765,309.424,1134.766z"/>
	<path fill="#FFFFFF" d="M137.422,1120.762c-25-17.998-58.999-53.999-58.999-62.998c0-2.998,10-12.002,21.997-21.001
		c21.001-16.001,24.004-15,60,16.001c33.003,28.999,36.001,35,27.002,58.999C176.421,1142.764,170.42,1143.765,137.422,1120.762z"/>
	<path fill="#FFFFFF" d="M471.426,984.766c-17.002-10-19.004-15-9.004-34.004c7.002-12.998,15-20,20-15c5,4.004,5,2.002,0.996-5
		c-7.998-13.999,14.004-52.998,29.004-52.998c5.996,0,20,6.001,30,13.999c17.998,13.003,17.998,15-2.998,60
		C516.426,999.766,506.426,1004.766,471.426,984.766z"/>
	<path fill="#FFFFFF" d="M17.422,913.765c0-7.002-2.998-26.001-6.001-42.002c-6.997-39.995,13.999-66.997,47.002-58.999
		c22.998,5.996,26.001,12.002,26.997,52.998c0,26.001-5,50-10.996,54.004C54.424,932.764,17.422,928.765,17.422,913.765z"/>
	<path fill="#FFFFFF" d="M627.422,807.764c-7.002-17.002-10-34.004-5.996-37.002c2.998-2.998,30.996-7.998,60.996-10.996l55-4.004
		v30c0,26.006-4.004,31.006-35.996,36.006c-19.004,3.994-41.006,8.994-48.008,11.992C645.42,836.767,635.42,825.762,627.422,807.764
		z"/>
	<path fill="#FFFFFF" d="M124.424,709.766c-10-10-17.002-21.006-17.002-25c0-10,55-45,81.001-52.002
		c21.001-5,26.997-0.996,36.997,20.996c7.002,14.004,11.001,27.002,10,28.008c-22.998,15.996-80.996,45.996-86.997,45.996
		C144.424,727.764,133.423,719.766,124.424,709.766z"/>
	<path fill="#FFFFFF" d="M348.423,638.76c-18.999-35-13.003-47.998,26.997-55c75-11.992,82.002-10,82.002,29.004
		c0,32.998-2.002,35-33.999,35c-18.999,0-41.001,2.998-48.999,5.996C365.42,656.768,354.424,650.762,348.423,638.76z"/>
	<path fill="#FFFFFF" d="M581.426,604.766c-3.008-16.006-4.004-30-2.002-32.002c2.002-2.998,30-7.002,60.996-10.996l57.002-7.002
		v35.996v35l-55,4.004C589.424,632.764,587.422,631.768,581.426,604.766z"/>
	<path fill="#FFFFFF" d="M821.426,582.764c-5-22.002-1.006-30.996,26.992-55c34.004-27.998,38.008-27.998,78.008-0.996
		c10.996,6.992,10.996,11.992,1.992,21.992c-5.996,8.008-16.992,22.002-23.994,31.006c-7.002,10-26.006,20.996-44.004,23.994
		C831.426,609.766,827.422,606.768,821.426,582.764z"/>
	<path fill="#FFFFFF" d="M179.424,427.764c-18.003-15.996-37.002-30-41.001-30s-18.003,10.996-31.001,25
		c-27.998,30-41.001,30.996-65,5c-17.998-20-17.998-20.996,12.998-52.998l32.002-32.998L55.42,310.762
		c-30.996-32.002-30.996-32.998-12.998-52.998c25-27.002,38.999-25,70,10.996l26.001,32.002l37.998-37.002
		c36.001-35,38.003-35.996,53.999-17.998c23.003,25,22.002,32.998-12.998,69.004l-30,30.996l36.001,32.002l36.997,32.002
		l-23.999,23.994l-23.999,24.004L179.424,427.764z"/>
	<path fill="#FFFFFF" d="M847.422,412.764c-5.996-7.002-22.002-15.996-37.002-19.004c-22.002-5.996-25-10.996-18.994-37.998
		c2.998-17.002,7.998-32.998,8.994-33.994c7.002-8.008,77.998,20.996,92.998,36.992c12.002,13.008,13.008,22.002,5,37.002
		C884.424,421.768,861.426,429.766,847.422,412.764z"/>
	<path fill="#FFFFFF" d="M317.422,352.764v-35h55h55v35v35h-55h-55V352.764z"/>
	<path fill="#FFFFFF" d="M557.422,352.764v-35h55h55v35v35h-55h-55V352.764z"/>
</g>
</svg>
