<?xml version="1.0" encoding="utf-8"?>
<!-- Generator: Adobe Illustrator 16.0.0, SVG Export Plug-In . SVG Version: 6.00 Build 0)  -->
<!DOCTYPE svg PUBLIC "-//W3C//DTD SVG 1.1//EN" "http://www.w3.org/Graphics/SVG/1.1/DTD/svg11.dtd">
<svg version="1.1" id="Layer_1" xmlns="http://www.w3.org/2000/svg" xmlns:xlink="http://www.w3.org/1999/xlink" x="0px" y="0px"
	 width="512px" height="444.5px" viewBox="0 0 512 444.5" enable-background="new 0 0 512 444.5" xml:space="preserve">
<path fill="#9CA0A8" d="M503.59,208.168c-3.938-4.078-8.809-6.895-14.148-8.246c3.168-5.035,4.758-10.902,4.539-17.008
	C493.414,166.973,479.723,154,463.461,154h-59.402L404,65c0-19.297-15.699-35-35-35s-35,15.703-35,35v23.555
	c0,6.043-1.277,11.875-3.629,17.199C286.328,104.102,251,67.774,251,23.333V12.5C251,5.606,245.395,0,238.5,0h-129
	C102.605,0,97,5.606,97,12.5V21c0,45.492-37.008,82.5-82.5,82.5h-2C5.605,103.5,0,109.106,0,116v150c0,95.945,78.055,174,174,174
	c68.059,0,129.547-39.484,157.984-101h104.555c6.824,0,13.496-2.813,18.305-7.711c4.734-4.824,7.277-11.133,7.152-17.766
	c-0.063-3.375-0.809-6.594-2.105-9.523h3.57c16.262,0,29.953-12.973,30.52-28.914c0.219-6.156-1.395-12.066-4.617-17.129
	c12.578-3.382,22.148-14.597,22.617-27.871C512.273,221.864,509.293,214.079,503.59,208.168z M174,425c-87.672,0-159-71.328-159-159
	V118.5c53.531-0.273,97-43.906,97-97.5v-6h124v8.332c0,49.242,36.691,90.066,84.168,96.586c-1.801,1.641-3.746,3.152-5.852,4.492
	l-40.973,26.07c-3.617,2.305-7.793,3.52-12.078,3.52h-9.227c-2.797-9.246-11.391-16-21.539-16h-42c-9.777,0-18.113,6.27-21.211,15
	H130.5c-10.754,0-19.5,8.75-19.5,19.5v129c0,10.754,8.746,19.5,19.5,19.5H166v73.785C98.621,390.887,45,334.84,45,266.5V142.231
	c51.516-3.75,92.57-45.797,94.742-97.73H166v66c0,4.145,3.359,7.5,7.5,7.5s7.5-3.355,7.5-7.5V37c0-4.145-3.359-7.5-7.5-7.5h-41.168
	c-4.141,0-7.5,3.355-7.5,7.5v3.168c0,48.156-39.176,87.332-87.332,87.332c-4.141,0-7.5,3.355-7.5,7.5v131.5
	C30,345.625,94.375,410,173.5,410c4.141,0,7.5-3.355,7.5-7.5v-67.27c1.754,0.488,3.594,0.77,5.5,0.77h44
	c7.352,0,13.891-3.543,17.996-9.012l8,4.531c8.633,4.895,18.438,7.48,28.355,7.48h30.438C288.117,391.598,233.84,425,174,425z
	 M166,306h-35.5c-2.48,0-4.5-2.02-4.5-4.5v-129c0-2.48,2.02-4.5,4.5-4.5H166V306z M481.461,244H423c-4.141,0-7.5,3.355-7.5,7.5
	s3.359,7.5,7.5,7.5h41c4.105,0,7.941,1.629,10.797,4.586c2.852,2.953,4.34,6.852,4.191,10.969
	c-0.281,7.965-7.25,14.445-15.527,14.445H437c-0.168,0-0.336,0.016-0.5,0.023c-0.164-0.008-0.332-0.023-0.5-0.023h-13
	c-4.141,0-7.5,3.355-7.5,7.5s3.359,7.5,7.5,7.5h13c0.168,0,0.336-0.016,0.5-0.023c0.164,0.008,0.332,0.023,0.5,0.023
	c5.41,0,9.898,4.398,10,9.809c0.047,2.57-0.969,5.047-2.859,6.977c-2.008,2.043-4.777,3.215-7.598,3.215H284.852
	c-7.332,0-14.578-1.91-20.957-5.527L253,312.297v-16.965c0-4.141-3.359-7.5-7.5-7.5s-7.5,3.359-7.5,7.5V313.5
	c0,4.137-3.363,7.5-7.5,7.5h-44c-3.031,0-5.5-2.469-5.5-5.5v-155c0-4.137,3.363-7.5,7.5-7.5h42c4.137,0,7.5,3.363,7.5,7.5v99.832
	c0,4.145,3.359,7.5,7.5,7.5s7.5-3.355,7.5-7.5V169h8.266c7.141,0,14.105-2.027,20.129-5.863l40.977-26.074
	C339.047,126.454,349,108.317,349,88.555V65c0-11.027,8.973-20,20-20s20,8.973,20,20.004l0.059,91.504
	c0.004,6.887,5.613,12.492,12.5,12.492h61.902c8.277,0,15.246,6.48,15.527,14.445c0.148,4.117-1.344,8.016-4.191,10.969
	C471.941,197.372,468.105,199,464,199h-41c-4.141,0-7.5,3.355-7.5,7.5s3.359,7.5,7.5,7.5h59c4.105,0,7.941,1.629,10.797,4.586
	c2.852,2.953,4.34,6.852,4.191,10.969C496.707,237.52,489.738,244,481.461,244z"/>
</svg>
