<?xml version="1.0" encoding="utf-8"?>
<!-- Generator: Adobe Illustrator 16.0.0, SVG Export Plug-In . SVG Version: 6.00 Build 0)  -->
<!DOCTYPE svg PUBLIC "-//W3C//DTD SVG 1.1//EN" "http://www.w3.org/Graphics/SVG/1.1/DTD/svg11.dtd">
<svg version="1.1" id="Layer_1" xmlns="http://www.w3.org/2000/svg" xmlns:xlink="http://www.w3.org/1999/xlink" x="0px" y="0px"
	 width="128px" height="128px" viewBox="0 0 128 128" enable-background="new 0 0 128 128" xml:space="preserve">
<g transform="translate(0.000000,128.000000) scale(0.100000,-0.100000)">
	<path fill="#CEA141" d="M607.998,1262.998c-8.999-10-20-30.996-25-47.998c-7.998-26.001-15-31.001-55-35
		c-86.997-10-105-58.999-40-106.001l39.004-27.998l-15-48.999c-13.003-44.004-12.002-50,3.999-68.003
		c22.998-25,41.997-23.999,86.997,6.001L640,961.001L677.002,935c45-30,63.994-31.001,87.002-6.001
		c15.996,18.003,16.992,23.999,3.994,68.003l-15,48.999l39.004,27.998c65,47.002,47.002,96.001-40,106.001
		c-42.002,5-46.006,7.998-59.004,45C672.998,1282.002,637.998,1297.002,607.998,1262.998z M659.004,1170
		c11.992-40,11.992-40,63.994-40l52.002-1.001l-39.004-32.998c-38.994-33.999-40-35-27.998-73.999
		c17.002-55,17.002-55-27.998-26.001l-40,26.997l-37.002-25.996c-20-15-38.999-25-40.996-23.003
		c-2.002,2.002,1.997,23.003,8.999,46.001l12.998,42.002l-40,33.999L505,1128.999l52.002,1.001c51.997,0,51.997,0,63.999,40
		c6.997,22.002,15,40,18.999,40S652.002,1192.002,659.004,1170z"/>
	<path fill="#CEA141" d="M625,855c-5-2.002-22.002-6.001-37.002-8.999c-36.997-8.003-97.998-63.003-113.999-103.003
		C465,723.999,460,672.998,460,617.002c0-79.004,3.999-101.006,23.999-140L507.002,430h-64.004
		c-57.998,0-63.999,2.002-56.997,17.998c16.997,37.002,15,126.006-3.003,162.002c-38.999,76.001-135.996,88.999-200,25
		C152.002,604.004,150,597.998,150,535c0-35.996,3.999-75,10-85c7.998-15,5-19.004-26.001-24.004
		c-46.001-8.994-111.001-67.998-125-115c-6.001-20-8.999-65-6.997-100.996L5,145l107.998-2.998L220,139.004V87.002
		c0-72.002,13.999-89.004,70-85C327.002,4.004,335,7.998,335,25c0,15-7.998,20.996-27.998,22.998l-29.004,4.004l4.004,97.002
		c2.998,86.992,5.996,101.992,30.996,140c20,28.994,44.004,50,80,66.992C422.002,369.004,450,380,456.001,380
		c7.998,0,67.998-134.004,141.001-317.002c2.998-7.002-9.004-12.998-34.004-15C532.998,45.996,525,40.996,525,25
		c0-19.004,7.998-20,255-22.998c292.002-2.998,280-6.006,280,85v52.002l107.998,2.998L1275,145l2.998,65
		c2.002,35.996-0.996,80.996-7.002,100.996c-13.994,47.002-78.994,106.006-125,115C1115,430.996,1112.002,435,1120,450
		c5.996,10,10,49.004,10,85c0,62.998-2.002,69.004-32.998,100c-64.004,63.999-161.006,51.001-200-25
		c-17.998-35.996-20-125-2.998-162.002C900.996,432.002,895,430,837.002,430h-64.004l22.998,47.002
		c20,38.994,24.004,60.996,24.004,138.994c0,103.003-9.004,136.006-47.998,177.002C732.002,835,660,865,625,855z M714.004,778.999
		C740,758.999,770,711.001,770,690c0-15-44.004-12.002-90,6.001c-37.002,15-42.998,15-80,0C553.999,677.998,510,675,510,690
		c0,21.001,30,68.999,56.001,88.999C602.002,807.998,677.998,807.998,714.004,778.999z M672.998,645c20-7.998,51.006-15,67.998-15
		h31.006l-4.004-60c-5-74.004-28.994-109.004-85.996-130C645,427.002,635,427.002,597.998,440
		c-56.997,20.996-80.996,55.996-85.996,130l-4.004,60h33.003c26.001,0.996,72.998,15,95,28.999
		C637.002,660,654.004,652.998,672.998,645z M308.999,615C342.998,597.998,350,582.998,350,524.004
		c0-80-66.001-119.004-123.999-73.008C202.998,469.004,200,479.004,200,530s2.998,60.996,26.001,79.004
		C257.998,634.004,272.002,635,308.999,615z M1054.004,609.004C1077.002,590.996,1080,580.996,1080,530s-2.998-60.996-25.996-79.004
		C1019.004,422.998,985,425,955,455c-20,19.004-25,34.004-25,72.998c0,50,10.996,72.002,45,90
		C1005,635,1024.004,632.002,1054.004,609.004z M293.999,347.998c-32.998-40-62.998-105-63.999-135c0-22.002-2.998-22.998-90-22.998
		H50v45c0,57.002,22.002,100,62.998,125c25,15.996,50,20,120,20h89.004L293.999,347.998z M610,355.996C610,319.004,620,300,640,300
		s30,19.004,30,55.996c0,22.002,4.004,24.004,44.004,24.004h45l-57.002-140C670.996,162.998,642.998,100,640,100
		s-31.001,62.998-62.002,140l-56.997,140h45C606.001,380,610,377.998,610,355.996z M887.002,355.996
		c35.996-16.992,60-37.998,80-66.992c25-38.008,27.998-53.008,30.996-141.006L1002.002,50H840
		c-125.996,0-160.996,2.998-157.002,12.998C755,242.998,815.996,380,824.004,380C830,380,857.998,369.004,887.002,355.996z
		 M1167.002,360c40.996-25,62.998-67.998,62.998-125v-45h-90c-87.002,0-90,0.996-90,22.998c-0.996,30-30.996,95-64.004,135
		L957.998,380h89.004C1117.002,380,1142.002,375.996,1167.002,360z"/>
	<path fill="#CEA141" d="M413.999,35C407.002,17.002,417.002,0,435,0c15,0,27.998,27.002,18.999,40.996
		C446.001,55,420,52.002,413.999,35z"/>
</g>
</svg>
