<?xml version="1.0" encoding="utf-8"?>
<!-- Generator: Adobe Illustrator 16.0.0, SVG Export Plug-In . SVG Version: 6.00 Build 0)  -->
<!DOCTYPE svg PUBLIC "-//W3C//DTD SVG 1.1//EN" "http://www.w3.org/Graphics/SVG/1.1/DTD/svg11.dtd">
<svg version="1.1" id="Layer_1" xmlns="http://www.w3.org/2000/svg" xmlns:xlink="http://www.w3.org/1999/xlink" x="0px" y="0px"
	 width="447.182px" height="512px" viewBox="0 0 447.182 512" enable-background="new 0 0 447.182 512" xml:space="preserve">
<g transform="translate(0.000000,512.000000) scale(0.100000,-0.100000)">
	<path fill="#FFFFFF" d="M970.908,5107.128c-16.001-8.008-232.998-218.008-482.002-467.002
		c-443.999-446.006-450.996-455-457.998-501.006c-16.001-106.992,76.001-198.994,182.998-182.998
		c46.001,7.002,55,15,354.004,312.998l307.998,306.006l2.002-2236.006l2.998-2237.002l21.001-26.992
		c38.999-53.008,71.001-69.004,133.999-69.004s95,15.996,133.999,69.004l21.001,26.992l2.998,2237.002l2.002,2236.006
		l307.998-306.006c299.004-297.998,308.003-305.996,354.004-312.998c107.002-15.996,198.994,76.006,182.998,182.998
		c-7.002,46.006-14.004,55-457.998,501.006c-258.003,257.998-466.001,458.994-484.004,467.002
		C1058.906,5124.121,1009.907,5124.121,970.908,5107.128z"/>
	<path fill="#FFFFFF" d="M3370.908,5107.128c-37.002-17.002-70-52.002-84.004-89.004c-7.998-20-10.996-700.996-10.996-2250V547.119
		l-307.002,306.006c-300,297.998-308.994,305.996-355,312.998c-107.002,15.996-198.994-75.996-182.998-182.998
		c5.996-46.006,14.004-54.004,467.998-509.004c406.006-405.996,467.002-462.998,500-467.998
		c92.002-17.002,72.998-32.002,574.004,467.998c453.994,455,462.002,462.998,467.998,509.004
		c15.996,107.002-75.996,198.994-182.998,182.998c-46.006-7.002-55-15-354.004-312.998l-307.998-306.006l-2.002,2236.006
		l-2.998,2237.002l-20.996,27.002c-11.006,15-32.002,36.992-46.006,46.992C3489.912,5119.121,3410.908,5126.123,3370.908,5107.128z"
		/>
</g>
</svg>
