<?xml version="1.0" encoding="utf-8"?>
<!-- Generator: Adobe Illustrator 16.0.0, SVG Export Plug-In . SVG Version: 6.00 Build 0)  -->
<!DOCTYPE svg PUBLIC "-//W3C//DTD SVG 1.1//EN" "http://www.w3.org/Graphics/SVG/1.1/DTD/svg11.dtd">
<svg version="1.1" id="Layer_1" xmlns="http://www.w3.org/2000/svg" xmlns:xlink="http://www.w3.org/1999/xlink" x="0px" y="0px"
	 width="512px" height="512px" viewBox="0 0 512 512" enable-background="new 0 0 512 512" xml:space="preserve">
<g transform="translate(0.000000,512.000000) scale(0.100000,-0.100000)">
	<path fill="#FFFFFF" d="M2245,4835C2001,4791,1772.998,4667.001,1602.001,4486C1198.999,4060,1172.998,3402.998,1541,2946
		c480-596.997,1398.003-576.997,1856.001,41.001C3567.001,3216,3650,3513.999,3620,3790c-30,283.999-142.002,520-340,720
		c-165.996,167.998-389.004,285-617.998,325C2560,4852.998,2342.001,4852.998,2245,4835z"/>
	<path fill="#FFFFFF" d="M3600,2499.004c-162.002-19.004-362.002-96.006-500.996-190c-81.006-55-198.008-166.006-260-248.008
		c-65-85.996-153.008-263.994-183.008-372.998c-68.994-240.996-50.996-510.996,48.008-740c140-323.994,407.998-552.002,762.998-650
		c67.002-17.998,105-22.002,262.998-22.002c170,0,192.998,2.002,285,27.002C4132.001,335,4272.998,400,4374.003,470
		c86.992,60,210.996,182.998,272.998,270.996c65.996,93.008,140,253.008,170,366.006c33.994,130,42.002,335.996,18.994,470
		c-78.994,453.994-436.992,822.002-882.998,907.002C3847.001,2504.004,3692.001,2510.996,3600,2499.004z M4240,1787.998
		c75-50.996,99.004-132.002,62.002-203.994c-12.002-22.002-145-163.008-304.004-321.006
		c-308.994-307.002-325-318.994-405.996-297.002c-56.006,15-399.004,248.008-422.002,287.002
		c-24.004,39.004-25.996,107.002-4.004,152.998c24.004,50,68.008,77.002,133.008,82.002c55.996,4.004,56.992,4.004,178.994-77.002
		c67.002-45,126.006-80.996,130-80.996c4.004,0,106.006,99.004,227.002,220.996c120.996,122.002,234.004,230,250,240
		C4127.001,1817.998,4197.998,1815.996,4240,1787.998z"/>
	<path fill="#FFFFFF" d="M2090,2309.004C1676,2272.998,1282.998,2170,965,2015c-165-80.996-296.001-167.998-402.998-269.004
		C425,1615.996,347.998,1502.002,298.999,1355C276,1287.998,275,1272.002,275,1015V745l27.002-57.002
		C336,615,400,550.996,476,514.004L535,485l1108.999-2.998L2752.998,480l-27.002,32.002
		c-228.994,282.002-337.998,593.994-322.998,927.998c13.003,302.002,120,577.998,310,802.002l55,65.996l-35.996,6.006
		C2679.003,2322.002,2202.998,2319.004,2090,2309.004z"/>
</g>
</svg>
