<svg width="33" height="32" viewBox="0 0 33 32" fill="none" xmlns="http://www.w3.org/2000/svg">
<path fill-rule="evenodd" clip-rule="evenodd" d="M30.3276 23.5536H2.67257C1.47444 23.5536 0.5 22.579 0.5 21.3809V2.2466C0.5 1.04847 1.47425 0.0742188 2.67257 0.0742188H30.3276C31.5257 0.0742188 32.5002 1.04847 32.5002 2.2466V21.3809C32.5002 22.579 31.5259 23.5536 30.3276 23.5536ZM17.988 20.9734H15.012C14.5254 20.9734 14.5254 20.2341 15.012 20.2341H17.988C18.4746 20.2341 18.4746 20.9734 17.988 20.9734ZM1.85544 17.9629H31.1446V2.2466C31.1446 1.79623 30.778 1.42947 30.3276 1.42947H2.67257C2.22219 1.42947 1.85544 1.79623 1.85544 2.2466V17.9629Z" fill="#B49164"/>
<path fill-rule="evenodd" clip-rule="evenodd" d="M22.74 28.0016H10.268C10.0434 28.0016 9.86976 27.8016 9.90239 27.5786L10.5973 22.8227C10.6241 22.641 10.7795 22.5063 10.9631 22.5063H13.607C13.5607 22.6205 13.5352 22.7452 13.5352 22.8761V25.548C13.5352 26.0919 13.977 26.5337 14.5209 26.5337H18.4824C19.0265 26.5337 19.4681 26.0919 19.4681 25.548V22.8761C19.4681 22.7454 19.4426 22.6207 19.3963 22.5065H22.0401C22.2236 22.5065 22.3791 22.641 22.4057 22.8228L23.1096 27.6321C23.1096 27.8361 22.9444 28.0016 22.74 28.0016Z" fill="#B49164"/>
<path fill-rule="evenodd" clip-rule="evenodd" d="M24.4608 31.9258H8.5362C7.50813 31.9258 6.67188 31.0892 6.67188 30.0611V29.1266C6.67188 28.0985 7.50813 27.2619 8.5362 27.2619L24.4606 27.2617C25.4887 27.2617 26.3251 28.0983 26.3251 29.1264V30.0609C26.3251 31.0894 25.4885 31.9256 24.4608 31.9256V31.9258Z" fill="#B49164"/>
<path fill-rule="evenodd" clip-rule="evenodd" d="M18.4795 25.9174H14.518C14.314 25.9174 14.1484 25.7516 14.1484 25.5478V22.8759C14.1484 22.6719 14.314 22.5063 14.518 22.5063H18.4795C18.6835 22.5063 18.8491 22.6721 18.8491 22.8759V25.5478C18.8491 25.7518 18.6835 25.9174 18.4795 25.9174Z" fill="#B49164"/>
<path fill-rule="evenodd" clip-rule="evenodd" d="M15.7773 8.89868H11.6588C11.4548 8.89868 11.2891 8.73312 11.2891 8.52893V5.70911C11.2891 5.50511 11.4546 5.33936 11.6588 5.33936H15.7773C15.9813 5.33936 16.1468 5.50492 16.1468 5.70911V8.52893C16.1468 8.73312 15.9813 8.89868 15.7773 8.89868Z" fill="#B49164"/>
<path fill-rule="evenodd" clip-rule="evenodd" d="M28.3286 6.75583H19.1107C18.2182 6.75583 18.2184 5.40039 19.1107 5.40039H28.3286C29.2209 5.40039 29.2211 6.75583 28.3286 6.75583ZM28.3286 8.83728H20.2875C19.395 8.83728 19.3952 7.48184 20.2875 7.48184H28.3286C29.2209 7.48184 29.2211 8.83728 28.3286 8.83728ZM28.3286 12.1272H19.1107C18.2182 12.1272 18.2184 10.7719 19.1107 10.7719H28.3286C29.2209 10.7719 29.2211 12.1272 28.3286 12.1272ZM28.3286 14.2084H20.2875C19.395 14.2084 19.3952 12.8532 20.2875 12.8532H28.3286C29.2209 12.8532 29.2211 14.2084 28.3286 14.2084Z" fill="#B49164"/>
<path fill-rule="evenodd" clip-rule="evenodd" d="M15.7773 14.2696H11.6588C11.4548 14.2696 11.2891 14.104 11.2891 13.9V11.08C11.2891 10.876 11.4546 10.7104 11.6588 10.7104H15.7773C15.9813 10.7104 16.1468 10.876 16.1468 11.08V13.8998C16.1468 14.1044 15.9813 14.2696 15.7773 14.2696Z" fill="#B49164"/>
<path fill-rule="evenodd" clip-rule="evenodd" d="M4.63911 14.5413C4.5163 14.5413 4.40211 14.481 4.33311 14.3795L2.9546 12.3496C2.83966 12.1807 2.88392 11.9506 3.05267 11.8363L4.95655 10.5433C4.61792 10.0449 4.19248 9.61364 4.36686 9.30726C4.43661 9.18482 4.5703 9.11414 4.71073 9.12107L8.98481 9.38339C9.22613 9.39801 9.3885 9.63764 9.31332 9.86733L7.98131 13.937C7.88625 14.2275 7.497 14.2843 7.32412 14.0298L6.7498 13.1846C6.44362 13.3925 4.87555 14.5412 4.63892 14.5412L4.63911 14.5413Z" fill="#B49164"/>
</svg>
