<?xml version="1.0" encoding="utf-8"?>
<!-- Generator: Adobe Illustrator 16.0.0, SVG Export Plug-In . SVG Version: 6.00 Build 0)  -->
<!DOCTYPE svg PUBLIC "-//W3C//DTD SVG 1.1//EN" "http://www.w3.org/Graphics/SVG/1.1/DTD/svg11.dtd">
<svg version="1.1" id="Layer_1" xmlns="http://www.w3.org/2000/svg" xmlns:xlink="http://www.w3.org/1999/xlink" x="0px" y="0px"
	 width="512px" height="512px" viewBox="0 0 512 512" enable-background="new 0 0 512 512" xml:space="preserve">
<g transform="translate(0.000000,512.000000) scale(0.100000,-0.100000)">
	<path fill="#44B147" d="M2315,5108.999C1515,5026,813.999,4591.001,387.998,3912.998c-603.999-960-490.996-2228.994,272.002-3065
		c422.998-462.998,951.001-740,1585-830c117.998-17.002,510.996-15.996,635,0c579.004,80,1097.002,337.002,1490.996,739.004
		c130,132.002,157.002,162.998,243.008,277.002C4870,1375,5037.001,1790.996,5102.001,2245c17.002,117.998,17.002,512.002,0,630
		C5059.003,3177.998,4980,3436.001,4855,3688.999c-134.004,268.003-270,458.999-482.998,673.999
		c-395,400-889.004,649.003-1457.002,733.002C2792.002,5113.999,2437.002,5122.001,2315,5108.999z M2950,4097.002
		C3845,3883.999,4352.998,2980,4065,2114.004c-74.004-224.004-192.002-411.006-370-590c-225-226.006-467.998-358.008-785-425
		c-87.002-19.004-137.002-23.008-290-23.008c-252.998-0.996-411.001,32.002-633.999,130C1931.001,1230,1878.999,1250,1870,1250
		c-7.998,0-190-47.002-405-104.004C1251.001,1090,1073.999,1044.004,1072.998,1045c-1.997,0.996,46.001,179.004,105,395
		l108.003,394.004L1238.999,1930c-106.001,215-152.998,420-152.998,670c1.001,427.998,151.997,791.001,453.999,1090
		c237.002,235,537.002,381.001,885,433.999c17.002,2.002,117.998,3.003,225,1.001
		C2815.996,4122.002,2860.996,4117.998,2950,4097.002z"/>
	<path fill="#44B147" d="M2505,3867.998c-490-35-937.998-385-1095-855.996C1360,2860,1346.001,2770,1346.001,2600
		c0-259.004,48.999-432.002,195-685.996l22.998-42.002L1502.002,1645c-34.004-125-61.001-230-58.003-232.002
		c2.002-2.002,108.003,24.004,236.001,57.002l232.998,62.002l121.001-61.006C2232.998,1372.002,2406.001,1330,2620.996,1330
		c537.002,0,1028.008,354.004,1198.008,865.996c50.996,155,63.994,234.004,63.994,404.004c0,122.002-5,177.002-22.002,260
		C3752.002,3371.001,3350,3762.998,2840,3853.999C2730.996,3872.998,2630,3877.002,2505,3867.998z M2202.002,3287.002
		c31.997-36.001,160.996-355,153.999-382.002c-3.003-12.002-33.003-57.002-66.001-101.001c-32.998-42.998-60-85-60-93.999
		c0-18.999,80-137.998,142.002-210.996c66.997-79.004,193.994-175,300.996-230c135-67.002,142.002-67.002,219.004,27.998
		c95.996,117.002,105,125,130.996,117.998c30-9.004,316.006-142.998,346.006-162.002c21.992-13.994,22.998-20,17.998-82.002
		c-2.998-36.992-12.998-85.996-22.002-108.994c-20.996-52.002-97.002-122.002-172.998-159.004
		C3139.004,1877.002,3125.996,1875,3015,1875s-127.002,2.998-215,34.004c-145,51.992-235,95-343.999,167.998
		c-210,140-458.999,420.996-561.001,633.999c-43.999,92.998-57.998,162.998-52.998,268.999c5,98.999,30,163.999,95.996,246.001
		c54.004,66.001,90,82.998,175,83.999C2172.002,3310,2183.999,3307.002,2202.002,3287.002z"/>
</g>
</svg>
