<?xml version="1.0" encoding="utf-8"?>
<!-- Generator: Adobe Illustrator 16.0.0, SVG Export Plug-In . SVG Version: 6.00 Build 0)  -->
<!DOCTYPE svg PUBLIC "-//W3C//DTD SVG 1.1//EN" "http://www.w3.org/Graphics/SVG/1.1/DTD/svg11.dtd">
<svg version="1.1" id="Layer_1" xmlns="http://www.w3.org/2000/svg" xmlns:xlink="http://www.w3.org/1999/xlink" x="0px" y="0px"
	 width="512px" height="512px" viewBox="0 0 512 512" enable-background="new 0 0 512 512" xml:space="preserve">
<g transform="translate(0.000000,512.000000) scale(0.100000,-0.100000)">
	<path fill="#CEA241" d="M2240,5105c-462.002-60-856.001-222.002-1240-508.999C877.998,4505,615,4242.001,523.999,4120
		C237.002,3736,71.001,3331,15,2880c-20-162.998-20-477.001,0-640C142.002,1209.004,906,337.998,1907.998,79.004
		c215-55,337.002-71.006,593.003-76.006c343.003-7.002,571.997,25,866.997,122.998C4240,415,4892.001,1152.998,5075,2055
		c47.002,230,59.004,583.999,30,825C4960.996,4037.001,4037.001,4961,2880,5105C2730,5122.998,2378.999,5122.998,2240,5105z
		 M2742.001,4865c353.994-20,773.994-163.999,1085-371.001c537.998-360,898.994-906.997,1013.994-1541.997
		c27.002-148.003,37.002-489.003,19.004-642.998c-60-528.008-297.998-1017.002-677.002-1391.006
		c-373.994-370-840.996-595-1367.998-657.998c-117.002-15-395-14.004-515,0C1531,352.002,860,817.002,505,1504.004
		C395,1715.996,322.001,1930,277.998,2172.998C257.998,2280,255,2327.998,255,2560c0,297.998,12.998,396,81.001,632.001
		C607.001,4136,1447.998,4812.001,2425,4870c66.001,3.999,142.998,5,170,3.999C2622.998,4872.001,2689.003,4867.998,2742.001,4865z"
		/>
	<path fill="#CEA241" d="M2285,3653.999C2001,3616,1692.998,3500,1458.999,3343.999c-101.001-67.998-165-118.999-280-223.999
		C1092.001,3040,1060,2993.999,1060,2945C1060,2861,1161,2793.999,1232.998,2831c12.002,6.997,56.001,43.999,97.002,82.998
		c258.999,248.003,547.998,402.002,900,478.003C2321,3411,2365,3413.999,2555,3415c194.004,0,234.004-2.998,335-23.999
		c344.004-71.001,640-228.003,900-477.002c40.996-38.999,85-76.001,97.002-82.998C3959.003,2793.999,4060,2861,4060,2945
		c0,15-7.002,42.998-15.996,62.002c-16.006,32.998-132.002,145-244.004,235.996c-264.004,214.004-625,366.001-972.998,412.002
		C2684.003,3672.998,2422.998,3672.998,2285,3653.999z"/>
	<path fill="#CEA241" d="M2450,3078.999c-172.998-11.997-342.002-56.997-506.001-135c-146.001-68.999-336.997-212.998-426.001-321
		c-32.998-38.999-37.998-51.997-37.998-95c0-43.994,3.999-53.994,33.999-83.994s40-34.004,85-34.004
		c50,0,53.003,2.002,138.999,80.996C1932.001,2672.998,2120,2771,2358.999,2816c111.001,21.997,291.001,21.001,403.003,0
		c240-46.001,425-142.001,620-325.004c85.996-78.994,88.994-80.996,138.994-80.996c45,0,55,4.004,85,34.004s34.004,40,34.004,83.994
		c0,43.003-5,56.001-37.002,95c-90.996,109.004-280.996,252.001-430,323.002C2949.003,3052.001,2702.998,3097.001,2450,3078.999z"/>
	<path fill="#CEA241" d="M2435,2490c-163.999-25.996-311.001-100-437.002-219.004c-66.997-62.998-90-91.992-97.998-122.998
		c-21.001-75.996,23.999-145,98.999-155c55-7.002,93.003,10,136.001,62.002c48.999,60.996,167.002,137.002,256.001,165.996
		c102.998,33.008,233.999,34.004,336.997,0c90-28.994,177.998-85,246.006-155c60.996-63.994,81.992-75.996,135-75.996
		c77.998,0,132.998,77.998,110.996,157.998c-7.998,31.006-30.996,60-100.996,126.006c-75,71.992-108.008,95-192.002,135
		c-56.006,26.992-132.002,56.992-169.004,65.996C2675,2495,2515,2502.002,2435,2490z"/>
	<path fill="#CEA241" d="M2482.001,1897.002c-50-16.006-118.003-81.006-137.002-132.002c-26.001-65-17.002-150,21.001-210.996
		c85-138.008,303.003-138.008,388.003,0C2815,1650.996,2797.998,1775,2715,1847.998
		C2649.003,1905.996,2565,1924.004,2482.001,1897.002z"/>
</g>
</svg>
